<?xml version="1.0" encoding="utf-8"?>
<!-- Generator: Adobe Illustrator 24.2.1, SVG Export Plug-In . SVG Version: 6.00 Build 0)  -->
<svg version="1.1" id="Layer_1" xmlns="http://www.w3.org/2000/svg" xmlns:xlink="http://www.w3.org/1999/xlink" x="0px" y="0px"
	 viewBox="0 0 118.83 30.31" style="enable-background:new 0 0 118.83 30.31;" xml:space="preserve">
<style type="text/css">
	.st0{fill:#FFFFFF;}
</style>
<g>
	<path class="st0" d="M4.4,12.45c0.95,0,1.9,0,2.8,0c0.45,0,1,0,1.2,0.45c0.3,0.75,0.9,0.55,1.45,0.65c0.9,0.1,1.35-0.15,1.2-1.15
		c-0.1-1.1,0.4-1.65,1.55-1.6c0.4,0,1.2,0.3,1.2-0.35c0.05-0.7,0.55-1.6-0.45-2.1C12.85,8.1,12.8,7.6,12.8,7.1c0-1.9,0-3.8,0-5.7
		c0-0.95,0.4-1.4,1.35-1.4c1.9,0,3.85,0,5.75,0c1.05,0,1.45,0.5,1.4,1.5c0,1.4,0,2.85,0,4.25c0.05,2.2,1.45,3.55,3.65,3.55
		c1.45,0,2.85,0.05,4.3,0c0.95,0,1.4,0.45,1.45,1.35c0,1.9,0,3.8,0,5.7c0,1.05-0.55,1.5-1.6,1.45c-0.4,0-1.15-0.35-1.2,0.4
		c-0.05,0.65-0.4,1.5,0.3,1.95c0.75,0.5,0.8,1.1,0.8,1.8c0,1.7-0.05,3.35,0,5.05c0.05,1.2-0.55,1.7-1.7,1.65c-1.8,0-3.55,0-5.35,0
		c-0.5,0-1.05-0.05-1.3-0.5c-0.55-1.05-1.5-0.55-2.25-0.55c-0.6,0-0.4,0.6-0.4,0.95c0.15,1.4-0.55,1.8-1.85,1.75
		c-1.7-0.05-3.4-0.05-5.1,0c-1.25,0.05-1.7-0.5-1.65-1.65c0.05-1.35,0.05-2.75,0-4.15c-0.05-2-1.55-3.5-3.6-3.5
		c-1.45,0-2.85-0.05-4.3,0c-1,0.05-1.5-0.4-1.5-1.4c0-1.9,0-3.8,0-5.7c0-0.9,0.4-1.4,1.4-1.35C2.4,12.45,3.4,12.45,4.4,12.45z
		 M19.55,14.4c0,0.6,0,1.25,0,1.85c0,2.35,1.45,3.8,3.8,3.8c1,0,1.95-0.05,2.95,0s0.9-0.6,0.9-1.2c0-0.65,0.1-1.3-0.9-1.2
		c-0.9,0.05-1.8,0-2.65,0c-1.1,0.05-1.55-0.45-1.55-1.5c0-1.45,0.05-2.9,0-4.4c-0.05-1.75-1.5-3.3-3.15-3.4c-1.25-0.05-2.5,0-3.75,0
		c-0.55,0-0.75,0.15-0.8,0.75c-0.1,1.1,0,1.75,1.5,1.7C20.05,10.75,19.5,10.35,19.55,14.4z M20.35,24.2c0-0.3-0.05-0.65,0-0.95
		c0.4-2.2-1.75-4.35-4-4.05c-1.15,0.15-2.3,0.05-3.45,0.05c-1.7,0-1.9-0.2-1.9-1.95c0-0.8,0-1.6,0-2.4c0-0.3,0.05-0.6-0.35-0.75
		c-1.15-0.5-2.05,0.1-2.05,1.35c0,0.9,0,1.75,0,2.65c0,2.05,1.5,3.5,3.55,3.5c1.45,0,2.85,0.05,4.3,0c1.05-0.05,1.6,0.4,1.55,1.5
		c-0.05,0.95,0,1.85,0,2.8c0,0.3-0.1,0.7,0.4,0.85c1.3,0.4,2-0.05,2-1.4C20.35,25,20.35,24.6,20.35,24.2z"/>
	<path class="st0" d="M53.86,21.6c-2.3-1.7-3-3.8-2-5.85c1-2,3.65-3,6.25-2.35c0.85,0.2,1.5,0.45,2.2-0.4
		c0.6-0.7,0.95,0.35,1.45,0.65s0.1,0.6-0.2,0.75c-0.6,0.35-0.6,0.7-0.35,1.3c1.25,3.05-0.35,5.7-3.6,6.3c-1,0.2-2.05,0.05-3.05,0.4
		c-0.3,0.1-0.7,0.15-0.65,0.55c0.05,0.4,0.45,0.4,0.75,0.35c0.75,0,1.5-0.1,2.25-0.2c1.15-0.15,2.3-0.2,3.45,0.25
		c2.2,0.85,2.75,3.55,0.95,5.05c-2.45,2.1-6.7,1.7-9.25,0.3c-0.5-0.3-0.3-0.6,0-0.85c0.45-0.35,0.45-1.45,1.45-0.9
		c1.2,0.7,2.45,1,3.85,0.9c0.35-0.05,0.7-0.05,1.05-0.15c0.75-0.25,1.65-0.55,1.55-1.55c-0.1-1.1-1.05-1.25-1.9-1.25
		s-1.7,0.2-2.5,0.25c-0.55,0.05-1.05,0.05-1.6,0c-0.95-0.05-1.75-0.4-1.95-1.45c-0.2-1.05,0.5-1.5,1.3-1.9
		C53.51,21.8,53.65,21.7,53.86,21.6z M56.65,20.4c1.5,0,2.6-1.2,2.55-2.8c-0.05-1.5-1.15-2.55-2.65-2.55s-2.65,1.1-2.65,2.55
		C53.9,19.2,55.11,20.4,56.65,20.4z"/>
	<path class="st0" d="M50.45,25.25c-1.3,0.35-1.7-0.3-2-1.25c-0.75-2.3-0.8-2.25-3.15-2.25c-0.35,0-0.7,0.05-1.05,0
		c-2.4-0.4-4.1,0.15-4.55,2.85c-0.1,0.65-2.35,1.15-2.9,0.7c-0.3-0.25-0.1-0.5,0-0.7c2.35-5.3,4.7-10.6,7.05-15.9
		C44,8.4,44.1,8.1,44.5,8.15s0.45,0.35,0.6,0.65c2.15,5.25,4.35,10.45,6.45,15.7C52.15,26.05,50.65,24.95,50.45,25.25z M44.3,12.75
		c-0.9,2.35-1.7,4.45-2.55,6.55c-0.2,0.55-0.1,0.7,0.45,0.7c1.3,0,2.6,0,3.9,0c0.5,0,0.75-0.05,0.55-0.65
		C45.9,17.25,45.15,15.15,44.3,12.75z"/>
	<path class="st0" d="M71.66,17.85c-1.1,2.3-2.15,4.55-3.25,6.8c-0.15,0.35-0.2,0.85-0.75,0.8c-0.55,0-0.55-0.5-0.7-0.85
		c-1.4-3.55-2.75-7.1-4.1-10.65c-0.05-0.1-0.05-0.25-0.05-0.4c2.35-0.35,2.35-0.35,3.1,1.7c0.65,1.85,1.3,3.65,2.05,5.8
		c1.05-2.3,1.95-4.35,2.9-6.45c0.2-0.4,0.2-1.1,0.8-1.1c0.7-0.05,0.7,0.7,0.95,1.15c0.95,2,1.9,4.05,3,6.4
		c0.85-2.15,1.55-3.95,2.25-5.8c0.75-1.9,0.75-1.9,3-1.65c-0.75,1.95-1.5,3.9-2.25,5.8c-0.7,1.8-1.35,3.55-2.05,5.35
		c-0.15,0.35-0.15,0.85-0.75,0.8c-0.45-0.05-0.5-0.45-0.65-0.75c-0.9-1.9-1.8-3.75-2.7-5.65C72.31,18.7,72.26,18.25,71.66,17.85z"/>
	<path class="st0" d="M118.76,16.95c0,2.35,0,4.7,0,7.05c0,0.45,0.3,1.1-0.35,1.25c-0.6,0.15-1.5,0.35-1.9-0.15
		c-0.4-0.5-0.6-0.3-0.95-0.15c-3.5,1.4-6.85,0-7.85-3.2c-1.15-3.75,0.95-7.75,4.55-8.45c1.05-0.2,2.15-0.2,3.15,0.2
		c0.9,0.35,0.95,0,0.95-0.7c-0.05-1.1,0.05-2.2,0-3.35c-0.05-1.05,0.65-0.85,1.25-0.85c0.65,0,1.25-0.15,1.2,0.9
		C118.76,12,118.76,14.5,118.76,16.95z M116.36,19.45c0-0.65,0-1.35,0-2c0-1.65-0.85-2.45-2.55-2.35c-2.45,0.1-4.2,2.4-3.85,5.1
		c0.3,2.55,2.3,3.95,4.85,3.4c1-0.2,1.7-0.65,1.55-1.9C116.26,20.95,116.36,20.2,116.36,19.45z"/>
	<path class="st0" d="M86.56,25.5c-3.75,0-5.9-2.2-5.95-5.95c-0.05-3.85,2.2-6.25,5.8-6.3c3.8,0,6,2.2,6,6.05
		C92.51,23.15,90.26,25.5,86.56,25.5z M89.91,19c0-0.25-0.05-0.85-0.15-1.45c-0.4-1.65-1.55-2.55-3.3-2.5c-1.8,0.05-3,1.3-3.3,3.55
		c-0.35,2.5,0.6,4.55,2.3,5c0.15,0.05,0.35,0.05,0.55,0.1C88.46,23.95,89.86,22.4,89.91,19z"/>
	<path class="st0" d="M102.21,15.85c0-2.1,0.05-4.15,0-6.25c-0.05-1,0.5-1.05,1.2-1.05c0.75,0,1.25,0,1.2,1
		c-0.05,3.8,0,7.65-0.05,11.45c0,1.25,0.35,2.2,1.65,2.5c1,0.25,0.5,1,0.55,1.5c0.05,0.6-0.5,0.45-0.9,0.45
		c-2.45-0.1-3.7-1.35-3.7-3.75C102.21,19.75,102.21,17.8,102.21,15.85z"/>
	<path class="st0" d="M96.26,14.75c1.25-1.25,2.7-1.7,4.35-1.5c0.35,0.05,1.15-0.15,0.85,0.6c-0.2,0.55-0.15,1.55-1.2,1.45
		c-2.85-0.3-4.1,0.8-4.1,3.7c0,1.75-0.05,3.55,0,5.3c0.05,1-0.45,1.05-1.2,1.05c-0.85,0.05-1.3-0.15-1.25-1.15
		c0.05-3.15,0-6.3,0.05-9.45c0-0.6-0.3-1.45,0.85-1.3C95.46,13.55,96.51,13.15,96.26,14.75z"/>
</g>
</svg>
