<svg width="138" height="117" viewBox="0 0 138 117" fill="none" xmlns="http://www.w3.org/2000/svg">
<path d="M43.9556 66.7388C31.3338 66.7388 21.0068 56.4118 21.0068 43.79C21.0068 31.1681 31.3338 20.8412 43.9556 20.8412C56.5775 20.8412 66.9044 31.1681 66.9044 43.79C66.9044 56.4118 56.6657 66.7388 43.9556 66.7388ZM43.9556 22.2534C32.0399 22.2534 22.4191 31.8743 22.4191 43.79C22.4191 55.7057 32.1282 65.3265 43.9556 65.3265C55.7831 65.3265 65.4922 55.6174 65.4922 43.79C65.4922 31.9625 55.8714 22.2534 43.9556 22.2534Z" fill="url(#paint0_linear)" stroke="url(#paint1_linear)" stroke-width="2" stroke-miterlimit="10"/>
<path d="M12.7101 75.3005C13.7693 72.123 16.5055 69.7398 13.5927 65.6797C10.5918 61.443 7.50249 63.5613 4.06017 63.2965C2.7362 59.3246 1.41223 55.2644 0 51.0277C2.64794 48.9976 6.44332 48.7329 6.35505 43.7018C6.35505 38.759 2.82447 38.4059 0 36.4641C1.32397 32.4039 2.64794 28.3437 4.06017 24.107C7.32596 23.754 10.5918 25.9606 13.5927 21.8121C16.5055 17.6637 13.681 15.3688 12.7101 12.1913C16.2407 9.63163 19.7713 7.07196 23.3901 4.51228C24.008 5.04187 24.6258 5.39493 24.9789 6.01278C27.0972 8.92552 29.4804 9.36684 32.9227 7.9546C35.2176 6.98369 36.4533 6.18931 36.7181 3.54137C37.0711 0.0107901 37.3359 0.0107901 41.1313 0.0107901C43.691 0.0107901 46.2507 0.0990547 48.8103 0.0107901C50.1343 -0.0774745 50.9287 0.363848 50.9287 1.77608C50.8404 5.92452 53.047 7.86634 57.0189 8.66072C58.8725 9.01378 60.1965 9.19031 61.4322 7.60155C62.3148 6.54237 63.374 5.65972 64.5214 4.60055C68.1403 7.16022 71.5826 9.7199 75.2014 12.2796C74.4071 15.4571 71.4061 17.752 74.3188 21.9004C77.3198 26.1371 80.4973 23.9305 83.8514 24.2836C85.1753 28.3437 86.4993 32.3156 87.9115 36.6406C86.3228 37.5232 84.734 38.2294 83.3218 39.2003C82.6157 39.7299 81.9096 40.789 81.9096 41.6717C81.8213 43.79 81.5565 46.3497 82.5274 47.9385C83.4983 49.439 85.9697 50.0568 87.9998 51.116C86.7641 54.9996 85.5284 58.7067 84.2044 62.4139C84.0279 62.9434 82.7039 63.5613 82.1743 63.3848C77.9376 61.8843 75.6428 63.9144 73.6127 67.2684C72.73 68.6806 72.377 69.7398 73.3479 71.2403C74.1423 72.476 74.6719 73.8883 75.378 75.3888C71.8474 77.9484 68.3168 80.5081 64.6097 83.156C63.2857 81.9203 61.9618 80.7729 60.7261 79.5372C59.8434 78.5663 58.9608 78.3898 57.9016 78.9193C57.8133 78.9193 57.7251 79.0076 57.6368 79.0076C53.4884 79.7137 50.6639 81.479 50.8404 86.2453C50.8404 86.6866 49.693 87.5693 49.0751 87.6575C45.7211 87.8341 42.367 87.6575 39.1012 87.7458C37.689 87.7458 37.0711 87.2162 37.0711 85.8923C37.1594 82.0086 35.3058 79.9785 31.4222 79.1841C29.3038 78.7428 27.8034 78.5663 26.3911 80.3316C25.5967 81.3908 24.5376 82.1851 23.4784 83.0678C19.7713 80.3316 16.2407 77.8602 12.7101 75.3005ZM84.4692 52.0869C78.9086 51.2925 78.732 47.6737 78.732 43.2604C78.732 39.4651 79.4381 36.8171 83.3218 35.758C83.6749 35.6697 83.9396 35.3166 84.2927 35.0518C83.6749 33.11 82.9687 31.1682 82.4391 29.2264C82.0861 27.7259 81.2917 26.9315 79.8795 27.5493C76.4371 28.7851 74.3188 27.2846 72.8183 24.3718C72.6418 23.9305 72.2887 23.5774 72.0239 23.2244C69.0229 20.4882 68.5816 17.4872 71.2295 14.1331C71.4061 13.9566 71.4061 13.6035 71.4943 13.1622C69.9056 12.0148 68.3168 10.8673 66.728 9.7199C66.1102 9.27857 65.4923 8.83725 64.8745 8.39593C63.1975 9.80816 61.7852 11.9265 60.0199 12.2796C58.0781 12.6326 55.9598 11.0439 53.8414 10.6025C50.4874 9.98469 48.369 8.48419 48.4573 4.68881C48.4573 4.15923 47.4864 3.10005 46.8685 3.01179C44.5736 2.83526 42.2787 2.92352 39.5425 2.92352C39.8073 7.51328 37.7773 9.7199 33.2758 10.9556C29.1273 12.1913 26.1263 12.4561 23.5667 8.66072C23.4784 8.48419 23.2136 8.48419 22.9488 8.30766C20.7422 9.89643 18.5356 11.4852 16.0642 13.2505C20.0361 17.2224 18.006 20.3999 15.2698 23.9305C13.2397 26.5784 11.4744 28.6085 7.76729 27.3728C7.2377 27.1963 6.00199 27.7259 5.82546 28.1672C4.94282 30.3738 4.32497 32.6687 3.44232 35.3166C8.4734 36.111 9.09125 39.2885 9.17952 43.7018C9.26778 48.2915 8.03208 51.0277 3.44232 52.0869C4.14844 54.3818 4.85455 56.2353 5.38414 58.1772C5.82546 59.7659 6.61985 60.472 8.20861 59.9425C11.3861 58.795 13.5045 60.0307 14.9167 62.9435C15.1815 63.3848 15.5346 63.9144 15.8876 64.2674C18.8004 67.0036 19.5065 70.0046 16.7703 73.3587C16.5937 73.5352 16.5937 73.8883 16.4172 74.3296C18.7121 75.9183 20.9187 77.5954 23.3901 79.3607C25.9498 74.2413 29.7452 74.9474 33.8053 76.801C34.9528 77.3306 36.1885 77.5071 37.3359 78.0367C37.9538 78.3015 38.5716 78.9193 38.7482 79.5372C39.2778 81.126 39.1895 83.4208 40.2487 84.2152C41.3961 85.0096 43.5145 84.48 45.1915 84.5683C45.4563 84.5683 45.6328 84.5683 45.8976 84.5683C47.6629 84.8331 48.6338 84.127 48.5455 82.3617C48.4573 79.1841 50.046 77.5954 53.1353 77.1541C53.6649 77.0658 54.1945 76.8893 54.7241 76.6245C58.4312 74.5944 61.697 74.7709 64.2566 78.5663C64.3449 78.7428 64.6097 78.8311 64.9628 79.0959C67.1694 77.5071 69.376 75.9184 71.9357 74.0648C67.6107 69.9164 69.9056 66.5623 72.9066 63.2082C73.6127 62.4139 74.1423 61.3547 74.8484 60.6486C75.378 60.119 76.1724 59.6777 76.9667 59.6777C78.6438 59.5894 80.7621 60.472 81.8213 59.6777C82.9687 58.8833 83.057 56.6767 83.5866 54.9996C83.8514 54.2053 84.0279 53.4109 84.4692 52.0869Z" fill="url(#paint2_linear)"/>
<path d="M102.652 101.074C94.0016 99.2202 88.4409 90.5703 90.2945 81.9203C92.148 73.2704 100.798 67.7097 109.448 69.5633C118.098 71.4168 123.658 80.0668 121.805 88.7167C119.951 97.3666 111.301 102.927 102.652 101.074ZM109.271 70.5342C101.151 68.7689 93.0307 73.9765 91.2654 82.0968C89.5001 90.2172 94.7077 98.3375 102.828 100.103C110.948 101.868 119.069 96.6605 120.834 88.5402C122.599 80.4198 117.392 72.2995 109.271 70.5342Z" fill="url(#paint3_linear)" stroke="url(#paint4_linear)" stroke-width="2" stroke-miterlimit="10"/>
<path d="M79.8796 102.221C81.027 100.191 83.3219 99.0437 81.9097 95.778C80.4975 92.5122 78.026 93.4831 75.7312 92.777C75.3781 89.8642 75.1133 86.8632 74.7603 83.774C76.8786 82.8031 79.5265 83.1561 80.2327 79.7138C80.9388 76.2715 78.5556 75.5654 76.9669 73.8001C78.4674 71.2404 80.0561 68.5925 81.5566 65.9445C83.8515 66.2093 85.7933 68.1511 88.4413 65.768C91.0892 63.3848 89.5004 61.3548 89.2357 59.0599C92.0601 57.8242 94.8846 56.5885 97.7091 55.441C98.0621 55.8824 98.4152 56.2354 98.5917 56.6767C99.6509 58.9716 101.24 59.6777 103.711 59.2364C105.388 58.9716 106.359 58.5303 106.977 56.765C107.771 54.2936 107.948 54.3819 110.596 54.9114C112.361 55.2645 114.126 55.7058 115.892 56.0589C116.774 56.2354 117.304 56.5885 117.039 57.5594C116.333 60.3838 117.569 62.0609 120.128 63.2083C121.364 63.7379 122.247 64.0027 123.306 63.1201C124.1 62.5022 124.983 62.0609 125.865 61.5313C127.984 63.8262 130.014 66.121 132.044 68.4159C130.985 70.446 128.602 71.5935 130.014 74.8592C131.426 78.2133 133.986 77.1541 136.192 77.9485C136.545 80.8612 136.81 83.8622 137.163 87.0398C135.928 87.3928 134.692 87.6576 133.633 88.0989C133.103 88.3637 132.397 88.9816 132.309 89.5994C131.956 91.0117 131.338 92.6887 131.779 93.9244C132.221 95.1601 133.809 95.8662 135.045 96.9254C133.633 99.3968 132.221 101.78 130.72 104.075C130.543 104.428 129.484 104.604 129.131 104.428C126.483 102.751 124.541 103.81 122.688 105.84C121.894 106.723 121.541 107.341 121.894 108.488C122.247 109.459 122.423 110.518 122.688 111.666C119.863 112.901 117.127 114.137 114.126 115.373C113.42 114.314 112.626 113.343 112.008 112.283C111.567 111.489 110.949 111.224 110.154 111.489C110.066 111.489 110.066 111.489 109.978 111.489C107.065 111.313 104.77 112.107 104.241 115.461C104.152 115.814 103.27 116.255 102.828 116.167C100.534 115.726 98.2386 115.196 95.9438 114.755C94.9728 114.578 94.6198 114.137 94.7963 113.166C95.4142 110.518 94.4433 108.841 91.8836 107.694C90.4714 107.076 89.5004 106.723 88.2647 107.782C87.5586 108.4 86.676 108.753 85.8816 109.282C83.9398 106.811 81.9097 104.516 79.8796 102.221ZM132.574 97.0137C128.866 95.6897 129.308 93.13 130.014 90.129C130.543 87.5693 131.426 85.8041 134.251 85.7158C134.515 85.7158 134.78 85.5393 135.045 85.3627C134.868 83.9505 134.692 82.5383 134.692 81.126C134.692 80.0669 134.251 79.449 133.191 79.5373C130.632 79.8903 129.396 78.5664 128.866 76.2715C128.778 75.9184 128.69 75.6536 128.513 75.3888C126.925 73.0057 127.013 70.8873 129.308 69.0338C129.484 68.9455 129.484 68.6807 129.661 68.4159C128.69 67.3568 127.807 66.3858 126.925 65.3267C126.572 64.8853 126.219 64.5323 125.865 64.1792C124.541 64.8853 123.218 66.121 121.982 66.121C120.658 66.0328 119.422 64.7088 118.01 64.091C115.803 63.1201 114.568 61.7961 115.185 59.2364C115.274 58.8833 114.744 58.0007 114.391 57.8242C112.802 57.3829 111.214 57.1181 109.36 56.6767C108.83 59.8543 107.153 61.09 103.888 61.2665C100.887 61.443 98.7682 61.1782 97.5325 58.2655C97.4443 58.1772 97.2677 58.089 97.1795 57.9124C95.4142 58.7068 93.7371 59.4129 91.7071 60.2956C93.8254 63.6496 91.9719 65.5032 89.5887 67.5333C87.7352 69.0338 86.2347 70.1812 83.9398 68.769C83.5867 68.5925 82.7041 68.6807 82.4393 69.0338C81.4684 70.446 80.674 71.8582 79.7031 73.5353C83.0571 74.8592 82.9689 77.1541 82.4393 80.1551C81.8214 83.3326 80.5857 85.0097 77.2317 85.0097C77.4082 86.6867 77.5847 88.0989 77.673 89.5112C77.673 90.6586 78.2026 91.2765 79.35 91.0999C81.7332 90.8351 82.9689 91.9826 83.4985 94.1892C83.5867 94.5422 83.7632 94.8953 83.9398 95.2484C85.5285 97.5432 85.5285 99.7499 83.2337 101.603C83.0571 101.692 82.9689 101.956 82.8806 102.221C84.2046 103.634 85.4403 105.134 86.9408 106.723C89.5004 103.634 91.9719 104.604 94.4433 106.546C95.1494 107.076 95.9438 107.341 96.6499 107.87C97.0029 108.135 97.356 108.665 97.4443 109.106C97.6208 110.253 97.1795 111.842 97.7973 112.548C98.4152 113.254 100.004 113.254 101.151 113.519C101.328 113.519 101.504 113.607 101.593 113.607C102.74 114.049 103.535 113.696 103.711 112.46C104.152 110.253 105.476 109.371 107.595 109.635C107.948 109.635 108.389 109.635 108.742 109.547C111.567 108.753 113.773 109.371 115.009 112.283C115.097 112.46 115.185 112.548 115.362 112.725C117.127 111.93 118.893 111.224 120.923 110.342C118.54 106.811 120.658 104.869 123.218 103.016C123.835 102.574 124.277 101.956 124.983 101.515C125.424 101.25 126.042 101.074 126.572 101.162C127.719 101.339 129.043 102.221 129.926 101.868C130.808 101.515 131.25 100.015 131.867 98.9555C131.779 98.4259 132.044 97.8963 132.574 97.0137Z" fill="url(#paint5_linear)" stroke="url(#paint6_linear)" stroke-miterlimit="10"/>
<defs>
<linearGradient id="paint0_linear" x1="43.9556" y1="20.8412" x2="43.9556" y2="66.7388" gradientUnits="userSpaceOnUse">
<stop stop-color="#F16122"/>
<stop offset="1" stop-color="#FEBD33"/>
</linearGradient>
<linearGradient id="paint1_linear" x1="43.9556" y1="20.8412" x2="43.9556" y2="66.7388" gradientUnits="userSpaceOnUse">
<stop stop-color="#F16122"/>
<stop offset="1" stop-color="#FEBD33"/>
</linearGradient>
<linearGradient id="paint2_linear" x1="43.9999" y1="0" x2="43.9999" y2="87.7458" gradientUnits="userSpaceOnUse">
<stop stop-color="#F16122"/>
<stop offset="1" stop-color="#FEBD33"/>
</linearGradient>
<linearGradient id="paint3_linear" x1="106.05" y1="69.2068" x2="106.05" y2="101.43" gradientUnits="userSpaceOnUse">
<stop stop-color="#F16122"/>
<stop offset="1" stop-color="#FEBD33"/>
</linearGradient>
<linearGradient id="paint4_linear" x1="106.05" y1="69.2068" x2="106.05" y2="101.43" gradientUnits="userSpaceOnUse">
<stop stop-color="#F16122"/>
<stop offset="1" stop-color="#FEBD33"/>
</linearGradient>
<linearGradient id="paint5_linear" x1="105.962" y1="54.6074" x2="105.962" y2="116.179" gradientUnits="userSpaceOnUse">
<stop stop-color="#F16122"/>
<stop offset="1" stop-color="#FEBD33"/>
</linearGradient>
<linearGradient id="paint6_linear" x1="105.962" y1="54.6074" x2="105.962" y2="116.179" gradientUnits="userSpaceOnUse">
<stop stop-color="#F16122"/>
<stop offset="1" stop-color="#FEBD33"/>
</linearGradient>
</defs>
</svg>
