<?xml version="1.0" encoding="utf-8"?>
<!-- Generator: Adobe Illustrator 24.1.0, SVG Export Plug-In . SVG Version: 6.00 Build 0)  -->
<svg version="1.1" id="Layer_1" xmlns="http://www.w3.org/2000/svg" xmlns:xlink="http://www.w3.org/1999/xlink" x="0px" y="0px"
	 viewBox="0 0 519.4 142.6" style="enable-background:new 0 0 519.4 142.6;" xml:space="preserve">
<style type="text/css">
	.st0{display:none;fill:#E5E5E5;}
	.st1{fill:#FFFFFF;}
	.st2{fill:#FF9900;}
</style>
<rect x="-0.5" class="st0" width="520" height="144.7"/>
<g>
	<path class="st1" d="M179,69.9c2,1.3,5.2,2.4,9.1,3.2c3.9,1.1,8,1.3,12.2,1.3c4.1,0,7.8-0.6,11.1-1.5c3.3-1.1,6.3-2.6,8.9-4.4
		c2.4-1.9,4.5-4.1,5.8-7c1.3-2.8,2-5.7,2-9.3c0-4.1-1.3-7.8-3.7-11.1c-2.4-3.2-6.5-5.7-12.2-7.6l-11.1-3.7c-4.1-1.3-7.2-2.8-8.9-4.4
		c-1.5-1.5-2.4-3.3-2.4-5.7c0-3.2,1.3-5.7,3.7-7c2.6-1.5,5.9-2.4,10.6-2.4c5.8,0,10.6,1.1,15.4,3.2c1.3,0.6,2.4,1.1,3.2,1.1
		c1.3,0,1.9-0.7,1.9-2.6V8.5c0-1.1-0.2-2-0.7-2.6c-0.6-0.7-1.3-1.5-2.4-2c-0.7-0.6-2-1.1-3.3-1.3c-1.3-0.6-2.8-0.7-4.5-1.3
		c-1.5-0.2-3.3-0.7-5.2-0.7C206.4,0,204.6,0,202.9,0c-3.7,0-6.7,0.6-9.8,1.3c-3.2,1.1-5.9,2.4-8.3,4.1c-2.4,1.9-4.1,3.9-5.8,6.5
		c-1.5,2.6-2,5.4-2,8.9c0,4.1,1.3,8,3.9,11.5c2.6,3.7,6.7,6.3,12.8,8l11.5,3.7c3.9,1.3,6.5,2.6,8,4.1c1.5,1.5,2,3.3,2,5.4
		c0,3.2-1.3,5.7-4.1,7.6c-2.8,1.9-6.5,2.6-11.7,2.6c-3.2,0-6.3-0.2-9.3-1.1c-3.2-0.6-5.9-1.5-8.9-2.8c-0.7-0.2-1.5-0.6-2-0.7
		c-0.6-0.2-1.1-0.2-1.5-0.2c-1.3,0-1.9,0.7-1.9,2.6v3.9c0,0.7,0.2,1.5,0.6,2.4C177,68.6,177.7,69.2,179,69.9z"/>
	<path class="st1" d="M44.7,31.5C41.9,31,39,31,36.4,31c-8,0-14.5,2-19.5,6.3c-5,4.1-7.2,9.6-7.2,16.3c0,6.5,1.9,11.5,5.8,15.4
		c3.9,3.9,9.1,5.7,15.8,5.7c9.3,0,17.1-3.7,23.4-10.9c0.7,1.9,1.5,3.3,2.4,4.6c0.9,1.3,1.9,2.6,2.8,3.7c0.7,0.7,1.5,1.1,2.4,1.1
		c0.6,0,1.3-0.2,2-0.7l5-3.3c1.1-0.7,1.5-1.5,1.5-2.4c0-0.6-0.2-1.1-0.6-1.9c-1.1-2-2-3.9-2.6-5.7c-0.6-1.9-0.7-4.1-0.7-7v-26
		c0-8.5-2-15-6.5-19.5c-4.5-4.4-11.1-6.5-20.8-6.5c-4.5,0-8.5,0.6-12.4,1.5c-3.7,1.1-7,2-9.8,3.7c-1.1,0.6-1.9,1.1-2,1.5
		c-0.6,0.6-0.6,1.7-0.6,3v3.9c0,1.5,0.6,2.6,1.5,2.6c0.2,0,0.7,0,1.3-0.2c0.6-0.2,1.5-0.6,2.8-1.1c2.8-1.1,5.8-2,8.5-2.6
		c2.8-0.7,5.8-1.1,8.5-1.1c6.3,0,10.4,1.3,13,3.7c2.6,2.4,3.7,6.7,3.7,12.8v5.7C50.6,32.6,47.9,32.1,44.7,31.5z M53.8,45.6
		c0,2.6-0.2,5-0.7,6.7c-0.6,1.9-1.3,3.7-2.6,5c-2,2.4-4.6,4.1-7.6,5c-2.8,1.1-5.8,1.5-8.3,1.5c-3.7,0-6.5-1.1-8.3-2.8
		c-1.9-1.9-2.8-4.6-2.8-8.3c0-3.9,1.3-7,3.9-9.1c2.6-2,6.5-3.2,11.7-3.2c2.4,0,5,0.2,7.6,0.6c2.6,0.2,5,0.7,7.2,1.3V45.6z"/>
	<path class="st1" d="M93.9,68.6c0.6,1.5,1.1,2.6,1.5,3.2c0.6,0.6,1.5,0.7,3.2,0.7h6.7c1.5,0,2.6-0.2,3.2-0.7
		c0.6-0.6,1.1-1.5,1.5-3.2l12.2-51.2l12.4,51.2c0.2,1.5,0.7,2.6,1.5,3.2c0.6,0.6,1.9,0.7,3.2,0.7h6.7c1.3,0,2.4-0.2,3.2-0.7
		c0.6-0.6,1.3-1.5,1.5-3.2l19.3-61.2c0.2-0.7,0.6-1.5,0.6-1.9c0-0.6,0.2-0.7,0.2-1.3c0-1.3-0.6-1.9-1.9-1.9h-7.2
		c-1.5,0-2.6,0.2-3.2,0.7c-0.6,0.6-1.1,1.5-1.5,3.2L143,59.5L130.2,6.1c-0.2-1.5-0.7-2.6-1.5-3.2c-0.6-0.6-1.9-0.7-3.2-0.7h-6.5
		c-1.5,0-2.6,0.2-3.2,0.7c-0.6,0.6-1.1,1.5-1.5,3.2L102,58.6L88.8,6.1c-0.6-1.5-1.1-2.6-1.5-3.2c-0.6-0.6-1.5-0.7-3.2-0.7h-7.8
		c-1.3,0-1.9,0.6-1.9,1.9c0,0.6,0.2,1.5,0.7,3.2L93.9,68.6z"/>
	<path class="st2" d="M211.5,107c-29.1,12.4-61,18.4-89.8,18.4c-42.8,0-84.4-11.7-118-31.3c-2.8-1.9-5.2,1.3-2.6,3.7
		c31.2,28,72.2,44.9,118,44.9c32.5,0,70.3-10.2,96.6-29.7C219.4,109.9,215.9,105.3,211.5,107z"/>
	<path class="st2" d="M195.1,96.2c-2.4,1.5-1.9,3.9,0.6,3.7c8.3-1.1,27.3-3.3,30.4,1.1c3.3,4.1-3.7,21.9-6.7,29.8
		c-1.1,2.4,1.1,3.3,3.3,1.5c14.1-11.7,17.6-36.3,14.8-39.7C234.6,88.6,210,85.8,195.1,96.2z"/>
	<path class="st1" d="M299.9,56.2c-0.6,0-1.1-0.2-1.1-1.1V12.2c0-0.6,0.2-1.1,1.1-1.1h1.3c0.7,0,1.1,0.2,1.1,1.1l0.2,2.6
		c1.9-1.5,3.9-2.6,5.7-3.3c1.9-0.7,3.7-1.1,5.7-1.1c4.1,0,7.2,1.5,9.6,4.4c2.4,2.8,3.7,7,3.7,11.9c0,5.2-1.3,9.3-3.7,12.4
		c-2.6,3.2-5.7,4.6-10.2,4.6c-3.9,0-7.2-1.5-10.6-4.4v15.6c0,0.6-0.2,1.1-1.1,1.1h-1.9V56.2z M312.9,40.6c3.3,0,5.9-1.1,7.8-3.3
		c1.9-2.4,2.6-5.7,2.6-10.2c0-8.9-3.3-13.2-10.2-13.2c-3.3,0-7,1.3-10.4,4.1v18.4c1.9,1.5,3.3,2.6,5,3.3
		C309.4,40,311.3,40.6,312.9,40.6z"/>
	<path class="st1" d="M342.6,43.8c-2.8,0-5.2-0.7-7-2.6c-1.9-1.5-2.6-3.9-2.6-6.7c0-3.2,1.1-5.4,3.2-7.2c2-1.9,5-2.6,8.5-2.6
		c2.8,0,5.7,0.6,9.1,1.5v-5.2c0-2.6-0.6-4.4-1.9-5.4c-1.3-1.1-3.2-1.5-5.9-1.5c-2.8,0-5.9,0.6-9.1,1.5c-0.2,0-0.7,0.2-1.1,0.2
		c-0.6,0-0.6-0.2-0.6-0.7v-1.3c0-0.2,0-0.6,0.2-0.7c0.2-0.2,0.2-0.2,0.6-0.6c3.3-1.3,6.7-2,10.6-2c3.7,0,6.5,0.7,8.3,2.4
		c1.9,1.5,2.6,3.9,2.6,7v22.2c0,0.6-0.2,1.1-1.1,1.1H355c-0.6,0-1.1-0.2-1.1-1.1l-0.2-2.6C350.4,42.5,346.5,43.8,342.6,43.8z
		 M343.2,40.6c1.5,0,3.3-0.2,5.2-1.1c1.9-0.7,3.7-1.5,5.7-2.8v-7.8c-2.8-0.7-5.4-1.1-8.3-1.1c-5.9,0-8.9,2.4-8.9,6.7
		c0,1.9,0.6,3.3,1.5,4.4C339.4,40,341.1,40.6,343.2,40.6z"/>
	<path class="st1" d="M368.4,43.2c-0.6,0-1.1-0.2-1.1-1.1V12.2c0-0.6,0.2-1.1,1.1-1.1h1.3c0.7,0,1.1,0.2,1.1,1.1l0.2,3.7
		c1.5-1.9,3.2-3.2,4.6-3.7c1.5-0.7,3.3-1.1,5.2-1.1c0.7,0,1.3,0,1.5,0c0.6,0,1.1,0.2,1.1,1.1v1.5c0,0.2,0,0.2-0.2,0.6
		c0,0.2-0.2,0.2-0.6,0.2c-0.2,0-0.7,0-1.1,0c-0.2,0-0.7,0-1.3,0c-1.9,0-3.7,0.2-5.2,1.1c-1.5,0.7-2.8,1.9-4.4,3.3v23.2
		c0,0.6-0.2,1.1-1.1,1.1H368.4z"/>
	<path class="st1" d="M399.9,43.6c-2.6,0-4.4-0.7-5.7-2c-1.3-1.3-2-3.2-2-5.7V14.8h-5c-0.6,0-1.1-0.2-1.1-1.1v-0.6
		c0-0.2,0-0.6,0.2-0.7c0-0.2,0.2-0.2,0.7-0.2l5.2-0.6l0.6-8.3c0-0.2,0.2-0.6,0.2-0.7c0.2-0.2,0.2-0.2,0.7-0.2h1.1
		c0.6,0,1.1,0.2,1.1,1.1v8.3h9.1c0.6,0,1.1,0.2,1.1,1.1v1.3c0,0.6-0.2,1.1-1.1,1.1h-9.1v20.9c0,1.9,0.2,2.8,1.1,3.7
		c0.7,0.7,2,1.1,3.7,1.1c1.3,0,2.4,0,3.2-0.2c0.6,0,0.7-0.2,1.1-0.2c0.2,0,0.6,0,0.6,0c0.6,0,0.7,0.2,0.7,0.7v1.1
		c0,0.7-0.2,1.1-0.7,1.3C403.8,43.2,402.1,43.6,399.9,43.6z"/>
	<path class="st1" d="M414,43.2c-0.6,0-1.1-0.2-1.1-1.1V12.2c0-0.6,0.2-1.1,1.1-1.1h1.3c0.7,0,1.1,0.2,1.1,1.1l0.2,2.6
		c2-1.5,4.1-2.6,6.5-3.3c2.4-0.7,4.5-1.3,6.5-1.3c3.2,0,5.4,0.7,7,2.4c1.5,1.5,2.4,3.9,2.4,7.2v22.1c0,0.6-0.2,1.1-1.1,1.1h-1.9
		c-0.6,0-1.1-0.2-1.1-1.1V21.7c0-2.8-0.6-4.6-1.5-5.9c-1.1-1.3-2.8-1.9-5-1.9c-4.1,0-8.3,1.3-12.2,4.1v24.5c0,0.6-0.2,1.1-1.1,1.1
		h-1.3v-0.4H414z"/>
	<path class="st1" d="M462.2,43.9c-5,0-8.9-1.3-11.1-4.1c-2.6-2.8-3.9-7-3.9-12.8c0-5.2,1.3-9.3,3.9-12.2c2.6-2.8,6.3-4.4,10.6-4.4
		c3.9,0,6.7,1.1,8.9,3.3c2,2,3.2,5.2,3.2,9.3c0,1.5,0,2.8-0.2,3.9c0,0.6-0.6,1.1-1.1,1.1h-21.3c0,4.4,1.1,7.8,2.8,9.8
		c1.9,2,5,3.2,8.9,3.2c3.2,0,5.9-0.6,8.5-1.5c0.6-0.2,1.1-0.2,1.1-0.2c0.2,0,0.2,0,0.6,0.2c0,0.2,0.2,0.2,0.2,0.6v1.1
		c0,0.7-0.2,1.1-0.7,1.3C469.1,43.2,466,43.9,462.2,43.9z M470,25c0-0.6,0-1.3,0-2c0-3.2-0.7-5.2-2-6.7c-1.5-1.5-3.7-2.4-6.5-2.4
		c-6.7,0-10.2,3.7-10.6,11.1H470z"/>
	<path class="st1" d="M482.3,43.2c-0.6,0-1.1-0.2-1.1-1.1V12.2c0-0.6,0.2-1.1,1.1-1.1h1.3c0.7,0,1.1,0.2,1.1,1.1l0.2,3.7
		c1.5-1.9,3.2-3.2,4.6-3.7c1.5-0.7,3.3-1.1,5.2-1.1c0.7,0,1.3,0,1.5,0c0.6,0,1.1,0.2,1.1,1.1v1.5c0,0.2,0,0.2-0.2,0.6
		c0,0.2-0.2,0.2-0.6,0.2c-0.4,0-0.7,0-1.1,0c-0.4,0-0.7,0-1.3,0c-1.9,0-3.7,0.2-5.2,1.1c-1.5,0.7-2.8,1.9-4.5,3.3v23.2
		c0,0.6-0.2,1.1-1.1,1.1H482.3z"/>
	<path class="st1" d="M299.9,113.1c-0.6,0-1.1-0.2-1.1-1.1V82.3c0-0.6,0.2-1.1,1.1-1.1h1.3c0.7,0,1.1,0.2,1.1,1.1l0.2,2.6
		c2-1.5,4.1-2.6,6.5-3.3c2.4-0.7,4.5-1.3,6.5-1.3c3.2,0,5.4,0.7,7,2.4c1.5,1.5,2.4,3.9,2.4,7.2V112c0,0.6-0.2,1.1-1.1,1.1H322
		c-0.6,0-1.1-0.2-1.1-1.1V91.4c0-2.8-0.6-4.6-1.5-5.9c-1.1-1.3-2.8-1.9-5-1.9c-4.1,0-8.3,1.3-12.2,4.1v24.5c0,0.6-0.2,1.1-1.1,1.1
		h-1.3v-0.2H299.9z"/>
	<path class="st1" d="M348.4,114c-5,0-8.9-1.3-11.1-4.1c-2.6-2.8-3.9-7-3.9-12.8c0-5.2,1.3-9.3,3.9-12.2c2.6-2.8,6.3-4.4,10.6-4.4
		c3.9,0,6.7,1.1,8.9,3.3c2,2,3.2,5.2,3.2,9.3c0,1.5,0,2.8-0.2,3.9c0,0.6-0.6,1.1-1.1,1.1h-21.3c0,4.4,1.1,7.8,2.8,9.8
		c1.9,2,5,3.2,8.9,3.2c3.2,0,5.9-0.6,8.5-1.5c0.6-0.2,1.1-0.2,1.1-0.2c0.2,0,0.2,0,0.6,0.2c0,0.2,0.2,0.2,0.2,0.6v1.1
		c0,0.7-0.2,1.1-0.7,1.3C355.4,113.3,351.9,114,348.4,114z M356.1,94.9c0-0.6,0-1.3,0-2c0-3.2-0.7-5.2-2-6.7
		c-1.5-1.5-3.7-2.4-6.5-2.4c-6.7,0-10.2,3.7-10.6,11.1H356.1z"/>
	<path class="st1" d="M377.5,113.6c-2.6,0-4.5-0.7-5.7-2c-1.3-1.3-2-3.2-2-5.7V84.5h-5c-0.6,0-1.1-0.2-1.1-1.1v-0.6
		c0-0.2,0-0.6,0.2-0.7c0-0.2,0.2-0.2,0.7-0.2l5.2-0.6l0.6-8.3c0-0.2,0.2-0.6,0.2-0.7c0.2-0.2,0.2-0.2,0.7-0.2h1.1
		c0.6,0,1.1,0.2,1.1,1.1v8.3h9.1c0.6,0,1.1,0.2,1.1,1.1V84c0,0.6-0.2,1.1-1.1,1.1h-9.1V106c0,1.9,0.2,2.8,1.1,3.7
		c0.9,0.9,2,1.1,3.7,1.1c1.3,0,2.4,0,3.2-0.2c0.6,0,0.7-0.2,1.1-0.2c0.2,0,0.6,0,0.6,0c0.6,0,0.7,0.2,0.7,0.7v1.1
		c0,0.7-0.2,1.1-0.7,1.3C381.4,113.3,379.5,113.6,377.5,113.6z"/>
	<path class="st1" d="M397.9,113.1c-0.6,0-1.1-0.2-1.3-0.7l-9.8-29.3c-0.2-0.6-0.2-0.7-0.2-1.1c0-0.4,0.2-0.6,0.7-0.6h2
		c0.6,0,0.7,0.2,1.1,0.7l8.5,26.7l7.6-26.7c0.2-0.6,0.6-0.7,1.3-0.7h2.4c0.6,0,1.1,0.2,1.3,0.7l7.6,26.7l8.9-27.1
		c0.2-0.6,0.6-0.7,1.1-0.7h1.9c0.6,0,0.7,0.2,0.7,0.6c0,0.2,0,0.6-0.2,1.1L421.3,112c-0.2,0.6-0.6,0.7-1.3,0.7h-2
		c-0.6,0-1.1-0.2-1.3-0.7L409,85.3l-7.6,26.7c-0.2,0.6-0.6,0.7-1.3,0.7h-1.9v0.4H397.9z"/>
	<path class="st1" d="M450.2,114c-4.6,0-8.3-1.5-10.9-4.4c-2.6-2.8-3.9-7-3.9-12.4c0-5.2,1.3-9.3,3.9-12.4c2.6-2.8,6.3-4.4,10.9-4.4
		c4.6,0,8.3,1.5,10.9,4.4c2.6,2.8,3.9,7,3.9,12.4c0,5.2-1.3,9.3-3.9,12.4C458.3,112.5,454.8,114,450.2,114z M450.2,110.7
		c7.2,0,10.9-4.4,10.9-13.5c0-9.1-3.7-13.5-10.9-13.5c-7.2,0-10.9,4.4-10.9,13.5C439.2,106.2,442.8,110.7,450.2,110.7z"/>
	<path class="st1" d="M473.9,113.1c-0.6,0-1.1-0.2-1.1-1.1V82.3c0-0.6,0.2-1.1,1.1-1.1h1.3c0.7,0,1.1,0.2,1.1,1.1l0.2,3.7
		c1.5-1.9,3.2-3.2,4.6-3.7c1.5-0.7,3.3-1.1,5.2-1.1c0.7,0,1.3,0,1.5,0c0.6,0,1.1,0.2,1.1,1.1v1.5c0,0.2,0,0.2-0.2,0.6
		c-0.2,0.4-0.2,0.2-0.6,0.2c-0.2,0-0.7,0-1.1,0c-0.2,0-0.7,0-1.3,0c-1.9,0-3.7,0.2-5.2,1.1c-1.5,0.7-2.8,1.9-4.5,3.3v23.2
		c0,0.6-0.2,1.1-1.1,1.1h-1.3v-0.2H473.9z"/>
	<path class="st1" d="M495.6,113.1c-0.6,0-1.1-0.2-1.1-1.1V67.3c0-0.6,0.2-1.1,1.1-1.1h1.9c0.6,0,1.1,0.2,1.1,1.1v28.2l15-13.5
		c0.6-0.6,1.1-0.6,1.5-0.6h2.4c0.6,0,0.7,0.2,0.7,0.6c0,0.4-0.2,0.6-0.7,1.1l-15.4,13.5l16.7,15.4c0.2,0.2,0.6,0.6,0.6,0.7
		c0,0.6-0.2,0.6-0.7,0.6H516c-0.6,0-1.1-0.2-1.3-0.6l-16.1-15v14.5c0,0.6-0.2,1.1-1.1,1.1h-1.9V113.1z"/>
</g>
</svg>
