<?xml version="1.0" encoding="utf-8"?>
<!-- Generator: Adobe Illustrator 24.2.1, SVG Export Plug-In . SVG Version: 6.00 Build 0)  -->
<svg version="1.1" id="Layer_1" xmlns="http://www.w3.org/2000/svg" xmlns:xlink="http://www.w3.org/1999/xlink" x="0px" y="0px"
	 viewBox="0 0 120.56 31.35" style="enable-background:new 0 0 120.56 31.35;" xml:space="preserve">
<style type="text/css">
	.st0{fill:#FFFFFF;}
</style>
<g>
	<path class="st0" d="M0,15.7C-0.05,7.05,6.95,0,15.65,0c8.6,0,15.65,7,15.65,15.5c0.05,8.8-6.95,15.85-15.65,15.85
		C7.05,31.35,0.05,24.4,0,15.7z M15.65,29.6c7.75,0,14-6.25,14-13.95C29.65,8,23.35,1.7,15.8,1.7c-7.85,0-14.05,6.2-14.1,14
		C1.7,23.4,7.9,29.6,15.65,29.6z"/>
	<path class="st0" d="M89.26,19.15c0.65-2,1.35-3.95,2-5.95c0.2-0.55,0.55-0.8,1.1-0.65c0.55,0.15,0.7,0.6,0.6,1.15
		c-0.05,0.2-0.1,0.4-0.2,0.55c-0.55,1.5-1.15,3-1.7,4.55c-0.3,0.8-0.6,1.6-0.9,2.4c-0.2,0.5-0.5,0.85-1.05,0.85
		c-0.5,0-0.75-0.4-0.95-0.85c-0.55-1.6-1.15-3.2-1.7-4.8c-0.1-0.3-0.15-0.6-0.45-0.9c-0.55,1.55-1.05,3.05-1.6,4.55
		c-0.15,0.45-0.35,0.9-0.5,1.35c-0.15,0.45-0.5,0.65-0.9,0.65c-0.45,0-0.75-0.2-0.9-0.6c-0.95-2.55-1.95-5.05-2.85-7.6
		c-0.2-0.55,0-1.05,0.6-1.2c0.55-0.15,0.9,0.1,1.1,0.65c0.65,2,1.35,3.95,2.05,5.95c0.35-0.15,0.35-0.5,0.45-0.8
		c0.6-1.65,1.15-3.3,1.7-4.95c0.15-0.5,0.4-0.9,1-0.9s0.85,0.4,1,0.9c0.65,1.9,1.3,3.85,1.95,5.75
		C89.11,19.2,89.16,19.15,89.26,19.15z"/>
	<path class="st0" d="M38.95,13.5c1.3-0.8,2.6-1.15,4-0.95c2.25,0.3,3.85,2.1,3.9,4.55c0.05,2.5-1.4,4.4-3.65,4.8
		c-1.3,0.25-2.55,0.1-3.7-0.6c-0.25-0.15-0.45-0.35-0.6,0.1c-0.15,0.45-0.55,0.65-1,0.55c-0.5-0.1-0.7-0.5-0.7-1
		c0-3.7,0-7.4,0-11.15c0-0.6,0.25-1,0.9-1s0.9,0.4,0.9,1C38.95,11,38.95,12.2,38.95,13.5z M44.95,17.35c0-2.1-1-3.25-2.9-3.25
		c-1.95,0-3.25,1.25-3.25,3.25c0,1.95,1.2,3.15,3.1,3.15C43.9,20.5,44.95,19.35,44.95,17.35z"/>
	<path class="st0" d="M57.61,17.3c0,1.15,0,2.25,0,3.4c0,0.5,0,1.05-0.65,1.25c-0.55,0.15-0.9-0.1-1.15-0.6
		c-0.25-0.45-0.55,0-0.75,0.1c-1.86,0.95-4.21,0.7-5.61-0.55c-1.75-1.55-2.1-4.6-0.7-6.5c1.35-1.85,4.15-2.45,6.26-1.3
		c0.4,0.2,0.75,0.55,1-0.2c0.15-0.35,0.55-0.45,0.95-0.3c0.45,0.15,0.65,0.45,0.65,0.9C57.61,14.75,57.61,16.05,57.61,17.3z
		 M52.65,20.45c2.01,0,3.21-1.15,3.21-3.1c0-2.05-1.1-3.25-3.06-3.3c-1.95-0.05-3.05,1.1-3.1,3.1
		C49.7,19.25,50.75,20.45,52.65,20.45z"/>
	<path class="st0" d="M71.96,16.55c1.05-0.85,2.1-1.65,3.1-2.45c0.55-0.4,1.05-0.85,1.6-1.25c0.45-0.35,0.9-0.4,1.25,0.1
		c0.35,0.45,0.2,0.85-0.2,1.2c-0.7,0.55-1.4,1.2-2.15,1.7c-0.6,0.4-0.55,0.7-0.15,1.2c0.75,1.05,1.5,2.15,2.2,3.2
		c0.4,0.55,0.8,1.1,0.1,1.7c-0.55,0.4-1,0.2-1.6-0.7c-0.75-1.1-1.45-2.15-2.15-3.25c-0.25-0.4-0.45-0.45-0.85-0.15
		c-0.9,0.6-1.55,1.3-1.3,2.5c0.05,0.35,0.05,0.7,0,1c-0.05,0.5-0.4,0.75-0.85,0.8c-0.45,0.05-0.8-0.25-0.9-0.7
		c-0.05-0.2-0.05-0.4-0.05-0.6c0-3.55,0-7.1,0-10.6c0-0.1,0-0.15,0-0.25c0-0.65,0.25-1.05,0.95-1.05c0.65,0,0.85,0.45,0.85,1.05
		c0,1.9,0,3.85,0,5.75C71.81,15.9,71.71,16.2,71.96,16.55z"/>
	<path class="st0" d="M99.06,17.75c-0.95,0-1.85,0-2.8,0c-0.65,0-0.7,0.3-0.55,0.8c0.35,0.95,1,1.6,1.95,1.85
		c1.2,0.3,2.35,0.15,3.4-0.55c0.5-0.35,1-0.55,1.4,0.05c0.35,0.55,0,1-0.5,1.25c-2,1.1-4.05,1.3-6.1,0.15
		c-2.15-1.2-2.85-4.15-1.6-6.4c1.15-2.15,4.05-3.05,6.35-1.9c1.45,0.7,2.4,1.85,2.45,3.55c0,0.8-0.35,1.15-1.1,1.2
		C101.01,17.75,100.06,17.75,99.06,17.75z M98.51,16.4c0.8,0,1.6,0,2.4,0c0.45,0,0.6-0.1,0.45-0.6c-0.35-1-1.55-1.8-2.75-1.8
		c-1.2,0-2.45,0.75-2.85,1.8c-0.15,0.45-0.1,0.65,0.4,0.65C96.91,16.35,97.71,16.4,98.51,16.4z"/>
	<path class="st0" d="M59.61,17.25c0-1.2,0-2.4,0-3.55c0-0.5,0.1-0.95,0.6-1.1c0.55-0.2,0.95,0.05,1.15,0.55c0.2,0.5,0.4,0.1,0.55,0
		c1.1-0.6,2.25-0.75,3.45-0.5c1.6,0.3,2.65,1.45,2.8,3.1c0.1,1.8,0.05,3.55,0.05,5.35c0,0.6-0.35,0.95-0.9,0.95
		c-0.6,0-0.9-0.4-0.9-1c0-1.45,0-2.95,0-4.4c0-1.8-0.7-2.55-2.4-2.6c-1.65,0-2.55,0.9-2.6,2.6c0,1.4,0,2.85,0,4.25
		c0,0.65-0.25,1.15-0.9,1.15c-0.7,0-0.9-0.55-0.9-1.2C59.66,19.65,59.61,18.45,59.61,17.25z"/>
	<path class="st0" d="M108.21,13.95c-0.35-0.05-0.75,0.05-1.15,0.2c-0.4,0.15-0.75,0.4-0.75,0.9c0,0.45,0.3,0.7,0.7,0.9
		c0.75,0.35,1.6,0.4,2.4,0.55c0.7,0.15,1.4,0.3,2,0.7c1.45,0.9,1.55,2.85,0.2,3.9c-1.9,1.5-5.3,1.2-6.95-0.55
		c-0.4-0.45-0.7-0.9-0.2-1.4c0.5-0.5,1-0.2,1.35,0.25c1.1,1.25,2.5,1.35,3.95,1c0.5-0.1,0.95-0.4,1-1c0.05-0.65-0.35-1-0.9-1.15
		c-0.75-0.2-1.55-0.35-2.3-0.5c-0.6-0.1-1.2-0.25-1.8-0.55c-1.5-0.7-1.75-2.45-0.6-3.6c1.5-1.45,5.15-1.35,6.6,0.2
		c0.35,0.35,0.55,0.8,0.1,1.2c-0.4,0.4-0.85,0.3-1.2-0.05C110.01,14.25,109.21,13.95,108.21,13.95z"/>
	<path class="st0" d="M114.91,16.95c0-0.75-0.05-1.4,0-2c0.05-0.65-0.1-0.95-0.85-0.85c-0.45,0.05-0.8-0.1-0.95-0.55
		c-0.1-0.3,0-0.55,0.25-0.75c0.25-0.2,0.5-0.25,0.8-0.2c0.6,0.1,0.8-0.2,0.75-0.75c-0.05-0.45-0.05-0.9,0-1.35
		c0.05-0.5,0.3-0.95,0.9-0.9c0.6,0.05,0.9,0.4,0.9,1c0,0.5,0,1,0,1.55c0,0.35,0.15,0.5,0.5,0.5c0.65,0,1.3,0,1.95,0
		c0.5,0,0.95,0.2,0.95,0.75c0,0.55-0.4,0.75-0.9,0.75c-0.6,0-1.2,0.05-1.8,0c-0.5-0.05-0.7,0.1-0.7,0.65c0.05,1.35,0,2.7,0,4.1
		c0.05,1.25,0.75,1.8,1.95,1.5c0.35-0.1,0.7-0.2,1.05-0.25c0.4-0.05,0.65,0.15,0.8,0.5c0.1,0.35,0.05,0.65-0.25,0.85
		c-1.1,0.75-2.35,0.8-3.6,0.4c-1.05-0.3-1.55-1.05-1.75-2.1C114.86,18.75,114.96,17.8,114.91,16.95z"/>
	<path class="st0" d="M11.05,17.6c-1.3-1.15-2.65-2.3-3.9-3.45C6.25,13.3,6,12.25,6.4,11.1c0.4-1.2,1.35-1.85,2.55-1.9
		c1.2-0.05,2.15,0.5,2.7,1.6c0.6,1.1,0.35,2.55-0.7,3.4c-0.55,0.45-0.5,0.7,0.05,1.05l0.05,0.05c1.35,1.15,1.3,1.15,2.65,0
		c0.45-0.4,0.55-0.65,0-1.1c-1.05-0.9-1.25-2.15-0.7-3.3c0.5-1.1,1.75-1.8,2.9-1.65c1.25,0.15,2.25,1.05,2.5,2.3
		c0.2,1.1-0.15,2-1,2.7c-0.4,0.35-0.4,0.5,0,0.9c1.45,1.35,1.45,1.35,2.95,0c0.4-0.35,0.4-0.5,0-0.85c-0.9-0.75-1.3-1.7-1-2.85
		c0.3-1.25,1.3-2.1,2.6-2.2c1.1-0.1,2.3,0.6,2.8,1.6c0.55,1.1,0.35,2.45-0.6,3.3C23.1,15.15,22,16.1,20.9,17
		c-0.6,0.45-0.65,0.7-0.05,1.25c1.2,1.1,1.2,2.9,0.1,4c-1.1,1.1-2.8,1.15-4,0.1c-1.25-1.1-1.3-3,0-4.2c0.5-0.45,0.5-0.7,0-1.15
		c-1.4-1.15-1.35-1.15-2.7,0.05c-0.55,0.45-0.4,0.65,0.05,1.1c1.2,1.1,1.25,2.8,0.25,3.95c-1,1.15-2.65,1.3-3.9,0.4
		c-1.4-1-1.5-3.1-0.25-4.35C10.6,18,10.8,17.85,11.05,17.6z M15.7,10.95c-0.6,0-1.15,0.55-1.15,1.15c0,0.4,0.85,1.45,1.2,1.4
		c0.35-0.05,1.1-1,1.15-1.4C16.85,11.55,16.25,10.95,15.7,10.95z M13.5,20.3c0-0.45-0.8-1.45-1.15-1.45s-1.1,0.95-1.1,1.4
		c0.05,0.65,0.45,1,1.05,1.1C12.95,21.45,13.5,20.95,13.5,20.3z M18.95,21.4c0.6,0,1.15-0.55,1.15-1.15c0-0.45-0.8-1.35-1.15-1.35
		c-0.35,0-1.15,0.95-1.15,1.35C17.8,20.85,18.35,21.4,18.95,21.4z M9.15,11C8.5,11,8,11.45,8,12.1c0,0.45,0.8,1.45,1.1,1.3
		c0.55-0.25,1.05-0.6,1.1-1.25C10.3,11.55,9.8,11,9.15,11z M23.35,12.1c0-0.65-0.5-1.1-1.15-1.1c-0.65,0.05-1.05,0.4-1.05,1.05
		c0,0.45,0.75,1.35,1.1,1.35C22.55,13.45,23.35,12.55,23.35,12.1z"/>
</g>
</svg>
