<svg width="77" height="92" viewBox="0 0 77 92" fill="none" xmlns="http://www.w3.org/2000/svg">
<path d="M40.3354 48.8946C29.4388 50.0443 20.2982 40.9484 21.4535 30.105C22.2954 22.2045 28.6781 15.8535 36.6175 15.0164C47.5135 13.8678 56.6529 22.9626 55.4981 33.8053C54.6563 41.7059 48.2741 48.0575 40.3354 48.8946ZM40.0907 17.2456C30.6277 16.2474 22.6901 24.1462 23.6931 33.563C24.4237 40.4239 29.967 45.9395 36.8616 46.666C46.324 47.6635 54.2604 39.7653 53.258 30.3491C52.5274 23.4888 46.9852 17.9732 40.0907 17.2456Z" fill="url(#paint0_linear)" stroke="url(#paint1_linear)" stroke-miterlimit="10"/>
<path d="M33.4117 58.0374L33.3894 58.0643C33.4482 58.0058 33.5111 57.9478 33.574 57.894C33.5199 57.9384 33.4658 57.9876 33.4117 58.0374ZM34.2314 57.3735C34.1456 57.4321 34.0556 57.4988 33.9745 57.5661C34.0603 57.5035 34.1456 57.4409 34.2356 57.3776C34.3708 57.2834 34.5102 57.1938 34.6542 57.1042C34.5107 57.1897 34.3708 57.2793 34.2314 57.3735Z" fill="url(#paint2_linear)" stroke="url(#paint3_linear)" stroke-miterlimit="10"/>
<path d="M62.7557 52.6031C63.8729 51.989 64.7653 50.9669 65.2159 49.7334C65.8377 48.0434 65.5583 46.2316 64.4547 44.7792L64.3782 44.6803C63.4228 43.4252 63.1616 41.8469 63.6664 40.3495C64.1664 38.852 65.3336 37.7404 66.8337 37.3142L66.9643 37.2785C69.6162 36.5303 71.2145 34.0488 70.7374 31.1862C70.4174 29.2655 68.9779 27.7148 67.1066 27.1481L67.0907 27.1435C65.6671 26.712 64.4588 25.6975 63.9199 24.3171C63.2969 22.719 63.5528 21.0149 64.6217 19.6585L64.6747 19.59C65.8942 18.013 66.1948 15.8651 65.3036 14.0838C64.027 11.5308 61.3262 10.4555 58.7467 11.3418L58.6419 11.378C57.5825 11.7451 56.4147 11.7562 55.3788 11.3271C53.4892 10.5439 52.3574 8.84619 52.3574 6.9255C52.3574 6.87632 52.3574 6.82247 52.3621 6.74636C52.4162 5.27584 51.9027 3.90366 50.9114 2.88155C49.8931 1.82783 48.456 1.22253 46.9694 1.22253C45.2346 1.22253 43.658 2.05672 42.635 3.5091C41.7296 4.80459 40.3148 5.52229 38.7106 5.52229C37.1246 5.50883 35.7057 4.75132 34.8315 3.45524L34.7592 3.35221C33.4167 1.35717 31.0554 0.536441 28.7535 1.25824C26.4469 1.98004 24.9915 4.00201 25.0362 6.38283V6.50811C25.068 8.08634 24.3467 9.51648 23.0537 10.4309C21.7654 11.3499 20.1659 11.5654 18.6746 11.0227L18.5911 10.9923C16.7045 10.3097 14.549 10.682 13.1142 12.0788C11.0588 14.0791 10.8617 16.9727 12.5024 19.1328L12.5771 19.23C13.2831 20.1514 13.6549 21.3035 13.529 22.4556C13.3042 24.5127 11.9806 26.0646 10.074 26.6066L9.99285 26.6336C7.66799 27.288 6.14966 29.2696 6.13142 31.6733C6.10907 34.0763 7.59093 36.0807 9.90226 36.7756L9.96991 36.7973C11.2306 37.1965 12.3207 38.0594 12.8848 39.2501C13.6878 40.9442 13.476 42.7965 12.3307 44.2547L12.2854 44.3132C11.0735 45.8464 10.7988 47.8239 11.5512 49.5947C12.0965 50.8767 13.0878 51.8766 14.2996 52.4193L1.3217 74.7962C0.407517 76.3727 1.55053 78.3425 3.37948 78.3425H15.1002C16.2827 78.3425 17.3751 78.9718 17.964 79.9922L22.6419 88.0959C23.7167 89.958 26.4157 89.961 27.4946 88.1017L38.4759 69.1787L50.7573 90.3438C51.6132 91.8184 53.7534 91.8155 54.6052 90.3385L60.6421 79.8652C61.2392 78.8296 62.3469 78.1903 63.547 78.1897L73.81 78.1839C75.4936 78.1827 76.5455 76.3691 75.7037 74.9179L62.7557 52.6031ZM13.6278 48.7248C13.1907 47.698 13.3484 46.5951 14.0784 45.6673L14.1237 45.6087C15.5473 43.8016 15.9844 41.4167 15.2908 39.2284C14.5973 37.0361 12.8672 35.332 10.6547 34.6641L10.5552 34.6325C8.93808 34.1437 8.37451 32.7943 8.38334 31.6914C8.39216 30.5932 8.98278 29.248 10.627 28.7814L10.7082 28.7545C12.9295 28.1269 14.6908 26.4544 15.4209 24.2797C16.155 22.1008 15.7585 19.7065 14.3755 17.8818L14.3031 17.7876C13.2848 16.447 13.6272 15.0257 14.2849 14.1382C14.9426 13.2548 16.2133 12.5155 17.7992 13.0933L17.8987 13.129C20.0706 13.9181 22.4854 13.5909 24.3638 12.255C26.238 10.9232 27.3328 8.7578 27.2881 6.48469V6.35941C27.2563 4.68283 28.3741 3.72746 29.4283 3.39553C30.4824 3.06361 31.9514 3.20704 32.8797 4.5839L32.9473 4.68693C34.2356 6.59709 36.3805 7.74447 38.6918 7.76262H39.1795C41.3267 7.76262 43.2497 6.60996 44.4492 4.83737C45.0487 3.95108 45.9458 3.46344 46.9688 3.46344C47.8471 3.46344 48.6901 3.81761 49.289 4.43638C49.6855 4.8444 50.1496 5.56151 50.109 6.63806C50.1043 6.73231 50.1043 6.83066 50.1043 6.92491C50.1043 9.16641 51.2038 11.2826 53.0463 12.5875C54.9117 13.9099 57.2183 14.2418 59.3808 13.4931L59.4843 13.4574C61.0792 12.9106 62.3316 13.6728 62.9763 14.5691C63.6205 15.4659 63.9358 16.896 62.8728 18.2454L62.8275 18.2992C60.7938 20.8797 60.7733 24.6403 63.1858 27.3208C64.0205 28.2481 65.1283 28.8909 66.3254 29.2532L66.396 29.2749C68.0137 29.7637 68.5767 31.1177 68.5679 32.2206C68.5591 33.3188 67.9731 34.6594 66.356 35.1213L66.2389 35.1529C64.0223 35.7804 62.2604 37.4576 61.5262 39.6365C60.7962 41.8153 61.1927 44.2049 62.5716 46.0208L62.6481 46.1198C63.5264 47.2765 63.3105 48.3976 63.1028 48.9625C62.7334 49.9623 61.8816 50.7245 60.8774 50.9487C60.3232 51.0787 59.7373 51.0342 59.152 50.8188L59.0526 50.7831C56.8806 49.9939 54.4658 50.3212 52.5874 51.6571C50.7132 52.9888 49.6184 55.1542 49.6631 57.4227V57.5526C49.6949 59.2339 48.5772 60.1846 47.523 60.5159C46.4688 60.8478 45.0046 60.7044 44.058 59.3006L43.9992 59.2198C43.8957 59.0676 43.7921 58.9195 43.6886 58.7937C42.4273 57.1973 40.5349 56.2384 38.4935 56.1529C37.6688 56.1213 36.8581 56.229 36.0922 56.4714C35.9799 56.5071 35.8669 56.5434 35.7546 56.5879C35.5339 56.6687 35.3128 56.7629 35.101 56.866C34.948 56.938 34.8033 57.0182 34.6592 57.1036C34.6545 57.1036 34.6545 57.1036 34.6545 57.1036C34.5103 57.1932 34.3703 57.2828 34.2356 57.377C34.1456 57.4396 34.0597 57.5023 33.9744 57.5655C33.8885 57.6281 33.8032 57.7001 33.7221 57.7675C33.6726 57.8079 33.6226 57.8483 33.5732 57.8927C33.5103 57.9466 33.4473 58.0046 33.3885 58.0631C33.2985 58.1486 33.2126 58.2334 33.1273 58.323C33.1226 58.3318 33.1185 58.3365 33.1091 58.3453L32.9514 58.5156C32.8161 58.6637 32.6902 58.8247 32.5638 58.9951C32.5367 59.0308 32.5096 59.0624 32.4873 59.0981L32.4061 59.2058C31.4419 60.5821 29.973 60.6986 28.9235 60.3538C27.8734 60.0043 26.7745 59.0314 26.8375 57.3589L26.8422 57.2424C26.9234 54.947 25.8692 52.7635 24.0126 51.4007C22.1566 50.0332 19.7506 49.6655 17.5698 50.4189L17.4663 50.4547C17.0157 50.6115 16.5562 50.6701 16.1103 50.6203C15.0244 50.5097 14.0784 49.7832 13.6278 48.7248ZM23.9697 85.8895L19.2964 77.7958C18.6911 76.7473 17.5692 76.101 16.3545 76.101H5.04017C4.20718 76.101 3.68656 75.2036 4.10305 74.4859L16.6374 52.8765H16.6509C16.7545 52.8718 16.858 52.863 16.9663 52.8495C17.0068 52.8448 17.0474 52.8407 17.088 52.8361H17.1016C17.2098 52.8226 17.318 52.8045 17.4257 52.7822C17.5339 52.76 17.6463 52.7371 17.7593 52.7061C17.9081 52.6704 18.0563 52.6206 18.2052 52.5715L18.3087 52.5358C19.8047 52.02 21.3948 52.2624 22.6743 53.2037C23.9491 54.1409 24.6479 55.5845 24.5891 57.1534L24.5879 57.1856C24.5056 59.3153 25.6592 61.3548 27.6064 62.2417C28.4776 62.6386 29.3706 62.8043 30.2254 62.7574C30.2977 62.7574 30.3648 62.7527 30.4371 62.744C30.4642 62.744 30.4913 62.7393 30.5183 62.7352C30.5813 62.7305 30.6442 62.7217 30.7077 62.7129C30.9283 62.6813 31.1401 62.6368 31.3519 62.5783C31.4148 62.5601 31.4778 62.5426 31.5366 62.5197C31.969 62.3851 32.379 62.1878 32.762 61.9367C32.8249 61.901 32.8838 61.8606 32.9467 61.8114C33.172 61.6592 33.3885 61.4795 33.5868 61.2781C33.6409 61.2289 33.6903 61.1751 33.7397 61.1212C33.7532 61.1078 33.7668 61.0943 33.7756 61.0808H33.7803L37.1729 66.936L26.1775 85.8907C25.6868 86.7383 24.4585 86.7372 23.9697 85.8895ZM59.4273 77.4627L53.8605 87.1212C53.3351 88.0321 52.015 88.0344 51.4874 87.1247L39.7772 66.9372L35.3616 59.3334V59.3287H35.3663C35.4881 59.2345 35.614 59.1496 35.7446 59.0729C35.821 59.0237 35.8975 58.9787 35.9787 58.9383C35.9922 58.9295 36.0057 58.9248 36.0193 58.916C36.114 58.8669 36.2087 58.8218 36.3075 58.7814C36.3393 58.7679 36.3705 58.7545 36.4022 58.741C36.4787 58.7094 36.5552 58.6784 36.6364 58.6514C36.677 58.638 36.7176 58.6245 36.7623 58.611C36.767 58.611 36.7711 58.6063 36.7758 58.6063C36.8705 58.5747 36.9652 58.5478 37.064 58.5256C37.1858 58.494 37.3117 58.467 37.4382 58.4495C37.5194 58.436 37.6005 58.4225 37.6858 58.4179C37.6947 58.4132 37.7082 58.4132 37.7176 58.4132C37.7764 58.4044 37.8347 58.3997 37.8935 58.395C37.9971 58.3903 38.0965 58.3862 38.2 58.3862C38.263 58.3862 38.3306 58.3862 38.3983 58.3909C39.7813 58.4495 41.0655 59.0993 41.9261 60.1887C41.9985 60.2829 42.0656 60.3772 42.1332 60.4802L42.1873 60.5563C42.3132 60.7448 42.4532 60.9239 42.5974 61.0943C42.6697 61.1798 42.7462 61.26 42.8227 61.3367C43.0527 61.5743 43.3003 61.7851 43.5615 61.9689C43.6698 62.045 43.7821 62.117 43.8951 62.1843C43.958 62.22 44.0169 62.2563 44.0798 62.2873C44.1022 62.2961 44.1251 62.3096 44.1428 62.319C44.1833 62.3412 44.2239 62.364 44.2645 62.3863C44.3545 62.4267 44.4404 62.4671 44.5304 62.5028C44.5663 62.5209 44.6028 62.5344 44.6387 62.5478C44.7287 62.5836 44.8234 62.6199 44.9181 62.6509C44.954 62.6597 44.9904 62.6731 45.0216 62.6825C45.121 62.7141 45.2152 62.741 45.3099 62.7633C45.3458 62.7721 45.3822 62.7814 45.4181 62.7855C45.5175 62.8078 45.6164 62.8306 45.7158 62.8441C45.7476 62.8487 45.7834 62.8528 45.8146 62.8575C45.8911 62.871 45.9676 62.8798 46.0488 62.8844C46.0758 62.8891 46.1029 62.8891 46.1299 62.8932C46.1523 62.8979 46.1752 62.8979 46.1976 62.8979C46.4453 62.9161 46.6976 62.9161 46.95 62.8979C47.3647 62.8663 47.7836 62.7861 48.1983 62.6556C50.5049 61.9338 51.9603 59.9118 51.9156 57.531V57.401C51.8768 55.4493 52.9945 53.7183 54.9176 52.918C55.9812 52.4755 57.1836 52.4948 58.2672 52.887L58.3766 52.9268C58.4531 52.9537 58.5296 52.9807 58.6066 53.0029C58.8137 53.0702 59.0214 53.1241 59.2285 53.1645C59.6655 53.2499 60.0979 53.2763 60.5303 53.254L72.8411 74.4689C73.2206 75.1234 72.7464 75.9412 71.9875 75.9418L62.0545 75.9482C60.9692 75.9482 59.9673 76.526 59.4273 77.4627Z" fill="url(#paint4_linear)" stroke="url(#paint5_linear)" stroke-miterlimit="10"/>
<defs>
<linearGradient id="paint0_linear" x1="38.4758" y1="14.9182" x2="38.4758" y2="48.9929" gradientUnits="userSpaceOnUse">
<stop stop-color="#F16122"/>
<stop offset="1" stop-color="#FEBD33"/>
</linearGradient>
<linearGradient id="paint1_linear" x1="38.4758" y1="14.9182" x2="38.4758" y2="48.9929" gradientUnits="userSpaceOnUse">
<stop stop-color="#F16122"/>
<stop offset="1" stop-color="#FEBD33"/>
</linearGradient>
<linearGradient id="paint2_linear" x1="34.0218" y1="57.1042" x2="34.0218" y2="58.0643" gradientUnits="userSpaceOnUse">
<stop stop-color="#F16122"/>
<stop offset="1" stop-color="#FEBD33"/>
</linearGradient>
<linearGradient id="paint3_linear" x1="34.0218" y1="57.1042" x2="34.0218" y2="58.0643" gradientUnits="userSpaceOnUse">
<stop stop-color="#F16122"/>
<stop offset="1" stop-color="#FEBD33"/>
</linearGradient>
<linearGradient id="paint4_linear" x1="38.5" y1="1" x2="38.5" y2="91.448" gradientUnits="userSpaceOnUse">
<stop stop-color="#F16122"/>
<stop offset="1" stop-color="#FEBD33"/>
</linearGradient>
<linearGradient id="paint5_linear" x1="38.5" y1="1" x2="38.5" y2="91.448" gradientUnits="userSpaceOnUse">
<stop stop-color="#F16122"/>
<stop offset="1" stop-color="#FEBD33"/>
</linearGradient>
</defs>
</svg>
