<svg width="66" height="66" viewBox="0 0 66 66" fill="none" xmlns="http://www.w3.org/2000/svg">
<path d="M35.0847 36.993C31.1922 38.5512 27.501 34.8779 29.0668 31.0044C29.4903 29.9573 30.3353 29.1164 31.3876 28.695C35.2801 27.1368 38.9713 30.81 37.4055 34.6835C36.9821 35.7311 36.137 36.5716 35.0847 36.993ZM34.7032 30.2396C31.9772 28.902 29.2749 31.5912 30.619 34.3038C30.864 34.7982 31.2724 35.2046 31.7691 35.4484C34.4951 36.7859 37.1974 34.0968 35.8533 31.3841C35.6084 30.8898 35.1999 30.4833 34.7032 30.2396Z" fill="url(#paint0_linear)" stroke="url(#paint1_linear)" stroke-miterlimit="10"/>
<path d="M58.2481 31.7705C57.6949 18.8075 47.1383 8.37683 34.0807 7.94593C34.0019 7.94321 33.9395 7.87978 33.9395 7.8014V1.73129C33.9395 1.32759 33.6104 1 33.2047 1H33.1628C32.7275 1 32.3746 1.35115 32.3746 1.78431V7.80593C32.3746 7.88386 32.3127 7.94729 32.2344 7.95046C19.2482 8.46065 8.77547 18.861 8.22272 31.771C8.21953 31.8489 8.15578 31.9101 8.07747 31.9101H1.81366C1.36426 31.9101 1 32.2726 1 32.7198C1 33.1325 1.33648 33.4674 1.75127 33.4674H8.06655C8.14532 33.4674 8.20952 33.5299 8.21179 33.6083C8.60792 46.661 19.1458 57.2245 32.2344 57.7383C32.3127 57.7414 32.3746 57.8049 32.3746 57.8828V64.1314C32.3746 64.6112 32.7653 65 33.2475 65C33.6295 65 33.9395 64.6914 33.9395 64.3113V57.8869C33.9395 57.8085 34.0019 57.7451 34.0807 57.7423C47.2412 57.3078 57.8624 46.7136 58.259 33.6083C58.2613 33.5299 58.3255 33.4674 58.4043 33.4674H64.5392C64.9672 33.4674 65.3142 33.1221 65.3142 32.6962V32.6939C65.3142 32.2612 64.9613 31.9101 64.5265 31.9101H58.3933C58.315 31.9096 58.2513 31.8485 58.2481 31.7705ZM33.9395 56.0396V46.4843C33.9395 46.0462 33.5826 45.6909 33.1423 45.6909C32.7184 45.6909 32.3751 46.033 32.3751 46.4544V56.0324C32.3751 56.1162 32.3045 56.1837 32.2203 56.1801C20.0027 55.6595 10.1788 45.8056 9.77444 33.6196C9.7717 33.5367 9.83955 33.4669 9.92288 33.4669H19.6262C20.056 33.4669 20.4043 33.1203 20.4043 32.6926C20.4043 32.2603 20.0523 31.9101 19.618 31.9101H9.93744C9.85321 31.9101 9.78537 31.8394 9.78901 31.7556C10.3454 19.7137 20.107 10.0252 32.2203 9.5082C32.304 9.50458 32.3751 9.57209 32.3751 9.65591V19.5728C32.3751 19.9797 32.7065 20.3091 33.115 20.3091H33.171C33.5958 20.3091 33.94 19.9665 33.94 19.5438V9.64866C33.94 9.56529 34.0101 9.49778 34.0939 9.50095C46.28 9.94045 56.1226 19.6602 56.6827 31.7556C56.6863 31.8394 56.6185 31.9101 56.5343 31.9101H46.7053C46.2664 31.9101 45.9108 32.264 45.9108 32.7007C45.9108 33.1239 46.2554 33.4674 46.6812 33.4674H56.5488C56.6321 33.4674 56.7 33.5367 56.6973 33.6201C56.2925 45.8595 46.3839 55.7446 34.0939 56.1878C34.0097 56.19 33.9395 56.123 33.9395 56.0396Z" fill="url(#paint2_linear)" stroke="url(#paint3_linear)" stroke-miterlimit="10"/>
<defs>
<linearGradient id="paint0_linear" x1="33.2362" y1="28.3282" x2="33.2362" y2="37.3598" gradientUnits="userSpaceOnUse">
<stop stop-color="#F16122"/>
<stop offset="1" stop-color="#FEBD33"/>
</linearGradient>
<linearGradient id="paint1_linear" x1="33.2362" y1="28.3282" x2="33.2362" y2="37.3598" gradientUnits="userSpaceOnUse">
<stop stop-color="#F16122"/>
<stop offset="1" stop-color="#FEBD33"/>
</linearGradient>
<linearGradient id="paint2_linear" x1="33.1571" y1="1" x2="33.1571" y2="65" gradientUnits="userSpaceOnUse">
<stop stop-color="#F16122"/>
<stop offset="1" stop-color="#FEBD33"/>
</linearGradient>
<linearGradient id="paint3_linear" x1="33.1571" y1="1" x2="33.1571" y2="65" gradientUnits="userSpaceOnUse">
<stop stop-color="#F16122"/>
<stop offset="1" stop-color="#FEBD33"/>
</linearGradient>
</defs>
</svg>
