<svg width="115" height="106" viewBox="0 0 115 106" fill="none" xmlns="http://www.w3.org/2000/svg">
<path d="M63.854 47.4272C58.7346 43.5435 52.9092 40.8956 46.9072 39.6599C54.3214 36.7472 59.6173 29.5095 59.6173 21.0361C59.6173 10.003 50.6143 1 39.5812 1C28.5481 1 19.5452 10.003 19.5452 21.0361C19.5452 29.3329 24.5762 36.3941 31.7257 39.4834C27.489 40.2777 23.4288 41.69 19.6334 43.8966C4.89322 52.5465 1.62744 68.4342 1.00959 73.4652C0.921325 74.2596 1.45091 74.8775 2.24529 74.9657C2.95141 75.054 3.56926 74.5244 3.65753 73.8183C4.27538 69.1403 7.27637 54.2236 21.0457 46.1915C33.6675 38.7773 50.0847 40.1895 62.3535 49.5455C62.6183 49.7221 62.8831 49.8103 63.1479 49.8103C63.5009 49.8103 63.9422 49.6338 64.207 49.2807C64.5601 48.7512 64.3836 47.9568 63.854 47.4272ZM22.1048 21.0361C22.1048 11.5035 29.8721 3.64794 39.493 3.64794C49.1138 3.64794 56.8811 11.4152 56.8811 21.0361C56.8811 30.5686 49.1138 38.4242 39.493 38.4242C29.8721 38.4242 22.1048 30.5686 22.1048 21.0361Z" fill="url(#paint0_linear)" stroke="url(#paint1_linear)" stroke-width="2" stroke-miterlimit="10"/>
<path d="M112.664 61.02C107.545 57.1363 101.719 54.4884 95.7172 53.2527C103.131 50.3399 108.427 43.1022 108.427 34.6288C108.427 23.5958 99.4244 14.5928 88.3913 14.5928C77.3582 14.5928 68.3552 23.5958 68.3552 34.6288C68.3552 42.9257 73.3863 49.9869 80.5357 53.0761C76.299 53.8705 72.2388 55.2828 68.4435 57.4894C53.7033 66.1393 50.4375 82.0269 49.8196 87.058C49.7314 87.8524 50.261 88.4702 51.0553 88.5585C51.7615 88.6468 52.3793 88.1172 52.4676 87.4111C53.0854 82.733 56.0864 67.8163 69.8557 59.7842C82.4775 52.37 98.8948 53.7823 111.164 63.1383C111.428 63.3148 111.693 63.4031 111.958 63.4031C112.311 63.4031 112.752 63.2266 113.017 62.8735C113.37 62.3439 113.282 61.5495 112.664 61.02ZM71.0032 34.6288C71.0032 25.0963 78.7704 17.2407 88.3913 17.2407C98.0121 17.2407 105.779 25.008 105.779 34.6288C105.779 44.1614 98.0121 52.017 88.3913 52.017C78.7704 52.017 71.0032 44.2497 71.0032 34.6288Z" fill="url(#paint2_linear)" stroke="url(#paint3_linear)" stroke-width="2" stroke-miterlimit="10"/>
<path d="M104.456 81.409C104.456 80.6147 104.279 79.8203 104.015 79.1142C103.75 78.3198 103.309 77.5254 102.867 76.8193C101.102 74.2596 98.1009 72.5826 94.7468 72.5826C92.3637 72.5826 90.1571 73.4652 88.3918 74.7892C86.7148 73.377 84.5082 72.5826 82.0367 72.5826C78.6827 72.5826 75.6817 74.2596 73.9164 76.8193C73.3868 77.5254 73.0338 78.3198 72.769 79.1142C72.5042 79.8203 72.4159 80.6147 72.3276 81.409C72.3276 81.5856 72.3276 81.7621 72.3276 81.9386C72.3276 83.8804 72.9455 85.6457 74.0047 87.1462C74.0047 87.2345 74.0929 87.2345 74.1812 87.3228L74.9756 88.2937L88.48 104.623L101.985 88.2937L102.779 87.3228C102.867 87.2345 102.867 87.2345 102.955 87.1462C104.015 85.6457 104.632 83.8804 104.632 81.9386C104.456 81.7621 104.456 81.5856 104.456 81.409ZM88.3035 100.827L80.2715 91.1181L76.5643 86.7049C76.2995 86.4401 76.123 86.1753 75.8582 85.9105C75.0638 84.7631 74.6225 83.4391 74.6225 82.0269C74.6225 81.056 74.799 80.0851 75.2404 79.2024C75.6817 78.3198 76.2113 77.5254 77.0057 76.9075C78.3296 75.7601 80.0949 75.054 81.9485 75.054C83.7138 75.054 85.3908 75.6718 86.6265 76.731C86.7148 76.8193 86.803 76.9075 86.8913 76.9958L88.3035 78.2315L89.7158 76.9958C89.804 76.9075 89.8923 76.8193 89.9806 76.731C91.2163 75.6718 92.8933 75.054 94.6586 75.054C96.6004 75.054 98.2774 75.7601 99.6014 76.9075C100.308 77.5254 100.925 78.3198 101.367 79.2024C101.72 80.0851 101.985 80.9677 101.985 82.0269C101.985 83.4391 101.543 84.7631 100.749 85.9105C100.572 86.1753 100.308 86.4401 100.043 86.7049L96.3356 91.1181L88.3035 100.827Z" fill="url(#paint4_linear)" stroke="url(#paint5_linear)" stroke-miterlimit="10"/>
<defs>
<linearGradient id="paint0_linear" x1="32.6954" y1="1" x2="32.6954" y2="74.9754" gradientUnits="userSpaceOnUse">
<stop stop-color="#F16122"/>
<stop offset="1" stop-color="#FEBD33"/>
</linearGradient>
<linearGradient id="paint1_linear" x1="32.6954" y1="1" x2="32.6954" y2="74.9754" gradientUnits="userSpaceOnUse">
<stop stop-color="#F16122"/>
<stop offset="1" stop-color="#FEBD33"/>
</linearGradient>
<linearGradient id="paint2_linear" x1="81.5168" y1="14.5928" x2="81.5168" y2="88.5681" gradientUnits="userSpaceOnUse">
<stop stop-color="#F16122"/>
<stop offset="1" stop-color="#FEBD33"/>
</linearGradient>
<linearGradient id="paint3_linear" x1="81.5168" y1="14.5928" x2="81.5168" y2="88.5681" gradientUnits="userSpaceOnUse">
<stop stop-color="#F16122"/>
<stop offset="1" stop-color="#FEBD33"/>
</linearGradient>
<linearGradient id="paint4_linear" x1="88.4801" y1="72.5826" x2="88.4801" y2="104.623" gradientUnits="userSpaceOnUse">
<stop stop-color="#F16122"/>
<stop offset="1" stop-color="#FEBD33"/>
</linearGradient>
<linearGradient id="paint5_linear" x1="88.4801" y1="72.5826" x2="88.4801" y2="104.623" gradientUnits="userSpaceOnUse">
<stop stop-color="#F16122"/>
<stop offset="1" stop-color="#FEBD33"/>
</linearGradient>
</defs>
</svg>
