<svg width="104" height="82" viewBox="0 0 104 82" fill="none" xmlns="http://www.w3.org/2000/svg">
<path d="M57.9502 43.0074C53.3183 39.4935 48.0474 37.0976 42.6168 35.9795C49.3252 33.3441 54.1169 26.7954 54.1169 19.1287C54.1169 9.14593 45.971 1 35.9882 1C26.0055 1 17.7797 9.06607 17.7797 19.1287C17.7797 26.6357 22.3318 33.0246 28.8006 35.8198C24.9673 36.5386 21.2936 37.8164 17.8595 39.8129C4.60246 47.6394 1.64757 62.0145 1.00868 66.5667C0.928815 67.2854 1.40799 67.8445 2.12674 67.9243C2.76564 68.0042 3.32467 67.525 3.40454 66.8861C3.96357 62.6534 6.67888 49.1568 19.1373 41.8893C30.5576 35.1809 45.4119 36.4587 56.5127 44.9241C56.7523 45.0838 56.9919 45.1637 57.2315 45.1637C57.5509 45.1637 57.9502 45.0039 58.1898 44.6845C58.5891 44.2053 58.5093 43.4067 57.9502 43.0074ZM20.1755 19.1287C20.1755 10.5036 27.2034 3.39586 35.9083 3.39586C44.6133 3.39586 51.6412 10.4237 51.6412 19.1287C51.6412 27.7538 44.6133 34.8615 35.9083 34.8615C27.2034 34.8615 20.1755 27.7538 20.1755 19.1287Z" fill="url(#paint0_linear)" stroke="url(#paint1_linear)" stroke-width="2" stroke-miterlimit="10"/>
<path d="M102.114 55.3063C97.4816 51.7923 92.2107 49.3965 86.7801 48.2784C93.4885 45.643 98.2802 39.0943 98.2802 31.4276C98.2802 21.4448 90.1343 13.2989 80.1515 13.2989C70.1688 13.2989 62.0229 21.4448 62.0229 31.4276C62.0229 38.9346 66.575 45.3235 73.0438 48.1187C69.2104 48.8375 65.5368 50.1152 62.1027 52.1118C48.7658 59.9383 45.8109 74.3134 45.2518 78.8655C45.172 79.5843 45.6511 80.1433 46.3699 80.2232C47.0088 80.3031 47.5678 79.8239 47.6477 79.185C48.2067 74.9523 50.922 61.4556 63.3805 54.1882C74.8008 47.4798 89.6551 48.7576 100.756 57.223C100.995 57.3827 101.235 57.4626 101.475 57.4626C101.794 57.4626 102.193 57.3028 102.433 56.9834C102.752 56.5042 102.673 55.7056 102.114 55.3063ZM64.4187 31.4276C64.4187 22.8025 71.4466 15.6948 80.1515 15.6948C88.8565 15.6948 95.8843 22.7226 95.8843 31.4276C95.8843 40.0526 88.8565 47.1604 80.1515 47.1604C71.4466 47.1604 64.4187 40.0526 64.4187 31.4276Z" fill="url(#paint2_linear)" stroke="url(#paint3_linear)" stroke-width="2" stroke-miterlimit="10"/>
<defs>
<linearGradient id="paint0_linear" x1="29.7197" y1="1" x2="29.7197" y2="67.933" gradientUnits="userSpaceOnUse">
<stop stop-color="#F16122"/>
<stop offset="1" stop-color="#FEBD33"/>
</linearGradient>
<linearGradient id="paint1_linear" x1="29.7197" y1="1" x2="29.7197" y2="67.933" gradientUnits="userSpaceOnUse">
<stop stop-color="#F16122"/>
<stop offset="1" stop-color="#FEBD33"/>
</linearGradient>
<linearGradient id="paint2_linear" x1="73.9315" y1="13.2989" x2="73.9315" y2="80.2319" gradientUnits="userSpaceOnUse">
<stop stop-color="#F16122"/>
<stop offset="1" stop-color="#FEBD33"/>
</linearGradient>
<linearGradient id="paint3_linear" x1="73.9315" y1="13.2989" x2="73.9315" y2="80.2319" gradientUnits="userSpaceOnUse">
<stop stop-color="#F16122"/>
<stop offset="1" stop-color="#FEBD33"/>
</linearGradient>
</defs>
</svg>
