<svg width="247" height="132" viewBox="0 0 247 132" fill="none" xmlns="http://www.w3.org/2000/svg">
<path d="M4.39372 11.714C2.88636 11.1554 1.77567 10.4371 1.14098 9.63904C0.506305 8.84097 0.188965 7.80346 0.188965 6.52654C0.188965 4.9304 0.74431 3.6535 1.93433 2.69582C3.12436 1.73813 4.71106 1.2593 6.69444 1.2593C8.36047 1.2593 9.94717 1.57851 11.5339 2.21697V5.09003C9.86784 4.61118 8.36047 4.29196 6.93244 4.29196C4.94907 4.29196 3.91771 4.93041 3.91771 6.20732C3.91771 6.68616 4.07638 7.0852 4.39372 7.40443C4.71106 7.72365 5.34574 8.04289 6.29776 8.36212L8.2018 9.08038C9.7885 9.63903 10.8992 10.3573 11.5339 11.0756C12.1686 11.8736 12.5652 12.8313 12.5652 14.1082C12.5652 15.864 11.9305 17.2207 10.6612 18.2582C9.39183 19.2957 7.72579 19.7745 5.50441 19.7745C4.55239 19.7745 3.60037 19.6947 2.64835 19.5351C1.69633 19.3755 0.90298 19.1361 0.188965 18.8168V15.864C1.06165 16.1034 1.93434 16.3428 2.88636 16.5024C3.83838 16.662 4.71106 16.7419 5.50441 16.7419C6.53577 16.7419 7.24978 16.5822 7.80513 16.1832C8.36047 15.7842 8.59848 15.3053 8.59848 14.5871C8.59848 14.0284 8.43981 13.6294 8.12247 13.3101C7.80513 12.9909 7.09111 12.6717 6.13909 12.2727L4.39372 11.714ZM23.2755 19.1361C22.3234 19.4553 21.3714 19.6947 20.1814 19.6947C18.7534 19.6947 17.6427 19.3755 17.008 18.6572C16.294 18.0188 15.9766 16.9015 15.9766 15.4649V9.16019H13.9933V6.84579L16.056 6.44676L16.6113 2.85544H19.626V6.36694H23.1168V9.16019H19.626V15.3053C19.626 15.864 19.7847 16.263 20.0227 16.4226C20.2607 16.6621 20.7367 16.7419 21.3714 16.7419C21.9268 16.7419 22.4821 16.662 23.1961 16.5822V19.1361H23.2755ZM32.9543 19.4553L32.637 18.338C32.0816 18.8168 31.5263 19.2159 30.8123 19.4553C30.0983 19.7745 29.4636 19.8543 28.8289 19.8543C27.5595 19.8543 26.6075 19.5351 25.8142 18.8168C25.1002 18.0986 24.7035 17.1409 24.7035 15.9438C24.7035 15.1457 24.9415 14.4274 25.3382 13.789C25.7348 13.1505 26.2902 12.6717 27.0835 12.3525C27.8769 12.0332 28.7496 11.7938 29.7809 11.7938C30.5743 11.7938 31.5263 11.8736 32.4783 12.113V10.8361C32.4783 10.0381 32.3196 9.47942 32.0023 9.24C31.685 8.92077 31.1296 8.84097 30.2569 8.84097C28.8289 8.84097 27.3215 9.08039 25.6555 9.63904V7.16501C26.2902 6.84579 27.0835 6.60637 28.0356 6.36694C28.9876 6.20733 29.9396 6.04772 30.8916 6.04772C32.637 6.04772 33.9063 6.36694 34.6997 7.0852C35.493 7.80347 35.8897 8.92077 35.8897 10.4371V19.4553H32.9543ZM29.9396 17.3803C30.3363 17.3803 30.8123 17.3005 31.209 17.0611C31.6056 16.8217 32.0816 16.5822 32.4783 16.263V14.0284C31.7643 13.9486 31.0503 13.8688 30.4949 13.8688C28.9876 13.8688 28.2736 14.4275 28.2736 15.6246C28.2736 16.1832 28.4322 16.5822 28.6702 16.8217C28.9876 17.2207 29.3843 17.3803 29.9396 17.3803ZM47.7106 19.4553V10.9159C47.7106 10.1977 47.552 9.71883 47.2346 9.3996C46.9173 9.08037 46.4413 8.92075 45.8066 8.92075C44.8546 8.92075 43.9819 9.23999 43.0299 9.79864V19.4553H39.3805V6.36694H42.3952L42.7919 7.80346C44.2992 6.60636 45.9653 6.04772 47.6313 6.04772C48.8213 6.04772 49.7734 6.36693 50.408 7.00539C51.0427 7.64385 51.3601 8.60153 51.3601 9.79864V19.4553H47.7106ZM63.7363 19.4553L63.419 18.338C62.3876 19.2957 61.1183 19.7745 59.6902 19.7745C58.6589 19.7745 57.7069 19.5351 56.9135 18.9764C56.1202 18.4178 55.4855 17.6995 55.0095 16.662C54.5335 15.6246 54.2954 14.4275 54.2954 13.0707C54.2954 10.9957 54.7715 9.24 55.8028 7.96308C56.8342 6.68617 58.1035 6.04772 59.7696 6.04772C61.1183 6.04772 62.3083 6.44675 63.2603 7.16501V0.541016H66.9891V19.4553H63.7363ZM60.8803 16.9015C61.6736 16.9015 62.467 16.662 63.181 16.1832V9.3996C62.467 9.00057 61.5943 8.76116 60.6423 8.76116C59.7696 8.76116 59.0555 9.08037 58.6589 9.79864C58.2622 10.5169 58.0242 11.4746 58.0242 12.8313C58.0242 14.188 58.2622 15.2255 58.7382 15.864C59.2142 16.5024 59.9282 16.9015 60.8803 16.9015ZM77.9373 19.4553L77.6199 18.338C77.0646 18.8168 76.5093 19.2159 75.7952 19.4553C75.0812 19.7745 74.4465 19.8543 73.8119 19.8543C72.5425 19.8543 71.5905 19.5351 70.7971 18.8168C70.0831 18.0986 69.6864 17.1409 69.6864 15.9438C69.6864 15.1457 69.9244 14.4274 70.3211 13.789C70.7178 13.1505 71.2731 12.6717 72.0665 12.3525C72.8598 12.0332 73.7325 11.7938 74.7639 11.7938C75.5572 11.7938 76.5093 11.8736 77.4613 12.113V10.8361C77.4613 10.0381 77.3026 9.47942 76.9853 9.24C76.6679 8.92077 76.1126 8.84097 75.2399 8.84097C73.8119 8.84097 72.3045 9.08039 70.6385 9.63904V7.16501C71.2731 6.84579 72.0665 6.60637 73.0185 6.36694C73.9705 6.20733 74.9226 6.04772 75.8746 6.04772C77.6199 6.04772 78.8893 6.36694 79.6827 7.0852C80.476 7.80347 80.8727 8.92077 80.8727 10.4371V19.4553H77.9373ZM74.8432 17.3803C75.2399 17.3803 75.7159 17.3005 76.1126 17.0611C76.5093 16.8217 76.9853 16.5822 77.3819 16.263V14.0284C76.6679 13.9486 75.9539 13.8688 75.3986 13.8688C73.8912 13.8688 73.1772 14.4275 73.1772 15.6246C73.1772 16.1832 73.3358 16.5822 73.5739 16.8217C73.8912 17.2207 74.3672 17.3803 74.8432 17.3803ZM84.3634 19.4553V6.36694H87.3782L87.8542 8.28231C88.5682 7.56404 89.2029 7.0054 89.7582 6.68617C90.3135 6.36694 91.0276 6.20732 91.6622 6.20732C91.9796 6.20732 92.2969 6.20732 92.6936 6.28713V9.71883C92.2176 9.63902 91.6622 9.55923 91.1069 9.55923C89.9962 9.55923 88.9649 9.71883 88.0128 10.1179V19.4553H84.3634ZM103.404 19.4553L103.086 18.338C102.055 19.2957 100.786 19.7745 99.3577 19.7745C98.3264 19.7745 97.3744 19.5351 96.581 18.9764C95.7877 18.4178 95.153 17.6995 94.677 16.662C94.201 15.6246 93.963 14.4275 93.963 13.0707C93.963 10.9957 94.439 9.24 95.4703 7.96308C96.5017 6.68617 97.771 6.04772 99.4371 6.04772C100.786 6.04772 101.976 6.44675 102.928 7.16501V0.541016H106.657V19.4553H103.404ZM100.548 16.9015C101.341 16.9015 102.134 16.662 102.848 16.1832V9.3996C102.134 9.00057 101.262 8.76116 100.31 8.76116C99.4371 8.76116 98.7231 9.08037 98.3264 9.79864C97.9297 10.5169 97.6917 11.4746 97.6917 12.8313C97.6917 14.188 97.9297 15.2255 98.4057 15.864C98.8817 16.5024 99.5957 16.9015 100.548 16.9015Z" fill="white"/>
<path d="M20.1019 75.9588C14.3898 75.9588 10.0263 74.3627 7.01161 71.0906C3.99688 67.8185 2.56885 63.0301 2.56885 56.7254C2.56885 50.4206 4.07621 45.6322 7.17028 42.2803C10.2643 38.9284 14.6278 37.3322 20.3399 37.3322C22.9579 37.3322 25.4967 37.7313 28.0354 38.5293C28.2734 38.6092 28.4321 38.689 28.5114 38.8486C28.5907 39.0082 28.6701 39.2476 28.6701 39.5669V40.764C28.6701 41.2428 28.4321 41.4822 28.0354 41.4822C27.8767 41.4822 27.3214 41.4024 26.4487 41.163C25.6553 40.9236 24.7033 40.764 23.672 40.6841C22.5613 40.5245 21.6093 40.5245 20.7366 40.5245C15.8178 40.5245 12.1684 41.8014 9.709 44.4351C7.24961 46.9889 6.05959 50.8994 6.05959 56.0869V57.4436C6.05959 67.8185 10.8197 73.006 20.3399 73.006C22.6406 73.006 24.9413 72.6867 27.242 72.0483C27.8767 71.8887 28.3527 71.8089 28.5114 71.8089C28.9081 71.8089 29.1461 72.0483 29.1461 72.5271V73.7242C29.1461 74.0435 29.0667 74.2829 28.9874 74.4425C28.9081 74.6021 28.7494 74.6819 28.5114 74.7617C25.814 75.48 23.0373 75.9588 20.1019 75.9588ZM46.4411 76.1185C42.4744 76.1185 39.3803 74.8415 37.2383 72.2877C35.0169 69.7339 33.9855 66.2224 33.9855 61.5936C33.9855 57.0446 35.0962 53.5331 37.2383 50.9792C39.3803 48.4254 42.4744 47.1485 46.4411 47.1485C50.4079 47.1485 53.5019 48.4254 55.644 50.9792C57.786 53.5331 58.8967 57.0446 58.8967 61.5936C58.8967 66.1426 57.786 69.7339 55.644 72.2877C53.5019 74.8415 50.4079 76.1185 46.4411 76.1185ZM46.4411 73.3252C52.6292 73.3252 55.8026 69.4147 55.8026 61.6734C55.8026 53.9321 52.7086 50.1014 46.4411 50.1014C40.253 50.1014 37.0796 53.9321 37.0796 61.6734C37.0796 69.4147 40.253 73.3252 46.4411 73.3252ZM66.7509 75.3204C66.1955 75.3204 65.9575 75.081 65.9575 74.5223V48.8244C65.9575 48.2658 66.1955 48.0264 66.7509 48.0264H67.8616C68.4169 48.0264 68.7343 48.2658 68.8136 48.8244L69.0516 51.1389C70.797 49.862 72.701 48.9043 74.605 48.186C76.5091 47.4677 78.4131 47.1485 80.2378 47.1485C82.8559 47.1485 84.8393 47.8668 86.2673 49.2235C87.616 50.5802 88.33 52.6552 88.33 55.3686V74.5223C88.33 75.081 88.092 75.3204 87.5367 75.3204H86.1086C85.5533 75.3204 85.3153 75.081 85.3153 74.5223V56.8051C85.3153 54.4907 84.8393 52.735 83.9666 51.6975C83.0939 50.66 81.6659 50.1014 79.6825 50.1014C76.1124 50.1014 72.6217 51.2187 69.2103 53.5331V74.5223C69.2103 75.081 68.9723 75.3204 68.4169 75.3204H66.7509ZM103.483 76.1185C102.055 76.1185 100.627 75.9588 99.1989 75.7194C97.7709 75.4002 96.5015 75.0012 95.3115 74.5223C94.9148 74.3627 94.6768 73.9637 94.6768 73.405V72.4473C94.6768 71.9685 94.8355 71.8089 95.3115 71.8089C95.3908 71.8089 95.5495 71.8089 95.7875 71.8887C96.0255 71.9685 96.5808 72.1281 97.2949 72.3675C99.2782 73.006 101.42 73.3252 103.642 73.3252C105.863 73.3252 107.529 72.8464 108.64 71.9685C109.75 71.0906 110.385 69.8137 110.385 68.0579C110.385 67.1003 110.068 66.2224 109.354 65.5839C108.64 64.8657 107.45 64.2272 105.784 63.6686L100.865 61.833C96.9775 60.3965 95.0735 58.0023 95.0735 54.7302C95.0735 52.4956 95.9462 50.66 97.6122 49.3033C99.2782 47.9466 101.5 47.2283 104.197 47.2283C106.577 47.2283 108.957 47.7072 111.258 48.585C111.654 48.7446 111.892 49.1437 111.892 49.7023V50.5004C111.892 50.9792 111.734 51.2187 111.337 51.2187C111.099 51.2187 110.623 51.1389 109.988 50.9792C107.688 50.3408 105.784 50.0216 104.038 50.0216C102.134 50.0216 100.627 50.4206 99.5956 51.2187C98.5642 52.0167 98.0882 53.134 98.0882 54.6504C98.0882 55.8475 98.4055 56.8052 99.1196 57.5234C99.8336 58.2417 101.182 58.9599 103.245 59.6782L107.529 61.2743C109.512 61.9926 111.02 62.9503 111.892 64.0676C112.765 65.1849 113.241 66.5416 113.241 68.1377C113.241 70.6118 112.368 72.5271 110.544 73.9636C108.957 75.4002 106.498 76.1185 103.483 76.1185ZM127.125 76.1185C124.507 76.1185 122.523 75.4002 121.175 74.0435C119.826 72.6867 119.112 70.532 119.112 67.8185V48.8244C119.112 48.2658 119.35 48.0264 119.905 48.0264H121.333C121.889 48.0264 122.127 48.2658 122.127 48.8244V66.5416C122.127 68.9358 122.603 70.6916 123.475 71.7291C124.348 72.7666 125.776 73.3252 127.759 73.3252C129.505 73.3252 131.171 73.0858 132.678 72.5271C134.186 71.9685 135.852 71.0906 137.597 69.8935V48.9043C137.597 48.3456 137.835 48.1062 138.39 48.1062H139.818C140.374 48.1062 140.612 48.3456 140.612 48.9043V74.5223C140.612 75.081 140.374 75.3204 139.818 75.3204H138.708C138.152 75.3204 137.835 75.081 137.756 74.5223L137.518 72.3675C134.344 74.8415 130.854 76.1185 127.125 76.1185ZM153.781 75.48C152.353 75.48 151.243 75.081 150.449 74.2031C149.656 73.3252 149.259 72.2079 149.259 70.6118V35.8957C149.259 35.3371 149.497 35.0977 150.053 35.0977H151.481C152.036 35.0977 152.274 35.3371 152.274 35.8957V70.532C152.274 71.33 152.433 71.8887 152.75 72.2079C153.067 72.5271 153.623 72.6868 154.416 72.6868C154.654 72.6868 154.892 72.6868 155.13 72.6069C155.368 72.6069 155.606 72.5271 155.765 72.5271C156.241 72.5271 156.558 72.7666 156.558 73.3252V74.3627C156.558 74.8415 156.32 75.0809 155.844 75.1608C155.289 75.4002 154.575 75.48 153.781 75.48ZM171.076 75.6396C168.934 75.6396 167.348 75.0809 166.237 73.9636C165.126 72.8464 164.571 71.1704 164.571 69.0156V50.8196H160.287C159.732 50.8196 159.493 50.5802 159.493 50.0216V49.4629C159.493 49.1437 159.573 48.9841 159.652 48.8244C159.732 48.6648 159.97 48.585 160.287 48.585L164.65 48.186L165.047 41.0034C165.047 40.6841 165.126 40.5245 165.285 40.3649C165.444 40.2053 165.602 40.2053 165.84 40.2053H166.792C167.348 40.2053 167.586 40.4447 167.586 41.0034V48.1062H175.44C175.995 48.1062 176.233 48.3456 176.233 48.9043V50.0216C176.233 50.5802 175.995 50.8196 175.44 50.8196H167.586V68.856C167.586 70.3723 167.903 71.4098 168.538 71.9685C169.172 72.5271 170.204 72.9262 171.711 72.9262C172.742 72.9262 173.694 72.8464 174.488 72.6868C174.885 72.607 175.202 72.5271 175.44 72.5271C175.678 72.4473 175.837 72.4473 175.916 72.4473C176.313 72.4473 176.551 72.6868 176.551 73.0858V73.8839C176.551 74.5223 176.313 74.8415 175.916 75.0012C174.488 75.4002 172.901 75.6396 171.076 75.6396ZM183.294 75.3204C182.739 75.3204 182.501 75.081 182.501 74.5223V48.8244C182.501 48.2658 182.739 48.0264 183.294 48.0264H184.722C185.277 48.0264 185.515 48.2658 185.515 48.8244V74.5223C185.515 75.081 185.277 75.3204 184.722 75.3204H183.294ZM184.008 42.2005C183.294 42.2005 182.739 41.9611 182.342 41.562C181.945 41.163 181.707 40.5245 181.707 39.8063C181.707 39.088 181.945 38.5293 182.342 38.0505C182.739 37.6515 183.294 37.4121 184.008 37.4121C184.722 37.4121 185.277 37.6515 185.674 38.0505C186.071 38.4495 186.309 39.088 186.309 39.8063C186.309 40.5245 186.071 41.0832 185.674 41.562C185.277 41.9611 184.722 42.2005 184.008 42.2005ZM194.956 75.3204C194.401 75.3204 194.163 75.081 194.163 74.5223V48.8244C194.163 48.2658 194.401 48.0264 194.956 48.0264H196.067C196.622 48.0264 196.94 48.2658 197.019 48.8244L197.257 51.1389C199.002 49.862 200.906 48.9043 202.81 48.186C204.714 47.4677 206.619 47.1485 208.443 47.1485C211.061 47.1485 213.045 47.8668 214.473 49.2235C215.821 50.5802 216.535 52.6552 216.535 55.3686V74.5223C216.535 75.081 216.297 75.3204 215.742 75.3204H214.314C213.759 75.3204 213.521 75.081 213.521 74.5223V56.8051C213.521 54.4907 213.045 52.735 212.172 51.6975C211.299 50.66 209.871 50.1014 207.888 50.1014C204.318 50.1014 200.827 51.2187 197.336 53.5331V74.5223C197.336 75.081 197.098 75.3204 196.543 75.3204H194.956ZM234.386 87.1318C232.878 87.1318 231.371 86.9722 229.943 86.653C228.515 86.3338 227.246 85.9347 226.135 85.3761C225.738 85.2165 225.5 84.8174 225.5 84.2588V83.4607C225.5 82.9819 225.659 82.7424 226.135 82.7424C226.214 82.7424 226.373 82.7424 226.452 82.8222C226.611 82.8222 226.77 82.9021 227.166 83.0617C229.705 83.8597 232.085 84.3386 234.148 84.3386C237.48 84.3386 239.939 83.5405 241.526 81.8646C243.113 80.1886 243.906 77.555 243.906 73.9636V71.33C242.557 72.4473 241.129 73.3252 239.463 73.9636C237.877 74.6021 236.29 74.9213 234.862 74.9213C231.371 74.9213 228.674 73.6444 226.532 71.1704C224.469 68.6964 223.438 65.4243 223.438 61.3542C223.438 56.9648 224.469 53.5331 226.532 50.9792C228.594 48.4254 231.45 47.1485 234.941 47.1485C238.353 47.1485 241.288 48.3456 243.906 50.7398L244.144 48.7447C244.223 48.186 244.541 47.9466 245.096 47.9466H246.207C246.762 47.9466 247 48.186 247 48.7447V73.9636C247 78.1934 245.889 81.4655 243.747 83.7001C241.605 85.9347 238.432 87.1318 234.386 87.1318ZM235.576 72.1281C238.273 72.1281 241.05 71.0108 243.906 68.6964V53.6129C242.399 52.4158 241.05 51.4581 239.622 50.8994C238.194 50.3408 236.766 50.0216 235.258 50.0216C232.402 50.0216 230.181 50.9792 228.753 52.8148C227.325 54.6504 226.532 57.4436 226.532 61.1945C226.532 64.706 227.325 67.4195 228.832 69.3349C230.34 71.2502 232.64 72.1281 235.576 72.1281Z" fill="white"/>
<path d="M4.47304 131.185C3.91769 131.185 3.67969 130.946 3.67969 130.387V94.3943C3.67969 93.8356 3.91769 93.5962 4.47304 93.5962H16.532C19.9434 93.5962 22.6408 94.6337 24.7035 96.6289C26.7662 98.624 27.7182 101.337 27.7182 104.769C27.7182 108.121 26.6868 110.835 24.7035 112.83C22.6408 114.825 19.9434 115.862 16.532 115.862H6.77375V130.387C6.77375 130.946 6.53575 131.185 5.9804 131.185H4.47304ZM16.4526 112.989C21.7681 112.989 24.4655 110.276 24.4655 104.769C24.4655 99.2625 21.7681 96.4692 16.4526 96.4692H6.77375V112.989H16.4526ZM40.9671 131.824C38.5078 131.824 36.5244 131.105 35.0964 129.669C33.6683 128.232 32.875 126.317 32.875 123.923C32.875 121.289 33.7477 119.214 35.5724 117.698C37.3971 116.182 39.8565 115.384 42.9505 115.384C45.3306 115.384 47.9486 115.783 50.646 116.66V112.111C50.646 109.877 50.0907 108.361 49.0593 107.403C48.028 106.445 46.2826 105.966 43.9025 105.966C41.4432 105.966 38.8251 106.445 36.0484 107.323C35.731 107.403 35.4137 107.483 35.255 107.483C34.9377 107.483 34.6997 107.243 34.6997 106.764V105.886C34.6997 105.567 34.779 105.408 34.8583 105.168C34.9377 105.009 35.1757 104.849 35.4137 104.769C38.2698 103.652 41.2845 103.093 44.4579 103.093C47.6313 103.093 49.932 103.732 51.5187 105.088C53.1054 106.445 53.8194 108.44 53.8194 111.154V130.387C53.8194 130.946 53.5814 131.185 53.0261 131.185H51.9154C51.36 131.185 51.122 130.946 51.0427 130.387L50.8047 128.073C47.552 130.547 44.2992 131.824 40.9671 131.824ZM41.3638 128.951C42.7125 128.951 44.2199 128.631 45.8066 128.073C47.3933 127.514 48.98 126.716 50.646 125.679V118.895C48.266 118.257 45.8859 117.937 43.6645 117.937C38.6664 117.937 36.1277 119.853 36.1277 123.763C36.1277 125.439 36.6037 126.716 37.4764 127.594C38.2698 128.552 39.6185 128.951 41.3638 128.951ZM62.7843 131.185C62.2289 131.185 61.9909 130.946 61.9909 130.387V104.689C61.9909 104.131 62.2289 103.891 62.7843 103.891H63.8156C64.371 103.891 64.6883 104.131 64.7677 104.689L65.0057 107.882C66.3544 106.365 67.703 105.248 69.0517 104.689C70.4004 104.051 71.8285 103.732 73.4945 103.732C74.0499 103.732 74.5259 103.732 74.9225 103.812C75.4779 103.812 75.7159 104.131 75.7159 104.689V106.046C75.7159 106.206 75.6365 106.365 75.5572 106.445C75.4779 106.605 75.3192 106.605 75.1605 106.605C74.8432 106.605 74.6052 106.605 74.3672 106.605C74.1292 106.605 73.7325 106.605 73.2565 106.605C71.5905 106.605 70.1624 106.924 68.8931 107.562C67.6237 108.201 66.3543 109.159 65.2437 110.515V130.467C65.2437 131.026 65.0057 131.265 64.4503 131.265H62.7843V131.185ZM88.8855 131.505C86.7435 131.505 85.1568 130.946 84.0461 129.829C82.9354 128.711 82.38 127.035 82.38 124.881V106.685H78.0959C77.5406 106.685 77.3026 106.445 77.3026 105.886V105.328C77.3026 105.009 77.3819 104.849 77.4613 104.689C77.5406 104.53 77.7786 104.45 78.0959 104.45L82.4594 104.051L82.856 96.8683C82.856 96.5491 82.9354 96.3895 83.094 96.2298C83.2527 96.0702 83.4114 96.0702 83.6494 96.0702H84.6014C85.1567 96.0702 85.3948 96.3096 85.3948 96.8683V103.971H93.2489C93.8043 103.971 94.0423 104.211 94.0423 104.769V105.886C94.0423 106.445 93.8043 106.685 93.2489 106.685H85.3948V124.721C85.3948 126.237 85.7121 127.275 86.3468 127.833C86.9815 128.392 88.0128 128.791 89.5202 128.791C90.5515 128.791 91.5035 128.711 92.2969 128.552C92.6936 128.472 93.0109 128.392 93.2489 128.392C93.4869 128.312 93.6456 128.312 93.7249 128.312C94.1216 128.312 94.3596 128.552 94.3596 128.951V129.749C94.3596 130.387 94.2009 130.706 93.7249 130.866C92.3762 131.265 90.7102 131.505 88.8855 131.505ZM100.865 131.185C100.31 131.185 100.072 130.946 100.072 130.387V104.689C100.072 104.131 100.31 103.891 100.865 103.891H101.976C102.531 103.891 102.848 104.131 102.928 104.689L103.166 107.004C104.911 105.727 106.815 104.769 108.719 104.051C110.623 103.333 112.527 103.013 114.352 103.013C116.97 103.013 118.953 103.732 120.382 105.088C121.73 106.445 122.444 108.52 122.444 111.234V130.387C122.444 130.946 122.206 131.185 121.651 131.185H120.223C119.667 131.185 119.429 130.946 119.429 130.387V112.67C119.429 110.356 118.953 108.6 118.081 107.562C117.208 106.525 115.78 105.966 113.797 105.966C110.227 105.966 106.736 107.084 103.324 109.398V130.387C103.324 130.946 103.086 131.185 102.531 131.185H100.865ZM142.199 131.983C137.915 131.983 134.741 130.786 132.52 128.312C130.378 125.838 129.267 122.247 129.267 117.458C129.267 112.909 130.378 109.398 132.52 106.844C134.662 104.29 137.756 103.093 141.643 103.093C144.896 103.093 147.435 104.051 149.18 105.886C150.925 107.802 151.798 110.435 151.798 113.947C151.798 115.384 151.719 116.501 151.56 117.219C151.481 117.778 151.163 118.017 150.608 118.017H132.361C132.361 121.848 133.234 124.641 134.82 126.397C136.407 128.232 138.946 129.11 142.357 129.11C144.975 129.11 147.435 128.631 149.735 127.754C150.211 127.594 150.529 127.514 150.687 127.514C150.846 127.514 150.925 127.594 151.084 127.674C151.163 127.833 151.243 127.993 151.243 128.153V128.951C151.243 129.509 151.084 129.908 150.608 130.068C148.149 131.345 145.293 131.983 142.199 131.983ZM148.863 115.543C148.863 115.064 148.942 114.426 148.942 113.787C148.942 111.154 148.307 109.238 147.038 107.882C145.769 106.525 143.944 105.886 141.485 105.886C135.772 105.886 132.758 109.159 132.44 115.623H148.863V115.543ZM159.494 131.185C158.938 131.185 158.7 130.946 158.7 130.387V104.689C158.7 104.131 158.938 103.891 159.494 103.891H160.525C161.08 103.891 161.398 104.131 161.477 104.689L161.715 107.882C163.064 106.365 164.412 105.248 165.761 104.689C167.11 104.051 168.538 103.732 170.204 103.732C170.759 103.732 171.235 103.732 171.632 103.812C172.187 103.812 172.425 104.131 172.425 104.689V106.046C172.425 106.206 172.346 106.365 172.267 106.445C172.187 106.605 172.029 106.605 171.87 106.605C171.553 106.605 171.315 106.605 171.077 106.605C170.839 106.605 170.442 106.605 169.966 106.605C168.3 106.605 166.872 106.924 165.602 107.562C164.333 108.201 163.064 109.159 161.953 110.515V130.467C161.953 131.026 161.715 131.265 161.16 131.265H159.494V131.185Z" fill="white"/>
</svg>
