<?xml version="1.0" encoding="utf-8"?>
<!-- Generator: Adobe Illustrator 24.2.1, SVG Export Plug-In . SVG Version: 6.00 Build 0)  -->
<svg version="1.1" id="Layer_1" xmlns="http://www.w3.org/2000/svg" xmlns:xlink="http://www.w3.org/1999/xlink" x="0px" y="0px"
	 viewBox="0 0 154.53 28" style="enable-background:new 0 0 154.53 28;" xml:space="preserve">
<style type="text/css">
	.st0{fill:#FFFFFF;}
	.st1{fill:#010101;}
	.st2{fill:#FDFEFF;}
	.st3{fill:#F7F8F8;}
	.st4{fill:#1F1F24;}
</style>
<g>
	<path class="st0" d="M0,0c8.95,0,17.9,0,26.9,0C27.8,0,28,0.25,28,1.1c-0.05,8.55-0.05,17.05,0,25.6c0,0.95-0.2,1.25-1.2,1.25
		c-8.5-0.05-17-0.05-25.5,0C0.9,27.95,0.45,28,0.05,28C0,18.65,0,9.35,0,0z"/>
	<path class="st1" d="M18,9.6c0.55,1.7-0.45,2.45-1.75,3.15c-2.7,1.5-1.75,1.5-4.55,0c-1.35-0.7-1.8-1.6-1.8-3.1
		C9.85,7.9,10.5,7,11.95,6.1c1.55-0.95,2.7-0.95,4.2,0C17.45,7,18.55,7.8,18,9.6z"/>
	<path class="st1" d="M9.7,16.15c1,0,2,0,3.05,0c0.4,0,0.75-0.05,0.75,0.55c0,0.55-0.35,0.5-0.7,0.5c-2.05,0-4.1,0-6.2,0
		c-0.55,0-0.75-0.3-0.75-0.75c0-0.5,0.45-0.3,0.7-0.3C7.6,16.15,8.65,16.15,9.7,16.15z"/>
	<path class="st1" d="M18.4,16.15c0.95,0,1.9-0.05,2.8,0c0.3,0,0.95-0.4,0.95,0.35c0,0.65-0.5,0.7-1.05,0.7c-1.2,0-2.35,0-3.55,0
		c-0.8,0-1.6,0-2.4,0c-0.45,0-0.65-0.15-0.6-0.6c0-0.45,0.3-0.5,0.6-0.5C16.2,16.15,17.3,16.15,18.4,16.15z"/>
	<path class="st1" d="M15.1,14.95c0.65-0.7,1.3-1.15,2.25-1.1c1.45,0.05,2.85,0,4.3,0c0.35,0,0.7,0,0.7,0.5
		c0,0.5-0.25,0.6-0.65,0.55C19.5,14.95,17.3,14.95,15.1,14.95z"/>
	<path class="st1" d="M12.85,14.95c-2.2,0-4.45,0-6.65,0c-0.45,0-0.6-0.2-0.6-0.6c0-0.45,0.3-0.45,0.6-0.45c1.6,0,3.2,0,4.8,0
		C11.8,13.9,12.3,14.45,12.85,14.95z"/>
	<path class="st1" d="M6.6,18.3c2.1,0,4.15,0,6.15,0c0.35,0,0.7-0.05,0.7,0.5c0,0.6-0.35,0.55-0.75,0.55c-1.65,0-3.25-0.05-4.9,0
		C7.1,19.4,6.85,19,6.6,18.3z"/>
	<path class="st1" d="M21.35,18.3c-0.2,0.8-0.6,1.1-1.3,1.1c-1.55-0.05-3.15,0-4.7,0c-0.35,0-0.8,0.1-0.8-0.55
		c0-0.6,0.4-0.55,0.8-0.55C17.3,18.3,19.3,18.3,21.35,18.3z"/>
	<path class="st1" d="M11.45,5.1C9.8,6.8,7.8,6.15,6,6.25c-0.4,0-0.35-0.35-0.35-0.65c0-0.45,0.25-0.5,0.6-0.5
		C7.95,5.1,9.6,5.1,11.45,5.1z"/>
	<path class="st1" d="M16.6,5.1c1.75,0,3.3,0,4.9,0c0.45,0,0.85-0.05,0.85,0.6c0,0.6-0.4,0.55-0.8,0.55c-1.55-0.1-3.25,0.4-4.6-0.8
		C16.85,5.4,16.8,5.3,16.6,5.1z"/>
	<path class="st1" d="M8.35,20.4c1.6,0,3.1,0,4.6,0c0.25,0,0.5,0.05,0.5,0.4c0,0.25,0.1,0.55-0.2,0.75c-0.7,0.4-4.1-0.1-4.75-0.75
		C8.45,20.7,8.4,20.6,8.35,20.4z"/>
	<path class="st1" d="M19.7,20.4c-0.65,0.85-1.3,1.25-2.25,1.2c-0.75-0.05-1.45,0-2.2,0c-0.4,0-0.75,0-0.75-0.6
		c0-0.55,0.3-0.6,0.75-0.6C16.7,20.45,18.1,20.4,19.7,20.4z"/>
	<path class="st1" d="M7.25,9.5c0.4,0,0.75,0,1.15,0s0.45,0.25,0.45,0.55c0,0.3-0.05,0.55-0.4,0.6c-0.8,0-1.6,0-2.4,0
		c-0.4,0-0.4-0.3-0.4-0.6c0-0.35,0.1-0.55,0.5-0.55C6.5,9.5,6.85,9.5,7.25,9.5z"/>
	<path class="st1" d="M20.8,9.5c0.35,0,0.7,0,1.05,0c0.35,0,0.5,0.2,0.5,0.5c0,0.35-0.05,0.65-0.5,0.65c-0.7,0-1.4,0-2.1,0
		c-0.4,0-0.65-0.1-0.65-0.6c0-0.5,0.25-0.6,0.65-0.55C20.1,9.5,20.45,9.5,20.8,9.5z"/>
	<path class="st1" d="M9.25,12.8c-1,0-2,0-2.95,0c-0.4,0-0.65-0.05-0.7-0.55c0-0.5,0.25-0.55,0.65-0.55c0.45,0,0.9,0.05,1.35,0
		C8.45,11.6,9,11.85,9.25,12.8z"/>
	<path class="st1" d="M18.7,12.8c0.3-0.4,0.25-1.05,0.8-1.05c0.85-0.05,1.75-0.05,2.6,0.05c0.3,0,0.2,0.4,0.2,0.65
		c0,0.4-0.3,0.4-0.6,0.4C20.7,12.8,19.7,12.8,18.7,12.8z"/>
	<path class="st1" d="M20.8,8.45c-0.4,0-0.85,0-1.25,0c-0.4,0-0.4-0.3-0.4-0.6c0-0.3,0.05-0.5,0.4-0.45c0.75,0,1.55,0,2.3,0
		c0.35,0,0.5,0.15,0.5,0.5c0,0.35-0.05,0.6-0.5,0.6C21.45,8.4,21.1,8.45,20.8,8.45z"/>
	<path class="st1" d="M7.3,7.35c0.4,0,0.75,0,1.15,0c0.4,0,0.35,0.3,0.4,0.6c0,0.3-0.1,0.45-0.4,0.45c-0.75,0-1.55,0-2.3,0
		c-0.35,0-0.5-0.15-0.5-0.5s0.1-0.6,0.5-0.6C6.55,7.4,6.9,7.35,7.3,7.35z"/>
	<path class="st1" d="M13.4,23.65c-0.6-0.1-1.15-0.45-1.7-0.8C13.35,22.5,13.45,22.55,13.4,23.65z"/>
	<path class="st1" d="M16.35,22.8c-0.65,0.35-1.1,0.7-1.75,0.8C14.55,22.55,14.55,22.55,16.35,22.8z"/>
	<path class="st0" d="M84.91,12.25c0,1.15,0,2.3,0,3.45c0.05,1.6,0.85,2.5,2.3,2.6c1.95,0.15,2.95-0.5,3.25-2.15
		c0.25-1.35,0.05-2.7,0.1-4.1c0-1.2,0.05-2.4,0-3.55c0-0.65,0.3-0.75,0.85-0.75c0.65-0.05,0.65,0.3,0.65,0.8
		c0,2.4,0.05,4.75-0.05,7.15c-0.05,2.1-1.25,3.5-3.15,3.9c-2.35,0.45-4.3-0.35-5.1-2.1c-0.25-0.55-0.3-1.15-0.3-1.75
		c0-2.35,0-4.7,0-7.05c0-0.6,0.1-0.9,0.8-0.9c0.8-0.05,0.7,0.45,0.7,0.9C84.91,9.9,84.91,11.05,84.91,12.25z"/>
	<path class="st2" d="M153.11,17.4c-1,1.05-2,1.75-3.4,1.6c-1-0.1-1.6-0.65-1.8-1.65c-0.35-1.9-0.1-3.85-0.15-5.75
		c0-0.55,0.35-0.65,0.85-0.7c0.65,0,0.55,0.4,0.55,0.75c0,1.5-0.05,3,0,4.5c0.05,1.55,1,2.05,2.3,1.25c1.05-0.65,2-1.4,1.75-2.9
		c-0.15-0.9,0-1.8-0.05-2.75c0-0.6,0.15-0.9,0.8-0.9c0.7,0,0.55,0.45,0.55,0.85c0,2.15,0,4.25,0,6.4c-0.05,2.9-1.4,4.2-4.25,4.3
		c-0.4,0-0.85,0-1.25,0c-0.35,0-0.75,0.1-0.7-0.45c0-0.45,0.2-0.75,0.65-0.75c0.7-0.05,1.4,0,2.1-0.1
		C152.86,20.85,153.36,19.9,153.11,17.4z"/>
	<path class="st0" d="M35.6,13.7c0-1.05,0.05-2.1,0.45-3.1c1-2.4,3.2-3,5.65-2.95c0.55,0,1.1,0.2,1.65,0.3
		c0.75,0.1,0.75,0.7,0.6,1.2c-0.15,0.65-0.6,0.1-0.9,0.1c-0.55-0.1-1.1-0.25-1.65-0.3c-2.45-0.2-3.95,1-4.25,3.45
		c-0.15,1.1-0.1,2.15,0.1,3.25c0.3,1.6,1.4,2.6,3.05,2.7c1,0.05,1.95,0.1,2.9-0.2c0.25-0.05,0.65-0.35,0.75,0.15
		c0.05,0.4,0.15,0.8-0.4,1.05c-4,1.7-7.75-0.65-7.9-4.95C35.6,14.15,35.6,13.95,35.6,13.7z"/>
	<path class="st0" d="M121.81,18c0.25,0.85-0.05,1.25-0.9,1.45c-2.35,0.65-4.45-0.05-4.95-1.95c-0.4-1.4-0.4-2.85,0-4.25
		c0.65-2.2,3.35-3.15,5.35-1.95c0.85,0.5,1.25,1.5,1,2.65c-0.2,1.05-1.1,1.75-2.4,1.85c-0.75,0.05-1.45,0.05-2.2,0
		c-0.5-0.05-0.65,0.15-0.65,0.65c0.1,1.35,1.15,2.2,2.65,2C120.41,18.35,121.11,18.15,121.81,18z"/>
	<path class="st0" d="M95.76,12.35c0.8-0.85,1.75-1.6,3.05-1.5c1.2,0.1,2,0.65,2.05,1.95c0.1,2.1,0.05,4.2,0.1,6.3
		c0,0.5-0.3,0.45-0.6,0.45c-0.45,0-0.7-0.15-0.7-0.65c0-1.3,0-2.6,0-3.9c0-0.5,0.05-1.05,0-1.55c-0.15-1.2-1.05-1.75-2.1-1.15
		c-1.2,0.65-2.2,1.45-2,3.1c0.15,1.15,0.05,2.3,0.05,3.45c0,0.4,0.1,0.8-0.55,0.75c-0.55,0-0.85-0.2-0.85-0.8c0-1.2,0-2.45,0-3.65
		c0-1.1,0-2.25,0-3.35c0-0.4-0.15-0.85,0.6-0.85c0.6,0,0.85,0.25,0.8,0.8C95.56,11.95,95.51,12.15,95.76,12.35z"/>
	<path class="st0" d="M72.51,12.5c0.9-0.9,1.7-1.6,2.9-1.65c1.35,0,2.25,0.55,2.3,1.9c0.15,2.1,0.1,4.25,0.1,6.4
		c0,0.5-0.35,0.4-0.65,0.4c-0.5,0-0.7-0.25-0.7-0.7c0-1.55,0-3.1,0-4.6c0-0.3,0.05-0.65-0.05-0.95c-0.2-1.1-1.05-1.55-2-1.05
		c-1.2,0.65-2.25,1.4-2.05,3.05c0.1,1.05,0.05,2.15,0,3.25c0,0.4,0.35,1.05-0.55,1.05c-0.85,0-0.8-0.55-0.8-1.15
		c0-1.55,0-3.15,0-4.7c0-0.65-0.05-1.25,0-1.9c0-0.35-0.25-0.9,0.5-0.9c0.65,0,0.9,0.2,0.9,0.85C72.46,11.95,72.46,12.1,72.51,12.5z
		"/>
	<path class="st0" d="M51.26,18.05c-0.6,0.45-1,0.9-1.5,1.2c-1.85,1.1-3.75,0.3-3.9-1.85c-0.15-1.9-0.05-3.85-0.05-5.75
		c0-0.6,0.4-0.65,0.85-0.65c0.55,0,0.5,0.35,0.5,0.7c0,1.6,0,3.2,0,4.85c0,0.7-0.05,1.45,0.75,1.8c0.85,0.4,1.45-0.1,2.1-0.55
		c0.9-0.65,1.4-1.4,1.25-2.65c-0.15-1.05,0-2.15-0.05-3.25c0-0.55,0.1-0.95,0.8-0.9c0.75,0,0.55,0.5,0.55,0.85c0,2.25,0,4.5,0,6.7
		c0,0.55,0.05,1.05-0.8,1.05c-0.9,0-0.4-0.7-0.55-1.05C51.26,18.4,51.26,18.3,51.26,18.05z"/>
	<path class="st0" d="M133.36,10.85c0.7,0.05,1.15,0.1,1.6,0.1c0.55,0,0.6,0.3,0.6,0.75c0,0.5-0.35,0.55-0.7,0.5
		c-0.85-0.1-1.7-0.3-2.6,0c-0.55,0.2-0.9,0.5-0.9,1.1c0,0.65,0.4,0.85,0.9,0.95c0.7,0.2,1.45,0.35,2.1,0.55
		c1.05,0.35,1.6,1.1,1.65,2.2c0.05,1.1-0.5,1.9-1.6,2.35c-1.25,0.5-2.55,0.3-3.85,0.15c-0.5-0.05-0.6-0.4-0.55-0.85
		c0.05-0.5,0.4-0.4,0.7-0.35c0.9,0.05,1.8,0.3,2.7,0.05c0.65-0.15,1.1-0.45,1.15-1.15c0.05-0.7-0.4-1.05-1.05-1.25
		c-0.55-0.15-1.15-0.3-1.7-0.45c-1.25-0.35-1.95-1.2-1.9-2.3c0.05-1.1,0.9-2.05,2.1-2.25C132.56,10.9,133.06,10.9,133.36,10.85z"/>
	<path class="st0" d="M114.01,12.75c0.05,2.3-0.7,4.4-2.1,6.2c-0.65,0.85-1.8,0.85-2.45,0c-1.65-2.2-2.1-4.75-2-7.4
		c0.05-0.55,0.4-0.65,0.85-0.65c0.55,0,0.5,0.35,0.5,0.7c-0.05,1.9,0.05,3.75,0.95,5.5c0.25,0.5,0.45,1.25,1,1.25
		c0.55,0,0.75-0.75,1-1.25c0.85-1.65,1-3.4,0.9-5.2c0-0.45-0.05-0.95,0.65-0.95c0.5-0.05,0.8,0.05,0.75,0.65
		C114.01,12,114.01,12.4,114.01,12.75z"/>
	<path class="st0" d="M60.76,13.35c0-1.2,0-2.45,0-3.65c0-0.35-0.1-0.7,0.5-0.7c0.45,0,0.9,0.1,0.8,0.65c-0.2,1.3,0.5,1.45,1.5,1.3
		c0.15,0,0.3,0,0.4,0c0.55,0,0.6,0.35,0.6,0.8c0,0.5-0.3,0.4-0.65,0.45c-1.85,0.1-1.85,0.1-1.85,1.95c0,0.85-0.05,1.7,0,2.5
		c0.05,1.2,0.5,1.6,1.7,1.6c0.5,0,1-0.05,1,0.7c0,0.35-0.05,0.55-0.5,0.55c-2.3,0.2-3.5-0.85-3.5-3.15
		C60.76,15.4,60.76,14.4,60.76,13.35z"/>
	<path class="st0" d="M142.26,13.3c0-1.2,0-2.45,0-3.65c0-0.35,0-0.7,0.5-0.65c0.4,0.05,0.8,0.05,0.8,0.6c0,0.25,0.05,0.5,0,0.75
		c-0.05,0.55,0.2,0.65,0.65,0.65c0.4-0.05,0.85,0,1.25,0c0.55,0,0.55,0.4,0.55,0.8c0,0.55-0.35,0.4-0.65,0.4
		c-1.85,0.1-1.85,0.1-1.85,1.95c0,0.75,0,1.55,0,2.3c0.05,1.4,0.45,1.85,1.8,1.85c0.55,0,0.95,0.1,0.9,0.8
		c0,0.75-0.55,0.45-0.9,0.45c-2.2,0.05-3.1-0.9-3.15-3.1C142.26,15.4,142.26,14.35,142.26,13.3z"/>
	<path class="st0" d="M125.71,12.75c0.7-0.75,1.15-1.45,2-1.65c0.45-0.1,1-0.35,1.2,0.35c0.25,0.75-0.25,0.75-0.8,0.8
		c-1.1,0.15-2.4,1.8-2.4,2.95c0,1.2,0,2.45,0,3.65c0,0.4,0.05,0.75-0.55,0.7c-0.55-0.05-0.75-0.25-0.75-0.75c0-1.85,0-3.7,0-5.55
		c0-0.5,0-1,0-1.45c0-0.35-0.25-0.85,0.5-0.85c0.7,0,0.8,0.35,0.8,0.95C125.71,12.05,125.71,12.25,125.71,12.75z"/>
	<path class="st0" d="M56.15,12.75c0.7-0.8,1.2-1.5,2.05-1.7c0.4-0.1,0.95-0.35,1.15,0.35c0.2,0.65-0.15,0.8-0.75,0.85
		c-1.15,0.15-2.4,1.75-2.4,2.95s0,2.45,0,3.65c0,0.35,0.1,0.75-0.5,0.7c-0.45,0-0.85-0.05-0.85-0.65c0-2.5,0-4.95,0-7.45
		c0-0.3,0.05-0.55,0.45-0.5c0.4,0.05,0.8-0.05,0.85,0.5C56.15,11.8,56.15,12.15,56.15,12.75z"/>
	<path class="st0" d="M68.91,15.4c0,1.1,0,2.25,0,3.35c0,0.4,0.1,0.85-0.6,0.8c-0.55-0.05-0.85-0.25-0.85-0.8c0-1.85,0-3.7,0-5.55
		c0-0.65,0.05-1.15-0.9-1.05c-0.5,0.05-0.55-0.4-0.55-0.8c0-0.5,0.4-0.4,0.65-0.4c2.55,0,2.15-0.3,2.15,2.05
		C68.91,13.8,68.91,14.6,68.91,15.4z"/>
	<path class="st0" d="M105.36,15.25c0,1.2,0,2.35,0,3.55c0,0.35,0.15,0.8-0.5,0.75c-0.6,0-0.8-0.25-0.8-0.8c0-1.85,0-3.7,0-5.55
		c0-0.6,0.1-1.2-0.85-1.05c-0.5,0.1-0.6-0.3-0.6-0.75c0-0.6,0.4-0.45,0.7-0.45c2.45,0.05,2.05-0.3,2.1,2
		C105.36,13.7,105.36,14.5,105.36,15.25z"/>
	<path class="st0" d="M140.01,15.4c0,1.1,0,2.25,0,3.35c0,0.4,0.15,0.85-0.55,0.85c-0.65-0.05-0.75-0.35-0.75-0.85
		c0-1.85,0-3.7,0-5.55c0-0.65-0.05-1.05-0.85-0.95c-0.5,0.05-0.6-0.3-0.6-0.75c0-0.6,0.4-0.45,0.7-0.45c2.5,0.05,2-0.3,2.05,2
		C140.01,13.8,140.01,14.6,140.01,15.4z"/>
	<path class="st0" d="M68.91,8.4c0.05,0.55-0.1,0.9-0.75,0.9c-0.45,0-0.7-0.05-0.7-0.6c0.05-0.55,0.15-0.85,0.75-0.85
		C68.66,7.8,69.01,7.85,68.91,8.4z"/>
	<path class="st3" d="M138.71,8.7c-0.05-0.6,0.05-0.95,0.7-0.95c0.4,0,0.65,0.1,0.6,0.55c-0.05,0.45,0.05,0.95-0.65,0.9
		C138.91,9.25,138.56,9.25,138.71,8.7z"/>
	<path class="st0" d="M105.36,8.35c0.05,0.6-0.1,0.9-0.75,0.9c-0.55,0-0.6-0.25-0.6-0.7c0-0.6,0.25-0.8,0.8-0.8
		C105.36,7.75,105.41,8,105.36,8.35z"/>
	<path class="st4" d="M118.56,14.65c-0.05,0-0.05,0-0.1,0c-0.45-0.1-1.15,0.3-1.3-0.25c-0.2-0.65,0.1-1.35,0.65-1.8
		c0.75-0.6,1.55-0.7,2.45-0.4c0.6,0.2,0.8,0.65,0.75,1.2c-0.05,0.6-0.3,1-0.9,1.1C119.61,14.6,119.11,14.6,118.56,14.65z"/>
</g>
</svg>
