<svg width="99" height="99" viewBox="0 0 99 99" fill="none" xmlns="http://www.w3.org/2000/svg">
<path d="M14.1601 84.5656C15.2929 81.0054 18.4486 78.4161 15.1311 73.723C11.8135 69.1109 8.33422 71.4574 4.53122 71.1338C3.07476 66.6834 1.53738 62.0713 0 57.3783C2.99384 55.1126 7.20141 54.8699 7.20141 49.2059C7.20141 43.6228 3.23659 43.2991 0.080915 41.0335C1.53738 36.4214 3.07476 31.8901 4.61214 27.1971C8.33421 26.7925 11.9754 29.3008 15.2929 24.6078C18.6104 19.9957 15.3738 17.3255 14.3219 13.7652C18.2867 10.9332 22.2515 8.10119 26.2973 5.18826C26.9446 5.75467 27.6728 6.24016 28.1583 6.80656C30.5048 10.0431 33.2559 10.6096 37.0589 8.99127C39.5673 7.93937 41.0238 6.96839 41.3474 4.05546C41.752 -0.0711863 41.9947 0.00972819 46.2832 0.00972819C49.1961 0.00972819 52.0282 0.0906429 54.9411 0.00972819C56.3976 -0.0711865 57.3685 0.333382 57.2876 1.95168C57.2067 6.64473 59.6341 8.74851 64.0844 9.63857C66.1882 10.0431 67.6447 10.205 69.0202 8.42485C69.9912 7.21113 71.2859 6.24017 72.4996 5.02645C76.5453 7.93938 80.4292 10.7714 84.475 13.6034C83.5849 17.1637 80.1865 19.7529 83.504 24.3651C86.8215 29.139 90.4626 26.6307 94.1847 27.0352C95.6412 31.5665 97.1786 36.0168 98.7159 40.8717C96.9358 41.8426 95.0748 42.6518 93.5374 43.7846C92.7283 44.351 91.9191 45.5647 91.9191 46.5357C91.8382 48.8822 91.5145 51.7142 92.6473 53.4944C93.6992 55.1936 96.5312 55.8409 98.7159 57.0546C97.2595 61.424 95.9648 65.6315 94.4275 69.7582C94.1847 70.3246 92.7283 71.0529 92.0809 70.8101C87.3879 69.1109 84.7177 71.3765 82.4521 75.1795C81.4811 76.7978 81.0765 77.9306 82.1284 79.6298C83.0185 81.0053 83.5849 82.5427 84.394 84.242C80.4292 87.074 76.4644 89.9869 72.3377 92.8998C70.8813 91.5243 69.3439 90.2296 68.0493 88.7732C67.0783 87.7213 66.1073 87.4785 64.8127 88.1258C64.7318 88.1258 64.6509 88.2068 64.5699 88.2068C59.9578 89.0159 56.7212 90.9579 56.964 96.3792C56.964 96.8646 55.6693 97.9166 54.9411 97.9166C51.219 98.0784 47.416 97.9165 43.6939 97.9975C42.0756 98.0784 41.4283 97.4311 41.4283 95.8937C41.5092 91.5243 39.4055 89.3396 35.0361 88.3686C32.6086 87.8831 30.9903 87.6404 29.372 89.6632C28.482 90.7961 27.2683 91.6861 26.1355 92.738C22.0897 90.3106 18.1249 87.4786 14.1601 84.5656ZM94.6702 58.592C88.4398 57.7019 88.2779 53.5753 88.2779 48.6395C88.2779 44.4319 89.0062 41.4381 93.3756 40.2243C93.7801 40.1434 94.1038 39.7389 94.5084 39.4152C93.7801 37.2305 93.0519 35.0458 92.4855 32.8611C92.0809 31.2428 91.2718 30.3528 89.5726 30.9192C85.6887 32.2947 83.3421 30.5955 81.6429 27.3589C81.4002 26.8734 81.0765 26.4688 80.7529 26.0643C77.4354 22.9086 76.9499 19.5911 79.7819 15.869C79.9437 15.6263 80.0246 15.2217 80.1056 14.8171C78.3254 13.5225 76.5453 12.2279 74.7652 11.0141C74.037 10.5286 73.3087 10.0432 72.6614 9.55768C70.8004 11.0951 69.1821 13.5225 67.2401 13.8461C65.1363 14.2507 62.7089 12.4706 60.2815 11.9851C56.5594 11.2569 54.2129 9.55767 54.2938 5.3501C54.2938 4.70279 53.161 3.56999 52.5136 3.48908C49.9244 3.24633 47.3351 3.40816 44.3413 3.40816C44.6649 8.5867 42.3184 11.0141 37.3017 12.4706C32.6895 13.8461 29.2911 14.0889 26.3782 9.96225C26.2973 9.80042 25.9736 9.71949 25.65 9.63857C23.1416 11.4187 20.7142 13.1988 17.9631 15.2217C22.4943 19.672 20.1478 23.2323 17.1539 27.1971C14.8074 30.1909 12.8654 32.4565 8.73879 31.0001C8.17239 30.7573 6.71592 31.3237 6.55409 31.8901C5.58311 34.3176 4.85488 36.9069 3.88391 39.9007C9.54794 40.7908 10.1953 44.4319 10.3571 49.2868C10.5189 54.3844 9.14336 57.5401 3.96482 58.6729C4.77397 61.1813 5.58312 63.285 6.0686 65.4697C6.55409 67.2498 7.44415 68.059 9.22428 67.4117C12.8654 66.1171 15.1311 67.5735 16.7493 70.7292C16.9921 71.2956 17.3967 71.7811 17.8012 72.1856C21.0378 75.2604 21.847 78.5779 18.8531 82.3809C18.6913 82.6237 18.6104 83.0282 18.4486 83.5137C20.9569 85.3747 23.4653 87.1549 26.2973 89.1777C29.2102 83.4328 33.4178 84.242 37.949 86.2648C39.2436 86.8312 40.6192 86.9931 41.9138 87.6404C42.5611 87.964 43.2894 88.6113 43.5321 89.3396C44.1794 91.1197 44.0176 93.6281 45.1504 94.5181C46.3641 95.4891 48.7916 94.8418 50.7335 94.8418C50.9763 94.8418 51.2999 94.8418 51.5427 94.8418C53.4846 95.1654 54.5365 94.3563 54.5365 92.4143C54.4556 88.8541 56.2357 86.9931 59.6341 86.5885C60.2005 86.5076 60.8479 86.3457 61.3334 86.0221C65.5409 83.7565 69.1821 83.9992 72.0141 88.2068C72.1759 88.3686 72.4187 88.5304 72.7423 88.7732C75.2507 86.993 77.759 85.2129 80.591 83.1091C75.7362 78.4161 78.3254 74.694 81.6429 70.9719C82.4521 70.0819 83.0185 68.9491 83.8276 68.059C84.394 67.4926 85.365 67.0071 86.1742 66.9262C88.0352 66.8453 90.4626 67.7353 91.6764 66.9262C92.971 66.0361 93.0519 63.5278 93.6992 61.7477C93.942 61.0194 94.1847 60.1294 94.6702 58.592Z" fill="url(#paint0_linear)"/>
<path d="M76.5447 59.4012H20.9563L20.8754 59.1585C20.7945 58.9966 20.7945 58.9157 20.7136 58.7539C20.2281 57.2974 19.9854 55.76 19.9854 54.3036C19.9854 52.7662 20.2281 51.2288 20.7136 49.8533C21.0372 48.7205 21.6036 47.6686 22.17 46.6167C25.083 41.8427 30.4233 39.0916 36.0874 39.658C39.1621 32.6993 46.0399 28.249 53.6459 28.249C58.6626 28.249 63.3556 30.191 66.9968 33.6703C70.557 37.1497 72.6608 41.8427 72.8227 46.7785C74.4409 47.264 75.8165 48.235 76.8684 49.5296C77.9203 50.9052 78.4867 52.5234 78.4867 54.3036C78.4867 56.0837 77.9203 57.702 76.8684 59.0776C76.7875 59.1585 76.7875 59.2394 76.7066 59.3203L76.5447 59.4012ZM21.4418 58.673H76.2211C76.2211 58.673 76.2211 58.673 76.302 58.592C77.273 57.2974 77.7585 55.8409 77.7585 54.2226C77.7585 52.6044 77.273 51.1479 76.302 49.8533C75.331 48.5586 73.9555 47.6686 72.4181 47.264L72.1753 47.1831V46.9403C72.1753 46.8594 72.1753 46.7785 72.1753 46.6976C71.8517 36.6642 63.7602 28.8154 53.7268 28.8154C46.2826 28.8154 39.6476 33.1848 36.7347 40.0626L36.6538 40.3053H36.411C35.9255 40.2244 35.3591 40.2244 34.8737 40.2244C29.9379 40.2244 25.4876 42.7328 22.8983 46.9403C22.3319 47.9113 21.8464 48.9632 21.5227 50.0151C21.1182 51.3906 20.8754 52.8471 20.8754 54.3036C20.8754 55.76 21.1182 57.2165 21.5227 58.592C21.3609 58.592 21.3609 58.673 21.4418 58.673Z" fill="url(#paint1_linear)" stroke="url(#paint2_linear)" stroke-width="3" stroke-miterlimit="10"/>
<defs>
<linearGradient id="paint0_linear" x1="49.358" y1="0" x2="49.358" y2="98.0042" gradientUnits="userSpaceOnUse">
<stop stop-color="#F16122"/>
<stop offset="1" stop-color="#FEBD33"/>
</linearGradient>
<linearGradient id="paint1_linear" x1="49.236" y1="28.249" x2="49.236" y2="59.4012" gradientUnits="userSpaceOnUse">
<stop stop-color="#F16122"/>
<stop offset="1" stop-color="#FEBD33"/>
</linearGradient>
<linearGradient id="paint2_linear" x1="49.236" y1="28.249" x2="49.236" y2="59.4012" gradientUnits="userSpaceOnUse">
<stop stop-color="#F16122"/>
<stop offset="1" stop-color="#FEBD33"/>
</linearGradient>
</defs>
</svg>
