<svg width="115" height="67" viewBox="0 0 115 67" fill="none" xmlns="http://www.w3.org/2000/svg">
<path d="M112.926 35.5305C111.944 48.7526 100.654 59.3302 86.7132 60.2747C72.8704 61.2191 60.9911 52.6248 57.4568 40.8194C56.7695 38.4583 56.3768 36.0972 56.3768 33.5472C56.3768 19.2863 43.614 7.76419 28.3968 8.80307C15.5357 9.55862 5.1291 19.4752 4.14734 31.6584C3.06741 46.2026 15.2412 58.2914 30.2621 58.2914V54.1359C30.2621 53.6637 30.8511 53.2859 31.342 53.5692L35.9563 56.1192L38.018 57.2525L40.4724 58.5747L41.6505 59.2358L35.9563 62.3524L31.342 64.9024C30.8511 65.1857 30.2621 64.808 30.2621 64.3358V60.4636C13.9649 60.4636 0.809369 47.3359 2.08565 31.6584C3.06741 18.4363 14.3576 7.85864 28.2986 6.9142C42.1414 5.96977 54.0206 14.5641 57.5549 26.3695C58.2422 28.7306 58.6349 31.0917 58.6349 33.6417C58.6349 47.9026 71.3977 59.4247 86.7132 58.3858C99.5742 57.5358 109.981 47.6193 110.864 35.3416C111.944 20.8918 99.7705 8.80307 84.7496 8.80307V12.9586C84.7496 13.4308 84.1606 13.8086 83.6697 13.5252L79.0554 10.9753L77.0919 9.84195L74.6375 8.4253L73.4594 7.76419L79.1536 4.64756L83.7679 2.0976C84.2588 1.81427 84.8478 2.19204 84.8478 2.66425V6.53643C101.047 6.72532 114.104 19.8529 112.926 35.5305Z" fill="url(#paint0_linear)" stroke="url(#paint1_linear)" stroke-width="3" stroke-miterlimit="10"/>
<defs>
<linearGradient id="paint0_linear" x1="57.5" y1="2" x2="57.5" y2="65" gradientUnits="userSpaceOnUse">
<stop stop-color="#F16122"/>
<stop offset="1" stop-color="#FEBD33"/>
</linearGradient>
<linearGradient id="paint1_linear" x1="57.5" y1="2" x2="57.5" y2="65" gradientUnits="userSpaceOnUse">
<stop stop-color="#F16122"/>
<stop offset="1" stop-color="#FEBD33"/>
</linearGradient>
</defs>
</svg>
