<svg width="27" height="27" viewBox="0 0 27 27" fill="none" xmlns="http://www.w3.org/2000/svg">
<path d="M13.6662 26.9898C6.38178 26.9227 0.54331 21.0522 0.593213 13.8449C0.64372 6.51592 6.59488 0.723806 14.0482 0.86179C21.1682 0.993548 26.8946 6.88689 26.7918 14.2016C26.693 21.2221 20.7269 27.0548 13.6662 26.9898ZM17.2377 8.72687C17.3738 7.9064 17.506 7.10923 17.644 6.2761C16.4964 5.97965 15.3786 5.84086 14.2421 6.02966C12.3603 6.34238 11.6669 7.07026 11.4397 8.93013C11.4196 9.09523 11.4138 9.26314 11.4132 9.42965C11.4101 10.0738 11.4119 10.7179 11.4119 11.401C10.9447 11.401 10.5441 11.3831 10.1467 11.4114C10.0209 11.4205 9.80196 11.5492 9.79895 11.6298C9.77178 12.3574 9.78305 13.0863 9.78305 13.8759C10.3048 13.8759 10.8147 13.8759 11.3962 13.8759C11.3962 16.5761 11.3962 19.2167 11.3962 21.8568C12.512 21.8568 13.5538 21.8568 14.6446 21.8568C14.6446 19.1871 14.6446 16.5588 14.6446 13.8745C15.471 13.8745 16.2487 13.8745 17.0657 13.8745C17.1482 13.0504 17.2253 12.2785 17.3096 11.4349C16.385 11.4349 15.5259 11.4349 14.6273 11.4349C14.6273 10.7882 14.6231 10.2067 14.6283 9.62527C14.6347 8.8996 14.9748 8.54771 15.7111 8.56679C16.1934 8.57945 16.6735 8.66501 17.2377 8.72687Z" fill="white"/>
</svg>