<svg width="97" height="97" viewBox="0 0 97 97" fill="none" xmlns="http://www.w3.org/2000/svg">
<path d="M51.4672 54.293C45.7037 56.6001 40.2383 51.1614 42.5567 45.426C43.1837 43.8757 44.435 42.6305 45.993 42.0066C51.7564 39.6995 57.2218 45.1382 54.9034 50.8736C54.2764 52.4246 53.0252 53.6691 51.4672 54.293ZM50.9022 44.2936C46.866 42.3132 42.8648 46.2948 44.855 50.3114C45.2177 51.0433 45.8224 51.6451 46.5579 52.006C50.5941 53.9864 54.5953 50.0048 52.6052 45.9882C52.2425 45.2563 51.6377 44.6545 50.9022 44.2936Z" fill="url(#paint0_linear)" stroke="url(#paint1_linear)" stroke-miterlimit="10"/>
<path d="M85.7644 46.5604C84.9453 27.3667 69.3148 11.9225 49.981 11.2845C49.8643 11.2805 49.772 11.1866 49.772 11.0705V2.08279C49.772 1.48504 49.2846 1 48.6839 1H48.6218C47.9773 1 47.4549 1.51993 47.4549 2.16128V11.0772C47.4549 11.1926 47.3632 11.2865 47.2472 11.2912C28.0193 12.0466 12.5128 27.4459 11.6943 46.5611C11.6896 46.6765 11.5952 46.7671 11.4793 46.7671H2.20475C1.53935 46.7671 1 47.3038 1 47.9659C1 48.5771 1.49821 49.0729 2.11237 49.0729H11.4631C11.5797 49.0729 11.6748 49.1654 11.6782 49.2815C12.2647 68.608 27.8676 84.2488 47.2472 85.0096C47.3632 85.0143 47.4549 85.1082 47.4549 85.2236V94.4756C47.4549 95.1861 48.0333 95.7617 48.7472 95.7617C49.3129 95.7617 49.772 95.3048 49.772 94.7419V85.2296C49.772 85.1136 49.8643 85.0196 49.981 85.0156C69.4671 84.3722 85.1934 68.6859 85.7806 49.2815C85.784 49.1654 85.879 49.0729 85.9957 49.0729H95.0794C95.7131 49.0729 96.2268 48.5616 96.2268 47.931V47.9277C96.2268 47.287 95.7043 46.7671 95.0605 46.7671H85.9795C85.8635 46.7664 85.7691 46.6758 85.7644 46.5604ZM49.772 82.4945V68.3464C49.772 67.6977 49.2434 67.1717 48.5915 67.1717C47.9639 67.1717 47.4555 67.6782 47.4555 68.3021V82.4837C47.4555 82.6078 47.351 82.7078 47.2263 82.7024C29.1364 81.9316 14.5905 67.3414 13.9919 49.2983C13.9878 49.1755 14.0883 49.0722 14.2117 49.0722H28.5789C29.2153 49.0722 29.731 48.559 29.731 47.9257C29.731 47.2856 29.2099 46.7671 28.5667 46.7671H14.2332C14.1085 46.7671 14.0081 46.6624 14.0135 46.5383C14.8373 28.7085 29.2908 14.3631 47.2263 13.5977C47.3504 13.5923 47.4555 13.6923 47.4555 13.8164V28.4998C47.4555 29.1023 47.9463 29.59 48.5511 29.59H48.634C49.263 29.59 49.7726 29.0828 49.7726 28.4569V13.8057C49.7726 13.6822 49.8765 13.5822 50.0005 13.5869C68.0439 14.2377 82.6174 28.6293 83.4466 46.5383C83.452 46.6624 83.3516 46.7671 83.2269 46.7671H68.6736C68.0237 46.7671 67.4972 47.291 67.4972 47.9377C67.4972 48.5643 68.0075 49.0729 68.6379 49.0729H83.2484C83.3718 49.0729 83.4723 49.1755 83.4682 49.2989C82.8689 67.4213 68.1976 82.0577 50.0005 82.7138C49.8758 82.7172 49.772 82.6179 49.772 82.4945Z" fill="url(#paint2_linear)" stroke="url(#paint3_linear)" stroke-miterlimit="10"/>
<defs>
<linearGradient id="paint0_linear" x1="48.7301" y1="41.4635" x2="48.7301" y2="54.8361" gradientUnits="userSpaceOnUse">
<stop stop-color="#F16122"/>
<stop offset="1" stop-color="#FEBD33"/>
</linearGradient>
<linearGradient id="paint1_linear" x1="48.7301" y1="41.4635" x2="48.7301" y2="54.8361" gradientUnits="userSpaceOnUse">
<stop stop-color="#F16122"/>
<stop offset="1" stop-color="#FEBD33"/>
</linearGradient>
<linearGradient id="paint2_linear" x1="48.6134" y1="1" x2="48.6134" y2="95.7617" gradientUnits="userSpaceOnUse">
<stop stop-color="#F16122"/>
<stop offset="1" stop-color="#FEBD33"/>
</linearGradient>
<linearGradient id="paint3_linear" x1="48.6134" y1="1" x2="48.6134" y2="95.7617" gradientUnits="userSpaceOnUse">
<stop stop-color="#F16122"/>
<stop offset="1" stop-color="#FEBD33"/>
</linearGradient>
</defs>
</svg>
