<?xml version="1.0" encoding="utf-8"?>
<!-- Generator: Adobe Illustrator 24.2.1, SVG Export Plug-In . SVG Version: 6.00 Build 0)  -->
<svg version="1.1" id="Layer_1" xmlns="http://www.w3.org/2000/svg" xmlns:xlink="http://www.w3.org/1999/xlink" x="0px" y="0px"
	 viewBox="0 0 83.9 32.27" style="enable-background:new 0 0 83.9 32.27;" xml:space="preserve">
<style type="text/css">
	.st0{fill:#FFFFFF;}
</style>
<g>
	<path class="st0" d="M0.1,32.16c0.25-0.2,0.55-0.35,0.8-0.55c1.5-1.05,3-2.1,4.55-3.15c0.15-0.1,0.3-0.15,0.5-0.15
		c25.75,0,51.55,0,77.31,0c0.25,0,0.35,0.05,0.35,0.3c0,1.1,0,2.25,0,3.35c0,0.25-0.1,0.35-0.3,0.3c-0.05,0-0.15,0-0.2,0
		c-27.5,0-55.05,0-82.56,0c-0.15,0-0.25,0-0.4,0C0.15,32.21,0.15,32.16,0.1,32.16z"/>
	<path class="st0" d="M25,11.36c0.6,0.1,1.15,0.15,1.65,0.3c2.15,0.65,3.75,1.95,4.2,4.25c0.7,3.4-0.6,6.55-4.55,7.85
		c-1.7,0.55-3.45,0.75-5.2,0.75c-3.2,0-6.4,0-9.65,0c-0.1,0-0.2,0.05-0.25-0.05c0-0.1,0.15-0.15,0.2-0.2c1.6-1.1,3.15-2.2,4.75-3.35
		c0.15-0.1,0.35-0.15,0.55-0.15c1.6,0,3.2,0,4.8,0c0.95,0,1.9-0.15,2.8-0.55c1.15-0.55,1.75-1.45,1.8-2.65
		c0.1-1.3-0.3-2.35-1.45-3.05c-0.85-0.55-1.8-0.75-2.8-0.9c-1.9-0.25-3.8-0.15-5.65-0.2c-0.25,0-0.25,0.15-0.25,0.3
		c0,1.75,0,3.55,0,5.3c0,0.25-0.1,0.4-0.3,0.55c-1.45,1-2.85,2-4.25,3c-0.1,0.05-0.2,0.15-0.35,0.25c0-0.2,0-0.3,0-0.45
		c0-6.5,0-12.95,0-19.45c0-0.4-0.05-0.75-0.25-1.1c-0.2-0.4-0.35-0.8-0.55-1.2c-0.1-0.2-0.05-0.25,0.15-0.25c0.05,0,0.1,0,0.15,0
		c4,0,8,0,12,0c2.1,0,3.95,0.7,5.3,2.35c2.4,2.85,1.15,7.35-2.35,8.45C25.35,11.21,25.15,11.21,25,11.36z M15.9,7.06
		c0,0.95,0,1.85,0,2.8c0,0.2,0.05,0.25,0.25,0.25c1.3,0,2.65,0,3.95,0c0.9,0,1.75-0.25,2.55-0.75c0.95-0.55,1.55-1.35,1.6-2.5
		c0.05-1.5-0.65-2.45-2.1-2.75c-0.25-0.05-0.55-0.1-0.85-0.1c-1.7,0-3.4,0-5.1,0c-0.25,0-0.3,0.1-0.3,0.3
		C15.95,5.26,15.9,6.16,15.9,7.06z"/>
	<path class="st0" d="M58.16,12.51c0-2.15,0.3-4.05,1.2-5.9c1.3-2.75,3.5-4.6,6.35-5.6c4.25-1.55,8.45-1.35,12.45,0.85
		c3.2,1.75,5,4.55,5.55,8.15c0.35,2.45,0.25,4.85-0.6,7.15c-1.2,3.25-3.5,5.4-6.7,6.6c-4.3,1.6-8.55,1.35-12.55-0.85
		c-3.05-1.65-4.8-4.3-5.45-7.65C58.21,14.36,58.16,13.36,58.16,12.51z M63.26,12.41c0,0.45,0,0.95,0.05,1.4
		c0.15,1.6,0.6,3.15,1.65,4.45c1.8,2.25,4.15,3.2,7,2.85c2.9-0.35,5-1.85,6.1-4.55c0.85-2,0.9-4.15,0.6-6.3
		c-0.25-1.5-0.8-2.95-1.85-4.1c-1.75-1.95-3.95-2.75-6.55-2.5c-2.45,0.25-4.35,1.35-5.7,3.45C63.56,8.76,63.26,10.56,63.26,12.41z"
		/>
	<path class="st0" d="M34.2,24.51c0.15-0.1,0.25-0.2,0.3-0.25c1.6-1.1,3.2-2.25,4.8-3.35c0.15-0.1,0.35-0.2,0.55-0.2
		c1.25,0,2.5,0.1,3.75,0c2.85-0.2,5.15-1.4,6.4-4.1c0.45-0.95,0.65-1.95,0.75-3c0.15-1.75,0.05-3.45-0.65-5.05
		c-0.95-2.3-2.75-3.6-5.1-4.2c-0.9-0.25-1.8-0.35-2.75-0.35c-0.95,0-1.9,0-2.85,0c-0.3,0-0.35,0.1-0.35,0.35c0,4.85,0,9.7,0,14.55
		c0,0.3-0.1,0.5-0.35,0.65c-1.4,0.95-2.8,1.95-4.2,2.95c-0.1,0.05-0.2,0.1-0.35,0.25c0-0.2,0-0.3,0-0.45c0-6.5,0-13,0-19.5
		c0-0.4-0.05-0.75-0.25-1.05c-0.25-0.45-0.4-0.95-0.65-1.4c0.1,0,0.15,0,0.25,0c3.6,0,7.2-0.05,10.8,0.05c3.9,0.1,7.1,1.65,9.4,4.85
		c1.2,1.65,1.85,3.55,2.05,5.6c0.25,2.1,0.1,4.15-0.6,6.15c-1.2,3.5-3.6,5.75-7.1,6.95c-1.4,0.5-2.85,0.7-4.35,0.7
		c-3.1,0-6.2,0-9.3,0C34.4,24.51,34.35,24.51,34.2,24.51z"/>
	<path class="st0" d="M0,30.46c0-0.15,0-0.3,0-0.4c0-9.75,0-19.55,0-29.3c0-0.35,0.05-0.4,0.4-0.4c1.35,0,2.7,0,4.05,0
		c0.25,0,0.3,0.05,0.3,0.3c0,8.75,0,17.5,0,26.25c0,0.15,0,0.3-0.2,0.4c-1.5,1-2.95,2.05-4.4,3.1C0.15,30.36,0.1,30.41,0,30.46z"/>
</g>
</svg>
