<svg width="27" height="27" viewBox="0 0 27 27" fill="none" xmlns="http://www.w3.org/2000/svg">
<path d="M0.609622 13.9077C0.614451 6.71407 6.45333 0.851462 13.6056 0.858894C20.943 0.866526 26.781 6.65984 26.7798 13.932C26.7786 21.1682 20.9015 27.0049 13.6317 26.9895C6.4322 26.974 0.604793 21.1198 0.609622 13.9077ZM12.0173 18.8767C13.0132 18.8767 13.9567 18.8767 14.9479 18.8767C14.9479 18.6584 14.9479 18.4781 14.9479 18.2977C14.9477 16.7622 14.9463 15.2269 14.9479 13.6914C14.9489 12.7317 15.6671 12.0185 16.6275 12.0175C17.5045 12.0165 18.1349 12.6972 18.1373 13.6607C18.1411 15.2128 18.1383 16.7648 18.1383 18.317C18.1383 18.4955 18.1383 18.6743 18.1383 18.8695C19.1356 18.8695 20.0727 18.8695 21.0396 18.8695C21.0396 17.3402 21.0484 15.857 21.0351 14.3737C21.0299 13.7914 21.0323 13.1997 20.9313 12.6299C20.691 11.2744 20.0399 10.1872 18.5985 9.86601C17.2046 9.55549 15.9677 9.84231 15.1304 11.1342C15.1081 11.1685 15.0598 11.1862 14.9741 11.2465C14.9534 10.802 14.9347 10.4005 14.9161 10.0036C13.9147 10.0036 12.9723 10.0036 12.0171 10.0036C12.0173 12.9772 12.0173 15.9098 12.0173 18.8767ZM7.34857 9.98471C7.34857 12.9856 7.34857 15.9279 7.34857 18.9157C8.18585 18.9157 8.98692 18.8898 9.78517 18.9257C10.245 18.9464 10.3792 18.8078 10.3752 18.3435C10.353 15.7417 10.3647 13.1397 10.3629 10.5377C10.3627 10.3599 10.3478 10.1821 10.3389 9.98491C9.32095 9.98471 8.35649 9.98471 7.34857 9.98471ZM8.80502 8.75973C9.70207 8.76535 10.4681 8.07222 10.4854 7.23909C10.5029 6.39854 9.71675 5.65298 8.81145 5.65178C7.92245 5.65057 7.17572 6.36017 7.17511 7.20655C7.17491 8.06639 7.8963 8.7539 8.80502 8.75973Z" fill="white"/>
</svg>
