<?xml version="1.0" encoding="utf-8"?>
<!-- Generator: Adobe Illustrator 24.1.0, SVG Export Plug-In . SVG Version: 6.00 Build 0)  -->
<svg version="1.1" id="Layer_1" xmlns="http://www.w3.org/2000/svg" xmlns:xlink="http://www.w3.org/1999/xlink" x="0px" y="0px"
	 viewBox="0 0 191 94.7" style="enable-background:new 0 0 191 94.7;" xml:space="preserve">
<style type="text/css">
	.st0{fill:#C3D946;}
	.st1{opacity:0.8;fill:url(#SVGID_1_);enable-background:new    ;}
	.st2{fill:#8DC63F;}
	.st3{fill:url(#SVGID_2_);}
	.st4{fill:#F16122;}
	.st5{fill:url(#SVGID_3_);}
	.st6{fill:#FEBD33;}
	.st7{fill:#008EC3;}
	.st8{fill:url(#SVGID_4_);}
	.st9{fill:#00C2F3;}
	.st10{fill:url(#SVGID_5_);}
	.st11{opacity:0.66;fill:url(#SVGID_6_);enable-background:new    ;}
	.st12{fill:url(#SVGID_7_);}
	.st13{fill:#1CB7EB;}
	.st14{fill:#FFFFFF;}
	.st15{fill:url(#SVGID_8_);}
</style>
<g>
	<path class="st0" d="M173.8,0v70.9H191V19.2L173.8,0z"/>
	
		<linearGradient id="SVGID_1_" gradientUnits="userSpaceOnUse" x1="181.9243" y1="76.2381" x2="168.2621" y2="64.3853" gradientTransform="matrix(1 0 0 -1 0 112.1102)">
		<stop  offset="0" style="stop-color:#C4D82E;stop-opacity:0"/>
		<stop  offset="1" style="stop-color:#469337"/>
	</linearGradient>
	<path class="st1" d="M173.8,0v70.9H191V19.2L173.8,0z"/>
	<path class="st2" d="M137.7,0.1L191,70.9h-22.6l-42-56.5L137.7,0.1z"/>
	
		<linearGradient id="SVGID_2_" gradientUnits="userSpaceOnUse" x1="149.7445" y1="76.6007" x2="136.0012" y2="76.6007" gradientTransform="matrix(1 0 0 -1 0 112.1102)">
		<stop  offset="0" style="stop-color:#8DC63F;stop-opacity:0"/>
		<stop  offset="1" style="stop-color:#48A842"/>
	</linearGradient>
	<path class="st3" d="M137.7,0.1L191,70.9h-22.6l-42-56.5L137.7,0.1z"/>
	<path class="st4" d="M33.3,36.8l-8.4-9.3v2.1h-12l4.3-4.8v-5.8v-2.7V0.1V0H0l0.1,0.1H0v13.4v10.9v19.5l7.6-8.4l1.2,1.3l8.4,9.3
		l3.8,4.2L39.7,71h24.5L33.3,36.8z"/>
	
		<linearGradient id="SVGID_3_" gradientUnits="userSpaceOnUse" x1="4.1324" y1="88.6939" x2="11.7145" y2="81.208" gradientTransform="matrix(1 0 0 -1 0 112.1102)">
		<stop  offset="0" style="stop-color:#F16122;stop-opacity:0"/>
		<stop  offset="1" style="stop-color:#B43816"/>
	</linearGradient>
	<path class="st5" d="M17.2,11.8H0v32.1h17.2V11.8z"/>
	<path class="st6" d="M33.3,34.2L21.1,47.7l-3.8,4.2L0,71v-2.8V43.9l8.8-9.7l8.4-9.3l3.8-4.2L39.7,0h24.5L33.3,34.2z"/>
	<path class="st7" d="M70.1,0L54.4,17.3h58.7V0L70.1,0z"/>
	
		<linearGradient id="SVGID_4_" gradientUnits="userSpaceOnUse" x1="84.954" y1="102.3457" x2="94.1145" y2="93.8867" gradientTransform="matrix(1 0 0 -1 0 112.1102)">
		<stop  offset="0" style="stop-color:#008EC3;stop-opacity:0"/>
		<stop  offset="1" style="stop-color:#004C76"/>
	</linearGradient>
	<path class="st8" d="M70.1,0L54.4,17.3h58.7V0L70.1,0z"/>
	<path class="st9" d="M8.8,34.2L0,43.9l17.2-19.1L8.8,34.2z"/>
	<path class="st7" d="M67.5,71h53V53.7H83.1L67.5,71z"/>
	
		<linearGradient id="SVGID_5_" gradientUnits="userSpaceOnUse" x1="39.3967" y1="55.0344" x2="50.7476" y2="42.8781" gradientTransform="matrix(1 0 0 -1 0 112.1102)">
		<stop  offset="0" style="stop-color:#F16122;stop-opacity:0"/>
		<stop  offset="1" style="stop-color:#B43816"/>
	</linearGradient>
	<path class="st10" d="M50.6,71l6.8-7.5L36,39.8L22.9,52.4L39.7,71H50.6z"/>
	
		<linearGradient id="SVGID_6_" gradientUnits="userSpaceOnUse" x1="107.865" y1="49.7591" x2="122.2652" y2="49.7591" gradientTransform="matrix(1 0 0 -1 0 112.1102)">
		<stop  offset="0" style="stop-color:#008EC3;stop-opacity:0"/>
		<stop  offset="1" style="stop-color:#004C76"/>
	</linearGradient>
	<path class="st11" d="M67.5,71h53V53.7H83.1L67.5,71z"/>
	
		<linearGradient id="SVGID_7_" gradientUnits="userSpaceOnUse" x1="91.7959" y1="51.7337" x2="82.128" y2="60.4081" gradientTransform="matrix(1 0 0 -1 0 112.1102)">
		<stop  offset="0" style="stop-color:#008EC3;stop-opacity:0"/>
		<stop  offset="1" style="stop-color:#004C76"/>
	</linearGradient>
	<path class="st12" d="M67.5,71h53V53.7H83.1L67.5,71z"/>
	<path class="st13" d="M108.4,0L60.2,53.7L44.6,71h22.9l15.6-17.3L131.3,0H108.4z"/>
	<path class="st0" d="M120.5,19.2V71l17.2-17.3V0.1h-0.1L120.5,19.2z"/>
	<path class="st14" d="M61.2,90.4c0,1.3,0.6,2,2.3,2c0.7,0,1.4-0.1,2-0.2v-4h2.3v5.8c-1.4,0.4-3,0.6-4.4,0.6c-3.2,0-4.7-1.4-4.7-4
		v-5.6c0-2.7,1.6-4,5-4c1.1,0,2.6,0.1,3.7,0.4l-0.3,2.2c-1.2-0.2-2.4-0.4-3.7-0.4c-1.7,0-2.3,0.7-2.3,2L61.2,90.4L61.2,90.4z"/>
	<path class="st14" d="M82.2,94.5l-3-4.3h-2.4v4.3h-2.5V81.4h5.3c3,0,4.2,1.2,4.2,3.5v1.7c0,1.6-0.6,2.7-2,3.2l3.2,4.7H82.2z
		 M79.6,83.6h-2.8V88h2.8c1.4,0,1.8-0.5,1.8-1.6v-1.3C81.4,84,80.9,83.6,79.6,83.6z"/>
	<path class="st14" d="M100.2,90.6c0,2.2-1.2,4-4.9,4s-4.9-1.9-4.9-4v-5.4c0-2.2,1.2-4,4.9-4s4.9,1.9,4.9,4V90.6z M92.9,90.5
		c0,1.2,0.6,2,2.5,2c1.8,0,2.5-0.7,2.5-2v-5.2c0-1.2-0.6-2-2.5-2c-1.8,0-2.5,0.7-2.5,2V90.5z"/>
	<path class="st14" d="M116.3,81.4v9.3c0,2.1-1.2,4-4.8,4c-3.7,0-4.8-1.9-4.8-4v-9.3h2.5v9.1c0,1.3,0.6,2,2.4,2c1.7,0,2.4-0.7,2.4-2
		v-9.1H116.3z"/>
	<path class="st14" d="M123.1,81.4h5.1c3,0,4.1,1.2,4.1,3.5v1.8c0,2.3-1.2,3.5-4.2,3.5h-2.5v4.2h-2.5V81.4z M128,83.6h-2.5v4.5h2.5
		c1.4,0,1.8-0.5,1.8-1.6v-1.3C129.8,84,129.4,83.6,128,83.6z"/>
	
		<linearGradient id="SVGID_8_" gradientUnits="userSpaceOnUse" x1="33.4601" y1="61.4623" x2="25.1686" y2="69.708" gradientTransform="matrix(1 0 0 -1 0 112.1102)">
		<stop  offset="0" style="stop-color:#F16122;stop-opacity:0"/>
		<stop  offset="1" style="stop-color:#B43816"/>
	</linearGradient>
	<path class="st15" d="M36.9,67.9L19.9,49.1l12.2-13.6L50,55.3L36.9,67.9z"/>
</g>
</svg>
