<svg width="54" height="66" viewBox="0 0 54 66" fill="none" xmlns="http://www.w3.org/2000/svg">
<path d="M28.3213 34.4841C20.4758 35.3119 13.8945 28.7629 14.7264 20.9556C15.3325 15.2672 19.9281 10.6945 25.6444 10.0918C33.4896 9.26482 40.07 15.8131 39.2385 23.6199C38.6324 29.3083 34.0372 33.8814 28.3213 34.4841ZM28.1451 11.6968C21.3318 10.9782 15.6167 16.6653 16.3389 23.4454C16.8649 28.3852 20.8561 32.3565 25.8202 32.8795C32.6332 33.5977 38.3474 27.911 37.6256 21.1314C37.0996 16.192 33.1092 12.2207 28.1451 11.6968Z" fill="url(#paint0_linear)"/>
<path d="M23.3364 41.067L23.3203 41.0864C23.3626 41.0442 23.4079 41.0025 23.4532 40.9637C23.4143 40.9958 23.3753 41.0312 23.3364 41.067ZM23.9266 40.589C23.8648 40.6312 23.8 40.6792 23.7416 40.7277C23.8034 40.6826 23.8648 40.6375 23.9295 40.592C24.0269 40.5241 24.1273 40.4596 24.231 40.3951C24.1277 40.4567 24.0269 40.5212 23.9266 40.589Z" fill="url(#paint1_linear)"/>
<path d="M44.4641 37.1542C45.2685 36.7121 45.911 35.9762 46.2355 35.0881C46.6832 33.8712 46.482 32.5667 45.6874 31.521L45.6323 31.4498C44.9444 30.5461 44.7564 29.4098 45.1198 28.3316C45.4798 27.2535 46.3202 26.4531 47.4002 26.1462L47.4943 26.1205C49.4037 25.5818 50.5545 23.7952 50.211 21.7341C49.9806 20.3512 48.9441 19.2347 47.5968 18.8267L47.5853 18.8233C46.5603 18.5126 45.6903 17.7822 45.3024 16.7883C44.8538 15.6377 45.038 14.4107 45.8077 13.4341L45.8458 13.3848C46.7238 12.2493 46.9403 10.7029 46.2986 9.42031C45.3794 7.5822 43.4349 6.80793 41.5776 7.44606L41.5022 7.47219C40.7394 7.73647 39.8986 7.74448 39.1527 7.43552C37.7923 6.87157 36.9773 5.64926 36.9773 4.26636C36.9773 4.23095 36.9773 4.19217 36.9807 4.13738C37.0197 3.0786 36.6499 2.09064 35.9362 1.35472C35.2031 0.59604 34.1683 0.160222 33.098 0.160222C31.8489 0.160222 30.7138 0.760842 29.9772 1.80655C29.3253 2.73931 28.3067 3.25605 27.1516 3.25605C26.0097 3.24636 24.9881 2.70095 24.3587 1.76778L24.3066 1.69359C23.3401 0.257164 21.6399 -0.333762 19.9825 0.185932C18.3218 0.705627 17.2739 2.16145 17.3061 3.87564V3.96584C17.3289 5.10217 16.8097 6.13186 15.8787 6.79023C14.9511 7.45196 13.7994 7.60707 12.7257 7.21635L12.6656 7.19443C11.3072 6.70298 9.7553 6.97104 8.72225 7.97671C7.24234 9.41694 7.10045 11.5004 8.28175 13.0556L8.33554 13.1256C8.84381 13.789 9.1115 14.6185 9.02086 15.448C8.85906 16.9291 7.90605 18.0465 6.5333 18.4368L6.47485 18.4562C4.80095 18.9274 3.70775 20.3541 3.69462 22.0848C3.67853 23.815 4.74547 25.2581 6.40963 25.7584L6.45833 25.774C7.36602 26.0615 8.15087 26.6828 8.55706 27.5401C9.13522 28.7599 8.98273 30.0934 8.15807 31.1434L8.12546 31.1855C7.25293 32.2894 7.05513 33.7132 7.59686 34.9882C7.98949 35.9112 8.70319 36.6311 9.57572 37.0219L0.231621 53.1332C-0.426587 54.2683 0.396385 55.6866 1.71322 55.6866H10.1522C11.0035 55.6866 11.7901 56.1397 12.2141 56.8744L15.5822 62.709C16.356 64.0498 18.2993 64.0519 19.0761 62.7132L26.9827 49.0886L35.8253 64.3275C36.4415 65.3893 37.9824 65.3872 38.5957 64.3237L42.9423 56.7829C43.3722 56.0373 44.1698 55.577 45.0338 55.5766L52.4232 55.5724C53.6354 55.5716 54.3927 54.2658 53.7866 53.2209L44.4641 37.1542ZM9.09201 34.3619C8.77731 33.6226 8.89083 32.8285 9.41646 32.1604L9.44907 32.1183C10.4741 30.8171 10.7888 29.1 10.2894 27.5245C9.79003 25.946 8.54435 24.7191 6.95135 24.2381L6.87978 24.2154C5.71542 23.8634 5.30965 22.8919 5.316 22.0978C5.32236 21.3071 5.74761 20.3385 6.93145 20.0026L6.9899 19.9832C8.58925 19.5314 9.85738 18.3272 10.383 16.7614C10.9116 15.1926 10.6261 13.4687 9.63035 12.1549L9.57826 12.0871C8.84508 11.1219 9.09159 10.0985 9.56513 9.45951C10.0387 8.82348 10.9535 8.29115 12.0955 8.70715L12.167 8.73286C13.7308 9.30103 15.4695 9.06542 16.8219 8.10358C18.1714 7.1447 18.9596 5.58561 18.9274 3.94898V3.85878C18.9046 2.65164 19.7093 1.96377 20.4683 1.72478C21.2274 1.4858 22.285 1.58907 22.9533 2.5804L23.0021 2.65459C23.9297 4.0299 25.4739 4.85602 27.1381 4.86908H27.4892C29.0352 4.86908 30.4198 4.03917 31.2835 2.76291C31.7151 2.12478 32.361 1.77368 33.0976 1.77368C33.7299 1.77368 34.3369 2.02868 34.7681 2.47419C35.0535 2.76797 35.3877 3.28429 35.3585 4.05941C35.3551 4.12727 35.3551 4.19808 35.3551 4.26594C35.3551 5.87981 36.1467 7.40349 37.4733 8.34299C38.8164 9.29513 40.4772 9.53411 42.0342 8.99503L42.1087 8.96932C43.257 8.57565 44.1587 9.12443 44.623 9.76972C45.0868 10.4154 45.3138 11.4451 44.5484 12.4167L44.5158 12.4554C43.0516 14.3134 43.0368 17.021 44.7738 18.951C45.3748 19.6186 46.1723 20.0814 47.0343 20.3423L47.0851 20.3579C48.2499 20.7099 48.6552 21.6848 48.6489 22.4788C48.6425 23.2696 48.2207 24.2348 47.0563 24.5673L46.972 24.5901C45.3761 25.0419 44.1075 26.2495 43.5789 27.8183C43.0533 29.387 43.3387 31.1075 44.3316 32.415L44.3866 32.4862C45.019 33.3191 44.8635 34.1262 44.714 34.533C44.448 35.2529 43.8347 35.8017 43.1117 35.9631C42.7127 36.0567 42.2909 36.0246 41.8694 35.8695L41.7978 35.8438C40.2341 35.2756 38.4954 35.5113 37.1429 36.4731C35.7935 37.432 35.0052 38.9911 35.0374 40.6243V40.7179C35.0603 41.9284 34.2556 42.6129 33.4965 42.8515C32.7375 43.0904 31.6833 42.9872 31.0018 41.9765L30.9594 41.9183C30.8849 41.8087 30.8103 41.7021 30.7358 41.6114C29.8277 40.462 28.4651 39.7717 26.9954 39.7101C26.4015 39.6874 25.8179 39.7649 25.2664 39.9394C25.1855 39.9651 25.1042 39.9912 25.0233 40.0233C24.8644 40.0814 24.7052 40.1493 24.5527 40.2235C24.4426 40.2753 24.3384 40.3331 24.2346 40.3946C24.2312 40.3946 24.2312 40.3946 24.2312 40.3946C24.1274 40.4591 24.0266 40.5236 23.9297 40.5914C23.8648 40.6365 23.803 40.6816 23.7416 40.7272C23.6798 40.7723 23.6183 40.8241 23.5599 40.8726C23.5243 40.9017 23.4883 40.9307 23.4527 40.9628C23.4074 41.0016 23.3621 41.0433 23.3197 41.0854C23.2549 41.147 23.1931 41.2081 23.1317 41.2726C23.1283 41.2789 23.1253 41.2823 23.1185 41.2886L23.005 41.4112C22.9076 41.5179 22.817 41.6338 22.7259 41.7564C22.7064 41.7822 22.6869 41.8049 22.6708 41.8306L22.6124 41.9082C21.9182 42.8991 20.8606 42.983 20.1049 42.7347C19.3489 42.4831 18.5577 41.7826 18.603 40.5784L18.6064 40.4945C18.6648 38.8419 17.9058 37.2697 16.5691 36.2885C15.2327 35.3039 13.5004 35.0392 11.9303 35.5816L11.8557 35.6074C11.5313 35.7203 11.2005 35.7625 10.8794 35.7266C10.0975 35.647 9.41646 35.1239 9.09201 34.3619ZM16.5382 61.1204L13.1734 55.2929C12.7376 54.5381 11.9299 54.0727 11.0552 54.0727H2.90893C2.30917 54.0727 1.93432 53.4266 2.2342 52.9099L11.2589 37.351H11.2687C11.3432 37.3477 11.4178 37.3414 11.4957 37.3317C11.5249 37.3283 11.5542 37.3253 11.5834 37.322H11.5931C11.6711 37.3123 11.749 37.2992 11.8265 37.2832C11.9044 37.2672 11.9853 37.2507 12.0667 37.2284C12.1738 37.2027 12.2806 37.1669 12.3877 37.1315L12.4623 37.1057C13.5394 36.7344 14.6842 36.9089 15.6055 37.5867C16.5233 38.2615 17.0265 39.3008 16.9842 40.4304L16.9833 40.4536C16.924 41.987 17.7546 43.4555 19.1566 44.094C19.7839 44.3798 20.4268 44.4991 21.0423 44.4653C21.0944 44.4653 21.1426 44.462 21.1947 44.4556C21.2142 44.4556 21.2337 44.4523 21.2532 44.4493C21.2985 44.446 21.3438 44.4396 21.3896 44.4333C21.5484 44.4105 21.7009 44.3785 21.8534 44.3364C21.8987 44.3233 21.944 44.3107 21.9864 44.2942C22.2977 44.1973 22.5929 44.0552 22.8686 43.8744C22.914 43.8487 22.9563 43.8196 23.0016 43.7842C23.1639 43.6746 23.3197 43.5452 23.4625 43.4002C23.5014 43.3648 23.537 43.3261 23.5726 43.2873C23.5823 43.2776 23.5921 43.2679 23.5984 43.2582H23.6018L26.0445 47.4739L18.1278 61.1213C17.7745 61.7316 16.8901 61.7308 16.5382 61.1204ZM42.0676 55.0531L38.0595 62.0073C37.6813 62.6631 36.7308 62.6648 36.3509 62.0098L27.9196 47.4748L24.7403 42.0001V41.9967H24.7437C24.8314 41.9288 24.922 41.8677 25.0161 41.8125C25.0711 41.7771 25.1262 41.7446 25.1847 41.7156C25.1944 41.7092 25.2041 41.7059 25.2139 41.6995C25.2821 41.6641 25.3503 41.6317 25.4214 41.6026C25.4443 41.5929 25.4667 41.5832 25.4896 41.5735C25.5447 41.5508 25.5997 41.5284 25.6582 41.509C25.6874 41.4993 25.7166 41.4896 25.7488 41.4799C25.7522 41.4799 25.7552 41.4766 25.7586 41.4766C25.8268 41.4538 25.895 41.4344 25.9661 41.4184C26.0538 41.3956 26.1444 41.3763 26.2355 41.3636C26.2939 41.3539 26.3524 41.3442 26.4138 41.3409C26.4202 41.3375 26.4299 41.3375 26.4367 41.3375C26.479 41.3312 26.521 41.3278 26.5633 41.3244C26.6379 41.321 26.7095 41.3181 26.784 41.3181C26.8293 41.3181 26.878 41.3181 26.9267 41.3215C27.9225 41.3636 28.8472 41.8315 29.4668 42.6159C29.5189 42.6837 29.5672 42.7516 29.6159 42.8258L29.6549 42.8805C29.7455 43.0163 29.8463 43.1452 29.9501 43.2679C30.0022 43.3294 30.0573 43.3872 30.1123 43.4424C30.2779 43.6135 30.4562 43.7653 30.6443 43.8976C30.7222 43.9524 30.8031 44.0042 30.8845 44.0527C30.9298 44.0784 30.9721 44.1045 31.0175 44.1269C31.0336 44.1332 31.0501 44.1429 31.0628 44.1496C31.092 44.1657 31.1212 44.1821 31.1505 44.1981C31.2153 44.2272 31.2771 44.2563 31.3419 44.282C31.3677 44.2951 31.394 44.3048 31.4198 44.3144C31.4846 44.3402 31.5528 44.3663 31.621 44.3886C31.6469 44.395 31.6731 44.4046 31.6956 44.4114C31.7672 44.4342 31.8349 44.4535 31.9031 44.4696C31.929 44.4759 31.9552 44.4826 31.9811 44.4856C32.0526 44.5016 32.1238 44.518 32.1954 44.5277C32.2182 44.5311 32.2441 44.534 32.2665 44.5374C32.3216 44.5471 32.3767 44.5534 32.4351 44.5568C32.4546 44.5602 32.4741 44.5602 32.4936 44.5631C32.5097 44.5665 32.5262 44.5665 32.5423 44.5665C32.7206 44.5796 32.9023 44.5796 33.084 44.5665C33.3826 44.5437 33.6842 44.486 33.9828 44.392C35.6436 43.8723 36.6914 42.4165 36.6592 40.7023V40.6087C36.6313 39.2035 37.436 37.9571 38.8207 37.381C39.5864 37.0623 40.4522 37.0762 41.2324 37.3586L41.3112 37.3873C41.3662 37.4067 41.4213 37.4261 41.4768 37.4421C41.6259 37.4906 41.7754 37.5293 41.9245 37.5584C42.2392 37.62 42.5505 37.6389 42.8618 37.6229L51.7256 52.8976C51.9988 53.3689 51.6574 53.9577 51.111 53.9581L43.9593 53.9627C43.1778 53.9627 42.4565 54.3787 42.0676 55.0531Z" fill="url(#paint2_linear)"/>
<defs>
<linearGradient id="paint0_linear" x1="26.9824" y1="10.0211" x2="26.9824" y2="34.5549" gradientUnits="userSpaceOnUse">
<stop stop-color="#F16122"/>
<stop offset="1" stop-color="#FEBD33"/>
</linearGradient>
<linearGradient id="paint1_linear" x1="23.7756" y1="40.3951" x2="23.7756" y2="41.0864" gradientUnits="userSpaceOnUse">
<stop stop-color="#F16122"/>
<stop offset="1" stop-color="#FEBD33"/>
</linearGradient>
<linearGradient id="paint2_linear" x1="27" y1="0" x2="27" y2="65.1226" gradientUnits="userSpaceOnUse">
<stop stop-color="#F16122"/>
<stop offset="1" stop-color="#FEBD33"/>
</linearGradient>
</defs>
</svg>
