<?xml version="1.0" encoding="utf-8"?>
<!-- Generator: Adobe Illustrator 24.2.1, SVG Export Plug-In . SVG Version: 6.00 Build 0)  -->
<svg version="1.1" id="Layer_1" xmlns="http://www.w3.org/2000/svg" xmlns:xlink="http://www.w3.org/1999/xlink" x="0px" y="0px"
	 viewBox="0 0 90.8 41.09" style="enable-background:new 0 0 90.8 41.09;" xml:space="preserve">
<style type="text/css">
	.st0{fill:#FFFFFF;}
</style>
<g>
	<path class="st0" d="M24.45,0c3.85,0.05,7.7,0.35,11.45,1.55c2.95,0.9,5.65,2.3,7.9,4.5c2.55,2.5,4,5.55,4.65,9
		C49,18,49,20.95,48.6,23.9c-0.05,0.25-0.2,0.3-0.35,0.4c-2.45,1.45-4.9,2.85-7.35,4.3c-6.85,4-13.65,8-20.5,12
		c-0.3,0.2-0.6,0.25-1,0.2c-2.3-0.3-4.6-0.75-6.8-1.6c-6.5-2.4-10.6-6.95-12-13.75c-0.85-4.2-0.85-8.4,0.4-12.5
		c1.5-5.1,4.85-8.5,9.7-10.6c2.45-1.05,5-1.65,7.65-2C20.35,0.15,22.4,0.05,24.45,0z M20.25,20.05c0.05,1.55,0.05,3.05,0.2,4.55
		c0.15,1.2,0.4,2.4,0.95,3.5c1.2,2.25,4.7,2.25,5.95,0.05c0.45-0.8,0.7-1.6,0.85-2.5c0.5-3.3,0.55-6.6,0.15-9.9
		c-0.15-1.05-0.4-2.1-1.05-3c-1.4-1.95-4.6-1.9-5.9,0.15c-0.35,0.55-0.6,1.15-0.75,1.8C20.3,16.45,20.3,18.25,20.25,20.05z"/>
	<path class="st0" d="M49.85,32.35c0-2.45,0-4.95,0-7.4c0-0.3,0.1-0.45,0.35-0.55C63.4,16.65,76.65,8.9,89.85,1.15
		C89.95,1.1,90,1.05,90.1,1c0.15-0.1,0.25-0.05,0.25,0.15c0,0.1,0,0.15,0,0.25c0,4.8,0,9.6,0,14.45c0,0.3-0.1,0.45-0.35,0.6
		c-12.3,7.85-24.55,15.7-36.85,23.6c-0.25,0.15-0.45,0.2-0.7,0.2c-0.75,0-1.45,0-2.2,0c-0.3,0-0.4-0.1-0.4-0.4
		C49.85,37.3,49.85,34.85,49.85,32.35z"/>
	<path class="st0" d="M87.9,1c-2.15,1.25-4.3,2.5-6.45,3.75c-4.1,2.4-8.2,4.8-12.25,7.2c-0.3,0.2-0.6,0.25-1,0.25
		c-5.75,0-11.5,0-17.25,0c-0.35,0-0.45-0.1-0.45-0.45c0-3.5,0-6.95,0-10.45c0-0.3,0.05-0.4,0.4-0.4c12.25,0,24.45,0,36.7,0
		c0.1,0,0.2,0,0.3,0C87.9,0.95,87.9,1,87.9,1z"/>
	<path class="st0" d="M56.8,40.1c2.25-1.45,4.5-2.9,6.75-4.35c3.5-2.25,7-4.45,10.45-6.7c0.2-0.15,0.4-0.2,0.65-0.2
		c5.25,0,10.5,0,15.7,0c0.35,0,0.45,0.05,0.45,0.4c0,3.5,0,7,0,10.5c0,0.3-0.1,0.4-0.4,0.4c-11.1,0-22.2,0-33.3,0
		c-0.1,0-0.2,0-0.35,0C56.8,40.15,56.8,40.15,56.8,40.1z"/>
	<path class="st0" d="M21.75,41c8.9-5.2,17.7-10.35,26.5-15.55c-0.1,0.7-0.3,1.35-0.5,2c-1.85,5.85-5.85,9.7-11.55,11.8
		c-2.65,1-5.45,1.5-8.25,1.7C25.9,41.1,23.9,41.15,21.75,41z"/>
</g>
</svg>
