<?xml version="1.0" encoding="utf-8"?>
<!-- Generator: Adobe Illustrator 24.2.1, SVG Export Plug-In . SVG Version: 6.00 Build 0)  -->
<svg version="1.1" id="Layer_1" xmlns="http://www.w3.org/2000/svg" xmlns:xlink="http://www.w3.org/1999/xlink" x="0px" y="0px"
	 viewBox="0 0 63.37 44.15" style="enable-background:new 0 0 63.37 44.15;" xml:space="preserve">
<style type="text/css">
	.st0{fill:#FFFFFF;}
	.st1{fill:#010101;}
</style>
<g>
	<path class="st0" d="M8.8,10.95c-2.25,0-4-1.5-4.35-3.65c0-0.05-0.05-0.1,0.05-0.1C4.95,7.8,5.65,8,6.35,8.15
		c0.45,0.1,0.9,0.1,1.35,0.1c1.8,0,3.65,0,5.45,0c0.1,0.1,0.05,0.25,0,0.35c-0.2,0.7-0.35,1.4-0.45,2.1c0,0.1,0,0.2-0.1,0.2
		c-1.15,0-2.35,0-3.5,0C8.95,10.95,8.9,10.95,8.8,10.95z"/>
	<path class="st0" d="M50.3,8.3c1.85,0,3.7,0,5.55,0c0.7,0,1.4-0.05,2.05-0.3c0.4-0.15,0.8-0.35,1.05-0.75c0.1,0,0.1,0.05,0.05,0.1
		c-0.4,2.15-2.15,3.6-4.35,3.65c-0.65,0.05-1.3,0-1.95,0c-0.6,0-1.15,0-1.75,0c-0.15,0-0.15-0.15-0.2-0.25
		C50.6,10,50.45,9.3,50.25,8.6C50.25,8.45,50.2,8.35,50.3,8.3z"/>
	<path class="st0" d="M0.65,40.8c0-0.85,0-1.7,0-2.55C0.65,38.05,0.6,38,0.4,38c-0.05,0-0.15,0-0.2,0C0.05,38,0,37.95,0,37.8
		c0-0.65,0-0.65,0.6-0.65c0.85,0,1.75-0.05,2.6,0.05c1.8,0.2,2.85,1.3,2.95,3.1c0.05,0.5,0,1-0.15,1.5c-0.4,1.2-1.4,2-2.75,2.15
		c-0.7,0.05-1.4,0.05-2.1,0c-0.4,0-0.55-0.15-0.55-0.55C0.65,42.55,0.65,41.7,0.65,40.8z"/>
	<path class="st0" d="M10.2,31.3c0.3,0.25,0.4,0.65,0.6,0.95c0.15,0.3,0.3,0.6,0.45,0.9c0.1,0.2,0.25,0.35,0.5,0.3
		c0.15,0,0.2,0.05,0.2,0.2c0,0.05,0,0.05,0,0.1c0,0.6,0,0.6-0.6,0.55c-0.4,0-0.65-0.2-0.85-0.55c-0.3-0.6-0.6-1.15-0.9-1.75
		c-0.15-0.3-0.35-0.45-0.7-0.45c-0.2,0-0.45,0-0.65,0C8.05,31.55,8,31.6,8,31.8c0,0.75,0,1.5,0,2.2c0,0.2-0.05,0.3-0.25,0.25
		c-0.25,0-0.55,0.05-0.65-0.05c-0.15-0.15-0.05-0.45-0.05-0.7c0-1.65,0-3.3,0-4.95c0-0.2-0.05-0.3-0.25-0.3
		c-0.35,0-0.35,0-0.35-0.35c0-0.45,0-0.45,0.45-0.45c0.85,0,1.7,0,2.55,0c1,0,1.7,0.55,1.95,1.45C11.6,30,11.15,30.9,10.2,31.3z"/>
	<path class="st0" d="M56.91,33.65c-0.75,1.1-2.65,1-3.35-0.35c-0.45-0.95-0.5-1.95,0-2.9c0.45-0.95,1.55-1.35,2.55-1.05
		c0.35,0.1,0.6,0.3,0.8,0.6c0.05,0,0.05-0.05,0.05-0.1c0-0.5,0-0.5,0.5-0.5c0.45,0,0.45,0,0.45,0.45c0,1.45,0,2.9,0,4.3
		c-0.05,1.2-0.75,1.95-1.95,2.1c-0.7,0.1-1.35,0-1.95-0.3c-0.15-0.05-0.2-0.1-0.1-0.25c0.1-0.15,0.1-0.4,0.25-0.5
		c0.1-0.1,0.3,0.1,0.5,0.15c0.5,0.15,0.95,0.2,1.45,0.05c0.55-0.15,0.9-0.5,0.95-1.05c0.05-0.2,0-0.45,0-0.65
		C57.01,33.65,57.01,33.65,56.91,33.65z"/>
	<path class="st0" d="M34.65,37.05c0.85,0,1.45,0.2,2,0.55c0.1,0.1,0.15,0.15,0.05,0.3c-0.1,0.2-0.15,0.45-0.35,0.55
		c-0.15,0.1-0.35-0.2-0.55-0.25c-0.5-0.2-1-0.35-1.5-0.15c-0.4,0.15-0.65,0.4-0.7,0.8c-0.05,0.45,0.2,0.7,0.55,0.9
		c0.4,0.25,0.8,0.4,1.25,0.55c0.25,0.1,0.5,0.25,0.75,0.4c1.15,0.8,1.05,2.5-0.25,3.15c-0.95,0.5-2.55,0.2-3.3-0.55
		c-0.1-0.1-0.1-0.15,0-0.2c0,0,0-0.05,0.05-0.05c0.15-0.15,0.2-0.4,0.4-0.5c0.2-0.05,0.35,0.2,0.5,0.3c0.45,0.25,0.9,0.4,1.45,0.35
		c0.5-0.05,0.9-0.35,1-0.75c0.1-0.45-0.05-0.8-0.5-1.1c-0.35-0.2-0.7-0.35-1.05-0.5c-0.3-0.15-0.65-0.3-0.95-0.5
		c-1.1-0.75-0.95-2.2,0-2.85C33.85,37.2,34.35,37.05,34.65,37.05z"/>
	<path class="st0" d="M26.4,33.5c-0.6,0.85-1.35,1.05-2.25,0.8c-0.55-0.15-0.95-0.5-1.15-1c-0.45-0.95-0.5-1.9,0-2.9
		c0.45-0.9,1.45-1.35,2.45-1.1c0.35,0.1,0.65,0.3,0.95,0.7c0-0.2,0-0.35,0-0.45c0-0.1,0.05-0.15,0.15-0.15h0.05
		c0.75,0,0.75,0,0.75,0.7c0,1.3,0,2.6,0,3.9c0,0.2-0.05,0.25-0.25,0.25c-0.65,0-0.65,0-0.65-0.65C26.4,33.65,26.4,33.6,26.4,33.5z"
		/>
	<path class="st0" d="M12.2,41.6c-0.05,1.5-1.2,2.55-2.7,2.55c-1.45-0.05-2.6-1.2-2.55-2.6C7,40.1,8.15,39,9.65,39.05
		C11.1,39.05,12.25,40.15,12.2,41.6z"/>
	<path class="st0" d="M17.4,31.85c0,1.45-1.15,2.55-2.6,2.6c-1.5,0-2.65-1.1-2.65-2.6c0-1.45,1.15-2.55,2.6-2.55
		C16.25,29.3,17.4,30.4,17.4,31.85z"/>
	<path class="st0" d="M26.45,41.55c0,1.45-1.15,2.55-2.6,2.6c-1.5,0-2.65-1.1-2.65-2.55c0-1.45,1.15-2.55,2.6-2.55
		C25.3,39,26.45,40.1,26.45,41.55z"/>
	<path class="st0" d="M40.5,41.7c-0.5,0-1,0-1.5,0c-0.25,0-0.25,0.1-0.2,0.25c0.15,1,1.15,1.55,2.2,1.3c0.3-0.1,0.55-0.2,0.8-0.4
		c0.1-0.1,0.15-0.05,0.25,0.05c0.35,0.55,0.35,0.6-0.25,0.9c-1.35,0.7-2.95,0.3-3.6-0.9c-0.8-1.4-0.15-3.25,1.3-3.75
		c1.65-0.5,3.05,0.45,2.95,2.35c0,0.15-0.05,0.2-0.25,0.2C41.55,41.7,41.05,41.7,40.5,41.7z"/>
	<path class="st0" d="M61.61,41.7c-0.5,0-1,0-1.5,0c-0.3,0-0.3,0-0.25,0.3c0.2,0.95,1.15,1.5,2.15,1.2c0.3-0.1,0.55-0.2,0.8-0.4
		c0.1-0.1,0.15-0.1,0.2,0.05c0,0.05,0.05,0.1,0.1,0.15c0.25,0.45,0.25,0.45-0.2,0.7c-1.35,0.8-3.05,0.4-3.75-0.85
		c-0.75-1.35-0.2-3.15,1.15-3.7c1.7-0.65,3.25,0.5,3.05,2.35c0,0.15-0.05,0.2-0.2,0.2C62.71,41.7,62.16,41.7,61.61,41.7z"/>
	<path class="st0" d="M33.3,31.3c0-0.9,0-1.8,0-2.7c0-0.2-0.05-0.25-0.25-0.25c-0.4,0-0.35,0.1-0.4-0.4c0-0.45,0-0.45,0.45-0.45
		c1.05,0,2.15,0,3.2,0c0.55,0,0.7,0.15,0.7,0.7c0,0.2,0,0.35,0,0.55S36.95,29,36.75,29c-0.05,0-0.15,0-0.2,0c-0.4,0-0.4,0-0.4-0.4
		c0-0.2-0.1-0.25-0.25-0.25c-0.5,0-1,0-1.45,0c-0.15,0-0.15,0.05-0.15,0.2c0,0.6,0,1.2,0,1.8c0,0.2,0.05,0.25,0.25,0.2
		c0.6,0,1.25,0,1.85,0c0.2,0,0.25,0.05,0.25,0.25c0,0.6,0,0.6-0.6,0.6c-0.5,0-1,0-1.5,0c-0.2,0-0.25,0.05-0.25,0.25
		c0,0.8,0,1.6,0,2.45c0,0.2-0.05,0.3-0.25,0.25c-0.25-0.05-0.5,0.1-0.65-0.05c-0.15-0.15-0.05-0.45-0.05-0.65
		C33.3,32.8,33.3,32.05,33.3,31.3z"/>
	<path class="st0" d="M42.25,33.2c0.4-1.25,0.9-2.4,1.3-3.65c0.05-0.1,0.1-0.15,0.25-0.15c0.2,0,0.4,0,0.6,0s0.25,0.05,0.15,0.2
		c-0.35,0.9-0.7,1.75-1.05,2.65c-0.4,0.95-0.75,1.95-1.15,2.9c-0.35,0.8-1,1.2-1.8,1.1c-0.3-0.05-0.55-0.15-0.8-0.35
		c-0.1-0.05-0.1-0.15-0.05-0.2c0.1-0.15,0.2-0.35,0.3-0.5c0.8,0.5,1.25,0.4,1.65-0.5c0.15-0.3,0.15-0.5,0-0.8
		c-0.6-1.4-1.15-2.8-1.75-4.2c-0.1-0.2-0.05-0.25,0.2-0.25c0.7,0,0.7,0,0.95,0.65C41.5,31.1,41.9,32.15,42.25,33.2z"/>
	<path class="st0" d="M20,33.2c0.4-1.2,0.85-2.3,1.25-3.45c0.1-0.25,0.2-0.35,0.45-0.3c0.2,0,0.45,0,0.65,0
		c0.05,0.1,0,0.15-0.05,0.25c-0.7,1.8-1.45,3.65-2.15,5.45C19.8,36,19.2,36.4,18.4,36.4c-0.25,0-0.5-0.1-0.7-0.2
		c-0.1-0.05-0.15-0.1-0.05-0.2c0.05-0.05,0.05-0.1,0.1-0.15c0.05-0.1,0.1-0.25,0.2-0.35c0.1-0.1,0.25,0.05,0.35,0.1
		c0.35,0.1,0.65,0,0.9-0.35c0.2-0.25,0.3-0.55,0.4-0.85c0.05-0.1,0-0.2-0.05-0.3c-0.6-1.45-1.2-2.9-1.85-4.35
		c-0.1-0.25-0.1-0.3,0.2-0.25c0.25,0,0.55-0.1,0.7,0.05c0.15,0.15,0.2,0.4,0.3,0.65C19.25,31.1,19.65,32.15,20,33.2z"/>
	<path class="st0" d="M31.75,18.45c-3.1,0-5.6-2.5-5.6-5.6c0-3.1,2.5-5.6,5.6-5.6c3.1,0,5.6,2.5,5.6,5.6
		C37.35,15.95,34.85,18.45,31.75,18.45z"/>
	<path class="st0" d="M48.7,30.25c0.5-0.75,1.25-1.05,2.15-0.95c0.8,0.1,1.25,0.65,1.25,1.5c0.05,1.1,0,2.2,0,3.3
		c0,0.15-0.05,0.15-0.15,0.15c-0.15,0-0.3,0-0.5,0c-0.2,0-0.3-0.05-0.3-0.25c0-0.8,0-1.65,0-2.45c0-0.2,0-0.4-0.05-0.6
		c-0.05-0.6-0.4-0.9-1-0.8c-0.85,0.1-1.45,0.75-1.5,1.7c0,0.8,0,1.6,0,2.4c-0.25,0.05-0.55,0-0.8,0.05c-0.1,0-0.15-0.05-0.15-0.15
		c0-0.05,0-0.1,0-0.15c0-1.45,0-2.85,0-4.3c0-0.25,0.05-0.3,0.3-0.25c0.2,0.05,0.45-0.1,0.6,0.05c0.1,0.1,0,0.35,0.05,0.55
		C48.65,30.1,48.55,30.25,48.7,30.25z"/>
	<path class="st0" d="M28.8,6.05c-0.65-0.2-1.3-0.35-1.9-0.65c-0.5-0.25-0.9-0.6-1.1-1.15c-0.25-0.75,0.15-1.65,0.9-1.95
		c0.9-0.4,1.8-0.3,2.65,0.2c0.25,0.15,0.45,0.4,0.6,0.7C30,3.4,30,3.55,29.8,3.6c-0.65,0.25-1.25,0.2-1.85-0.1
		c-0.05,0-0.05-0.05-0.1-0.05c-0.15-0.35-0.3-0.1-0.45,0c-0.35,0.35-0.2,0.95,0.3,1.2c0.35,0.15,0.75,0.25,1.15,0.3
		c0.4,0.1,0.85,0.15,1.25,0.3c0.15,0.05,0.3,0.1,0.4,0.2c0.05,0.1-0.05,0.15-0.1,0.2c-0.5,0.15-1,0.3-1.55,0.45
		C28.85,6.05,28.8,6.05,28.8,6.05z"/>
	<path class="st0" d="M53.85,41.55c0.05-1.05,0.45-1.85,1.4-2.3c1-0.45,1.95-0.35,2.85,0.3c0.15,0.1,0.15,0.2,0.05,0.35
		c-0.1,0.15-0.15,0.35-0.3,0.4c-0.15,0.05-0.25-0.15-0.4-0.25c-0.9-0.5-2-0.25-2.45,0.6c-0.5,0.9-0.15,2.05,0.75,2.45
		c0.75,0.35,1.45,0.15,2.1-0.35c0.2-0.15,0.2-0.1,0.3,0.05c0.3,0.5,0.3,0.5-0.25,0.85c-1.5,0.95-3.5,0.25-4-1.4
		C53.91,42.1,53.85,41.8,53.85,41.55z"/>
	<path class="st0" d="M17.2,42.65c0.05,0.1,0.1,0.2,0.15,0.3c0.25,0.45,0.25,0.45-0.2,0.7c-1.4,0.9-3.3,0.4-3.95-1.05
		c-0.45-1.1-0.15-2.4,0.75-3.05c0.95-0.7,2.35-0.75,3.3,0c0.15,0.1,0.25,0.2,0.05,0.4c-0.1,0.1-0.15,0.35-0.3,0.4
		c-0.1,0.05-0.25-0.15-0.4-0.25c-0.7-0.4-1.55-0.35-2.1,0.15c-0.55,0.5-0.75,1.35-0.4,2.1c0.4,0.85,1.4,1.2,2.35,0.85
		C16.75,43,17,42.85,17.2,42.65z"/>
	<path class="st0" d="M48.85,43.05c0.35-1.2,0.85-2.4,1.25-3.6c0.1-0.25,0.2-0.35,0.45-0.3c0.1,0,0.25,0,0.35,0
		c0.2,0,0.25,0,0.2,0.25c-0.55,1.45-1.1,2.95-1.65,4.4c-0.05,0.15-0.15,0.25-0.3,0.25c-0.25,0-0.6,0.05-0.8-0.05
		c-0.2-0.1-0.25-0.5-0.3-0.75c-0.5-1.3-0.95-2.55-1.45-3.85c-0.05-0.2-0.1-0.25,0.15-0.25c0.75,0,0.75,0,1,0.7
		c0.3,0.8,0.6,1.6,0.85,2.45C48.7,42.5,48.75,42.75,48.85,43.05z"/>
	<path class="st0" d="M25.2,17.65c0.1-0.1,0.25-0.2,0.4-0.35c-0.2,0-0.35,0-0.45-0.05C25.1,17.2,25,17.1,25,17
		c-0.25-0.6-0.45-1.15-0.55-1.8c0-0.1-0.05-0.25,0-0.35c0.3-0.1,0.65-0.05,1-0.05c0.15,0,0.15,0.15,0.15,0.25
		c0.1,0.45,0.2,0.9,0.4,1.3c0.75,1.65,1.95,2.75,3.65,3.4c0.1,0.05,0.3,0,0.35,0.25c0,0,0,0,0,0.05c-0.1,0.65-0.1,0.65-0.75,0.6
		c-0.45,0-0.85-0.05-1.3-0.15c0.05-0.15-0.05-0.15-0.15-0.2C26.7,19.6,25.85,18.75,25.2,17.65z"/>
	<path class="st0" d="M31.2,5.45c-0.05-0.9-0.05-1.8-0.25-2.65c-0.1-0.55-0.3-1.05-0.65-1.5c-0.05-0.1-0.1-0.15,0.05-0.2
		c0.55-0.2,0.95-0.55,1.25-1c0.1-0.15,0.15-0.1,0.25,0c0.35,0.45,0.75,0.8,1.25,1c0.1,0.05,0.1,0.1,0.05,0.15
		c-0.65,0.8-0.75,1.8-0.85,2.8c-0.05,0.4-0.05,0.8-0.05,1.15c0,0.25-0.1,0.3-0.35,0.3S31.4,5.6,31.2,5.45z"/>
	<path class="st0" d="M12.55,14.25c-2.05,0.05-3.35-0.9-4-2.75c0.25-0.05,0.5,0.05,0.75,0.05c1,0.05,2.05,0,3.05,0.05
		c0.1,0,0.2,0,0.3,0c0.1,0.2,0.05,0.4,0,0.6c-0.05,0.55-0.1,1.15-0.1,1.7C12.65,14,12.65,14.15,12.55,14.25z"/>
	<path class="st0" d="M50.8,11.55c0.75,0,1.45,0,2.2,0c0.65,0,1.25,0,1.9-0.1c-0.2,1.6-2.05,2.9-3.95,2.8
		c-0.1-0.1-0.1-0.25-0.1-0.35c0-0.7,0-1.35-0.1-2.05C50.71,11.75,50.71,11.65,50.8,11.55z"/>
	<path class="st0" d="M18.5,40.6c0-1.05,0-2.1,0-3.15c0-0.2,0.05-0.25,0.25-0.25s0.35,0,0.55,0c0.15,0,0.2,0.05,0.2,0.2
		c0,0.5,0,1.05,0,1.55c0,0.15,0.05,0.2,0.2,0.2c0.45,0,0.85,0,1.3,0c0.15,0,0.2,0.05,0.2,0.2c0,0.65,0,0.65-0.6,0.65
		c-0.3,0-0.55,0-0.85,0c-0.2,0-0.25,0.05-0.25,0.25c0,1.15,0,2.35,0,3.5c0,0.2-0.05,0.3-0.3,0.3C19,44,18.7,44.15,18.55,44
		s-0.05-0.4-0.05-0.65C18.5,42.4,18.5,41.5,18.5,40.6z"/>
	<path class="st0" d="M36.55,20.35c-0.9,0.2-1.85,0.3-2.75,0.35c-0.2,0-0.15-0.15-0.2-0.3c0-0.15,0.1-0.2,0.2-0.2
		c0.4-0.15,0.8-0.3,1.15-0.5c1.45-0.85,2.45-2.05,3-3.6c0.1-0.3,0.2-0.65,0.25-0.95c0.05-0.15,0.1-0.25,0.3-0.25
		c0.25,0.05,0.5-0.05,0.75,0.05c0.05,0.1,0.05,0.15,0.05,0.25c-0.15,0.75-0.35,1.45-0.7,2.15c-0.2,0-0.45,0-0.75,0
		c0.25,0.25,0.5,0.4,0.7,0.55c-0.1,0.3-0.3,0.55-0.45,0.75c-0.4,0.55-0.9,1.05-1.45,1.5C36.55,20.2,36.45,20.2,36.55,20.35z"/>
	<path class="st0" d="M31.7,25.1c-0.45-0.95-0.65-1.85-0.8-2.8c-0.1-0.95-0.1-1.9,0-2.85c0-0.2,0.05-0.3,0.3-0.25
		c0.35,0.05,0.7,0.05,1.05,0c0.1,0,0.15,0,0.2,0.15c0.2,1.9,0.1,3.7-0.6,5.5C31.85,24.9,31.8,25,31.7,25.1z"/>
	<path class="st0" d="M39.2,14.9c-0.2,0-0.45,0-0.65,0c-0.2,0-0.25,0.05-0.3,0.25c-0.2,1.15-0.7,2.2-1.45,3.1
		c-0.75,0.9-1.7,1.6-2.8,2c-0.15,0.05-0.3,0.05-0.4,0.2c-0.1-0.4-0.25-0.8-0.35-1.2c-0.05-0.15,0.05-0.2,0.15-0.2
		c1.5-0.45,2.7-1.3,3.6-2.6c0.3-0.45,0.5-0.9,0.7-1.35c0.05-0.1,0.1-0.2,0.25-0.2c0.9,0,1.75,0,2.65,0c0,0.05,0,0.05-0.05,0.1
		c-0.15,0.05-0.3,0.05-0.5,0.05C39.8,14.95,39.5,15.05,39.2,14.9z"/>
	<path class="st0" d="M36.1,7.35c1.15-1.4,2.55-2.5,4.3-3.15c-0.3,0.8-0.65,1.45-1.1,2.1c-0.55,0.8-1.2,1.45-1.95,2.1
		c-0.05,0.05-0.15,0.1-0.2,0.15c-0.1,0-0.15-0.05-0.2-0.1c-0.2-0.3-0.5-0.5-0.75-0.8C36.15,7.55,36,7.5,36.1,7.35z"/>
	<path class="st0" d="M35.95,4.45C36.1,4.3,36.2,4.1,36.25,3.9c0-0.25-0.05-0.45-0.25-0.6c-0.15-0.1-0.25-0.2-0.4,0.05
		c-0.1,0.2-0.4,0.25-0.6,0.3c-0.4,0.1-0.85,0.1-1.25-0.05c-0.25-0.1-0.3-0.25-0.2-0.55c0.1-0.25,0.3-0.45,0.55-0.6
		c0.85-0.5,1.75-0.6,2.65-0.2c1.2,0.55,1.3,2.1,0.25,2.8c-0.05,0.05-0.1,0.05-0.2,0c-0.25-0.15-0.55-0.3-0.8-0.5
		C35.95,4.55,35.9,4.5,35.95,4.45z"/>
	<path class="st0" d="M38.05,30.45c0-0.9,0-1.8,0-2.7c0-0.2,0.05-0.25,0.25-0.25c0.15,0,0.3,0,0.45,0c0.2,0,0.25,0.05,0.25,0.25
		c0,1.65,0,3.3,0,4.95c0,0.15,0,0.3,0,0.45c0.05,0.35,0.15,0.45,0.5,0.5c0.05,0,0.05,0,0.1,0c0.15,0.2,0.05,0.45,0.1,0.65
		c0,0.1,0,0.15-0.15,0.15C38.7,34.5,38.1,34.2,38.1,33.2C38.05,32.25,38.1,31.35,38.05,30.45z"/>
	<path class="st0" d="M29.7,30.85c0,1.05,0,2.1,0,3.15c0,0.2-0.05,0.3-0.25,0.25s-0.5,0.1-0.65-0.05c-0.15-0.15-0.05-0.4-0.05-0.65
		c0-1.95,0-3.9,0-5.85c0-0.2,0.05-0.3,0.3-0.3c0.65,0,0.65,0,0.65,0.65C29.7,29.05,29.7,29.95,29.7,30.85z"/>
	<path class="st0" d="M28.55,40.05c0.3-0.6,0.7-1,1.45-1.05c0.2,0,0.3,0,0.25,0.25c0,0.05,0,0.05,0,0.1c0,0.15,0.05,0.35,0,0.5
		c-0.1,0.15-0.3,0.05-0.45,0.05c-0.65,0.15-1.1,0.65-1.25,1.4c-0.1,0.5-0.05,0.95-0.05,1.45c0,0.4,0,0.8,0,1.2
		c-0.25,0.05-0.55,0-0.8,0.05c-0.1,0-0.15-0.05-0.15-0.15c0-0.05,0-0.1,0-0.15c0-1.4,0-2.85,0-4.25c0-0.3,0-0.3,0.3-0.3
		c0.65,0,0.6,0,0.65,0.6C28.5,39.85,28.4,40,28.55,40.05z"/>
	<path class="st0" d="M44.4,40.1c0.2-0.55,0.6-0.95,1.15-1.1c0.15-0.05,0.2-0.05,0.25,0.1c0.05,0.2,0.15,0.4,0.2,0.6
		c0,0.05,0.1,0.15-0.05,0.15c-1,0.1-1.45,0.6-1.55,1.6c-0.1,0.75-0.05,1.45-0.05,2.2c0,0.2-0.05,0.25-0.25,0.25
		c-0.65,0-0.65,0-0.65-0.65c0-1.4,0-2.8,0-4.2c0.25-0.05,0.5,0,0.75-0.05c0.1,0,0.1,0.1,0.1,0.15c0,0.25,0,0.45,0,0.7
		C44.35,40.05,44.3,40.15,44.4,40.1z"/>
	<path class="st0" d="M25.65,5.7c0.8,0.6,1.45,1.3,2.05,2.05c0.1,0.1,0.05,0.15-0.05,0.2c-0.3,0.25-0.6,0.5-0.85,0.85
		c-0.05,0.1-0.1,0.15-0.2,0.05c-0.75-0.6-1.45-1.2-2-1.95c0.1-0.2,0.25-0.4,0.45-0.55C25.25,6.15,25.45,5.95,25.65,5.7z"/>
	<path class="st0" d="M29.95,20c-0.2-0.15-0.4-0.2-0.65-0.25c-2.05-0.85-3.3-2.4-3.8-4.55c-0.05-0.25-0.15-0.35-0.45-0.35
		c-0.2,0-0.45,0-0.65,0c-0.1,0.1-0.2,0.1-0.3,0.1c-0.3,0-0.65,0-0.95,0c-0.35,0-0.7,0-1.05,0c-0.15,0-0.25,0-0.4,0
		c-0.1,0-0.2,0-0.2-0.1c1.35,0,2.65,0,4,0c0.15,0,0.2,0.1,0.25,0.2c0.75,1.9,2.05,3.2,4,3.85c0.5,0.15,0.5,0.15,0.35,0.65
		C30.05,19.7,30,19.85,29.95,20z"/>
	<path class="st0" d="M31.2,5.45c0.25,0,0.5,0,0.75,0c0.2,0,0.25-0.05,0.3-0.2c0,0.3,0,0.55,0,0.9C32.4,6,32.45,5.8,32.55,5.7
		c0.45,0.15,0.9,0.15,1.35,0.35c0.1,0.05,0.25,0.05,0.3,0.2C33.95,6.45,33.95,6.7,34.15,7c-1.65-0.65-3.3-0.65-4.95,0
		c0.1-0.2,0.2-0.4,0.05-0.6C29.1,6.2,28.9,6.15,28.7,6.05c0.5-0.2,1-0.4,1.55-0.5c0.1,0,0.15-0.05,0.15-0.15
		c0.3,0.15,0.5,0.4,0.7,0.7C31.2,5.85,31.2,5.65,31.2,5.45z"/>
	<path class="st0" d="M46.2,31.9c0,0.75,0,1.45,0,2.2c0,0.15-0.05,0.25-0.2,0.25c-0.15,0-0.35,0-0.5,0c-0.15,0-0.2-0.05-0.2-0.2
		c0-1.5,0-2.95,0-4.45c0-0.15,0.05-0.2,0.2-0.2c0.7,0,0.7,0,0.7,0.7C46.2,30.7,46.2,31.3,46.2,31.9z"/>
	<path class="st0" d="M52.71,41.6c0,0.7,0,1.45,0,2.15c0,0.2-0.05,0.25-0.25,0.25c-0.7,0-0.7,0-0.7-0.7c0-1.3,0-2.6,0-3.9
		c0-0.25,0.05-0.3,0.3-0.25c0.65,0,0.65,0,0.65,0.65C52.71,40.4,52.71,41,52.71,41.6z"/>
	<path class="st0" d="M22.2,8.3c0.5,0,1.05-0.05,1.55,0.05C23.9,8.4,23.85,8.5,23.8,8.6c-0.5,0.7-0.85,1.45-1.15,2.3
		c0,0.05-0.05,0.1-0.15,0.1c-0.45,0-0.9,0-1.3,0c-0.15-0.05-0.1-0.15-0.1-0.25C21.4,9.85,21.7,9.05,22.2,8.3z"/>
	<path class="st0" d="M34.25,6.25C33.8,6,33.3,5.9,32.75,5.85c-0.1,0-0.2,0-0.2-0.15c0.35-0.4,0.8-0.55,1.3-0.65
		c0.45-0.1,0.95-0.2,1.4-0.3C35.5,4.7,35.7,4.6,35.9,4.5c0.3,0.25,0.65,0.45,1.05,0.65c-0.5,0.45-1.1,0.6-1.7,0.8
		C34.9,5.95,34.55,6.05,34.25,6.25z"/>
	<path class="st0" d="M12.55,14.25c0-0.9,0.05-1.8,0.15-2.65c0.5-0.05,0.95,0,1.45,0c0.1,0.1,0.1,0.2,0.05,0.35
		c-0.1,0.65-0.1,1.35-0.1,2c0,0.1,0,0.25-0.1,0.35C13.55,14.25,13.05,14.25,12.55,14.25z"/>
	<path class="st0" d="M24.1,11.6c0.45,0,0.85,0.2,1.2,0.45c0.1,0.05,0.15,0.1,0.1,0.25c-0.1,0.6,0,1.2,0.1,1.8
		c0,0.15,0,0.15-0.15,0.15c-0.55,0-1.05,0-1.6,0C23.6,14,23.65,13.7,23.7,13.4c0.05-0.5,0.1-1,0.25-1.5
		C23.95,11.8,24,11.65,24.1,11.6z"/>
	<path class="st0" d="M18.15,14.25c-0.5,0-0.95,0-1.45,0c-0.15-0.2-0.1-0.4-0.1-0.6c0.05-0.55,0.05-1.05,0.1-1.6
		c0-0.15,0-0.35,0.1-0.5c0.5-0.05,1,0,1.5,0c0.05,0.1,0.05,0.15,0.05,0.25c-0.1,0.7-0.2,1.45-0.15,2.15
		C18.25,14.1,18.25,14.15,18.15,14.25z"/>
	<path class="st0" d="M21.2,11.55c0.5-0.05,0.95,0,1.45,0c0.1,0.1,0.05,0.2,0,0.35c-0.15,0.65-0.25,1.35-0.2,2.05
		c0,0.1,0,0.2-0.1,0.3c-0.5,0-0.95,0-1.45,0c-0.15-0.25-0.1-0.55-0.05-0.8c0.05-0.5,0.1-1,0.2-1.5C21.05,11.8,21.1,11.65,21.2,11.55
		z"/>
	<path class="st0" d="M41.15,11.55c0.5,0,0.95-0.05,1.45,0c0.2,0.25,0.15,0.6,0.2,0.9c0.1,0.5,0.1,1,0.1,1.5c0,0.1,0,0.2-0.1,0.3
		c-0.45,0-0.95,0-1.4,0c-0.15-0.3-0.1-0.6-0.1-0.9c-0.05-0.5-0.1-0.95-0.2-1.45C41.1,11.8,41.1,11.7,41.15,11.55z"/>
	<path class="st0" d="M42.8,14.25c0.05-0.9-0.05-1.8-0.2-2.65c0.5,0,0.95-0.05,1.45,0c0.05,0.05,0.1,0.15,0.1,0.25
		c0.1,0.7,0.15,1.4,0.2,2.1c0,0.1,0,0.25-0.1,0.35C43.8,14.25,43.3,14.25,42.8,14.25z"/>
	<path class="st0" d="M21.2,11.55c-0.2,0.9-0.3,1.75-0.25,2.65c-0.45,0-0.95,0-1.4,0c-0.1-0.1-0.1-0.2-0.1-0.3
		c0-0.7,0-1.35,0.15-2.05c0-0.1,0.05-0.25,0.15-0.35C20.25,11.55,20.75,11.55,21.2,11.55z"/>
	<path class="st0" d="M25.2,17.65c0.3,0.2,0.4,0.5,0.6,0.75c0.6,0.7,1.25,1.35,2,1.8c0.05,0.05,0.1,0.1,0.2,0.1
		c0.05,0.05,0.1,0.05,0.1,0.1c-0.05,0.05-0.1,0.05-0.15,0.05c-0.8-0.1-1.55-0.25-2.3-0.4c-0.3-0.4-0.65-0.75-0.9-1.15
		c-0.15-0.2-0.3-0.4-0.4-0.7C24.6,18.05,24.9,17.85,25.2,17.65z"/>
	<path class="st0" d="M22.4,14.25c-0.05-0.9,0.1-1.8,0.25-2.65c0.5,0,0.95-0.05,1.45,0c-0.15,0.55-0.25,1.15-0.3,1.7
		c-0.05,0.3,0,0.65,0,0.95C23.3,14.25,22.85,14.25,22.4,14.25z"/>
	<path class="st0" d="M48.01,11.55c0.45-0.05,0.95-0.05,1.4,0c0.1,0.05,0.1,0.15,0.15,0.3c0.05,0.7,0.15,1.35,0.1,2.05
		c0,0.1,0,0.25-0.1,0.35c-0.45,0-0.95,0-1.4,0c-0.1-0.1-0.1-0.2-0.1-0.3c0-0.7-0.05-1.35-0.1-2.05
		C47.96,11.8,47.96,11.7,48.01,11.55z"/>
	<path class="st0" d="M19.75,11.55c-0.2,0.9-0.25,1.75-0.2,2.65c-0.45,0-0.95,0-1.4,0c0-0.9,0.05-1.8,0.2-2.65
		C18.85,11.55,19.3,11.55,19.75,11.55z"/>
	<path class="st0" d="M16.9,11.55c-0.05,0.9-0.15,1.8-0.15,2.65c-0.45,0-0.9,0-1.35,0c-0.05-0.05-0.1-0.15-0.1-0.2
		c-0.05-0.75,0-1.55,0.1-2.3c0-0.05,0.05-0.1,0.05-0.15C15.95,11.55,16.4,11.55,16.9,11.55z"/>
	<path class="st0" d="M41.15,11.55c0.05,0.35,0.15,0.7,0.15,1.1c0.05,0.55,0.1,1.05,0.1,1.6c-0.45,0-0.9,0-1.35,0
		c-0.15-0.3-0.1-0.6-0.1-0.9c-0.05-0.5-0.15-0.95-0.25-1.45c-0.05-0.1-0.05-0.25,0-0.35C40.25,11.55,40.7,11.55,41.15,11.55z"/>
	<path class="st0" d="M49.55,14.25c0.05-0.8-0.05-1.65-0.1-2.45c0-0.1-0.05-0.15-0.05-0.25c0.45-0.05,0.95-0.05,1.4,0
		c0.1,0.9,0.1,1.8,0.1,2.65C50.45,14.25,50,14.25,49.55,14.25z"/>
	<path class="st0" d="M44.25,14.25c0-0.8-0.05-1.6-0.2-2.4c0-0.1,0-0.2,0-0.25c0.45,0,0.9-0.05,1.35,0c0.1,0.1,0.1,0.2,0.15,0.3
		c0.1,0.65,0.1,1.3,0.15,1.95c0,0.15,0,0.3-0.1,0.4C45.15,14.25,44.7,14.25,44.25,14.25z"/>
	<path class="st0" d="M15.5,11.55c-0.05,0.9-0.15,1.8-0.1,2.65c-0.45,0-0.9,0-1.35,0c-0.05-0.9,0.05-1.8,0.1-2.65
		C14.6,11.55,15.05,11.55,15.5,11.55z"/>
	<path class="st0" d="M45.6,14.25c0-0.9-0.1-1.8-0.2-2.65c0.45,0,0.9-0.05,1.35,0c0.1,0.1,0.1,0.2,0.15,0.3c0.05,0.5,0.15,1,0.1,1.5
		c0,0.15,0,0.3,0.05,0.45c0,0.15,0,0.3-0.1,0.4C46.45,14.25,46.05,14.25,45.6,14.25z"/>
	<path class="st0" d="M17.45,8.3c0.45,0,0.9,0,1.35,0c0.1,0.1,0.05,0.2,0,0.35c-0.25,0.7-0.5,1.4-0.7,2.1c0,0.1-0.05,0.2-0.15,0.25
		c-0.4,0-0.8,0-1.2,0c-0.1-0.05-0.1-0.1-0.1-0.2c0.15-0.85,0.4-1.65,0.7-2.4C17.4,8.35,17.45,8.3,17.45,8.3z"/>
	<path class="st0" d="M22.6,10.95c0.15-0.65,0.5-1.25,0.8-1.85c0.1-0.2,0.25-0.4,0.35-0.55c0.05-0.05,0.1-0.15,0-0.2
		C24.2,8.4,24.65,8.5,25.1,8.7c0.1,0.1,0.05,0.2-0.05,0.25c-0.4,0.55-0.8,1.15-1.05,1.85c-0.05,0.1-0.05,0.15-0.2,0.15
		C23.45,10.95,23,11,22.6,10.95z"/>
	<path class="st0" d="M47,8.3c0.45,0,0.9,0,1.35,0c0.1,0.05,0.1,0.15,0.15,0.2c0.2,0.7,0.4,1.4,0.55,2.15c0,0.1,0.05,0.25-0.05,0.3
		c-0.4,0-0.8,0-1.2,0c-0.1-0.05-0.1-0.15-0.15-0.25c-0.15-0.75-0.35-1.45-0.6-2.15C46.95,8.45,46.9,8.35,47,8.3z"/>
	<path class="st0" d="M46.9,14.25c0.05-0.9,0-1.8-0.15-2.65c0.45,0,0.85-0.05,1.3,0c0.15,0.75,0.2,1.55,0.15,2.3
		c0,0.1,0,0.25,0,0.35C47.75,14.25,47.3,14.25,46.9,14.25z"/>
	<path class="st0" d="M22.2,8.3c0,0.1-0.05,0.2-0.1,0.3c-0.4,0.75-0.75,1.55-0.95,2.35c-0.35,0.05-0.75,0-1.1,0.05
		c-0.1,0-0.1-0.1-0.1-0.2c0.25-0.85,0.5-1.75,1-2.5C21.35,8.3,21.8,8.3,22.2,8.3z"/>
	<path class="st0" d="M19.8,17.3c-0.5,0-0.95,0-1.45-0.15c-0.15-0.65-0.25-1.3-0.3-1.95c0-0.1-0.05-0.25,0.1-0.35
		c0.45,0,0.85,0,1.3,0c0.1,0.05,0.1,0.15,0.1,0.25c0.05,0.6,0.15,1.2,0.3,1.8C19.9,17.05,19.9,17.15,19.8,17.3z"/>
	<path class="st0" d="M39.8,11.55c0.05,0.4,0.15,0.8,0.2,1.2c0.1,0.5,0.1,1,0.1,1.5c-0.4,0-0.8,0-1.25,0c-0.1-0.1-0.1-0.25-0.1-0.35
		c0-0.6-0.05-1.2-0.2-1.75c-0.05-0.1-0.05-0.25,0-0.35C38.95,11.6,39.35,11.55,39.8,11.55z"/>
	<path class="st0" d="M43.5,8.3c0.4,0,0.8,0,1.25,0c0.1,0.05,0.1,0.15,0.15,0.25c0.3,0.7,0.5,1.4,0.65,2.1c0,0.1,0.1,0.25-0.05,0.35
		c-0.35,0-0.7,0-1.05,0c-0.1,0-0.15-0.15-0.15-0.2c-0.2-0.75-0.45-1.45-0.75-2.15C43.55,8.5,43.45,8.4,43.5,8.3z"/>
	<path class="st0" d="M23.2,14.9c0.45,0,0.85,0,1.3,0c0,0.65,0.25,1.25,0.5,1.85c0.05,0.2,0.15,0.35,0.2,0.55c-0.45,0-0.95,0-1.4,0
		c-0.1-0.1-0.15-0.3-0.2-0.45c-0.2-0.55-0.35-1.1-0.4-1.7C23.15,15.05,23.1,14.95,23.2,14.9z"/>
	<path class="st0" d="M36.55,20.35c-0.05,0-0.1,0-0.2,0c0.1-0.2,0.3-0.3,0.45-0.4c0.65-0.55,1.2-1.2,1.65-1.95
		c0.05-0.05,0.05-0.1,0.1-0.1c0.35,0.2,0.75,0.45,1.1,0.65c-0.25,0.25-0.4,0.6-0.65,0.85c-0.15,0.15-0.25,0.4-0.45,0.55
		C37.9,20.1,37.2,20.25,36.55,20.35z"/>
	<path class="st0" d="M44.45,10.95c0.35,0,0.75,0,1.1,0c0.25-0.15,0.5-0.05,0.7-0.1c0.1,0,0.25,0,0.35,0c0.25,0,0.55,0,0.8,0
		c0.1,0,0.2,0,0.25,0.1c0.45,0,0.85,0,1.3,0c0.25-0.15,0.5-0.05,0.7-0.1c0.1,0,0.25,0,0.35,0c0.3,0,0.6-0.05,0.85,0.05
		c1.15,0,2.3,0,3.45,0c0.1,0,0.2,0,0.3,0c-0.2,0.05-0.4,0.05-0.65,0.05c-4.55,0-9.1,0-13.65,0c-0.55,0-1.1,0-1.6,0.1
		c-0.15,0.05-0.15-0.1-0.2-0.15c-0.25-0.55-0.55-1.05-0.9-1.55c-0.05-0.05-0.1-0.1-0.05-0.2C37.8,8.9,38.1,8.7,38.4,8.55
		c0.45,0.65,0.85,1.3,1.15,2c0.05,0.15,0.15,0.2,0.3,0.2c0.25,0,0.5,0,0.75,0c0.3,0,0.6,0,0.9,0c0.3,0,0.65,0,0.95,0
		c0.3,0,0.65,0,0.95,0C43.8,10.9,44.1,10.8,44.45,10.95z"/>
	<path class="st0" d="M20,10.95c0.4,0,0.8,0,1.15,0c0.5,0,0.95,0,1.45,0c0.35,0,0.75,0,1.1,0c0.15,0,0.2-0.05,0.25-0.2
		c0.25-0.65,0.6-1.25,1-1.8C25,8.9,25.05,8.8,25.05,8.7c0.3,0.15,0.6,0.3,0.8,0.6c0.05,0.1-0.05,0.2-0.1,0.25
		c-0.3,0.45-0.6,0.9-0.8,1.4c-0.05,0.1-0.1,0.25-0.25,0.15c-0.6-0.15-1.25-0.1-1.85-0.1c-4.45,0-8.95,0-13.4,0
		C9.25,11,9,11.05,8.8,10.95c1.1,0,2.2,0,3.3,0c0.15,0,0.35,0,0.5,0c0.35-0.15,0.65-0.05,1-0.05c0.35,0,0.7,0,1.05,0
		c0.3,0,0.6,0,0.9,0c0.25,0,0.55,0,0.8,0c0.1,0,0.2,0,0.3,0.1c0.45,0,0.85,0,1.3,0c0.25-0.15,0.5-0.05,0.7-0.1c0.1,0,0.25,0,0.35,0
		C19.35,10.9,19.7,10.8,20,10.95z"/>
	<path class="st0" d="M16.7,10.95c-0.35,0-0.75,0-1.1,0c-0.05-0.1-0.05-0.15-0.05-0.25c0.15-0.75,0.35-1.5,0.6-2.2
		c0-0.05,0.05-0.15,0.1-0.2c0.4,0,0.8,0,1.15,0c-0.15,0.5-0.3,1-0.5,1.5C16.9,10.15,16.8,10.55,16.7,10.95z"/>
	<path class="st0" d="M47.7,10.95c-0.35,0-0.7,0-1.05,0c-0.1-0.05-0.1-0.15-0.15-0.25c-0.15-0.7-0.35-1.4-0.6-2.05
		c-0.05-0.1-0.1-0.25,0-0.35c0.35,0,0.75,0,1.1,0c0.25,0.75,0.5,1.5,0.65,2.3C47.65,10.7,47.7,10.8,47.7,10.95z"/>
	<path class="st0" d="M25.65,5.7c-0.05,0.05-0.05,0.15-0.1,0.2c-0.3,0.35-0.6,0.65-0.95,0.95c-0.7-0.8-1.2-1.65-1.6-2.7
		C24,4.55,24.85,5.05,25.65,5.7z"/>
	<path class="st0" d="M19.05,10.95c-0.35,0-0.7,0-1.05,0c0.15-0.8,0.45-1.6,0.75-2.35c0.05-0.1,0.05-0.2,0.05-0.3
		c0.35,0,0.75,0,1.1,0c0.1,0.1,0.05,0.2,0,0.25c-0.35,0.7-0.6,1.45-0.8,2.25C19.15,10.85,19.1,10.9,19.05,10.95z"/>
	<path class="st0" d="M13.65,10.95c-0.35,0-0.7,0-1,0c0.05-0.75,0.25-1.45,0.4-2.15c0.05-0.15,0.1-0.35,0.1-0.5c0.35,0,0.75,0,1.1,0
		c0.1,0.1,0.05,0.2,0,0.3c-0.2,0.7-0.4,1.4-0.5,2.1C13.75,10.8,13.7,10.85,13.65,10.95z"/>
	<path class="st0" d="M45.85,8.3c0.05,0.35,0.2,0.65,0.3,1c0.15,0.55,0.3,1.1,0.4,1.65c-0.35,0-0.7,0-1.05,0
		c-0.15-0.8-0.4-1.55-0.7-2.35c-0.05-0.1-0.1-0.2-0.1-0.3C45.1,8.3,45.5,8.3,45.85,8.3z"/>
	<path class="st0" d="M50.05,10.95c-0.35,0-0.7,0-1.05,0c-0.1-0.75-0.3-1.5-0.5-2.2c-0.05-0.15-0.1-0.3-0.1-0.45
		c0.35,0,0.7,0,1.05,0c0.1,0.05,0.1,0.15,0.15,0.2c0.2,0.75,0.4,1.5,0.5,2.25C50.05,10.8,50.1,10.85,50.05,10.95z"/>
	<path class="st0" d="M42.5,10.95c-0.3,0-0.65,0-0.95,0c-0.05-0.05-0.1-0.15-0.15-0.2c-0.25-0.7-0.55-1.4-0.95-2.05
		c0-0.05-0.05-0.05-0.05-0.1c-0.1-0.25-0.1-0.25,0.15-0.25c0.05,0,0.05,0,0.1,0c0.25,0,0.55,0,0.8,0c0.5,0.75,0.8,1.55,1.05,2.4
		C42.55,10.75,42.55,10.85,42.5,10.95z"/>
	<path class="st0" d="M13.65,10.95c0.15-0.9,0.4-1.8,0.65-2.65c0.35,0,0.7,0,1.05,0c0.05,0.1,0,0.25-0.05,0.35
		c-0.2,0.7-0.4,1.4-0.55,2.15c0,0.05-0.05,0.1-0.05,0.15C14.35,10.95,14,10.95,13.65,10.95z"/>
	<path class="st0" d="M23.2,14.9c0.05,0.7,0.25,1.35,0.5,2c0.05,0.1,0.1,0.25,0.1,0.4c-0.4,0-0.8,0-1.15,0
		c-0.25-0.5-0.35-1.1-0.5-1.65c-0.05-0.15-0.05-0.3-0.05-0.4s0-0.25,0.05-0.35C22.45,14.9,22.85,14.9,23.2,14.9z"/>
	<path class="st0" d="M40.7,8.3c-0.1,0.1-0.2,0-0.3,0.1c0.45,0.8,0.9,1.65,1.15,2.55c-0.3,0-0.65,0-0.95,0
		c-0.1-0.05-0.1-0.1-0.15-0.2C40.2,10,39.85,9.35,39.4,8.7c-0.05-0.1-0.15-0.15-0.1-0.3C39.75,8.3,40.2,8.25,40.7,8.3z"/>
	<path class="st0" d="M42.5,10.95c0-0.4-0.2-0.8-0.35-1.2c-0.15-0.4-0.3-0.8-0.55-1.2c-0.05-0.1-0.1-0.15-0.1-0.25c0.35,0,0.7,0,1,0
		c0.1,0.05,0.1,0.1,0.15,0.2c0.3,0.7,0.65,1.4,0.85,2.15c0.05,0.1,0.05,0.2,0,0.3C43.15,10.95,42.8,10.95,42.5,10.95z"/>
	<path class="st0" d="M43.45,10.95c-0.05-0.55-0.3-1.05-0.5-1.55c-0.15-0.4-0.3-0.75-0.5-1.1c0.35,0,0.7,0,1,0
		c0.35,0.85,0.7,1.75,0.9,2.65C44.1,10.95,43.8,10.95,43.45,10.95z"/>
	<path class="st0" d="M14.7,10.95c0-0.6,0.2-1.15,0.35-1.7c0.1-0.3,0.2-0.6,0.3-0.95c0.3,0,0.65,0,0.95,0
		c-0.15,0.6-0.35,1.15-0.5,1.75c-0.1,0.3-0.15,0.6-0.2,0.95C15.3,10.95,15,10.95,14.7,10.95z"/>
	<path class="st0" d="M19.8,17.3c0-0.4-0.2-0.8-0.25-1.25c-0.05-0.4-0.15-0.75-0.15-1.15c0.35-0.05,0.65,0,1,0
		c0.1,0.05,0.15,0.15,0.15,0.25c0.05,0.65,0.2,1.3,0.35,1.9c0.05,0.1,0.05,0.15,0,0.25C20.55,17.3,20.2,17.3,19.8,17.3z"/>
	<path class="st0" d="M19.05,10.95c0.1-0.7,0.35-1.3,0.6-1.95c0.1-0.25,0.25-0.45,0.25-0.7c0.35,0,0.7,0,1,0
		c-0.05,0.35-0.3,0.65-0.45,1c-0.2,0.55-0.4,1.1-0.55,1.65C19.7,10.95,19.35,10.95,19.05,10.95z"/>
	<path class="st0" d="M40.1,14.9c0.15,0,0.3,0,0.5,0c0.15-0.05,0.35,0,0.5,0c0.1,0.1,0.1,0.25,0.1,0.35c-0.1,0.6-0.2,1.2-0.4,1.8
		c-0.05,0.1-0.05,0.2-0.15,0.25c-0.35,0-0.7,0-1.05,0c-0.05-0.1-0.05-0.15,0-0.25c0.25-0.65,0.4-1.3,0.5-1.95
		C40.05,15,40.05,14.95,40.1,14.9z"/>
	<path class="st0" d="M39.3,8.4c0.45,0.7,0.9,1.45,1.15,2.2c0.05,0.1,0.05,0.2,0.1,0.3c-0.25,0-0.55,0-0.8,0c-0.1,0-0.2,0-0.2-0.15
		c-0.25-0.7-0.6-1.3-1.05-1.9C38.45,8.8,38.35,8.7,38.4,8.6C38.7,8.5,39,8.4,39.3,8.4z"/>
	<path class="st0" d="M24.3,18.25c0.2,0.2,0.35,0.5,0.5,0.7c0.25,0.3,0.45,0.6,0.7,0.85c0.05,0.05,0.2,0.15,0.1,0.25
		c-1.05-0.2-2.1-0.5-3.15-0.9C23.15,18.85,23.7,18.55,24.3,18.25z"/>
	<path class="st0" d="M18.1,14.9c0.05,0.65,0.15,1.3,0.3,1.95c0,0.1,0.05,0.2-0.05,0.25c-0.45-0.1-0.85-0.25-1.25-0.5
		c-0.15-0.4-0.15-0.8-0.2-1.25c0-0.15-0.1-0.35,0.05-0.5C17.35,14.85,17.75,14.85,18.1,14.9z"/>
	<path class="st0" d="M40.6,17.3c0.3-0.8,0.5-1.55,0.55-2.4c0.1-0.05,0.25,0,0.4-0.05c0.2,0,0.4,0,0.55,0c0.1,0.1,0.1,0.25,0.1,0.35
		c-0.1,0.6-0.2,1.2-0.4,1.8c-0.05,0.1-0.1,0.2-0.15,0.25C41.25,17.3,40.9,17.3,40.6,17.3z"/>
	<path class="st0" d="M44.6,17.25c-0.35,0.1-0.65,0.1-1,0.05c-0.1-0.1-0.05-0.2,0-0.35c0.15-0.6,0.25-1.2,0.3-1.85
		c0-0.1,0.05-0.2,0.15-0.25c0.3,0,0.6,0,0.9,0C45.05,15,45,15.15,45,15.3c-0.05,0.6-0.15,1.15-0.3,1.7
		C44.65,17.1,44.65,17.15,44.6,17.25z"/>
	<path class="st0" d="M44.6,17.25c0.1-0.45,0.15-0.9,0.25-1.3c0.05-0.35,0.1-0.7,0.15-1c0.35-0.05,0.65,0,1,0
		c0.1,0.05,0.1,0.15,0.1,0.2c-0.05,0.55-0.15,1.1-0.25,1.7c0,0.05-0.05,0.1-0.1,0.15C45.35,17.1,45,17.2,44.6,17.25z"/>
	<path class="st0" d="M50.05,10.95c-0.2-0.9-0.35-1.8-0.65-2.65c0.3,0,0.6,0,0.9,0c0.1,0.5,0.25,1,0.35,1.45
		c0.1,0.4,0.15,0.8,0.25,1.2C50.6,10.95,50.3,10.95,50.05,10.95z"/>
	<path class="st0" d="M44,14.9c-0.05,0.3-0.1,0.6-0.15,0.9c-0.1,0.5-0.2,1-0.3,1.5c-0.3,0-0.65,0-0.95,0c-0.1-0.1-0.05-0.2-0.05-0.3
		c0.15-0.6,0.25-1.2,0.35-1.85c0-0.1,0.05-0.2,0.1-0.3c0.2,0,0.35,0,0.55,0C43.7,14.85,43.85,14.85,44,14.9z"/>
	<path class="st0" d="M43.05,14.9c-0.1,0.75-0.2,1.45-0.4,2.15c0,0.1,0,0.15-0.05,0.25c-0.35,0-0.7,0-1,0
		c0.2-0.65,0.35-1.3,0.45-1.95c0-0.15,0-0.3,0-0.45c0.1-0.05,0.2,0,0.35-0.05C42.6,14.85,42.85,14.85,43.05,14.9z"/>
	<path class="st0" d="M40.1,14.9c-0.05,0.75-0.25,1.45-0.5,2.15c-0.05,0.1-0.1,0.15-0.05,0.25c-0.3,0-0.65,0-0.95,0
		c0-0.25,0.15-0.45,0.2-0.65c0.2-0.55,0.4-1.15,0.4-1.75C39.5,14.9,39.8,14.9,40.1,14.9z"/>
	<path class="st0" d="M18.1,14.9c-0.35,0-0.75,0-1.1,0c1.5,0,3.05,0,4.55,0c0.2,0.1,0.4,0,0.6,0.05c0,0.7,0.2,1.35,0.4,2
		c0.05,0.15,0.1,0.25,0.1,0.4c-0.25,0-0.55,0-0.8,0c-0.1-0.05-0.1-0.15-0.15-0.25c-0.2-0.6-0.3-1.2-0.4-1.8
		c-0.05-0.2-0.1-0.3-0.3-0.25c-0.15,0-0.35,0.05-0.5-0.05c-0.35,0-0.7,0-1,0C19,14.9,18.55,14.9,18.1,14.9z"/>
	<path class="st0" d="M45.7,16.9c0-0.45,0.15-0.85,0.2-1.3c0-0.25,0.05-0.5,0.1-0.75c0.2-0.05,0.4,0,0.6-0.05c0.2,0,0.35,0,0.55,0
		c0.3,0,0.3,0,0.25,0.3c-0.1,0.65-0.5,1.1-1,1.45C46.15,16.75,45.95,16.85,45.7,16.9z"/>
	<path class="st0" d="M20.45,14.9c0.2,0,0.45,0,0.65,0c0.15,0,0.2,0.05,0.2,0.2c0.05,0.6,0.15,1.2,0.35,1.8
		c0.05,0.15,0.1,0.3,0.1,0.45c-0.3,0-0.55,0-0.85,0C20.7,16.5,20.55,15.7,20.45,14.9z"/>
	<path class="st0" d="M38.6,11.8c0.05,0.4,0.15,0.8,0.2,1.2c0.05,0.4,0.05,0.85,0.05,1.25c-0.25,0-0.55,0-0.8,0
		c-0.1,0-0.15,0-0.15-0.15c0.1-0.6,0.2-1.2,0.1-1.85c0-0.1,0.05-0.15,0.1-0.2C38.3,11.95,38.4,11.85,38.6,11.8z"/>
	<path class="st0" d="M38.55,19.9c0.25-0.45,0.65-0.85,0.9-1.3c0.05-0.05,0.1-0.05,0.2-0.05c0.45,0.2,0.85,0.4,1.35,0.65
		C40.15,19.5,39.35,19.75,38.55,19.9z"/>
	<path class="st0" d="M37.6,9.2c0.4,0.55,0.75,1.1,1.05,1.75c0,0.05,0.05,0.1,0.1,0.15c-0.25,0.1-0.55,0.25-0.8,0.45
		c-0.15-0.65-0.35-1.25-0.7-1.8c-0.05-0.1,0-0.15,0.05-0.2C37.4,9.45,37.5,9.35,37.6,9.2z"/>
	<path class="st0" d="M24.75,11.1c0.1,0,0.15,0,0.2-0.1c0.2-0.6,0.6-1.1,0.95-1.65l0.05-0.05c0.35,0.3,0.35,0.3,0.15,0.65
		c-0.25,0.5-0.45,1-0.55,1.6C25.25,11.35,25,11.2,24.75,11.1z"/>
	<path class="st0" d="M17,14.9c0.05,0.4,0.05,0.8,0.15,1.2c0.05,0.2,0,0.35,0,0.55c-0.55-0.35-0.9-0.8-1-1.45
		c-0.05-0.3-0.05-0.3,0.25-0.3C16.6,14.85,16.8,14.85,17,14.9z"/>
	<path class="st0" d="M36.1,7.35c0,0.1,0.05,0.15,0.1,0.2c0.3,0.3,0.65,0.65,0.95,1c0,0,0,0,0,0.05c-0.4,0.4-0.4,0.4-0.8,0
		c-0.2-0.2-0.35-0.4-0.6-0.55c-0.15-0.1-0.1-0.2,0-0.3C35.9,7.6,36,7.5,36.1,7.35z"/>
	<path class="st0" d="M52.26,37.1c0.3,0,0.5,0.25,0.5,0.5c0,0.3-0.25,0.5-0.5,0.5c-0.3,0-0.5-0.25-0.5-0.5
		C51.76,37.3,52.01,37.05,52.26,37.1z"/>
	<path class="st0" d="M46.25,27.85c0,0.3-0.2,0.5-0.5,0.5c-0.3,0-0.5-0.2-0.5-0.5c0-0.3,0.2-0.5,0.5-0.5
		C46,27.35,46.25,27.55,46.25,27.85z"/>
	<path class="st0" d="M28.55,40.05c0,0.05-0.05,0.1-0.1,0.2c0-0.35,0-0.65,0-0.95c0-0.15-0.05-0.2-0.2-0.2
		c-0.65,0-0.65-0.05-0.65,0.65c0,1.3,0,2.65,0,3.95c0,0.2,0.05,0.3,0.25,0.25c0.2,0,0.45,0,0.65,0C28.2,44.1,27.9,44,27.65,44
		c-0.15,0-0.1-0.15-0.1-0.25c0-1.15,0-2.35,0-3.5c0-0.3,0-0.65,0-0.95c0-0.15,0.05-0.2,0.2-0.2c0.75,0,0.75-0.05,0.75,0.7
		C28.55,39.9,28.5,40,28.55,40.05z"/>
	<path class="st0" d="M48.7,30.25c0,0.05-0.05,0.1-0.05,0.1H48.6c0-0.25,0-0.5,0-0.7c0-0.15-0.05-0.2-0.2-0.2
		c-0.65,0-0.65,0-0.65,0.65c0,1.3,0,2.65,0,3.95c0,0.2,0.05,0.25,0.25,0.25c0.2,0,0.45,0,0.65,0c-0.3,0.15-0.6,0.05-0.85,0.05
		c-0.15,0-0.1-0.15-0.1-0.25c0-0.95,0-1.9,0-2.85c0-0.5,0-1.05,0-1.55c0-0.15,0.05-0.25,0.25-0.25c0.7,0,0.7,0,0.75,0.7
		C48.65,30.15,48.65,30.2,48.7,30.25z"/>
	<path class="st0" d="M46.55,14.85c-0.2,0.1-0.4,0-0.6,0.05c-0.35,0-0.7,0-1,0c-0.3,0-0.65,0-0.95,0c-0.15,0-0.3,0-0.45,0
		c0,0,0,0,0-0.05C44.55,14.85,45.55,14.85,46.55,14.85z"/>
	<path class="st0" d="M44.4,40.1c0,0.05,0,0.1-0.1,0.15c0-0.3,0-0.6,0-0.9c0-0.15-0.05-0.2-0.2-0.2c-0.2,0-0.45,0-0.65,0
		c0.25-0.1,0.55-0.05,0.8-0.05c0.1,0,0.1,0.1,0.1,0.2C44.4,39.6,44.3,39.85,44.4,40.1z"/>
	<path class="st0" d="M43.55,14.85C43.35,14.9,43.2,14.9,43,14.9c-0.2,0-0.45,0-0.65,0c0,0,0,0,0-0.05
		C42.8,14.85,43.2,14.85,43.55,14.85z"/>
	<path class="st0" d="M17,14.9c-0.2,0-0.4,0-0.6,0s-0.3,0.05-0.3,0.3c-0.1-0.35-0.1-0.35,0.2-0.35C16.55,14.85,16.8,14.85,17,14.9
		C17,14.85,17,14.85,17,14.9z"/>
	<path class="st0" d="M56.91,33.65c0-0.05,0.05-0.1,0.1-0.15c0,0.3,0.05,0.55-0.05,0.85C56.91,34.15,57.05,33.9,56.91,33.65z"/>
	<path class="st0" d="M42.4,14.85c-0.1,0.05-0.2,0.05-0.3,0.05c-0.2,0-0.4,0-0.6,0c0,0,0,0,0-0.05C41.8,14.85,42.1,14.85,42.4,14.85
		z"/>
	<path class="st0" d="M41.5,14.85c-0.1,0.05-0.25,0.05-0.35,0.05c-0.2,0-0.35,0-0.55,0v-0.05C40.9,14.85,41.2,14.85,41.5,14.85z"/>
	<path class="st0" d="M4.5,7.2c0,0.05-0.05,0.05-0.05,0.1c-0.05-0.05-0.1-0.15,0-0.2C4.45,7.1,4.5,7.15,4.5,7.2z"/>
	<path class="st0" d="M59.01,7.3c0-0.05-0.05-0.05-0.05-0.1s0.05-0.1,0.1-0.1C59.11,7.2,59.06,7.25,59.01,7.3z"/>
	<path class="st1" d="M1.6,40.55c0-0.75,0-1.5,0-2.25c0-0.2,0.05-0.25,0.25-0.25c0.45,0,0.85-0.05,1.3,0.05c1.2,0.2,1.95,1,2,2.25
		c0,0.35,0,0.7-0.05,1.05c-0.25,1.1-1.05,1.75-2.25,1.8c-0.3,0-0.65,0-0.95,0c-0.25,0-0.35-0.1-0.35-0.3
		C1.6,42.05,1.6,41.3,1.6,40.55z"/>
	<path class="st1" d="M8,29.55c0-0.35,0-0.7,0-1.05c0-0.15,0.05-0.2,0.2-0.2c0.35,0,0.7,0,1,0c1.05-0.05,1.3,0.75,1.2,1.45
		c-0.1,0.6-0.45,0.9-1.05,0.95c-0.4,0.05-0.8,0-1.2,0c-0.15,0-0.2-0.05-0.2-0.2C8,30.25,8,29.9,8,29.55z"/>
	<path class="st1" d="M57.01,32.05c0,0.15-0.05,0.5-0.2,0.8c-0.25,0.5-0.65,0.75-1.15,0.75c-0.55,0-0.95-0.25-1.15-0.7
		c-0.35-0.7-0.35-1.35,0-2.05c0.25-0.5,0.65-0.75,1.2-0.75s0.95,0.3,1.15,0.8C56.96,31.2,57.01,31.55,57.01,32.05z"/>
	<path class="st1" d="M26.35,31.9c0,0.35-0.05,0.7-0.2,1c-0.25,0.45-0.65,0.7-1.15,0.7c-0.5,0-0.9-0.2-1.15-0.7
		c-0.35-0.7-0.35-1.4-0.05-2.05c0.25-0.5,0.65-0.75,1.2-0.75c0.55,0,0.95,0.3,1.15,0.8C26.3,31.2,26.35,31.55,26.35,31.9z"/>
	<path class="st1" d="M7.9,41.55c0-1,0.7-1.75,1.65-1.75c0.95,0,1.7,0.75,1.7,1.75s-0.7,1.75-1.65,1.75S7.9,42.55,7.9,41.55z"/>
	<path class="st1" d="M16.4,31.9c0,1-0.75,1.75-1.7,1.7c-0.95,0-1.7-0.8-1.65-1.8c0-1,0.8-1.75,1.75-1.7
		C15.75,30.15,16.45,30.9,16.4,31.9z"/>
	<path class="st1" d="M25.5,41.55c0,1-0.7,1.75-1.7,1.75c-0.95,0-1.7-0.8-1.7-1.75s0.75-1.75,1.7-1.75S25.5,40.55,25.5,41.55z"/>
	<path class="st1" d="M40.05,41c-0.35,0-0.75,0-1.1,0c-0.15,0-0.2-0.05-0.15-0.2c0.2-0.8,1.05-1.25,1.85-1
		c0.4,0.15,0.7,0.6,0.75,1.05C41.4,41,41.35,41,41.25,41C40.85,41,40.45,41,40.05,41z"/>
	<path class="st1" d="M61.21,41c-0.4,0-0.75,0-1.15,0c-0.1,0-0.15,0-0.15-0.15c0.1-0.6,0.7-1.1,1.35-1.1s1.1,0.35,1.2,1
		c0.05,0.2,0.05,0.3-0.2,0.25C61.91,41,61.55,41,61.21,41z"/>
	<path class="st1" d="M31.7,18.15c-2.9,0-5.25-2.35-5.25-5.3c0-2.9,2.35-5.3,5.3-5.25c2.9,0,5.25,2.4,5.25,5.3
		C37,15.75,34.6,18.15,31.7,18.15z"/>
	<path class="st1" d="M28.5,3.25c-0.15,0-0.3-0.05-0.3-0.2c0-0.1,0.1-0.15,0.2-0.15c0.15,0,0.3,0.05,0.3,0.25
		C28.7,3.25,28.6,3.25,28.5,3.25z"/>
	<path class="st1" d="M34.95,3.25c-0.1,0-0.2,0-0.2-0.1c0-0.2,0.2-0.2,0.35-0.25c0.1,0,0.2,0,0.2,0.15
		C35.2,3.2,35.05,3.25,34.95,3.25z"/>
	<path class="st0" d="M26.95,12.85c0-2.65,2.15-4.8,4.8-4.8c2.65,0,4.8,2.15,4.8,4.8c0,2.65-2.15,4.8-4.8,4.8
		C29.1,17.65,26.95,15.5,26.95,12.85z"/>
	<path class="st1" d="M31.7,8.4c2.45,0,4.45,2,4.45,4.45s-2,4.45-4.45,4.45s-4.45-2-4.45-4.45S29.25,8.4,31.7,8.4z"/>
	<path class="st0" d="M33.15,9.9c0-0.15,0-0.3,0.1-0.3c0.15-0.05,0.2,0.1,0.25,0.2c0.55,0.85,1.05,1.7,1.55,2.55
		c0.2,0.35,0.15,0.7,0,1.05c-0.25,0.55-0.55,1.05-0.8,1.6c-0.05,0.1-0.1,0.15-0.25,0.15c-0.35,0-0.7,0-1.05,0c-0.1,0-0.2,0-0.2-0.15
		c0-0.2,0.15-0.2,0.25-0.25c0.65-0.4,1.1-1,1.2-1.8c0.15-0.9-0.15-1.7-0.8-2.3C33.2,10.4,33.1,10.2,33.15,9.9z"/>
	<path class="st0" d="M32.25,10.5c0.2,0.1,0.35,0.2,0.6,0.15c0,0.1,0.05,0.15,0.15,0.2c0.9,0.75,1.05,1.9,0.35,2.85
		c-0.25,0.35-0.55,0.55-0.95,0.65c-0.4-0.25-0.8-0.25-1.25-0.15c-0.1,0-0.2,0.05-0.3,0.05c-0.8-0.4-1.25-1.25-1.05-2.2
		c0.15-0.8,0.85-1.5,1.7-1.6C31.7,10.45,32,10.5,32.25,10.5z"/>
	<path class="st0" d="M32.25,10.5c-0.1,0.1-0.2,0.05-0.3,0.05c-1.05-0.15-2.05,0.7-2.15,1.7c-0.1,0.8,0.2,1.45,0.9,1.9
		c0.05,0.05,0.1,0.1,0.15,0.15c-0.25,0.1-0.5,0.25-0.75,0.3c-0.65-0.45-0.95-1.15-1.05-1.9c-0.05-0.5,0.05-0.95,0.25-1.4
		c0.05-0.05,0.05-0.15,0.05-0.25c0.55-0.35,1.15-0.7,1.75-0.95C31.65,9.95,31.95,10.05,32.25,10.5z"/>
	<path class="st0" d="M32.35,14.4c0.15-0.1,0.3-0.2,0.4-0.25c1.15-0.7,1.25-2.4,0.05-3.25c-0.1-0.1-0.2-0.15,0-0.2
		c0.2-0.1,0.25-0.3,0.3-0.5c0-0.1,0-0.2,0.05-0.3c-0.05,0.3,0.1,0.45,0.35,0.65c0.65,0.6,0.95,1.4,0.8,2.3
		c-0.15,0.85-0.6,1.5-1.4,1.95c-0.05,0.05-0.1,0.05-0.15,0.15C32.65,14.75,32.5,14.6,32.35,14.4z"/>
	<path class="st0" d="M29.35,11.1c0.15,0.1,0.05,0.2,0,0.3c-0.45,1.05-0.25,2.1,0.5,3c0.1,0.1,0.25,0.1,0.25,0.25
		c-0.2,0.1-0.35,0.25-0.55,0.3c-0.25,0.05-0.4,0-0.5-0.2c-0.3-0.7-0.6-1.4-0.8-2.15c-0.1-0.35,0-0.65,0.25-0.9
		C28.7,11.45,29.05,11.25,29.35,11.1z"/>
	<path class="st0" d="M33.15,15.6c0.3,0,0.5,0,0.8,0c-0.1,0.15-0.2,0.3-0.25,0.45c-0.1,0.15-0.15,0.1-0.25,0
		C33.35,15.9,33.25,15.75,33.15,15.6z"/>
	<path class="st0" d="M30.15,12.45C30.1,11.7,30.9,10.9,31.7,10.9c0.8,0.05,1.6,0.6,1.55,1.6c-0.05,0.95-0.65,1.55-1.6,1.55
		C30.9,14.1,30.2,13.45,30.15,12.45z"/>
	<path class="st0" d="M32.95,12.5c0.05,0.65-0.6,1.2-1.2,1.2c-0.6,0-1.25-0.5-1.2-1.25c0-0.7,0.5-1.2,1.25-1.2
		C32.4,11.25,33,11.8,32.95,12.5z"/>
	<path class="st0" d="M32.45,12.5c0,0.45-0.3,0.75-0.75,0.7c-0.4,0-0.75-0.35-0.75-0.7c0-0.4,0.35-0.8,0.75-0.8
		C32.05,11.75,32.55,12.1,32.45,12.5z"/>
</g>
</svg>
