<svg width="81" height="95" viewBox="0 0 81 95" fill="none" xmlns="http://www.w3.org/2000/svg">
<path d="M71.9964 47.3411C73.6282 45.0567 75.0423 42.7723 76.1302 40.5967C80.699 31.7853 81.1341 24.1706 77.3268 19.2754C74.4984 15.6856 69.8208 13.8363 64.0554 13.8363C61.7709 13.8363 59.269 14.0538 56.6582 14.7065C52.5245 6.22154 46.8678 1 40.4497 1C34.0315 1 28.3749 6.22154 24.2411 14.7065C14.9947 12.7485 7.37994 14.1626 3.57257 19.2754C-0.234803 24.1706 0.200325 31.7853 4.76917 40.5967C5.96577 42.7723 7.37994 45.0567 9.01167 47.3411C7.37994 49.6256 5.96577 51.91 4.87795 54.0856C0.309107 63.0057 -0.126022 70.5117 3.57257 75.5157C6.4009 79.2143 11.0785 80.9548 16.844 80.9548C19.1284 80.9548 21.6304 80.7372 24.2411 80.0845C28.3749 88.5695 34.0315 93.7911 40.4497 93.7911C46.8678 93.7911 52.6333 88.5695 56.6582 80.0845C59.269 80.6284 61.7709 80.9548 64.0554 80.9548C69.8208 80.9548 74.6072 79.2143 77.3268 75.5157C81.0254 70.6205 80.5902 63.0058 76.1302 54.1944C74.9336 51.91 73.6282 49.6256 71.9964 47.3411ZM75.5863 20.5808C78.8497 24.8233 78.3058 31.5677 74.1721 39.5088C73.193 41.4669 71.9965 43.5338 70.5823 45.4918C69.4945 44.0777 68.4066 42.6635 67.1013 41.3581C65.6871 39.7264 64.0554 38.0947 62.4236 36.4629C61.5534 28.957 59.9216 22.2125 57.5284 16.6646C65.6871 15.1417 72.3228 16.2295 75.5863 20.5808ZM62.8588 39.8352C65.252 42.2284 67.4276 44.8391 69.3857 47.3411C67.4276 49.8431 65.3607 52.3451 62.8588 54.8471C63.0763 52.4539 63.1851 49.9519 63.1851 47.3411C63.0763 44.8391 62.9675 42.3372 62.8588 39.8352ZM28.0485 63.6584C25.329 61.5916 22.827 59.5247 20.5426 57.2403C20.2162 54.0856 19.9986 50.7134 19.9986 47.3411C19.9986 43.9689 20.2162 40.5967 20.5426 37.442C22.9358 35.2663 25.4377 33.0907 28.0485 31.0238C32.1822 27.8692 36.316 25.2584 40.4497 23.0827C44.5834 25.2584 48.7171 27.9779 52.8508 31.0238C55.5704 33.0907 58.0724 35.1576 60.3568 37.442C60.6831 40.5967 60.9007 43.9689 60.9007 47.3411C60.9007 50.7134 60.6831 54.0856 60.3568 57.2403C57.9636 59.4159 55.4616 61.5916 52.8508 63.6584C48.7171 66.8131 44.5834 69.4239 40.4497 71.5995C36.316 69.4239 32.1822 66.7043 28.0485 63.6584ZM38.1652 72.7961C33.814 74.9718 29.5715 76.4947 25.6553 77.4738C23.5885 72.6874 21.9567 66.9219 21.0865 60.5038C22.9358 62.1355 24.8938 63.7672 26.8519 65.2902C30.5505 68.2273 34.3579 70.7293 38.1652 72.7961ZM60.0304 34.1785C58.1811 32.5468 56.2231 30.9151 54.265 29.3921C50.4576 26.5638 46.6502 24.0618 42.9517 21.8861C47.3029 19.7105 51.5454 18.1876 55.5704 17.2085C57.5284 21.9949 59.0514 27.7604 60.0304 34.1785ZM40.4497 3.17564C45.8888 3.17564 50.784 7.74448 54.4825 15.1417C50.0225 16.2295 45.3449 18.0788 40.4497 20.5808C35.5545 18.0788 30.8768 16.2295 26.4168 15.1417C30.1154 7.74448 35.1194 3.17564 40.4497 3.17564ZM25.5465 17.2085C28.1573 17.8612 30.8769 18.7315 33.7052 19.9281C35.1193 20.472 36.6423 21.2335 38.0565 21.8861C34.2491 23.953 30.4417 26.455 26.7431 29.3921C24.6763 30.9151 22.827 32.5468 20.9777 34.1785C21.8479 27.7604 23.4797 21.9949 25.5465 17.2085ZM6.72724 39.6176C2.59353 31.5677 2.04962 24.8233 5.31308 20.6895C7.70628 17.6437 11.7312 16.1207 16.844 16.1207C18.9108 16.1207 21.0865 16.3383 23.3709 16.7734C20.9777 22.3213 19.346 29.0658 18.4757 36.5717C15.4298 39.5088 12.7103 42.5547 10.4258 45.6006C9.01167 43.5338 7.81506 41.5757 6.72724 39.6176ZM18.1494 54.8471C15.7562 52.4539 13.5805 49.8431 11.6224 47.3411C13.5805 44.8391 15.6474 42.3372 18.1494 39.8352C17.9318 42.2284 17.823 44.7304 17.823 47.3411C17.823 49.9519 17.9318 52.4539 18.1494 54.8471ZM5.31308 74.1015C2.04962 69.859 2.59353 63.1145 6.72724 55.0647C7.70628 53.1066 8.90289 51.1485 10.3171 49.0817C12.7103 52.1275 15.4298 55.1734 18.4757 58.1106C19.346 65.6165 20.9777 72.361 23.3709 77.9089C15.2122 79.6494 8.57654 78.4528 5.31308 74.1015ZM40.4497 91.6154C35.0106 91.6154 30.1154 87.0466 26.4168 79.6494C30.7681 78.5616 35.5545 76.7123 40.4497 74.2103C45.3449 76.7123 50.0225 78.5616 54.4825 79.6494C50.784 86.9378 45.8888 91.6154 40.4497 91.6154ZM55.4616 77.4738C51.5454 76.4947 47.3029 74.9718 42.8429 72.7961C46.6502 70.7293 50.4576 68.2273 54.1562 65.2902C56.2231 63.7672 58.0723 62.1355 59.9216 60.5038C59.0514 66.9219 57.5284 72.6874 55.4616 77.4738ZM75.5863 74.1015C72.3228 78.4528 65.6871 79.5406 57.5284 77.9089C59.9216 72.361 61.5534 65.6165 62.4236 58.1106C65.4695 55.1734 68.1891 52.1275 70.5823 49.0817C71.9965 51.0397 73.193 53.1066 74.1721 55.0647C78.3058 63.2233 78.8497 69.9678 75.5863 74.1015Z" fill="url(#paint0_linear)" stroke="url(#paint1_linear)" stroke-miterlimit="10"/>
<defs>
<linearGradient id="paint0_linear" x1="40.4497" y1="1" x2="40.4497" y2="93.7911" gradientUnits="userSpaceOnUse">
<stop stop-color="#F16122"/>
<stop offset="1" stop-color="#FEBD33"/>
</linearGradient>
<linearGradient id="paint1_linear" x1="40.4497" y1="1" x2="40.4497" y2="93.7911" gradientUnits="userSpaceOnUse">
<stop stop-color="#F16122"/>
<stop offset="1" stop-color="#FEBD33"/>
</linearGradient>
</defs>
</svg>
