<svg width="75" height="109" viewBox="0 0 75 109" fill="none" xmlns="http://www.w3.org/2000/svg">
<path d="M74.1423 35.4556C73.3349 16.4634 57.8606 0.973268 38.8877 0.0303915C28.5266 -0.373698 18.8383 3.26311 11.4376 10.2673C4.03678 17.4063 0 26.9697 0 37.2067C0 47.4436 4.03678 56.8724 11.4376 64.0113C17.7618 70.0726 21.2604 78.1544 21.2604 86.6403V87.4485C21.2604 88.5261 22.2023 89.4689 23.2788 89.4689H50.998C52.0745 89.4689 53.0164 88.5261 53.0164 87.4485C53.0164 78.5585 56.6495 70.0726 62.8393 64.146C70.5092 56.603 74.6805 46.2313 74.1423 35.4556ZM25.1626 85.428C24.8935 76.2687 20.9913 67.6481 14.1287 61.048C6.86253 54.0437 3.22943 44.3456 4.03678 34.1086C4.70958 27.1044 7.53533 20.2349 12.3795 14.9817C19.1074 7.43871 28.6612 3.5325 38.6186 4.07129C55.5731 4.87947 69.4327 18.7532 70.24 35.725C70.6437 45.2884 66.8761 54.5825 60.0135 61.3173C53.5547 67.5134 49.5179 76.2687 49.1142 85.5627H25.1626V85.428Z" fill="url(#paint0_linear)"/>
<path d="M52.2092 94.5875C52.2092 95.665 51.4018 96.4732 50.3254 96.4732H23.9517C22.8752 96.4732 22.0679 95.665 22.0679 94.5875C22.0679 93.5099 23.0098 92.567 24.0863 92.567H50.3254C51.4018 92.567 52.2092 93.5099 52.2092 94.5875Z" fill="url(#paint1_linear)"/>
<path d="M52.209 100.649C52.209 101.726 51.4016 102.534 50.3252 102.534H23.8169C22.7405 102.534 21.9331 101.726 21.9331 100.649V100.514C21.9331 99.4365 22.7405 98.6283 23.8169 98.6283H50.1906C51.4016 98.6283 52.209 99.5712 52.209 100.649Z" fill="url(#paint2_linear)"/>
<path d="M52.209 106.71C52.209 107.788 51.2671 108.731 50.1906 108.731H23.9515C22.875 108.731 21.9331 107.788 21.9331 106.71C21.9331 105.633 22.875 104.69 23.9515 104.69H50.3252C51.4016 104.69 52.209 105.633 52.209 106.71Z" fill="url(#paint3_linear)"/>
<defs>
<linearGradient id="paint0_linear" x1="37.0943" y1="0" x2="37.0943" y2="89.4689" gradientUnits="userSpaceOnUse">
<stop stop-color="#F16122"/>
<stop offset="1" stop-color="#FEBD33"/>
</linearGradient>
<linearGradient id="paint1_linear" x1="37.1385" y1="92.567" x2="37.1385" y2="96.4732" gradientUnits="userSpaceOnUse">
<stop stop-color="#F16122"/>
<stop offset="1" stop-color="#FEBD33"/>
</linearGradient>
<linearGradient id="paint2_linear" x1="37.071" y1="98.6283" x2="37.071" y2="102.534" gradientUnits="userSpaceOnUse">
<stop stop-color="#F16122"/>
<stop offset="1" stop-color="#FEBD33"/>
</linearGradient>
<linearGradient id="paint3_linear" x1="37.071" y1="104.69" x2="37.071" y2="108.731" gradientUnits="userSpaceOnUse">
<stop stop-color="#F16122"/>
<stop offset="1" stop-color="#FEBD33"/>
</linearGradient>
</defs>
</svg>
