<svg width="46" height="68" viewBox="0 0 46 68" fill="none" xmlns="http://www.w3.org/2000/svg">
<path d="M45.9713 21.9839C45.4707 10.208 35.8759 0.603466 24.112 0.018844C17.6877 -0.231708 11.6805 2.02326 7.09175 6.36617C2.50297 10.7926 0 16.7223 0 23.0697C0 29.417 2.50297 35.2632 7.09175 39.6896C11.0131 43.4479 13.1823 48.459 13.1823 53.7206V54.2217C13.1823 54.8898 13.7663 55.4744 14.4338 55.4744H31.6209C32.2883 55.4744 32.8724 54.8898 32.8724 54.2217C32.8724 48.7095 35.125 43.4479 38.9629 39.7731C43.7186 35.0962 46.305 28.6653 45.9713 21.9839ZM15.6019 52.9689C15.435 47.2897 13.0155 41.9446 8.7604 37.8522C4.25505 33.5093 2.00238 27.4961 2.50297 21.1488C2.92013 16.8058 4.67221 12.5465 7.67578 9.28928C11.8474 4.6123 17.7711 2.1903 23.9451 2.52437C34.4576 3.02547 43.0511 11.6278 43.5517 22.151C43.802 28.0807 41.4659 33.8434 37.2109 38.0193C33.2061 41.8611 30.7031 47.2897 30.4528 53.0524H15.6019V52.9689Z" fill="url(#paint0_linear)"/>
<path d="M32.3725 58.6481C32.3725 59.3162 31.8719 59.8173 31.2044 59.8173H14.8516C14.1842 59.8173 13.6836 59.3162 13.6836 58.6481C13.6836 57.9799 14.2676 57.3953 14.9351 57.3953H31.2044C31.8719 57.3953 32.3725 57.9799 32.3725 58.6481Z" fill="url(#paint1_linear)"/>
<path d="M32.3719 62.4063C32.3719 63.0745 31.8713 63.5756 31.2038 63.5756H14.7677C14.1002 63.5756 13.5996 63.0745 13.5996 62.4063V62.3228C13.5996 61.6547 14.1002 61.1536 14.7677 61.1536H31.1204C31.8713 61.1536 32.3719 61.7382 32.3719 62.4063Z" fill="url(#paint2_linear)"/>
<path d="M32.3719 66.1647C32.3719 66.8328 31.7879 67.4175 31.1204 67.4175H14.8511C14.1836 67.4175 13.5996 66.8328 13.5996 66.1647C13.5996 65.4965 14.1836 64.9119 14.8511 64.9119H31.2038C31.8713 64.9119 32.3719 65.4965 32.3719 66.1647Z" fill="url(#paint3_linear)"/>
<defs>
<linearGradient id="paint0_linear" x1="23" y1="0" x2="23" y2="55.4744" gradientUnits="userSpaceOnUse">
<stop stop-color="#F16122"/>
<stop offset="1" stop-color="#FEBD33"/>
</linearGradient>
<linearGradient id="paint1_linear" x1="23.028" y1="57.3953" x2="23.028" y2="59.8173" gradientUnits="userSpaceOnUse">
<stop stop-color="#F16122"/>
<stop offset="1" stop-color="#FEBD33"/>
</linearGradient>
<linearGradient id="paint2_linear" x1="22.9858" y1="61.1536" x2="22.9858" y2="63.5756" gradientUnits="userSpaceOnUse">
<stop stop-color="#F16122"/>
<stop offset="1" stop-color="#FEBD33"/>
</linearGradient>
<linearGradient id="paint3_linear" x1="22.9858" y1="64.9119" x2="22.9858" y2="67.4175" gradientUnits="userSpaceOnUse">
<stop stop-color="#F16122"/>
<stop offset="1" stop-color="#FEBD33"/>
</linearGradient>
</defs>
</svg>
