<?xml version="1.0" encoding="utf-8"?>
<!-- Generator: Adobe Illustrator 24.2.1, SVG Export Plug-In . SVG Version: 6.00 Build 0)  -->
<svg version="1.1" id="Layer_1" xmlns="http://www.w3.org/2000/svg" xmlns:xlink="http://www.w3.org/1999/xlink" x="0px" y="0px"
	 viewBox="0 0 57.52 70.47" style="enable-background:new 0 0 57.52 70.47;" xml:space="preserve">
<style type="text/css">
	.st0{fill:#FFFFFF;}
</style>
<g>
	<path class="st0" d="M13.25,5.2c-4.1,0-8.2,0-12.3,0c-0.45,0-0.6-0.1-0.6-0.6c0.05-1.3,0.05-2.65,0-3.95C0.35,0.1,0.5,0,1,0
		c7,0,14,0,20.95,0c1.25,0,2.5,0,3.7,0c0.45,0,0.6,0.1,0.55,0.55c-0.05,1.35-0.05,2.7,0,4.1c0,0.45-0.1,0.55-0.55,0.55
		C21.55,5.2,17.4,5.2,13.25,5.2z"/>
	<path class="st0" d="M36.56,12.95c0,4.1,0,8.2,0,12.3c0,0.5-0.1,0.65-0.6,0.65c-1.3-0.05-2.6-0.05-3.9,0c-0.55,0-0.7-0.15-0.7-0.7
		c0-7.95,0-15.9,0-23.9c0-1.3,0-1.3,1.3-1.3c1.05,0,2.1,0.05,3.15,0c0.55,0,0.75,0.1,0.75,0.75C36.51,4.8,36.56,8.9,36.56,12.95z"/>
	<path class="st0" d="M46.91,12.9c0,4.1,0,8.2,0,12.3c0,0.5-0.1,0.7-0.65,0.7c-1.3-0.05-2.65-0.05-3.95,0c-0.4,0-0.6-0.1-0.6-0.55
		c0-8.25,0-16.55,0-24.8c0-0.4,0.1-0.5,0.5-0.5c1.4,0,2.85,0,4.25,0c0.35,0,0.45,0.1,0.45,0.45C46.91,4.6,46.91,8.75,46.91,12.9z"/>
	<path class="st0" d="M57.21,12.95c0,4.1,0,8.25,0,12.35c0,0.45-0.1,0.6-0.6,0.6c-1.35-0.05-2.7,0-4.05,0c-0.4,0-0.55-0.1-0.55-0.5
		c0-8.3,0-16.6,0-24.85c0-0.4,0.1-0.5,0.5-0.5c1.4,0,2.75,0.05,4.15,0c0.5,0,0.6,0.15,0.55,0.6C57.21,4.75,57.21,8.85,57.21,12.95z"
		/>
	<path class="st0" d="M13.25,25.9c-4.1,0-8.15,0-12.25,0c-0.55,0-0.7-0.15-0.65-0.7c0.05-1.3,0.05-2.6,0-3.9c0-0.45,0.1-0.6,0.6-0.6
		c8.25,0,16.5,0,24.75,0c0.4,0,0.55,0.1,0.55,0.5c-0.05,1.4-0.05,2.75,0,4.15c0,0.45-0.15,0.55-0.55,0.55
		C21.55,25.9,17.4,25.9,13.25,25.9z"/>
	<path class="st0" d="M44.31,41.4c4.1,0,8.2,0,12.3,0c0.55,0,0.65,0.15,0.65,0.65c-0.05,1.3-0.05,2.55,0,3.85
		c0,0.55-0.1,0.7-0.7,0.7c-7.15,0-14.25,0-21.4,0c-1.1,0-2.2,0-3.3,0c-0.35,0-0.5-0.1-0.5-0.45c0-1.4,0-2.85,0-4.25
		c0-0.5,0.25-0.45,0.6-0.45C36.06,41.4,40.21,41.4,44.31,41.4z"/>
	<path class="st0" d="M5.55,44c0,4.1,0,8.2,0,12.3c0,0.55-0.15,0.65-0.65,0.65c-1.35-0.05-2.7-0.05-4,0c-0.4,0-0.55-0.15-0.55-0.55
		c0-8.25,0-16.5,0-24.75c0-0.45,0.15-0.55,0.6-0.55c1.35,0,2.7,0.05,4.1,0c0.45,0,0.55,0.15,0.55,0.55C5.55,35.75,5.55,39.9,5.55,44
		z"/>
	<path class="st0" d="M26.25,44c0,4.1,0,8.2,0,12.3c0,0.5-0.15,0.65-0.65,0.6c-1.35-0.05-2.7,0-4.05,0c-0.4,0-0.5-0.1-0.5-0.5
		c0-8.3,0-16.6,0-24.9c0-0.4,0.15-0.45,0.5-0.45c1.4,0,2.8,0.05,4.2,0c0.45,0,0.55,0.15,0.55,0.6C26.25,35.8,26.25,39.9,26.25,44z"
		/>
	<path class="st0" d="M13.35,15.5c-4.15,0-8.25,0-12.4,0c-0.45,0-0.6-0.1-0.6-0.6c0.05-1.35,0-2.7,0-4c0-0.35,0.05-0.5,0.5-0.5
		c8.3,0,16.6,0,24.9,0c0.35,0,0.45,0.1,0.45,0.45c0,1.35-0.05,2.7,0,4.1c0,0.5-0.15,0.6-0.6,0.6C21.55,15.5,17.45,15.5,13.35,15.5z"
		/>
	<path class="st0" d="M44.26,51.8c4.1,0,8.25,0,12.35,0c0.5,0,0.65,0.15,0.6,0.6c-0.05,1.3,0,2.65,0,3.95c0,0.4-0.05,0.55-0.5,0.55
		c-8.3,0-16.6,0-24.85,0c-0.4,0-0.5-0.1-0.5-0.5c0-1.35,0.05-2.7,0-4.1c0-0.45,0.15-0.55,0.6-0.55C36.06,51.8,40.16,51.8,44.26,51.8
		z"/>
	<path class="st0" d="M10.75,43.95c0-4.1,0-8.2,0-12.3c0-0.45,0.15-0.6,0.6-0.6c1.35,0.05,2.7,0,4,0c0.35,0,0.5,0.05,0.5,0.5
		c0,8.3,0,16.6,0,24.9c0,0.35-0.1,0.45-0.45,0.45c-1.4,0-2.75,0-4.15,0c-0.45,0-0.5-0.15-0.5-0.55
		C10.75,52.26,10.75,48.1,10.75,43.95z"/>
	<path class="st0" d="M44.31,31.1c4.1,0,8.2,0,12.3,0c0.5,0,0.6,0.15,0.6,0.6c-0.05,1.3-0.05,2.65,0,3.95
		c0,0.45-0.15,0.55-0.55,0.55c-8.2,0-16.45,0-24.65,0c-0.5,0-0.65-0.15-0.6-0.65c0.05-1.3,0.05-2.55,0-3.85c0-0.6,0.2-0.65,0.7-0.65
		C36.16,31.1,40.26,31.1,44.31,31.1z"/>
	<path class="st0" d="M16.6,66.21c0,2.5-1.75,4.25-4.2,4.25c-2.55,0-4.3-1.75-4.3-4.25c0-2.55,1.75-4.3,4.25-4.3
		C14.85,61.96,16.6,63.71,16.6,66.21z M14.2,66.26c0-1-0.4-1.7-1.15-2c-1-0.4-2.05,0.05-2.45,1.1c-0.45,1.25,0.1,2.6,1.15,2.9
		C13.1,68.61,14.2,67.76,14.2,66.26z"/>
	<path class="st0" d="M34.06,66.16c0-1.2,0-2.4,0-3.6c0-0.35,0.1-0.5,0.45-0.5c0.45,0.05,0.95,0.05,1.4,0c0.4-0.05,0.5,0.15,0.5,0.5
		c0,0.65,0,1.25,0,1.9c0,0.35,0.1,0.45,0.45,0.45c0.65,0,1.35,0,2,0c0.3,0,0.4-0.1,0.4-0.4c0-0.65,0-1.3,0-1.95
		c0-0.35,0.05-0.5,0.45-0.5c0.5,0.05,1,0,1.55,0c0.3,0,0.4,0.1,0.4,0.4c0,2.45,0,4.9,0,7.3c0,0.35-0.1,0.45-0.45,0.45
		c-0.5,0-1,0-1.5,0c-0.35,0-0.5-0.1-0.45-0.45c0.05-0.75,0-1.5,0-2.25c0-0.35-0.05-0.5-0.45-0.5c-0.65,0.05-1.25,0-1.9,0
		c-0.35,0-0.45,0.1-0.45,0.45c0,0.75,0,1.5,0,2.25c0,0.4-0.1,0.55-0.5,0.5c-0.6-0.05-1.4,0.25-1.8-0.15c-0.35-0.35-0.1-1.1-0.1-1.7
		C34.06,67.66,34.06,66.91,34.06,66.16z"/>
	<path class="st0" d="M3.7,61.96c1.3,0,2.45,0.4,3.35,1.35c0.25,0.25,0.3,0.45-0.1,0.6c-0.15,0.05-0.25,0.15-0.35,0.2
		c-0.55,0.35-1.05,0.7-1.65,0c-0.35-0.4-0.95-0.4-1.5-0.35c-0.3,0.05-0.55,0.15-0.6,0.45c-0.05,0.35,0.25,0.55,0.55,0.6
		c0.55,0.15,1.15,0.25,1.7,0.4c0.3,0.05,0.55,0.15,0.85,0.25c0.8,0.3,1.4,0.75,1.55,1.65c0.15,1-0.05,1.9-1,2.55
		c-1.95,1.35-4.95,0.85-6.35-1.05c-0.25-0.35-0.2-0.55,0.2-0.65c0.15-0.05,0.3-0.1,0.45-0.2c0.6-0.4,1.05-0.4,1.6,0.2
		c0.6,0.65,1.45,0.7,2.3,0.5c0.3-0.05,0.55-0.25,0.5-0.55c0-0.3-0.25-0.45-0.5-0.5c-0.7-0.15-1.4-0.3-2.05-0.5
		c-1.6-0.45-2.3-1.3-2.2-2.55c0.15-1.3,1.2-2.25,2.7-2.4C3.3,61.96,3.5,61.96,3.7,61.96z"/>
	<path class="st0" d="M24.85,65.11c0,0.75,0.05,1.55,0,2.3c-0.1,1.6-0.85,2.5-2.4,2.9c-1.15,0.3-2.25,0.2-3.35-0.3
		c-0.9-0.45-1.4-1.15-1.5-2.2c-0.15-1.75-0.05-3.5-0.05-5.25c0-0.3,0.1-0.45,0.45-0.45c0.5,0,1,0.05,1.5,0c0.35,0,0.4,0.15,0.4,0.45
		c0,1.5,0,2.95,0,4.45c0,1,0.5,1.45,1.5,1.35c0.8-0.05,1.15-0.5,1.2-1.45c0-1.3,0-2.65,0-3.95c0-0.95-0.1-0.8,0.8-0.8
		c1.5,0,1.5,0,1.5,1.5C24.9,64.11,24.9,64.61,24.85,65.11C24.9,65.11,24.85,65.11,24.85,65.11z"/>
	<path class="st0" d="M49.01,66.01c1,0.5,1.4,1.3,1.2,2.35c-0.2,1.05-0.95,1.6-1.95,1.9c-1.8,0.55-3.7,0-4.6-1.4
		c-0.45-0.7-0.45-0.7,0.3-0.95c0.15-0.05,0.25-0.1,0.4-0.15c0.5-0.25,0.85-0.35,1.25,0.25c0.4,0.6,1.1,0.6,1.75,0.45
		c0.3-0.05,0.5-0.3,0.5-0.65s-0.15-0.55-0.5-0.65c-0.1-0.05-0.25-0.05-0.35-0.05c-0.3-0.05-0.85,0.15-0.9-0.15
		c-0.15-0.45-0.05-0.95-0.05-1.45c0-0.2,0.2-0.15,0.3-0.15c0.3,0,0.55,0,0.8-0.1c0.3-0.1,0.5-0.3,0.5-0.65c0-0.3-0.2-0.5-0.5-0.6
		c-0.6-0.2-1.3,0.05-1.8,0.65c-0.2,0.3-0.4,0.35-0.65,0.15c-0.15-0.1-0.3-0.15-0.45-0.25c-0.9-0.45-0.9-0.5-0.25-1.25
		c1.15-1.3,3.35-1.65,4.9-0.8C50.31,63.16,50.36,64.81,49.01,66.01z"/>
	<path class="st0" d="M54.71,68.26c0.9,0,1.6,0,2.35,0c0.3,0,0.45,0.1,0.45,0.45c0.05,1.6,0.05,1.6-1.55,1.6c-1.5,0-2.95,0-4.45,0
		c-0.4,0-0.45-0.1-0.5-0.5c-0.05-0.8,0.2-1.35,0.85-1.8c0.9-0.6,1.8-1.25,2.45-2.1c0.55-0.75,0.55-1.4,0.1-1.75
		c-0.5-0.35-1.15-0.2-1.65,0.5c-0.2,0.25-0.35,0.3-0.6,0.15s-0.5-0.25-0.7-0.4c-0.7-0.4-0.75-0.4-0.2-1.05c1-1.2,2.85-1.7,4.3-1.15
		c1.7,0.65,2.25,2.55,1.25,4.05C56.21,66.96,55.51,67.56,54.71,68.26z"/>
	<path class="st0" d="M29.5,62.11c1.05,0,2.1,0,3.15,0c0.35,0,0.45,0.1,0.45,0.45c0.05,1.65,0.05,1.65-1.6,1.65
		c-1,0-0.85-0.1-0.85,0.85c0,1.55,0,3.1,0,4.65c0,0.4-0.05,0.6-0.55,0.55c-0.6-0.05-1.35,0.2-1.7-0.1c-0.4-0.35-0.1-1.15-0.15-1.75
		c0-1.25,0-2.5,0-3.7c0-0.4-0.1-0.5-0.5-0.5c-0.5,0.05-1,0-1.45,0c-0.3,0-0.4-0.1-0.4-0.4c-0.1-1.75-0.1-1.75,1.6-1.75
		C28.15,62.11,28.85,62.11,29.5,62.11z"/>
</g>
</svg>
