<svg width="130" height="68" viewBox="0 0 130 68" fill="none" xmlns="http://www.w3.org/2000/svg">
<path d="M99.0068 58.8235C102.006 58.8235 104.706 58.8235 107.605 58.8235C107.605 61.7231 107.605 64.5226 107.605 67.5222C104.806 67.5222 101.906 67.5222 99.0068 67.5222C99.0068 64.6226 99.0068 61.923 99.0068 58.8235Z" fill="url(#paint0_linear)"/>
<path d="M87.6084 56.324C87.6084 53.4244 87.6084 50.6249 87.6084 47.7253C90.5079 47.7253 93.3075 47.7253 96.307 47.7253C96.307 50.6249 96.307 53.3244 96.307 56.324C93.4075 56.324 90.6079 56.324 87.6084 56.324Z" fill="url(#paint1_linear)"/>
<path d="M120.905 37.1269C123.705 37.1269 126.504 37.1269 129.404 37.1269C129.404 39.9265 129.404 42.7261 129.404 45.7256C126.604 45.7256 123.905 45.7256 120.905 45.7256C120.905 42.826 120.905 40.0265 120.905 37.1269Z" fill="url(#paint2_linear)"/>
<path d="M121.203 50.4249C121.203 53.4244 121.203 56.124 121.203 59.0236C118.303 59.0236 115.503 59.0236 112.504 59.0236C112.504 56.124 112.504 53.3244 112.504 50.4249C115.403 50.4249 118.103 50.4249 121.203 50.4249Z" fill="url(#paint3_linear)"/>
<path d="M82.9094 38.9266H78.91V43.4259C78.61 43.226 78.3101 42.926 78.1101 42.6261C72.8109 34.9273 67.7117 27.1285 62.2126 19.6296C58.7131 14.7304 54.4138 9.43123 48.8146 7.13159C42.2157 4.43201 35.0168 6.63166 29.5176 10.631C23.7185 14.8304 19.4192 21.2294 15.7198 27.3284C11.7204 33.9274 8.42092 41.0263 5.9213 48.3252C5.42138 49.825 3.82163 50.8248 2.22188 50.4249C0.72211 50.0249 -0.377719 48.2252 0.122203 46.7254C3.22172 37.7268 7.32109 29.0282 12.5203 21.0294C16.9196 14.3305 22.1188 7.63151 29.2177 3.63213C36.4166 -0.467234 45.0152 -1.3671 52.5141 2.33233C59.1131 5.53183 63.8123 11.7309 67.9117 17.53C73.1109 24.5289 78.0101 31.7278 82.9094 38.9266Z" fill="url(#paint4_linear)"/>
<defs>
<linearGradient id="paint0_linear" x1="103.306" y1="58.8235" x2="103.306" y2="67.5222" gradientUnits="userSpaceOnUse">
<stop stop-color="#F16122"/>
<stop offset="1" stop-color="#FEBD33"/>
</linearGradient>
<linearGradient id="paint1_linear" x1="91.9577" y1="47.7253" x2="91.9577" y2="56.324" gradientUnits="userSpaceOnUse">
<stop stop-color="#F16122"/>
<stop offset="1" stop-color="#FEBD33"/>
</linearGradient>
<linearGradient id="paint2_linear" x1="125.155" y1="37.1269" x2="125.155" y2="45.7256" gradientUnits="userSpaceOnUse">
<stop stop-color="#F16122"/>
<stop offset="1" stop-color="#FEBD33"/>
</linearGradient>
<linearGradient id="paint3_linear" x1="116.853" y1="50.4249" x2="116.853" y2="59.0236" gradientUnits="userSpaceOnUse">
<stop stop-color="#F16122"/>
<stop offset="1" stop-color="#FEBD33"/>
</linearGradient>
<linearGradient id="paint4_linear" x1="41.4547" y1="0" x2="41.4547" y2="50.5134" gradientUnits="userSpaceOnUse">
<stop stop-color="#F16122"/>
<stop offset="1" stop-color="#FEBD33"/>
</linearGradient>
</defs>
</svg>
