<?xml version="1.0" encoding="utf-8"?>
<!-- Generator: Adobe Illustrator 24.2.1, SVG Export Plug-In . SVG Version: 6.00 Build 0)  -->
<svg version="1.1" id="Layer_1" xmlns="http://www.w3.org/2000/svg" xmlns:xlink="http://www.w3.org/1999/xlink" x="0px" y="0px"
	 viewBox="0 0 106.59 27.45" style="enable-background:new 0 0 106.59 27.45;" xml:space="preserve">
<style type="text/css">
	.st0{fill:#FFFFFF;}
	.st1{fill:#010101;}
</style>
<g>
	<path class="st0" d="M9.35,8.15c-0.55-0.25-1.05-0.5-1.5-1c0.5-0.05,0.9,0.05,1.4,0.15c-0.5-0.65-1-1.25-0.9-2.15
		c0.8,0.45,1.5,0.9,2.35,1.2c0.35,0.1,0.7,0.15,1.1,0c1.25-0.5,2.55-0.6,3.85-0.1c0.7,0.3,1.25,0.2,1.85-0.1
		c0.6-0.3,1.2-0.6,1.85-0.95c0.1,0.85-0.35,1.45-0.9,2.05c0.5-0.05,0.85-0.1,1.35-0.15c-0.35,0.6-0.9,0.75-1.45,1.05
		c0.55,0.8,0.9,1.7,1.05,2.65c0.05,0.5-0.05,0.8-0.4,1.2c-3,2.9-4.65,6.4-4.65,10.6c0,0.35,0,0.35-0.45,0.9
		c-0.25-0.25-0.4-0.45-0.4-0.85c0-4.25-1.7-7.75-4.7-10.7c-0.35-0.35-0.45-0.65-0.4-1.1C8.45,9.9,8.75,9,9.35,8.15z"/>
	<path class="st0" d="M70.41,10.85c1.8-0.15,1.75-0.1,2.45,1.35c0.7,1.5,1.4,2.95,2.15,4.55c0.6-1.55,1.2-3,1.7-4.45
		c0.2-0.55,0.5-0.6,1-0.65c0.5,0,0.75,0.15,0.9,0.65c0.5,1.45,1.1,2.85,1.7,4.35c0.35-0.4,0.5-0.9,0.7-1.35
		c0.6-1.2,1.2-2.45,1.7-3.7c0.25-0.7,0.65-0.95,1.35-0.85c0.25,0.05,0.55,0,0.9,0c-0.95,2.1-1.9,4.1-2.85,6.1
		c-0.3,0.65-0.7,1.3-0.9,2c-0.25,0.7-0.75,0.5-1.2,0.55c-0.5,0.05-0.55-0.25-0.7-0.6c-0.45-1.15-0.9-2.3-1.35-3.45
		c-0.1-0.2-0.1-0.5-0.4-0.65c-0.55,1.4-1.1,2.8-1.65,4.2c-0.1,0.3-0.2,0.6-0.6,0.5c-0.4-0.1-0.9,0.25-1.15-0.35
		C73.01,16.35,71.71,13.65,70.41,10.85z"/>
	<path class="st0" d="M69.31,13.8c0,1.65,0,3.3,0,5c0,0.5-0.1,0.7-0.65,0.7c-1.2-0.1-2.35,0.1-3.55-0.15c-2.2-0.5-3.8-2.2-3.75-4.15
		c0-1.85,1.55-3.5,3.7-4.05c0.65-0.15,1.3-0.2,1.95-0.15c0.4,0.05,0.6-0.1,0.55-0.55c-0.05-0.65,0-1.25,0-1.9
		c0-0.4,0.1-0.55,0.5-0.55c0.25,0,0.45,0,0.7,0c0.45-0.05,0.55,0.15,0.55,0.55C69.31,10.3,69.31,12.05,69.31,13.8z"/>
	<path class="st0" d="M13.8,27.45c-3.1,0-5.85-0.95-8.3-2.75c-0.5-0.35-0.5-0.55-0.05-1c1.15-1.05,1.1-1.1,2.4-0.3
		c3.8,2.35,8.85,2.2,12.55-0.45c0.5-0.35,0.75-0.35,1.15,0.1c1.2,1.25,1.25,1.25-0.25,2.2C19,26.75,16.5,27.45,13.8,27.45z"/>
	<path class="st0" d="M27.55,13.3c0,3.4-0.95,6.2-2.75,8.7c-0.35,0.5-0.6,0.5-0.95,0.05c-0.35-0.4-0.9-0.7-1.05-1.15
		c-0.15-0.45,0.45-0.8,0.7-1.25c2.4-4.25,2.25-8.4-0.4-12.45c-0.35-0.5-0.4-0.75,0.1-1.2c1.25-1.15,1.2-1.2,2.15,0.25
		C26.8,8.5,27.55,10.95,27.55,13.3z"/>
	<path class="st0" d="M0,13.6c0.05-2.95,0.95-5.8,2.85-8.25C3.15,5,3.3,4.9,3.65,5.3C4,5.75,4.65,6.1,4.8,6.55
		C4.9,7,4.25,7.45,4,7.9c-2.35,4.25-2.2,8.4,0.5,12.45c0.3,0.5,0.35,0.75-0.1,1.05c-0.1,0.05-0.15,0.15-0.2,0.2
		c-1,1-1.05,1-1.85-0.2C0.8,19.1,0.05,16.5,0,13.6z"/>
	<path class="st0" d="M13.8,0c3.1,0.05,5.9,0.95,8.4,2.8c0.35,0.25,0.55,0.45,0.1,0.85C21.85,4,21.55,4.6,21.1,4.75
		C20.6,4.9,20.2,4.25,19.75,4c-4.3-2.35-8.5-2.2-12.55,0.55c-0.45,0.3-0.7,0.3-0.95-0.1C6.15,4.3,6,4.2,5.9,4.05
		C5,3.15,5,3.15,6,2.45C8.3,0.8,10.9,0.05,13.8,0z"/>
	<path class="st0" d="M93.66,19.45c-1.4,0.05-2.7-0.3-3.65-1.4c-0.25-0.25-0.25-0.4,0.05-0.6c0.65-0.45,1.1-0.65,1.75,0.1
		c0.6,0.7,3,0.65,3.7,0.05c0.6-0.5,0.55-1.15-0.2-1.4c-0.85-0.3-1.75-0.45-2.65-0.65c-0.55-0.15-1.1-0.3-1.6-0.65
		c-1.25-0.85-1.3-2.55,0-3.4c1.75-1.2,4.7-0.8,6.05,0.8c0.2,0.25,0.2,0.35-0.05,0.55c-0.6,0.45-1.1,0.7-1.75-0.05
		c-0.6-0.7-2.2-0.7-3-0.25c-0.25,0.15-0.45,0.35-0.45,0.65c0,0.35,0.2,0.5,0.45,0.65c0.75,0.35,1.55,0.45,2.35,0.6
		c0.6,0.15,1.2,0.25,1.7,0.55c1.5,0.75,1.75,2.4,0.5,3.55C96.16,19.15,95.16,19.45,93.66,19.45z"/>
	<path class="st0" d="M101.81,15.5c-0.35,0-0.65,0-1,0c-0.85,0-0.95,0.1-0.55,0.85c0.45,0.85,1.15,1.5,2.1,1.55
		c0.95,0.05,0.7,0.7,0.65,1.15c-0.05,0.65-0.6,0.35-0.85,0.3c-2.2-0.25-3.95-2.15-3.9-4.3c0-2.2,1.85-4.1,4.1-4.3
		c1-0.1,2,0.05,2.9,0.6c1.35,0.85,1.4,2.4,0.1,3.35C104.51,15.35,103.66,15.5,101.81,15.5z"/>
	<path class="st0" d="M47.25,15.5c-0.3,0-0.6,0-0.9,0c-0.95,0-1.05,0.15-0.55,1s1.2,1.35,2.2,1.45c0.9,0.05,0.45,0.75,0.5,1.15
		c0.1,0.55-0.4,0.35-0.65,0.35c-2.25-0.1-4.1-2-4.1-4.25c0-2.3,1.8-4.2,4.15-4.35c0.95-0.05,1.9,0.05,2.75,0.55
		c1.45,0.85,1.5,2.4,0.15,3.4c-0.65,0.45-1.4,0.65-2.2,0.75C48.15,15.55,47.7,15.5,47.25,15.5z"/>
	<path class="st0" d="M52.7,16.4c0-0.55,0.05-1.1,0-1.65c-0.3-2.85,2.55-4.3,4.8-3.85c2.01,0.45,3.06,1.75,3.06,3.8
		c0,1.25-0.05,2.5,0,3.8c0.05,0.75-0.15,1.05-0.95,1c-0.6-0.05-0.8-0.15-0.8-0.8c0.05-1.35-0.05-2.7,0.05-4.1
		c0.1-1.5-1-2.35-2.31-2.35c-1.35,0-2.2,0.9-2.2,2.35s0,2.85,0,4.3c0,0.45-0.15,0.55-0.55,0.55c-1.15,0-1.15,0-1.15-1.1
		C52.7,17.7,52.7,17.05,52.7,16.4z"/>
	<path class="st0" d="M33.2,12.3c0-1.25,0-2.5,0-3.75c0-0.4,0.1-0.5,0.5-0.55c1.2-0.05,1.2-0.05,1.2,1.2c0,1.8,0,1.8,1.8,1.8
		c0.85,0,1.1,0.35,0.85,1.2c-0.1,0.3-0.3,0.25-0.45,0.25c-0.55,0-1.1,0-1.65,0c-0.4,0-0.55,0.1-0.55,0.5c0,1.05,0,2.1,0,3.15
		c0.05,1,0.8,1.8,2,1.85c0.95,0.05,0.6,0.65,0.65,1.1c0.05,0.65-0.45,0.4-0.75,0.4c-2.1-0.05-3.6-1.6-3.6-3.7
		C33.2,14.55,33.2,13.45,33.2,12.3z"/>
	<path class="st0" d="M39.2,16.55c0-0.85-0.05-1.7,0-2.55c0.15-1.85,2.05-3.35,3.9-3.2c0.3,0.05,0.45,0.15,0.35,0.4
		c-0.1,0.35,0.3,0.85-0.25,1.05c-0.2,0.05-0.4,0.05-0.6,0.1c-1.05,0.2-1.75,0.95-1.75,2.05c0,1.5,0,2.95,0,4.45
		c0,0.5-0.15,0.65-0.65,0.6c-1.1,0-1.1,0-1.1-1.05C39.15,17.8,39.15,17.15,39.2,16.55C39.15,16.55,39.15,16.55,39.2,16.55z"/>
	<path class="st0" d="M86.41,15.1c0-1.25,0-2.45,0-3.7c0-0.45,0.1-0.65,0.6-0.6c0.2,0.05,0.45,0,0.7,0c0.35-0.05,0.5,0.1,0.5,0.45
		c0,2.55,0,5.15,0,7.7c0,0.35-0.1,0.5-0.45,0.5c-0.2,0-0.4-0.05-0.6,0c-0.5,0.1-0.7-0.1-0.65-0.65
		C86.46,17.55,86.41,16.3,86.41,15.1z"/>
	<path class="st0" d="M15.05,21.75c0.15-3.5,1.55-6.4,4.05-8.85C18.6,16.25,16.95,19.05,15.05,21.75z"/>
	<path class="st0" d="M12.65,21.7c-1.8-2.75-3.55-5.6-4.15-8.9C10.95,15.25,12.4,18.2,12.65,21.7z"/>
	<path class="st0" d="M88.16,9.2c-0.05,0.6-0.4,0.85-0.9,0.85s-0.85-0.35-0.8-0.85c0.05-0.5,0.35-0.75,0.85-0.75
		C87.81,8.4,88.11,8.7,88.16,9.2z"/>
	<path class="st0" d="M105.61,19.35c-0.25-0.6-0.35,0.2-0.55,0.1c-0.15-0.25-0.05-0.5-0.05-0.7c0-0.2-0.1-0.45,0.1-0.7
		c0.45,0.2,0.35,0.75,0.7,1C105.86,19.15,105.76,19.25,105.61,19.35z"/>
	<path class="st0" d="M106.01,18.7c0.1-0.25,0.15-0.5,0.45-0.7c0.2,0.5,0.1,1,0.1,1.5c-0.4-0.1-0.1-0.5-0.4-0.6
		C106.01,18.85,106.01,18.75,106.01,18.7z"/>
	<path class="st0" d="M103.96,18c0.25-0.05,0.5-0.05,0.8,0.05c-0.2,0.3-0.45,0.15-0.6,0.25c-0.1-0.05-0.15-0.1-0.2-0.15
		C103.96,18.05,103.96,18.05,103.96,18z"/>
	<path class="st0" d="M104.01,18.1c0.05,0.05,0.1,0.1,0.15,0.15c-0.05,0.4,0.1,0.8-0.1,1.2c-0.15-0.45-0.05-0.85-0.1-1.2
		C103.91,18.2,103.91,18.15,104.01,18.1z"/>
	<path class="st0" d="M106.01,18.7c0.05,0.05,0.1,0.1,0.15,0.2c-0.15,0.2,0.05,0.7-0.5,0.45c0.05-0.1,0.1-0.25,0.2-0.35
		C105.86,18.9,105.91,18.8,106.01,18.7z"/>
	<path class="st0" d="M104.01,18.1c0,0.05-0.05,0.1-0.05,0.15c-0.15-0.05-0.4,0.05-0.55-0.15c0.15-0.25,0.4-0.15,0.6-0.1
		C103.96,18.05,104.01,18.05,104.01,18.1z"/>
	<path class="st1" d="M13.8,9.4c0.85-1.1,1.75-1.45,2.75-1c1,0.45,1.55,1.5,1.25,2.55c-0.25,1-1.35,1.75-2.4,1.55
		c-0.5-0.1-0.85-0.05-1.15,0.4c-0.35,0.5-0.7,0.5-1.05,0c-0.25-0.4-0.55-0.5-1.05-0.4c-0.95,0.25-2-0.4-2.4-1.3
		c-0.35-0.95,0-2.05,0.85-2.6c0.85-0.55,2-0.4,2.7,0.35C13.55,9.05,13.65,9.2,13.8,9.4z"/>
	<path class="st1" d="M67.61,15.25c0,0.75,0,1.5,0,2.25c0,0.2,0.05,0.45-0.3,0.5c-1.3,0.05-2.55-0.15-3.5-1.1
		c-1-1.05-0.95-2.45,0.1-3.45c0.95-0.85,2.1-1.05,3.3-1c0.4,0,0.35,0.25,0.35,0.5C67.61,13.7,67.61,14.45,67.61,15.25z"/>
	<path class="st1" d="M100.21,14.05c0.75-1.55,2.35-2.2,3.8-1.6c0.3,0.1,0.55,0.25,0.6,0.6c0.05,0.35-0.25,0.5-0.5,0.65
		c-0.5,0.25-1,0.3-1.55,0.3C101.81,14.1,101.06,14.05,100.21,14.05z"/>
	<path class="st1" d="M47.15,14.05c-0.25,0-0.45,0-0.7,0s-0.6,0.15-0.7-0.1c-0.15-0.25,0.15-0.5,0.3-0.7
		c0.75-0.95,2.25-1.3,3.35-0.8c0.3,0.1,0.55,0.3,0.6,0.6c0,0.35-0.25,0.5-0.55,0.65C49.05,14,48.55,14.05,47.15,14.05z"/>
	<path class="st0" d="M11.8,11.6c-0.7,0-1.25-0.55-1.25-1.25c0-0.7,0.6-1.3,1.3-1.25c0.7,0,1.25,0.6,1.25,1.25
		C13.1,11.1,12.55,11.6,11.8,11.6z"/>
	<path class="st0" d="M15.75,11.6c-0.7,0-1.25-0.55-1.25-1.25s0.55-1.3,1.3-1.3c0.7,0,1.25,0.55,1.25,1.25
		C17.05,11.05,16.5,11.6,15.75,11.6z"/>
</g>
</svg>
