<svg width="27" height="27" viewBox="0 0 27 27" fill="none" xmlns="http://www.w3.org/2000/svg">
<path d="M13.6929 26.9999C6.44204 26.9867 0.585855 21.1116 0.601349 13.866C0.616642 6.61366 6.5185 0.845053 13.9084 0.858912C21.0065 0.872168 26.8178 6.81371 26.7905 14.0292C26.7635 21.1739 20.8673 27.013 13.6929 26.9999ZM6.80142 18.7587C6.82838 18.7818 6.9133 18.876 7.01693 18.9398C8.48102 19.8424 10.082 20.1618 11.774 19.9555C13.3214 19.7669 14.6735 19.0533 15.9295 18.1806C18.3959 16.4668 19.5762 14.0805 19.5004 11.0852C19.4933 10.8042 19.5929 10.6771 19.8042 10.5298C20.1471 10.2912 20.4558 10.0036 20.7789 9.73688C20.7534 9.70635 20.728 9.67582 20.7025 9.64529C20.2789 9.67823 19.8551 9.71117 19.4316 9.74411C19.86 9.26729 20.3519 8.94834 20.4723 8.27248C20.0425 8.42332 19.6877 8.56331 19.3235 8.67097C18.9619 8.77802 18.6571 8.76858 18.3371 8.44642C17.8345 7.94028 17.1592 7.7571 16.4454 7.83282C14.8117 8.00596 13.8754 8.94854 13.6233 10.6479C13.58 10.939 13.5524 11.2324 13.518 11.5216C10.9699 11.4487 8.95772 10.3617 7.25739 8.43156C6.63199 10.0347 6.85092 11.3152 8.15263 12.3682C8.12446 12.4054 8.09629 12.4425 8.06812 12.4797C7.67271 12.4074 7.27731 12.3349 6.84529 12.2557C6.87124 13.7766 8.00191 14.4137 9.22112 15.1172C8.75952 15.1697 8.40697 15.2098 8.00896 15.255C8.49209 16.4637 9.53523 16.8391 10.6613 17.2575C10.192 17.5349 9.81875 17.8392 9.39115 17.9906C8.54059 18.2919 7.66024 18.5092 6.80142 18.7587Z" fill="white"/>
</svg>
