<svg width="90" height="105" viewBox="0 0 90 105" fill="none" xmlns="http://www.w3.org/2000/svg">
<path d="M59.9516 48.4331C59.9516 47.7071 59.83 46.9811 59.5867 46.3761C59.3435 45.6501 58.9785 44.924 58.492 44.198C56.9107 41.899 54.113 40.3259 50.9504 40.3259C48.761 40.3259 46.6931 41.0519 45.1118 42.383C43.5305 41.0519 41.4627 40.3259 39.2732 40.3259C36.1106 40.3259 33.4346 41.899 31.7316 44.198C31.2451 44.803 30.8802 45.5291 30.6369 46.3761C30.3936 47.1021 30.272 47.7071 30.272 48.4331C30.272 48.5541 30.272 48.7961 30.272 48.9171C30.272 50.6112 30.8802 52.3052 31.7316 53.6363L31.8533 53.7573L32.5831 54.6043L44.9902 69.6087L57.3972 54.6043L58.1271 53.7573L58.2487 53.6363C59.2218 52.3052 59.7084 50.6112 59.7084 48.9171C59.9516 48.7961 59.9516 48.5541 59.9516 48.4331ZM45.1118 66.2206L37.8135 57.2663L34.4077 53.1522C34.1644 52.9102 33.9211 52.6682 33.7995 52.4262C33.0696 51.4582 32.7047 50.1272 32.7047 48.9171C32.7047 47.9491 32.948 47.1021 33.3129 46.3761C33.6778 45.5291 34.286 44.803 34.8942 44.198C36.1106 43.109 37.6919 42.504 39.3948 42.504C41.0978 42.504 42.5574 43.109 43.6522 43.956C43.7738 44.077 43.7738 44.077 43.8954 44.198L45.1118 45.287L46.3282 44.198C46.4498 44.077 46.4498 44.077 46.5715 43.956C47.7878 42.988 49.2475 42.504 50.8288 42.504C52.5317 42.504 54.2347 43.109 55.3294 44.198C56.0592 44.803 56.5458 45.5291 56.9107 46.3761C57.2756 47.1021 57.5189 48.0701 57.5189 48.9171C57.5189 50.2482 57.154 51.4582 56.4241 52.4262C56.1809 52.6682 56.0592 52.9102 55.816 53.1522L52.5317 57.2663L45.1118 66.2206Z" fill="url(#paint0_linear)" stroke="url(#paint1_linear)" stroke-miterlimit="10"/>
<path d="M80.3869 52.5473C82.2115 50.0062 83.7928 47.4652 85.0091 45.0451C90.1179 35.2439 90.6045 26.7736 86.3472 21.3285C83.1846 17.3354 77.9541 15.2784 71.5073 15.2784C68.9529 15.2784 66.1553 15.5204 63.2359 16.2464C58.6137 6.80814 52.2885 1 45.1119 1C37.9352 1 31.6101 6.80814 26.9878 16.2464C16.6486 14.0683 8.13393 15.6414 3.8766 21.3285C-0.380734 26.7736 0.105818 35.2439 5.21461 45.0451C6.55263 47.4652 8.13393 50.0062 9.9585 52.5473C8.13393 55.0883 6.55263 57.6294 5.33625 60.0495C0.227456 69.9717 -0.259096 78.3209 3.8766 83.8871C7.03918 88.0012 12.2696 89.9372 18.7164 89.9372C21.2708 89.9372 24.0685 89.6952 26.9878 88.9692C31.6101 98.4074 37.9352 104.216 45.1119 104.216C52.2885 104.216 58.7353 98.4074 63.2359 88.9692C66.1553 89.5742 68.9529 89.9372 71.5073 89.9372C77.9541 89.9372 83.3062 88.0012 86.3472 83.8871C90.4829 78.4419 89.9963 69.9717 85.0091 60.1705C83.6711 57.6294 82.2115 55.0883 80.3869 52.5473ZM84.401 22.7805C88.0501 27.4997 87.4419 35.0018 82.8197 43.8351C81.7249 46.0131 80.3869 48.3122 78.8056 50.4902C77.5892 48.9172 76.3729 47.3442 74.9132 45.8921C73.3319 44.0771 71.5073 42.262 69.6828 40.447C68.7097 32.0978 66.8851 24.5956 64.2091 18.4244C73.3319 16.7304 80.7518 17.9404 84.401 22.7805ZM70.1693 44.1981C72.8454 46.8601 75.2781 49.7642 77.4676 52.5473C75.2781 55.3303 72.967 58.1134 70.1693 60.8965C70.4126 58.2344 70.5342 55.4514 70.5342 52.5473C70.4126 49.7642 70.291 46.9811 70.1693 44.1981ZM31.2451 70.6977C28.2042 68.3987 25.4065 66.0996 22.8521 63.5586C22.4872 60.0495 22.2439 56.2984 22.2439 52.5473C22.2439 48.7962 22.4872 45.0451 22.8521 41.536C25.5282 39.1159 28.3258 36.6959 31.2451 34.3968C35.8674 30.8877 40.4896 27.9837 45.1119 25.5636C49.7341 27.9837 54.3564 31.0087 58.9786 34.3968C62.0196 36.6959 64.8172 38.9949 67.3716 41.536C67.7366 45.0451 67.9798 48.7962 67.9798 52.5473C67.9798 56.2984 67.7366 60.0495 67.3716 63.5586C64.6956 65.9786 61.8979 68.3987 58.9786 70.6977C54.3564 74.2068 49.7341 77.1109 45.1119 79.531C40.4896 77.1109 35.8674 74.0858 31.2451 70.6977ZM42.5575 80.862C37.692 83.282 32.9481 84.9761 28.5691 86.0651C26.258 80.741 24.4334 74.3278 23.4603 67.1886C25.5282 69.0037 27.7176 70.8187 29.9071 72.5128C34.0428 75.7799 38.3002 78.5629 42.5575 80.862ZM67.0067 37.9059C64.9389 36.0909 62.7494 34.2758 60.5599 32.5818C56.3026 29.4357 52.0452 26.6526 47.9096 24.2326C52.7751 21.8125 57.519 20.1185 62.0196 19.0294C64.209 24.3536 65.912 30.7667 67.0067 37.9059ZM45.1119 3.42006C51.1938 3.42006 56.6675 8.50219 60.8032 16.7304C55.816 17.9404 50.5856 19.9975 45.1119 22.7805C39.6382 19.9975 34.4077 17.9404 29.4206 16.7304C33.5563 8.50219 39.1516 3.42006 45.1119 3.42006ZM28.4475 19.0294C31.3668 19.7555 34.4077 20.7235 37.5703 22.0545C39.1516 22.6595 40.8546 23.5066 42.4358 24.2326C38.1785 26.5316 33.9212 29.3147 29.7855 32.5818C27.4744 34.2758 25.4065 36.0909 23.3387 37.9059C24.3118 30.7667 26.1364 24.3536 28.4475 19.0294ZM7.4041 43.9561C2.78185 35.0018 2.17366 27.4997 5.8228 22.9015C8.49884 19.5135 12.9994 17.8194 18.7164 17.8194C21.0276 17.8194 23.4603 18.0614 26.0147 18.5454C23.3387 24.7166 21.5141 32.2188 20.541 40.568C17.1351 43.8351 14.0942 47.2231 11.5398 50.6112C9.9585 48.3122 8.62048 46.1341 7.4041 43.9561ZM20.1761 60.8965C17.5001 58.2344 15.0673 55.3303 12.8778 52.5473C15.0673 49.7642 17.3784 46.9811 20.1761 44.1981C19.9328 46.8601 19.8112 49.6432 19.8112 52.5473C19.8112 55.4514 19.9328 58.2344 20.1761 60.8965ZM5.8228 82.314C2.17366 77.5949 2.78185 70.0927 7.4041 61.1385C8.49884 58.9604 9.83686 56.7824 11.4182 54.4833C14.0942 57.8714 17.1351 61.2595 20.541 64.5266C21.5141 72.8758 23.3387 80.378 26.0147 86.5491C16.8919 88.4852 9.47194 87.1541 5.8228 82.314ZM45.1119 101.796C39.03 101.796 33.5563 96.7134 29.4206 88.4852C34.2861 87.2751 39.6382 85.2181 45.1119 82.435C50.5856 85.2181 55.816 87.2751 60.8032 88.4852C56.6675 96.5924 51.1938 101.796 45.1119 101.796ZM61.8979 86.0651C57.519 84.9761 52.7751 83.282 47.7879 80.862C52.0453 78.5629 56.3026 75.7799 60.4383 72.5128C62.7494 70.8187 64.8172 69.0037 66.8851 67.1886C65.912 74.3278 64.2091 80.741 61.8979 86.0651ZM84.401 82.314C80.7518 87.1541 73.3319 88.3642 64.2091 86.5491C66.8851 80.378 68.7097 72.8758 69.6828 64.5266C73.0886 61.2595 76.1296 57.8714 78.8056 54.4833C80.3869 56.6614 81.7249 58.9604 82.8197 61.1385C87.4419 70.2137 88.0501 77.7159 84.401 82.314Z" fill="url(#paint2_linear)" stroke="url(#paint3_linear)" stroke-miterlimit="10"/>
<defs>
<linearGradient id="paint0_linear" x1="45.1118" y1="40.3259" x2="45.1118" y2="69.6087" gradientUnits="userSpaceOnUse">
<stop stop-color="#F16122"/>
<stop offset="1" stop-color="#FEBD33"/>
</linearGradient>
<linearGradient id="paint1_linear" x1="45.1118" y1="40.3259" x2="45.1118" y2="69.6087" gradientUnits="userSpaceOnUse">
<stop stop-color="#F16122"/>
<stop offset="1" stop-color="#FEBD33"/>
</linearGradient>
<linearGradient id="paint2_linear" x1="45.1119" y1="1" x2="45.1119" y2="104.216" gradientUnits="userSpaceOnUse">
<stop stop-color="#F16122"/>
<stop offset="1" stop-color="#FEBD33"/>
</linearGradient>
<linearGradient id="paint3_linear" x1="45.1119" y1="1" x2="45.1119" y2="104.216" gradientUnits="userSpaceOnUse">
<stop stop-color="#F16122"/>
<stop offset="1" stop-color="#FEBD33"/>
</linearGradient>
</defs>
</svg>
