<?xml version="1.0" encoding="utf-8"?>
<!-- Generator: Adobe Illustrator 24.2.1, SVG Export Plug-In . SVG Version: 6.00 Build 0)  -->
<svg version="1.1" id="Layer_1" xmlns="http://www.w3.org/2000/svg" xmlns:xlink="http://www.w3.org/1999/xlink" x="0px" y="0px"
	 viewBox="0 0 109.56 75.16" style="enable-background:new 0 0 109.56 75.16;" xml:space="preserve">
<style type="text/css">
	.st0{fill:#FFFFFF;}
</style>
<g>
	<path class="st0" d="M62.26,0c0.1,0.1,0.25,0.1,0.4,0.1c0.6,0.1,1.2,0.25,1.8,0.35c0.3,0.05,0.3,0.05,0.3,0.35
		c-0.05,2.05-0.1,4.1-0.2,6.15c-0.05,1.3-0.05,2.55-0.1,3.85c0,0.1,0,0.2,0.05,0.3c0.1-0.1,0.1-0.2,0.15-0.3
		c1.15-3.05,2.35-6.1,3.5-9.15c0.2-0.45,0.05-0.45,0.6-0.35c0.55,0.1,1.05,0.2,1.6,0.3c0.25,0.05,0.25,0.05,0.25,0.3
		c0,1.1,0,2.2-0.05,3.3c0,2.3-0.05,4.65-0.05,6.95c0,0.05,0,0.05,0,0.1c0.1-0.05,0.1-0.15,0.15-0.25c1.1-3.1,2.2-6.2,3.3-9.35V2.6
		c0.1-0.3,0.1-0.3,0.4-0.25c0.7,0.15,1.35,0.25,2.05,0.4c0.3,0.05,0.3,0.05,0.2,0.3c-0.75,1.95-1.5,3.85-2.2,5.8
		c-1.2,3.1-2.35,6.2-3.55,9.3c0,0.05-0.05,0.1-0.05,0.15c-0.05,0.15-0.1,0.2-0.25,0.15c-0.65-0.15-1.3-0.25-1.95-0.4
		c-0.2-0.05-0.2-0.05-0.2-0.3c0-1.5,0-3,0-4.5c0-2,0-4.05,0-6.05c0-0.05,0-0.15,0-0.25c-0.15,0.1-0.15,0.25-0.2,0.35
		c-1.15,2.95-2.25,5.9-3.4,8.9c-0.1,0.3-0.25,0.6-0.35,0.9c-0.05,0.1-0.1,0.15-0.25,0.15c-0.65-0.15-1.35-0.25-2-0.4
		c-0.1,0-0.15-0.1-0.15-0.2c0-0.2,0-0.4,0-0.6c0-3.4,0-6.8,0-10.15c0-1.7,0-3.4,0-5.1c0-0.25,0-0.55,0.05-0.8
		C62.16,0,62.21,0,62.26,0z"/>
	<path class="st0" d="M0,50.35c0.1,0.05,0.25,0,0.35,0c0.65,0,1.3,0,1.9,0c0.25,0,0.25,0,0.25,0.25c0,0.05,0,0.15,0,0.2
		c0,1.3,0,2.65,0,3.95c0,0.1,0,0.15,0,0.25c0,0.1,0.05,0.15,0.15,0.15c0.05,0,0.15,0,0.2,0c1.2,0,2.4,0,3.6,0c0.05,0,0.1,0,0.15,0
		c0.1,0,0.2-0.05,0.2-0.15c0-0.1,0-0.15,0-0.25c0-1,0-2,0-3c0-0.3,0-0.3,0.3-0.3c0.65,0,1.25,0,1.9,0c0.3,0,0.3,0,0.3,0.35
		c0,1,0,2.05,0,3.05c0,0.3,0,0.3,0.3,0.3c1.4,0,2.85,0,4.25,0c0.25,0,0.3,0,0.3-0.3c0-1.5,0-2.95,0-4.45c0-0.35-0.05-0.35,0.35-0.35
		c0.6,0,1.25,0,1.85,0c0.3,0,0.3,0,0.3,0.3c0,2.45,0,4.95,0,7.4c0,0.25,0,0.25-0.3,0.25c-1.9,0-3.85,0-5.75,0c-3.4,0-6.8,0-10.15,0
		c-0.15,0-0.25,0-0.4,0C0,55.46,0,52.9,0,50.35z"/>
	<path class="st0" d="M109.56,38.9c-0.5,0.25-1,0.4-1.5,0.6c-0.2,0.1-0.4,0.15-0.6,0.25c-0.15,0.1-0.25,0.05-0.3-0.1
		c-0.2-0.6-0.45-1.15-0.7-1.7c-0.1-0.2-0.15-0.4-0.25-0.6c-0.1,0-0.2,0.05-0.3,0.05c-4.15,1.65-8.3,3.3-12.5,4.9
		c-0.05,0-0.1,0.05-0.15,0.05c-0.15,0.1-0.25,0-0.3-0.15c-0.3-0.75-0.55-1.45-0.85-2.15c-0.1-0.25-0.15-0.25,0.2-0.4
		c2-0.8,4.05-1.6,6.05-2.4c2.15-0.85,4.3-1.7,6.45-2.55h0.05c0.25-0.1,0.25-0.1,0.15-0.35c-0.25-0.65-0.5-1.3-0.75-1.95v-0.05
		c-0.1-0.3-0.1-0.3,0.2-0.4c0.55-0.25,1.15-0.45,1.7-0.7c0.3-0.1,0.3-0.15,0.4,0.15c0.55,1.35,1.05,2.7,1.6,4
		c0.45,1.1,0.85,2.25,1.3,3.35c0,0,0.05,0,0.05,0.05C109.56,38.85,109.56,38.9,109.56,38.9z"/>
	<path class="st0" d="M8.6,40.65c0.1,0.1,0.25,0.1,0.35,0.15c3,1.05,6,2.15,9,3.2H18c0.25,0.1,0.25,0.1,0.15,0.35
		c-0.2,0.65-0.45,1.25-0.65,1.9c-0.1,0.25-0.1,0.25-0.35,0.2c-1.45-0.5-2.9-1.05-4.35-1.55c-3.55-1.25-7.05-2.5-10.6-3.75
		c-0.05,0-0.1-0.05-0.1-0.05C1.85,41,1.85,41,1.95,40.75c0.2-0.65,0.45-1.25,0.65-1.9c0.1-0.35,0.1-0.35,0.5-0.35c0.65,0,1.35,0,2,0
		c1.8,0,3.65,0,5.45-0.05c0.65,0,1.3,0,1.95-0.05c0.05,0,0.1,0,0.2,0c-0.1-0.1-0.2-0.1-0.3-0.15c-2.7-0.95-5.45-1.95-8.15-2.9
		c-0.4-0.15-0.4-0.1-0.25-0.5c0.2-0.6,0.4-1.2,0.65-1.75c0.1-0.3,0.1-0.3,0.4-0.2c2.1,0.75,4.2,1.5,6.25,2.25
		c2.9,1.05,5.8,2.05,8.7,3.1c0.4,0.15,0.3,0.15,0.2,0.45c-0.2,0.6-0.4,1.2-0.65,1.75c-0.05,0.15-0.1,0.25-0.3,0.25
		c-2.1,0-4.15-0.05-6.25-0.05C11.55,40.65,10.1,40.65,8.6,40.65z"/>
	<path class="st0" d="M9.45,24.3C9.6,24.1,9.8,23.85,10,23.6c0.35-0.45,0.7-0.85,1.05-1.3c0.2-0.25,0.2-0.25,0.4-0.05
		c1.65,1.3,3.35,2.65,5,3.95c1.5,1.2,3,2.35,4.5,3.55c0.25,0.2,0.5,0.4,0.8,0.5c0.55,0.25,1.05,0.15,1.45-0.3
		c0.75-0.75,0.75-1.5,0-2.25c-0.45-0.45-1-0.8-1.5-1.25c-2.75-2.2-5.5-4.35-8.3-6.55l-0.05-0.05c-0.25-0.2-0.3-0.15-0.05-0.45
		c0.45-0.6,0.95-1.15,1.4-1.75c0.2-0.25,0.2-0.25,0.4-0.05c1.55,1.25,3.1,2.45,4.65,3.7c1.65,1.3,3.25,2.6,4.9,3.85
		c0.7,0.55,1.25,1.2,1.6,2.05c0.35,0.9,0.3,1.8-0.1,2.65c-0.5,1.2-1.3,2.15-2.4,2.75c-1.1,0.6-2.25,0.55-3.35,0.05
		c-0.45-0.2-0.85-0.45-1.2-0.75c-3.15-2.5-6.3-5-9.45-7.5C9.6,24.45,9.5,24.4,9.45,24.3z"/>
	<path class="st0" d="M3.15,75.16c-0.15-0.9-0.35-1.8-0.5-2.65c-0.05-0.15,0.05-0.2,0.2-0.25c0.75-0.3,1.5-0.65,2.25-0.95
		c2.65-1.15,5.3-2.3,7.95-3.45c0.05,0,0.1-0.05,0.2-0.15c-0.1,0-0.2,0-0.3,0c-2.15,0.1-4.35,0.15-6.5,0.25
		c-0.9,0.05-1.75,0.05-2.65,0.1c-0.6,0-1.25,0.05-1.85,0.05c-0.25,0-0.25,0-0.3-0.25c-0.2-0.8-0.35-1.6-0.55-2.45
		c0.15-0.1,0.25-0.05,0.35-0.05c3.2-0.05,6.45-0.05,9.65-0.1c2.2-0.05,4.4-0.05,6.6-0.05c0.05,0,0.1,0,0.15,0
		c0.15,0,0.2,0.05,0.25,0.2c0.1,0.55,0.25,1.1,0.35,1.7c0.05,0.2,0.1,0.4,0.15,0.55c0.05,0.35,0.05,0.35-0.25,0.5
		c-0.55,0.25-1.1,0.5-1.7,0.8c-4.35,2.05-8.7,4.1-13.05,6.1C3.4,75.11,3.3,75.16,3.15,75.16z"/>
	<path class="st0" d="M28,15.15c0.5-0.35,1-0.65,1.5-1c0.45-0.3,0.9-0.6,1.3-0.9c0.2-0.15,0.2-0.15,0.35,0.1
		c0.35,0.55,0.7,1.1,1.1,1.6c0.15,0.25,0.15,0.2-0.1,0.4c-0.5,0.3-0.95,0.65-1.45,0.95c-0.4,0.25-0.8,0.55-1.2,0.8
		c-0.2,0.15-0.2,0.15-0.05,0.3c0.8,1.2,1.6,2.4,2.4,3.6C32,21.2,32,21.2,32.2,21.05c1.25-0.85,2.5-1.65,3.75-2.5
		c0.05-0.05,0.1-0.05,0.15-0.1c0.1-0.05,0.15-0.05,0.2,0.05c0.4,0.65,0.85,1.3,1.25,1.9c-0.05,0.1-0.15,0.15-0.25,0.2
		c-2,1.35-4.05,2.7-6.05,4.05c-0.3,0.2-0.25,0.25-0.45-0.1c-0.6-0.95-1.25-1.85-1.9-2.8c-2.3-3.45-4.6-6.9-6.9-10.35
		c-0.25-0.35-0.25-0.3,0.1-0.55c1.9-1.25,3.8-2.55,5.75-3.8C27.9,7.05,27.9,7,27.95,7c0.2-0.15,0.2-0.15,0.35,0.05
		c0.35,0.55,0.75,1.1,1.1,1.65c0.15,0.2,0.15,0.2-0.1,0.35c-1.15,0.75-2.25,1.5-3.4,2.25c-0.05,0.05-0.15,0.1-0.2,0.15
		c-0.15,0.05-0.1,0.15-0.05,0.25c0.75,1.1,1.45,2.2,2.2,3.3C27.95,15.1,27.95,15.1,28,15.15z"/>
	<path class="st0" d="M85.01,7.65c2.1,1.45,4.15,2.9,6.2,4.35c0,0.1-0.1,0.2-0.15,0.25c-0.35,0.5-0.7,1.05-1.1,1.55
		c-0.2,0.3-0.2,0.25-0.45,0.1c-0.65-0.45-1.3-0.9-1.9-1.35c-0.5-0.35-1.05-0.7-1.55-1.1c-0.2-0.15-0.2-0.15-0.3,0.05
		c-0.75,1.05-1.45,2.05-2.2,3.1c-0.1,0.2-0.1,0.2,0.05,0.3c0.8,0.6,1.65,1.15,2.45,1.75c0.05,0,0.05,0.05,0.1,0.05
		c0.2,0.15,0.2,0.15,0.1,0.35c-0.05,0.1-0.1,0.2-0.2,0.25c-0.3,0.45-0.65,0.9-0.95,1.4c-0.1,0.15-0.15,0.15-0.3,0.05
		c-0.7-0.5-1.4-1-2.1-1.45c-0.2-0.1-0.35-0.25-0.55-0.35c-0.2-0.15-0.2-0.15-0.3,0.05c-0.5,0.7-1,1.4-1.5,2.15
		c-0.35,0.45-0.65,0.95-1,1.4c-0.2,0.25-0.15,0.25,0.1,0.4c1.2,0.85,2.4,1.65,3.6,2.5c0.1,0.05,0.2,0.15,0.3,0.2
		c0.05,0.1-0.05,0.15-0.05,0.2c-0.4,0.55-0.8,1.1-1.15,1.7c-0.15,0.2-0.15,0.2-0.35,0.05c-1.45-1-2.85-2-4.3-3
		c-0.6-0.4-1.15-0.8-1.75-1.25c-0.3-0.2-0.25-0.15-0.1-0.45c1.25-1.75,2.45-3.55,3.7-5.3c1.8-2.55,3.6-5.15,5.4-7.7
		C84.86,7.85,84.91,7.8,85.01,7.65z"/>
	<path class="st0" d="M89.76,27.1c-0.15,0.15-0.3,0.3-0.4,0.45c-0.25,0.3-0.5,0.6-0.65,0.95c-0.4,0.95,0.2,2,1.2,2.2
		c0.35,0.05,0.7-0.05,1-0.25c0.5-0.35,0.85-0.85,1.05-1.4c0.2-0.6,0.3-1.25,0.3-1.9c0.05-0.85,0.05-1.75,0.15-2.6
		c0.05-0.6,0.15-1.15,0.35-1.7c0.5-1.55,1.55-2.6,3.05-3.25c0.95-0.4,1.95-0.35,2.85,0.1c1,0.5,1.8,1.3,2.3,2.3
		c0.45,0.85,0.5,1.75,0.2,2.65c-0.25,0.8-0.7,1.45-1.25,2.05c-0.1,0.1-0.2,0.1-0.3,0c-0.55-0.55-1.1-1.15-1.65-1.7
		c-0.1-0.1-0.1-0.15,0-0.25c0.2-0.2,0.4-0.45,0.5-0.7c0.3-0.6,0.2-1.2-0.3-1.7c-0.4-0.4-0.85-0.5-1.4-0.25
		c-0.6,0.25-1,0.65-1.25,1.2s-0.35,1.2-0.4,1.8c-0.05,0.8-0.1,1.65-0.15,2.45c-0.05,0.9-0.2,1.75-0.5,2.6
		c-0.65,1.6-1.8,2.65-3.5,3.1c-0.75,0.2-1.5,0.1-2.2-0.25c-1.25-0.6-2.15-1.5-2.65-2.8c-0.3-0.8-0.3-1.65-0.05-2.45
		c0.3-0.95,0.85-1.75,1.55-2.4c0.1-0.1,0.15-0.15,0.25-0.05C88.51,25.9,89.11,26.5,89.76,27.1z"/>
	<path class="st0" d="M43.75,18.3c-1.35,0-2.2-0.35-2.95-1c-0.7-0.6-1.15-1.35-1.5-2.2c-0.05-0.15-0.05-0.2,0.1-0.25
		c0.7-0.3,1.45-0.65,2.15-1c0.15-0.05,0.2-0.05,0.25,0.1c0.05,0.2,0.15,0.4,0.25,0.55c0.1,0.25,0.3,0.45,0.45,0.65
		c0.8,0.9,1.7,0.65,2.35,0.05c0.35-0.3,0.5-0.75,0.4-1.2c-0.15-0.75-0.55-1.3-1.1-1.75c-0.45-0.35-0.95-0.6-1.5-0.85
		c-0.8-0.35-1.65-0.7-2.4-1.1c-0.8-0.4-1.5-0.9-2.1-1.6c-0.85-1.05-1.25-2.25-1.2-3.55C37,4.3,37.3,3.55,37.9,2.95
		C38.85,2,40.05,1.5,41.35,1.5c0.85-0.05,1.65,0.3,2.3,0.85c0.6,0.5,1.05,1.15,1.4,1.9c0.05,0.15,0.05,0.2-0.1,0.25
		c-0.7,0.3-1.45,0.6-2.15,0.9c-0.15,0.05-0.2,0-0.25-0.1c-0.15-0.3-0.3-0.6-0.6-0.85c-0.5-0.4-1-0.45-1.6-0.2
		C39.8,4.5,39.6,4.95,39.6,5.5c0.05,0.55,0.2,1,0.6,1.4c0.25,0.3,0.6,0.55,0.95,0.75C41.7,8,42.3,8.25,42.9,8.5
		c0.75,0.35,1.55,0.65,2.25,1.1c0.55,0.35,1.1,0.7,1.5,1.2c0.85,0.95,1.25,2.05,1.3,3.3c0,1.1-0.4,2.1-1.25,2.85
		C45.8,17.85,44.7,18.3,43.75,18.3z"/>
</g>
</svg>
