<?xml version="1.0" encoding="utf-8"?>
<!-- Generator: Adobe Illustrator 24.2.1, SVG Export Plug-In . SVG Version: 6.00 Build 0)  -->
<svg version="1.1" id="Layer_1" xmlns="http://www.w3.org/2000/svg" xmlns:xlink="http://www.w3.org/1999/xlink" x="0px" y="0px"
	 viewBox="0 0 77.41 69.86" style="enable-background:new 0 0 77.41 69.86;" xml:space="preserve">
<style type="text/css">
	.st0{fill:#FFFFFF;}
</style>
<g>
	<path class="st0" d="M77.26,44.1c-0.45,0.1-0.85,0.3-1.25,0.45c-2.35,0.85-4.7,1.7-7.05,2.55c-1.7,0.6-3.4,1.25-5.1,1.85
		c-3,1.1-6.05,2.2-9.05,3.3c-2.5,0.9-5,1.8-7.45,2.75c-1.75,0.65-3.55,1.3-5.3,1.95c-2.45,0.9-4.95,1.8-7.4,2.7
		c-2.25,0.8-4.45,1.6-6.7,2.45c-3.1,1.15-6.2,2.25-9.3,3.4c-3.1,1.15-6.25,2.25-9.35,3.4c-0.8,0.3-1.55,0.55-2.35,0.85
		c-0.05,0-0.1,0.05-0.15,0.1c-2.2,0-4.4,0-6.6,0c0-23.15,0-46.3,0-69.41c0-0.25,0.05-0.3,0.3-0.3c25.65,0,51.26,0,76.91,0
		C77.26,14.75,77.26,29.45,77.26,44.1z M38.65,1.65c-12.2,0-24.4,0-36.65,0C1.6,1.65,1.6,1.6,1.6,2c0,21.7,0,43.4,0,65.16
		c0,0.25,0,0.5,0,0.8c0,0.2,0.05,0.25,0.25,0.25c1.4,0,2.8,0,4.25,0c0.1,0,0.25,0,0.35-0.05c2.45-0.9,4.95-1.8,7.4-2.7
		c2.65-0.95,5.3-1.95,7.95-2.9c2.95-1.05,5.85-2.15,8.8-3.2c2.15-0.8,4.3-1.55,6.5-2.35c2.5-0.9,5-1.8,7.45-2.75
		c2.65-0.95,5.35-1.95,8-2.9c1.7-0.6,3.35-1.2,5.05-1.85c2.05-0.75,4.15-1.5,6.2-2.25s4.05-1.5,6.1-2.25
		c1.75-0.65,3.45-1.25,5.2-1.9c0.5-0.2,0.5-0.2,0.5-0.75c0-13.45,0-26.85,0-40.3c0-0.45,0-0.45-0.45-0.45
		C63.06,1.65,50.85,1.65,38.65,1.65z"/>
	<path class="st0" d="M77.26,0.1c-25.65,0-51.26,0-76.91,0c-0.25,0-0.3,0.05-0.3,0.3c0,23.15,0,46.3,0,69.41
		c0,0-0.05,0.05-0.05-0.05c0-0.05,0-0.15,0-0.2c0-23.1,0-46.2,0-69.31C0,0.05,0.05,0,0.25,0c25.6,0,51.21,0,76.81,0
		C77.11,0.05,77.21,0,77.26,0.1z"/>
	<path class="st0" d="M33.3,22.2c0-0.95,0-1.9,0-2.9c0-1.1,0.3-2.1,1.1-2.95c0.55-0.6,1.2-0.9,2-1c1.15-0.15,2.35-0.15,3.5,0
		c1.75,0.25,2.85,1.3,3.2,2.85c0.25,1,0.2,1.95,0.2,2.95c0,0.1-0.05,0.15-0.15,0.2c-1.75,0.65-3.5,1.25-5.2,1.9
		c-0.3,0.1-0.55,0.2-0.85,0.3c-0.1,0.05-0.15,0.05-0.15,0.15c0,0.45,0,0.85,0.1,1.25c0.2,0.7,0.7,1.05,1.5,1.05
		c0.95,0.05,1.9-0.1,2.85-0.1c0.4,0,0.8-0.05,1.15-0.1c0.15,0,0.2,0.05,0.2,0.2c0,0.95,0,1.85,0,2.8c0,0.1-0.05,0.15-0.15,0.15
		c-0.55,0.1-1.1,0.2-1.7,0.2c-1.3,0.05-2.6,0.15-3.9,0.05c-0.85-0.05-1.7-0.25-2.4-0.8c-0.8-0.6-1.1-1.45-1.25-2.4
		c-0.2-1.1-0.1-2.25-0.1-3.4C33.25,22.5,33.3,22.35,33.3,22.2z M36.95,20.8c0.05,0,0.1,0,0.15-0.05c0.8-0.3,1.6-0.55,2.4-0.85
		c0.5-0.2,0.45-0.05,0.35-0.6c-0.1-0.7-0.3-0.95-1.05-1c-0.15,0-0.35,0-0.5,0c-0.7,0-1.15,0.4-1.3,1.1
		C36.9,19.85,36.95,20.3,36.95,20.8z"/>
	<path class="st0" d="M25.9,24.75c0.15-0.55,0.3-1.05,0.45-1.6c0.4-1.45,0.75-2.85,1.15-4.3c0.15-0.6,0.25-1.2,0.25-1.85
		c0-0.45,0-0.9,0-1.35c0-0.15,0.05-0.2,0.2-0.2c1.15,0,2.3,0,3.45,0c0.15,0,0.2,0.05,0.2,0.2c0,0.7,0.05,1.45,0,2.15
		c-0.05,0.4-0.2,0.75-0.3,1.15c-0.6,2.05-1.2,4.15-1.8,6.2c-0.4,1.3-0.75,2.6-1.1,3.9c-0.05,0.15-0.1,0.2-0.25,0.2
		c-1.5,0-2.95,0-4.45,0c-0.15,0-0.2-0.05-0.25-0.2c-1-3.55-2.05-7.1-3.05-10.65c-0.1-0.4-0.15-0.8-0.15-1.25c0-0.5,0-1,0-1.5
		c0-0.2,0.05-0.25,0.25-0.25c1.15,0,2.25,0,3.4,0c0.15,0,0.2,0.05,0.2,0.2c0,0.45,0,0.9,0,1.35c-0.05,0.7,0.1,1.4,0.3,2.05
		c0.5,1.8,1,3.65,1.5,5.45c0,0.05,0.05,0.15,0.05,0.2C25.85,24.75,25.9,24.75,25.9,24.75z"/>
	<path class="st0" d="M64.01,29.25c-0.85,0-1.7,0-2.6,0c-0.2,0-0.25-0.05-0.25-0.25c0-1.05,0-2.1,0-3.15c0-0.2,0.05-0.3,0.25-0.3
		c0.75,0,1.55,0,2.3,0c0.15,0,0.25,0.05,0.25,0.25c0,0.45,0,0.45,0.45,0.45c0.65,0,1.3,0,1.95-0.2c0.2-0.1,0.4-0.2,0.55-0.35
		c0.35-0.45,0.2-0.9-0.3-1.2c-0.9-0.55-1.85-0.95-2.8-1.4c-0.95-0.45-1.75-1.05-2.2-2c-0.7-1.3-0.6-2.65,0.25-3.9
		c0.75-1.1,1.85-1.7,3.15-1.85c1.6-0.2,3.2-0.05,4.8,0.1c0.2,0,0.25,0.1,0.25,0.3c0,0.95,0,1.9,0,2.9c0,0.2-0.05,0.25-0.25,0.25
		c-0.75,0-1.45,0-2.2,0c-0.2,0-0.25-0.05-0.25-0.25c0-0.05,0-0.1,0-0.15c0-0.2-0.05-0.25-0.25-0.25c-0.5,0-1.05-0.05-1.55,0.15
		c-0.4,0.15-0.6,0.45-0.6,0.85c-0.05,0.45,0.1,0.75,0.5,0.95c1,0.55,2.05,1,3.05,1.5c0.8,0.4,1.5,0.9,1.95,1.7
		c0.6,1.05,0.55,2.15,0.1,3.2c-0.6,1.5-1.8,2.25-3.35,2.5C66.16,29.35,65.06,29.3,64.01,29.25z"/>
	<path class="st0" d="M48.75,16.5c0.8-0.3,1.55-0.55,2.3-0.85c0.6-0.2,1.2-0.35,1.85-0.2c0.15,0.05,0.2,0.1,0.2,0.25
		c0,1,0,1.95,0,2.95c0,0.2-0.1,0.2-0.25,0.2c-1.25,0-2.5,0-3.8,0c-0.25,0-0.3,0.05-0.3,0.3c0,3.25,0,6.5,0,9.75
		c0,0.3,0,0.3-0.35,0.3c-1.05,0-2.05,0-3.1,0c-0.2,0-0.25-0.05-0.25-0.25c0-4.45,0-8.85,0-13.3c0-0.2,0.05-0.3,0.25-0.3
		c1.05,0,2.1,0,3.15,0c0.2,0,0.25,0.05,0.25,0.25C48.7,15.95,48.75,16.2,48.75,16.5z"/>
	<path class="st0" d="M59.3,22.4c0,2.25,0,4.45,0,6.7c0,0.15-0.05,0.2-0.2,0.2c-1.1,0-2.2,0-3.3,0c-0.2,0-0.2-0.1-0.2-0.25
		c0-3.25,0-6.55,0-9.8c0-0.45,0-0.35-0.35-0.35c-0.05,0-0.1,0-0.2,0c-0.15,0.05-0.25-0.05-0.25-0.2c0-1,0-2,0-3
		c0-0.2,0.05-0.25,0.25-0.25c1.3,0,2.65,0,3.95,0c0.2,0,0.25,0.05,0.25,0.25C59.3,17.9,59.3,20.15,59.3,22.4z"/>
	<path class="st0" d="M57.46,10.6c0.55,0,1.1,0,1.65,0c0.15,0,0.2,0.05,0.2,0.2c0,0.6,0,1.2,0,1.8c0,0.1-0.05,0.15-0.15,0.2
		c-1.05,0.4-2.1,0.75-3.15,1.15c-0.35,0.1-0.4,0.05-0.4-0.3c0-0.95,0-1.85,0-2.8c0-0.2,0.05-0.25,0.25-0.25
		C56.4,10.6,56.9,10.6,57.46,10.6z"/>
</g>
</svg>
