<?xml version="1.0" encoding="utf-8"?>
<!-- Generator: Adobe Illustrator 24.1.0, SVG Export Plug-In . SVG Version: 6.00 Build 0)  -->
<svg version="1.1" id="Layer_1" xmlns="http://www.w3.org/2000/svg" xmlns:xlink="http://www.w3.org/1999/xlink" x="0px" y="0px"
	 viewBox="0 0 123.1 41.5" style="enable-background:new 0 0 123.1 41.5;" xml:space="preserve">
<style type="text/css">
	.st0{fill:#FFFFFF;}
</style>
<g>
	<path class="st0" d="M13.1,0c0,0.2,0.1,0.3,0.2,0.4c1.4,2.7,2.8,5.3,4.1,8c1.1,2.2,2.2,4.3,3.3,6.4c1.3,2.4,2.5,4.8,3.7,7.2
		c0.9,1.7,1.5,3.4,1.7,5.2c0,0.1,0,0.2,0,0.4c0,0.1,0,0.2,0,0.4c0.1,0.5,0.1,1,0,1.5c0,0.1,0,0.2,0,0.4c0,0.1,0,0.3,0,0.4
		c-0.3,1.6-0.7,3.2-1.5,4.6c-0.9,1.7-2.1,3.1-3.6,4.3c-1.4,1.1-3,1.8-4.7,2.3c-0.6,0.2-1.1,0.2-1.7,0.3c-0.1,0.1-0.2,0-0.4,0.1
		c-0.1,0-0.2,0-0.3,0c-0.2,0-0.4,0-0.6,0c-0.3,0-0.6,0-1,0c-0.1,0-0.3,0-0.4,0c-0.9-0.1-1.8-0.2-2.6-0.5c-1-0.3-2-0.7-2.9-1.2
		c-1.1-0.6-2-1.3-2.9-2.2c-1.1-1.1-2-2.4-2.6-3.8c-1.5-3.3-1.5-6.6-0.2-10c0.8-2.2,1.9-4.1,3-6.2c0.9-1.7,1.7-3.3,2.6-5
		c0.1-0.1,0.1-0.2,0.2-0.3c0.2,0.3,0.4,0.6,0.5,0.9c0.4,0.7,0.7,1.3,1,2c0.1,0.2,0.1,0.4,0,0.6c-1.5,2.8-2.9,5.6-4.3,8.4
		c-1,1.9-1.6,3.9-1.6,6.1c0.1,2.4,0.9,4.5,2.4,6.3c2.9,3.4,6.5,4.7,10.8,3.8c4.3-0.9,7.5-4.2,8.4-8.6c0.4-2.1,0-4.1-0.8-6.1
		c-0.5-1.4-1.2-2.6-1.9-3.9C18,15.9,14.8,9.7,11.6,3.6c-0.1-0.3-0.1-0.5,0-0.7c0.5-1,1-1.9,1.5-2.9C13,0,13,0,13.1,0z"/>
	<path class="st0" d="M119.2,36.9c0,0,0-0.1,0-0.2c0.3-0.1,0.3-0.4,0.3-0.7c0-0.9,0-1.8,0-2.6c0-0.2-0.1-0.3-0.2-0.4
		c-0.1,0-0.2-0.1-0.1-0.3c0.4,0,0.8,0,1.1,0c0.6,1,1.2,1.9,1.9,2.8c0.1,0,0.1-0.2,0.1-0.2c-0.1-0.7,0-1.4-0.1-2.1
		c0-0.2-0.2-0.2-0.3-0.3c-0.1-0.2,0-0.3,0.2-0.3c0.2,0,0.6,0,0.8,0c0,0.1,0,0.2,0,0.3c-0.2,0.1-0.4,0.1-0.4,0.3c0,0.5,0,1.1,0,1.7
		c0,0.6,0,1.1,0,1.7c0,0.3,0,0.3-0.3,0.2c-0.8-1.2-1.5-2.4-2.3-3.5c-0.1,0-0.1,0-0.1,0c0,0.9,0,1.9,0,2.8c0,0.2,0,0.4,0.2,0.5
		c0.1,0,0.2,0.1,0.2,0.2C119.9,36.9,119.6,37,119.2,36.9z"/>
	<path class="st0" d="M123,29.3c-1.4,0-2.8,0-4.2,0c-0.1,0-0.2,0-0.3-0.1c0.1-0.1,0.2-0.1,0.3-0.1c1.3,0,2.7,0,3.9,0
		c0.1,0,0.2,0,0.2,0c0,0,0,0,0.1,0C123,29.3,123,29.3,123,29.3z"/>
	<path class="st0" d="M123,32.7c-0.2,0-0.6,0-0.8,0S122,32.8,122,33c-0.2-0.2-0.1-0.3,0.2-0.3C122.5,32.7,122.8,32.7,123,32.7
		C123,32.7,123,32.7,123,32.7z"/>
	<path class="st0" d="M123,29.3L123,29.3c-0.2-0.2-0.2-0.5-0.1-0.8h0.1C123,28.8,123,29,123,29.3z"/>
	<path class="st0" d="M49.9,10c-0.1-0.3-0.3-0.4-0.6-0.4c-0.2,0-0.4-0.1-0.5-0.1c-0.2-0.1-0.4-0.2-0.4-0.5c0-0.2,0-0.5,0-0.7
		c0-0.1,0.1-0.1,0.2-0.1c1.5,0,3,0,4.5,0c0,0,0.2,0,0.2,0.1c0,0.1,0,0.2,0,0.3c0,0.6,0,0.9-0.7,1c-0.4,0.1-0.7,0.5-0.9,0.9
		c-0.5,0.9-0.7,1.9-1.1,2.8c-0.9,2.8-1.8,5.5-2.7,8.2c-0.9,2.7-1.7,5.3-2.6,8c0,0.1,0,0.1-0.1,0.2c0,0,0,0,0,0
		c-0.5,0.1-0.8,0.1-1.3,0c-0.5-1.5-1.1-3-1.5-4.6c-0.8-2.5-1.7-5-2.5-7.5c-0.1-0.6-0.4-1.1-0.6-1.6c-0.2,0.5-0.3,0.9-0.5,1.4
		c-1.4,4.1-2.7,8.2-4.1,12.3v0.1c-0.4,0.1-0.8,0-1.2,0c0,0-0.1,0-0.1-0.1c-0.2-0.8-0.5-1.6-0.8-2.5c-0.7-2.1-1.4-4.3-2.1-6.4
		c-0.4-1.3-0.8-2.5-1.2-3.7c-0.4-1.3-0.8-2.5-1.2-3.7c-0.3-0.9-0.6-1.8-0.9-2.7c-0.2-0.6-0.5-1.1-1.3-1.2c-0.2-0.1-0.2-0.2-0.2-0.4
		c-0.1-0.8-0.1-0.8,0.7-0.8c1.8,0,3.5,0,5.2,0c0.4,0,0.4,0,0.4,0.4c0,0.2,0,0.3,0,0.5c-0.1,0.3-0.4,0.4-0.7,0.4
		c-1,0.1-1.1,0.6-0.8,1.4c0.9,2.8,1.9,5.6,2.8,8.4c0.5,1.5,1,2.9,1.5,4.3c0,0.1,0,0.2,0.2,0.2c0.1,0,0.1-0.1,0.1-0.2
		c1-3,2-5.9,3-8.9c0.1-0.3,0.2-0.8,0.3-1.1c0.2-0.4,0.2-0.7,0-1c-0.2-0.7-0.5-1.4-0.7-2.1c-0.2-0.6-0.6-1-1.3-1.1
		c-0.3-0.1-0.4-0.2-0.4-0.5c0-0.3,0-0.5,0-0.8c0.1-0.1,0.2-0.1,0.2-0.1c2,0,4,0,5.9,0c0,0,0.2,0,0.2,0.1c0,0.2,0,0.4,0,0.6
		c0,0.4-0.2,0.6-0.6,0.7c-0.2,0.1-0.4,0.1-0.6,0.2c-0.5,0.1-0.6,0.5-0.5,1.1c0.4,1.1,0.7,2.2,1.1,3.4c1.1,3.2,2.1,6.4,3.2,9.6
		c0,0.2,0,0.4,0.2,0.6c0.4-1.3,0.8-2.5,1.2-3.7c0.5-1.6,1-3.2,1.5-4.7c0.5-1.6,1.1-3.2,1.6-4.8c0-0.2,0.1-0.4,0.1-0.7
		C50,10.3,50,10.2,49.9,10z"/>
	<path class="st0" d="M123,28.5c0,0.2,0,0.5,0,0.8c-1.5,0-3,0-4.4,0c-0.6-1-1.2-2-1.8-2.9c-0.7-1.1-1.2-2.2-1.9-3.2
		c-0.5-0.9-1-1.8-1.6-2.6c-0.4-0.6-0.8-1.1-1.6-1.3c-0.2-0.1-0.3-0.1-0.5-0.1c-0.2,0-0.4,0-0.6,0c-0.3,0-0.7,0-1.1,0
		c0,0.1,0,0.1,0,0.2c0,2.5,0,5,0,7.5c0,0.1,0,0.2,0,0.3c0,0.6,0.4,1,1,1c0.4,0,0.7,0.2,0.7,0.7c0,0.1,0,0.3,0,0.5
		c-0.1,0.1-0.2,0-0.2,0c-2,0-4,0-6,0c0,0-0.2,0-0.2,0c0-0.2,0-0.5,0-0.7c0-0.3,0.2-0.4,0.4-0.4c0.1,0,0.2-0.1,0.3-0.1
		c0.6,0,0.9-0.4,1-0.9c0-0.2,0-0.5,0-0.8c0-5.1,0-10.2,0-15.3c0-0.3,0-0.5,0-0.8c-0.2-0.7-0.4-0.8-1.1-0.9c-0.2-0.1-0.4-0.1-0.4-0.4
		c-0.1-0.8-0.1-0.8,0.7-0.8c2.8,0,5.6,0,8.4,0c0.1,0,0.2,0,0.3,0c0.2,0,0.4,0,0.6,0c0.1,0.1,0.2,0,0.3,0.1c0.9,0.2,1.9,0.4,2.8,0.9
		c1.4,0.8,2.3,1.9,2.5,3.5c0.1,0.1,0,0.3,0.1,0.4c0,0.2,0,0.4,0,0.5c-0.1,0.2,0,0.3-0.1,0.4c-0.1,0.9-0.4,1.6-0.9,2.3
		c-0.7,0.9-1.6,1.5-2.6,1.8c-0.6,0.2-1.2,0.4-1.8,0.5c-0.1,0-0.2,0-0.3,0c-0.2,0-0.3,0-0.4,0c0.4,0.2,0.9,0.2,1.3,0.6
		c0.6,0.4,0.8,1,1.2,1.5c1.2,2,2.5,4.1,3.8,6.1c0.4,0.7,1,1.3,1.9,1.4C122.8,28.1,122.9,28.3,123,28.5z"/>
	<path class="st0" d="M10.9,4.3C11,4.3,11,4.4,11,4.5c3.3,6.4,6.6,12.7,9.9,19c0.7,1.3,1.2,2.7,1.4,4.2c0.2,1.9-0.1,3.6-1.1,5.2
		c-1.8,3.2-4.6,4.8-8.3,4.9c-4.5,0-8.4-3.4-9.1-7.8c-0.3-1.9,0.1-3.6,0.8-5.3c0.8-1.9,1.8-3.6,2.7-5.3c0.5-0.9,0.9-1.8,1.4-2.8
		c0.4,0.8,0.8,1.6,1.2,2.3c0.4,0.7,0.4,1.2,0,1.9c-1.1,1.9-2.1,3.9-3,5.8c-0.5,1-0.8,2.1-0.9,3.2C6,32.5,7.2,34.6,9.6,36
		c3.5,2.1,8.1,0.6,9.8-3c0.9-1.8,0.8-3.7,0.1-5.6c-0.5-1.5-1.4-2.9-2.1-4.2C14.7,18,12,12.9,9.3,7.7c-0.1-0.2-0.1-0.4,0-0.6
		c0.5-0.9,0.9-1.7,1.4-2.6C10.8,4.4,10.8,4.3,10.9,4.3z"/>
	<path class="st0" d="M88.9,10.5c0-0.4-0.2-0.8-0.6-0.9c-0.2-0.1-0.3-0.1-0.5-0.1c-0.3,0-0.5-0.2-0.5-0.5c-0.1-0.3-0.1-0.5,0-0.7
		c0.1-0.1,0.2-0.1,0.4-0.1c4,0,8,0,11.9,0c0.1,0,0.2,0.1,0.3-0.1c0.5,0,0.9-0.2,1.3-0.4c0.1,0.1,0,0.1,0,0.2c0,1.6,0,3.3,0,4.9
		c0,0.1,0,0.1,0,0.1c-0.2,0-0.4,0-0.6,0c-0.6,0.1-0.9-0.3-1.1-0.9c-0.2-0.6-0.4-1.2-0.9-1.7c-0.4-0.4-0.9-0.6-1.4-0.7
		c-0.2,0-0.2-0.1-0.4-0.1c-0.2,0-0.3,0-0.4,0c-1.5,0-3,0-4.5,0c-0.1,0-0.2,0-0.2,0.2c0,2.6,0,5.2,0,7.8v0c0.4,0.1,0.9,0.1,1.4,0.1
		c0.4,0,0.8,0,1.1,0c0.5,0,0.9-0.1,1.3-0.2c0.4-0.2,0.6-0.6,0.7-1c0.2-0.7,0.8-1,1.4-0.8c0.1,0.1,0.1,0.1,0.1,0.2c0,1.7,0,3.4,0,5.1
		c0,0.1,0,0.2-0.2,0.2c-0.1,0-0.1,0-0.2,0c-1,0-1.2,0-1.5-1.1c-0.2-0.6-0.6-0.9-1.1-1c-0.2,0-0.5-0.1-0.7,0c-0.8-0.1-1.6-0.1-2.3,0
		c0,0.1,0,0.2,0,0.3c0,2.8,0,5.5,0,8.3c0,0.2,0.1,0.3,0.3,0.3c1.7,0,3.5,0,5.2,0c0.2-0.1,0.3,0,0.4-0.1c1.1,0,2-0.4,2.5-1.3
		c0.3-0.5,0.3-1.1,0.5-1.6c0.1-0.2,0.1-0.4,0.2-0.6c0.2-0.4,0.4-0.6,0.8-0.6c0.2,0,0.5,0,0.7,0c0,1.8,0,3.6,0,5.5
		c-0.1,0-0.2,0-0.3,0c-4.9,0-9.9,0-14.8,0c-0.1,0-0.2,0.1-0.3,0c0-0.2,0-0.4,0-0.6c0-0.3,0.1-0.4,0.3-0.5c0,0,0.1,0,0.2,0
		c0.8-0.1,0.9-0.2,1.1-1c0.1-0.1,0-0.3,0.1-0.5c0,0,0-0.1,0-0.2c0-5.1,0-10.1,0-15.1c0-0.1,0-0.1,0-0.2
		C88.9,10.9,88.9,10.7,88.9,10.5z"/>
	<path class="st0" d="M63.6,29.3c0-1-0.2-1.1,1-1.3c0.5-0.1,0.7-0.5,0.5-1.2c-0.2-0.8-0.5-1.5-0.8-2.2c-0.2-0.3-0.3-0.6-0.4-1
		c-0.1-0.2-0.2-0.2-0.4-0.2c-2.2,0-4.4,0-6.6,0c-0.4,0-0.9,0-1.3,0c-0.2,0-0.2,0-0.2,0.1c-0.4,1.1-0.9,2.1-1.2,3.1
		c-0.2,0.6,0,1,0.4,1.2c0.2,0,0.3,0.1,0.5,0.1c0.3,0.1,0.5,0.2,0.6,0.4c0,0.1,0,0.2,0,0.4c0,0.1,0,0.3,0,0.4c0,0.1-0.1,0.1-0.2,0.1
		c-1.6,0-3.3,0-4.9,0c-0.2,0-0.3-0.1-0.3-0.2c0-0.2,0-0.4,0-0.6c0-0.2,0.2-0.3,0.3-0.3c1-0.2,1.6-1,2-1.9c0.4-0.7,0.6-1.5,0.9-2.3
		c0.3-0.8,0.6-1.5,1-2.3c0.4-1,0.8-2,1.2-3c0.4-0.9,0.7-1.7,1.1-2.6c0.3-0.9,0.8-1.8,1.1-2.7c0.2-0.7,0.5-1.3,0.8-1.9
		c0.2-0.4,0-0.8-0.2-1.1c-0.2-0.4-0.3-0.8-0.5-1.2c-0.1-0.4,0-0.5,0.2-0.7C59,8.4,59.6,8,60.2,7.7c0.2-0.2,0.3-0.1,0.4,0.2
		c1.5,3.6,3,7.2,4.5,10.8c1.1,2.6,2.1,5.1,3.2,7.6c0.2,0.5,0.4,1,0.8,1.4c0.2,0.2,0.5,0.4,0.9,0.4c0.2,0,0.3,0.1,0.4,0.4
		c0.1,0.9,0.1,0.9-0.8,0.9c-1.9,0-3.7,0-5.6,0C63.8,29.3,63.7,29.3,63.6,29.3z"/>
	<path class="st0" d="M84.4,13.2c-0.4-0.1-0.7-0.3-0.8-0.7c-0.2-0.4-0.2-1-0.4-1.4c-0.3-0.6-0.8-1-1.4-1.2c-0.4-0.2-0.8-0.2-1.2-0.2
		c-0.2-0.1-0.5,0-0.7-0.1c-0.6,0-1.2,0-1.7,0c-0.2,0-0.2,0.1-0.2,0.2c0,0.1,0,0.1,0,0.2c0,5.5,0,10.9,0,16.4c0,0.3,0,0.7,0.1,1
		c0.2,0.6,0.4,0.7,1,0.8c0.3,0,0.6,0,0.8,0.4c0,0.8,0,0.8-0.7,0.8c-1.9,0-3.8,0-5.6,0c-0.2,0-0.4-0.1-0.4-0.4c0-0.2,0-0.3,0.1-0.5
		c0-0.3,0.3-0.3,0.6-0.3c0.8-0.1,1.1-0.4,1.2-1.3c0-0.1,0-0.2,0-0.4c0-5.5,0-11,0-16.5c0-0.1,0.1-0.3,0-0.4c-0.6-0.1-1.2,0-1.8,0
		c-0.2,0.1-0.5,0-0.7,0.1c-0.8,0.1-1.6,0.2-2.2,0.8c-0.5,0.5-0.6,1-0.7,1.6c0,0.2-0.1,0.3-0.2,0.6c-0.1,0.3-0.4,0.5-0.8,0.6
		c-0.3,0-0.5,0.1-0.8,0c-0.1-0.1-0.1-0.2-0.1-0.2c0-1.6,0-3.3,0-4.9c0-0.1,0-0.2,0-0.2c0.4,0,0.6,0.3,1,0.3c0.2,0,0.3,0.1,0.5,0.1
		c0.2,0,0.4,0,0.6,0c0.2,0,0.3,0,0.4,0c4.3,0,8.5,0,12.8,0c0.2,0,0.2,0,0.4,0c0.2,0,0.4,0,0.6,0c0.5,0,0.9-0.2,1.4-0.4
		c0.1,0.1,0,0.2,0,0.3c0,1.6,0,3.2,0,4.8c0,0.3,0,0.4-0.3,0.3C84.8,13.2,84.6,13.3,84.4,13.2z"/>
	<path class="st0" d="M10.9,20.8c0.6,1.1,1.1,2.1,1.6,3.1c0.1,0.1,0,0.2-0.1,0.4c-0.8,1.5-1.5,2.9-2.2,4.3c-0.6,1.2-0.6,2.4,0.3,3.5
		c0.8,1,1.8,1.2,3,1.2c2.3-0.2,3.5-2.7,2.4-4.7c-1.9-3.7-3.8-7.3-5.7-10.9c-1-1.9-2-3.8-3-5.6c-0.2-0.3-0.2-0.6,0-0.9
		c0.5-0.9,1-1.9,1.5-2.8c0.4,0.8,0.8,1.5,1.2,2.2c2.7,5.1,5.3,10.2,7.9,15.3c1.4,2.8,0.7,5.9-2.1,7.4c-3.2,1.8-7.3-0.1-7.9-3.8
		c-0.2-1.3-0.1-2.5,0.5-3.6c0.8-1.7,1.7-3.4,2.6-5.1C10.8,20.9,10.9,20.9,10.9,20.8z"/>
	<path class="st0" d="M79.1,34c-0.2,0.5-0.6,0.7-1.1,0.8c0.4,0.3,0.6,0.8,0.9,1.2c0.2,0.3,0.3,0.6,0.7,0.8c0,0,0,0.1,0,0.2
		c-0.3,0.1-0.6,0.1-1,0c-0.3-0.6-0.7-1.2-1.1-1.7c-0.1-0.1-0.2-0.2-0.3-0.2c-0.2-0.1-0.3,0-0.3,0.2c0,0.4,0,0.7,0,1.1
		c0,0.3,0,0.4,0.3,0.6c0.1,0.1,0,0.2-0.1,0.2c-0.4,0-0.8,0-1.2-0.1c0,0,0-0.1,0-0.1c0.4-0.2,0.3-0.5,0.3-0.8c0-0.9,0-1.7,0-2.5
		c0-0.2,0-0.5-0.2-0.5c-0.1,0-0.1-0.2-0.1-0.2c0.2-0.1,0.3,0,0.6,0c0.5,0,0.9,0,1.5,0c0.5,0.1,1,0.2,1.2,0.8
		C79.2,33.7,79.2,33.8,79.1,34z"/>
	<path class="st0" d="M51,32.7c0.5,0.1,1,0.2,1.2,0.8c0.1,0.2,0.1,0.4,0,0.5c-0.2,0.5-0.5,0.7-1.1,0.8c0.5,0.4,0.7,1,1,1.5
		c0.1,0.2,0.2,0.3,0.5,0.4c0.1,0,0.1,0.1,0.2,0.2c-0.3,0-0.7,0.1-1,0c-0.4-0.6-0.7-1.2-1.1-1.8c-0.1-0.1-0.2-0.2-0.3-0.2
		c-0.3-0.1-0.4,0-0.4,0.2c0,0.4,0,0.7,0,1.1c0,0.3,0.1,0.4,0.4,0.5c0,0.1,0,0.2-0.1,0.2c-0.4,0-0.8,0-1.2-0.1c0,0,0-0.2,0-0.2
		c0.4-0.1,0.3-0.4,0.3-0.7c0-0.9,0-1.8,0-2.7c0-0.2,0-0.5-0.2-0.5c-0.1,0,0-0.2,0-0.2c0.1-0.1,0.3,0,0.5,0
		C50,32.7,50.5,32.7,51,32.7z"/>
	<path class="st0" d="M43.3,35.3c-0.2,0.5-0.4,1.1-1,1.4c-1,0.7-2.4,0.2-2.8-1c-0.2-0.8-0.2-1.5,0.2-2.2c0.4-0.7,1-1,1.8-1
		c0.8,0.1,1.4,0.6,1.7,1.3c0.1,0.2,0.1,0.3,0.2,0.4c0,0.1,0,0.2,0,0.3c0,0.1,0,0.2,0,0.3C43.3,35,43.4,35.2,43.3,35.3z"/>
	<path class="st0" d="M110.2,34.9c0-0.8,0.2-1.5,0.8-2c1-0.7,2.3-0.3,2.8,0.7c0.6,1.2,0.2,2.5-0.8,3.1c-0.8,0.5-2,0.3-2.5-0.7
		C110.3,35.7,110.2,35.3,110.2,34.9z"/>
	<path class="st0" d="M66.3,34.9c0-0.9,0.2-1.5,0.9-2c1-0.7,2.3-0.3,2.7,0.7c0.5,1.2,0.2,2.5-0.8,3.1c-0.8,0.5-2.1,0.3-2.6-0.7
		C66.4,35.7,66.3,35.3,66.3,34.9z"/>
	<path class="st0" d="M61.3,34.1c-0.2,0.6-0.8,0.9-1.4,0.8c-0.8,0-0.8,0-0.8,0.8v0.1c0,0.4-0.1,0.8,0.3,1.1c-0.4,0.1-0.8,0-1.2,0
		c-0.1,0-0.1-0.1,0-0.2c0.1,0,0.2-0.1,0.2-0.1c0-0.1,0-0.2,0-0.4c0-1,0-1.9,0-2.9c0-0.1,0.1-0.2,0-0.3c0-0.1-0.2-0.1-0.2-0.1
		c0-0.2,0-0.2,0.2-0.2c0.6,0,1.3-0.1,1.9,0c0.5,0.1,0.9,0.3,1.1,0.8C61.3,33.7,61.3,33.9,61.3,34.1z"/>
	<path class="st0" d="M85.9,35.8c-0.1,0.1-0.1,0.3-0.2,0.5c-0.1,0.2-0.1,0.3,0.2,0.4c0.1,0,0.2,0.1,0.2,0.2c-0.4,0.1-0.7,0.1-1.1,0
		c0,0,0-0.1,0.1-0.1c0.6-0.4,0.6-1,0.9-1.5c0.2-0.5,0.5-1.1,0.7-1.6c0.1-0.2,0.2-0.3,0-0.6c-0.2-0.2,0.1-0.4,0.2-0.5
		c0.2-0.2,0.2,0.1,0.3,0.2c0.5,1.2,1,2.3,1.5,3.5c0.1,0.2,0.2,0.4,0.4,0.4c0.1,0.1,0.1,0.2,0,0.2c-0.4,0-0.9,0.1-1.3,0v0
		c0.5-0.3,0.2-0.7,0.1-1C87,35.7,86.5,35.7,85.9,35.8z"/>
	<path class="st0" d="M32.3,32.9c-0.4,0-0.5,0.2-0.7,0.5c-0.2,0.3-0.2,0.6-0.2,1c-0.1,0.2-0.1,0.5,0,0.8c-0.1,0.3,0.1,0.6,0.2,0.9
		c0.4,0.8,1.2,0.9,1.8,0.4c0.1-0.1,0.2-0.2,0.2-0.3s0.1,0,0.2,0c0,0,0.1,0.1,0,0.2c-0.2,0.3-0.5,0.5-0.9,0.7
		c-1.1,0.2-1.8-0.2-2.2-1.2c-0.1-0.2-0.1-0.5-0.1-0.7c-0.1-0.2-0.1-0.3,0-0.5c0-0.7,0.3-1.3,0.9-1.7c0.5-0.4,1.1-0.3,1.6-0.1
		c0.1,0.1,0.2,0.2,0.2,0.1c0.4-0.2,0.4,0.1,0.4,0.3c0,0.2,0,0.3,0,0.5c0,0.1,0,0.2-0.1,0.2c-0.1,0-0.2,0-0.2-0.2
		c0-0.2-0.1-0.5-0.3-0.6c-0.1-0.1-0.2-0.2-0.4-0.2C32.7,32.9,32.5,32.9,32.3,32.9z"/>
	<path class="st0" d="M94.9,36.8c0.1-0.2,0.4-0.1,0.3-0.4c0.1-0.7,0-1.5,0-2.2c0-0.4,0.1-0.8,0-1.2c-0.2,0-0.4,0-0.6,0
		c-0.3,0-0.4,0.1-0.5,0.4c-0.1,0.2-0.2,0.3-0.3,0.3c0-0.4,0-0.7,0-1c1.1,0,2.1,0,3.2,0c0,0,0.2,0,0.2,0c0.1,0,0.1,0,0.1,0.1
		c0,0.2,0,0.6,0,0.8c0,0.1-0.1,0.2-0.2,0.1c-0.1,0-0.2-0.1-0.2-0.2c0-0.3-0.2-0.4-0.5-0.5c-0.6-0.1-0.6-0.1-0.6,0.5
		c0,0.9,0,1.9,0,2.8c0,0.1-0.1,0.2,0.1,0.3c0,0.2,0.3,0,0.3,0.3c-0.4,0.1-0.9,0-1.3,0C94.9,36.9,94.8,36.8,94.9,36.8z"/>
	<path class="st0" d="M103.2,36.9c0,0,0-0.1,0-0.1c0.3-0.1,0.3-0.4,0.3-0.6c0-0.9,0-1.8,0-2.7c0-0.2,0-0.5-0.2-0.5
		c-0.1,0-0.1-0.1-0.1-0.2c0-0.1,0.1-0.1,0.2-0.1c0.3,0,0.7,0,0.9,0c0.1,0,0.2,0,0.2,0c0,0.1,0,0.2-0.1,0.2c-0.2,0.1-0.2,0.2-0.2,0.4
		c0,1,0,2,0,2.9c0,0.3,0,0.5,0.3,0.6c0,0.1,0,0.1-0.1,0.1C103.9,36.9,103.5,37,103.2,36.9z"/>
	<path class="st0" d="M75,9.7c0.1,0.1,0,0.2,0,0.3c0,5.5,0,11,0,16.5c0,0.1,0,0.3,0,0.4c0-1.8,0-3.6,0-5.4C75,17.5,75,13.6,75,9.7z"
		/>
	<path class="st0" d="M87.3,29.2c0.1,0,0.2,0,0.3,0c5,0,10,0,14.9,0c0.1,0,0.1,0,0.2,0c-0.1,0.1-0.2,0.1-0.3,0.1
		c-4.9,0-9.8,0-14.7,0C87.5,29.3,87.3,29.4,87.3,29.2z"/>
	<path class="st0" d="M100,8.3c-0.2,0.1-0.4,0.1-0.6,0.1c-4,0-8,0-12.1,0c0.1-0.1,0.2-0.1,0.2-0.1C91.7,8.3,95.8,8.3,100,8.3z"/>
	<path class="st0" d="M114.3,8.3c-2.4,0-4.7,0-7.1,0c-0.7,0-1.4,0-2.2,0c-0.1,0-0.2,0.1-0.2,0.3s0,0.4,0,0.6c-0.1-0.2,0-0.5,0-0.7
		c0-0.1,0-0.2,0.2-0.2c0,0,0.1,0,0.2,0c2.9,0,5.8,0,8.8,0C114.1,8.3,114.2,8.2,114.3,8.3z"/>
	<path class="st0" d="M73.2,28.5c0,0.8,0,0.8,0.8,0.8c1.9,0,3.7,0,5.5,0c0.3,0,0.4-0.1,0.4-0.4c0-0.1,0-0.3,0-0.4
		c0.1,0.2,0,0.5,0,0.7c0,0.2-0.2,0.2-0.3,0.2c-1,0-2,0-3,0c-1.1,0-2.1,0-3.1,0c-0.2,0-0.4-0.1-0.3-0.4
		C73.2,28.8,73.1,28.7,73.2,28.5z"/>
	<path class="st0" d="M109.6,27.1c-0.1-0.2-0.1-0.3-0.1-0.5c0-2.5,0-4.9,0-7.3c0-0.1,0-0.2,0.1-0.2
		C109.6,21.8,109.6,24.4,109.6,27.1z"/>
	<path class="st0" d="M32.3,9.1c0-0.8,0-0.8-0.8-0.8c-1.8,0-3.5,0-5.2,0c-0.2,0-0.4,0.1-0.4,0.4c0,0.2,0,0.3,0,0.5
		c-0.1-0.2,0-0.5,0-0.7c0-0.2,0.2-0.2,0.3-0.2c0.9,0,1.9,0,2.8,0c1,0,2,0,3,0c0.2,0,0.4,0.1,0.4,0.4C32.3,8.8,32.4,9,32.3,9.1z"/>
	<path class="st0" d="M63.6,29.3c0.4,0,0.7,0,1.1,0c1.8,0,3.6,0,5.3,0c0.2,0,0.3-0.1,0.3-0.4c0-0.1,0-0.3,0-0.5
		c0.1,0.2,0.1,0.5,0.1,0.8c0,0.2-0.2,0.1-0.2,0.1c-0.8,0-1.5,0-2.3,0c-1.3,0-2.6,0-3.9,0C63.8,29.3,63.7,29.4,63.6,29.3z"/>
	<path class="st0" d="M104.8,29.3c2.1,0,4.2,0,6.3,0c0.1,0,0.1,0,0.1,0c0,0.1-0.2,0.1-0.2,0.1c-1.9,0-3.9,0-5.9,0
		C105,29.3,104.9,29.3,104.8,29.3z"/>
	<path class="st0" d="M42.7,8.4c-2.1,0-4.2-0.1-6.4,0c0-0.1,0.2-0.1,0.2-0.1c2,0,3.9,0,5.8,0C42.5,8.3,42.6,8.3,42.7,8.4z"/>
	<path class="st0" d="M50.4,28.4c0,0.2-0.1,0.6,0.1,0.8c0.1,0.2,0.5,0,0.8,0c1.4,0,2.8,0,4.1,0c0.2,0,0.2,0,0.4,0
		c0,0.1-0.2,0.1-0.2,0.1c-1.6,0-3.2,0-4.9,0c-0.2,0-0.3-0.1-0.2-0.3C50.4,28.9,50.3,28.6,50.4,28.4z"/>
	<path class="st0" d="M84.4,13.2c0.3-0.1,0.7,0.1,0.8-0.1c0.1-0.2,0-0.5,0-0.8c0-1.4,0-2.8,0-4.1c0-0.2,0-0.3,0-0.4
		c0.1,0.1,0.1,0.2,0.1,0.3c0,1.6,0,3.2,0,4.8c0,0.2-0.1,0.4-0.3,0.3C84.8,13.2,84.6,13.3,84.4,13.2z"/>
	<path class="st0" d="M67.8,8c0,1.8,0,3.5,0,5.3c-0.1-0.1-0.1-0.2-0.1-0.3c0-1.6,0-3.2,0-4.7C67.8,8.1,67.8,8,67.8,8z"/>
	<path class="st0" d="M101.4,13.1c0-0.6,0-1.1,0-1.7c0-1.1,0-2.1,0-3.1c0-0.1,0.1-0.3-0.1-0.4c0.1,0.1,0.1,0.2,0.1,0.3
		c0,1.6,0,3.2,0,4.8C101.4,12.9,101.4,13,101.4,13.1z"/>
	<path class="st0" d="M53.3,8.4c-1.6,0-3.3,0-4.9,0c0-0.1,0.2-0.1,0.3-0.1c1.5,0,2.9,0,4.3,0C53.1,8.3,53.2,8.2,53.3,8.4z"/>
	<path class="st0" d="M95.9,36.6c-0.1-0.1,0-0.3,0-0.4c0-1,0-1.9,0-2.8c0-0.5,0-0.5,0.5-0.4c0.1,0,0.1,0,0.2,0c-0.6,0-0.6,0-0.6,0.6
		C95.9,34.6,95.9,35.6,95.9,36.6z"/>
	<path class="st0" d="M122.3,36.9c0.2,0.1,0.4,0,0.4-0.3c0-1,0-2,0-2.9c0-0.1-0.1-0.3,0-0.5c0,1.2,0,2.3,0,3.4
		C122.7,37,122.6,37,122.3,36.9z"/>
	<path class="st0" d="M58.4,33.1c0.1,0,0,0.1,0,0.2c0,1,0,2,0,3c0,0.1,0,0.2,0,0.2C58.4,35.4,58.4,34.2,58.4,33.1z"/>
	<path class="st0" d="M95.2,33c0.1,0.4,0,0.7,0,1.1c0,0.8,0.1,1.6,0,2.3C95.2,35.3,95.2,34.2,95.2,33z"/>
	<path class="st0" d="M119.9,36.2c-0.1-0.8,0-1.6-0.1-2.4c0-0.2-0.1-0.4,0.1-0.5h0v0c-0.1,0.1,0,0.2,0,0.3
		C119.9,34.5,119.9,35.4,119.9,36.2z"/>
	<path class="st0" d="M94.5,17.7c-0.8,0-1.6,0-2.5,0C92.8,17.7,93.6,17.7,94.5,17.7z"/>
	<path class="st0" d="M92,19.1c0.8-0.1,1.6-0.1,2.3,0C93.6,19.1,92.8,19.1,92,19.1z"/>
	<path class="st0" d="M60.2,32.7c-0.6,0-1.2,0-1.8,0c-0.2,0-0.2,0-0.2,0.2c-0.1-0.1-0.1-0.2,0.1-0.2C58.9,32.7,59.5,32.6,60.2,32.7z
		"/>
	<path class="st0" d="M78,32.7c-0.7,0-1.3,0-2,0c0,0,0,0,0.1,0C76.7,32.7,77.3,32.6,78,32.7z"/>
	<path class="st0" d="M51,32.7c-0.7,0-1.3,0-2,0c0,0,0,0,0,0C49.7,32.7,50.3,32.6,51,32.7z"/>
	<path class="st0" d="M85.9,35.8c0.1-0.2,0.3,0,0.5,0c0.4,0,0.8-0.1,1.2,0C87,35.8,86.5,35.8,85.9,35.8z"/>
	<path class="st0" d="M87.5,36.9c0.4,0.1,0.8,0,1.3,0c0.2,0,0.1-0.1,0.1-0.2c0.1,0.1,0.1,0.2,0,0.2C88.4,36.9,88,37,87.5,36.9z"/>
	<path class="st0" d="M58.2,36.7c0,0.1,0,0.2,0.1,0.2c0.4,0,0.8,0.1,1.2,0c-0.1,0.2-0.2,0.1-0.4,0.1c-0.2,0-0.5,0-0.8,0
		C58.1,36.9,58,36.9,58.2,36.7z"/>
	<path class="st0" d="M94.9,36.8c0,0.1,0,0.1,0.1,0.1c0.4,0,0.8,0.1,1.2,0C96.1,37,95.9,37,95.8,37c-0.3,0-0.5,0-0.9,0
		C94.9,36.9,94.8,36.9,94.9,36.8z"/>
	<path class="st0" d="M103.2,36.9c0.4,0,0.8,0,1.1,0c0.1,0,0.2,0,0.2-0.1c0.1,0,0.1,0.1,0,0.1C104,36.9,103.6,37,103.2,36.9z"/>
	<path class="st0" d="M49,36.9c0.4,0,0.8,0,1.2,0c0.1,0,0.2-0.1,0.2-0.2c0,0,0,0.2,0,0.2C49.9,36.9,49.4,37,49,36.9z"/>
	<path class="st0" d="M26.1,29.3c0-0.5,0-1,0-1.5C26.2,28.3,26.2,28.8,26.1,29.3z"/>
	<path class="st0" d="M76,36.9c0.4,0,0.8,0,1.2,0c0.1,0,0.2-0.1,0.2-0.2c0,0,0,0.2,0,0.2C76.8,36.9,76.4,37,76,36.9z"/>
	<path class="st0" d="M97.1,33.7c0.1,0,0.2,0,0.2,0c0-0.4,0.2-0.7-0.1-1c0.1-0.1,0.1,0,0.2,0.1c0,0.3,0,0.5,0,0.9
		C97.3,33.8,97.2,33.8,97.1,33.7z"/>
	<path class="st0" d="M44.1,29.6c0.5,0,0.9,0.1,1.4,0c0,0.1,0,0.1-0.2,0.1c-0.4,0-0.8,0-1.1,0C44.2,29.6,44.2,29.6,44.1,29.6z"/>
	<path class="st0" d="M33.8,29.5c0.4,0.1,0.9,0,1.3,0C34.7,29.7,34.3,29.6,33.8,29.5C33.8,29.6,33.8,29.6,33.8,29.5z"/>
	<path class="st0" d="M120.4,32.7c-0.4,0-0.8,0-1.2,0C119.6,32.6,120,32.6,120.4,32.7z"/>
	<path class="st0" d="M119.2,36.9c0.4,0.1,0.8,0.1,1.1,0C119.9,37,119.6,37,119.2,36.9z"/>
	<path class="st0" d="M84.9,36.9c0.4,0.1,0.7,0.1,1.1,0C85.6,37,85.3,37,84.9,36.9z"/>
	<path class="st0" d="M78.7,36.9c0.3,0.1,0.7,0.1,1,0C79.3,37,79,37,78.7,36.9z"/>
	<path class="st0" d="M51.7,36.9c0.3,0.1,0.7,0.1,1,0C52.3,37,52,37,51.7,36.9z"/>
	<path class="st0" d="M67.8,13.2c0.3,0,0.5,0,0.8,0C68.4,13.3,68.1,13.3,67.8,13.2z"/>
	<path class="st0" d="M31.5,35.2c-0.1-0.2,0-0.6,0-0.8C31.5,34.6,31.5,34.9,31.5,35.2z"/>
	<path class="st0" d="M87.3,8.3c0,0.3,0,0.5,0,0.7C87.2,8.8,87.2,8.6,87.3,8.3z"/>
	<path class="st0" d="M72.4,9.7c0.3-0.1,0.5,0,0.7,0C72.9,9.8,72.7,9.7,72.4,9.7z"/>
	<path class="st0" d="M102.6,23.8c-0.2,0-0.4,0-0.7,0C102.2,23.7,102.4,23.7,102.6,23.8z"/>
	<path class="st0" d="M80,9.7c0.2,0,0.5-0.1,0.7,0C80.4,9.7,80.2,9.8,80,9.7z"/>
	<path class="st0" d="M94.6,33c0.2-0.1,0.4-0.1,0.6,0C95,33,94.8,33,94.6,33z"/>
	<path class="st0" d="M61.3,34.1c0-0.2,0-0.4,0-0.6C61.3,33.7,61.3,33.9,61.3,34.1z"/>
	<path class="st0" d="M69.8,8.3c-0.2,0-0.3,0.1-0.6-0.1C69.4,8.3,69.6,8.2,69.8,8.3z"/>
	<path class="st0" d="M52.2,34c0-0.1,0-0.4,0-0.5C52.2,33.7,52.2,33.8,52.2,34z"/>
	<path class="st0" d="M79.1,34c0-0.1,0-0.4,0-0.5C79.2,33.7,79.2,33.8,79.1,34z"/>
	<path class="st0" d="M88.9,26.6c0,0.2,0,0.4-0.1,0.6C88.9,26.9,88.8,26.8,88.9,26.6z"/>
	<path class="st0" d="M83.8,8.3c-0.2,0.1-0.4,0.1-0.6,0.1C83.5,8.2,83.6,8.3,83.8,8.3z"/>
	<path class="st0" d="M110.6,19.1c0.2,0,0.3,0,0.6,0C111,19.1,110.8,19.2,110.6,19.1z"/>
	<path class="st0" d="M88.9,10.5c0.1,0.1,0.1,0.4,0.1,0.6C88.8,10.9,88.9,10.7,88.9,10.5z"/>
	<path class="st0" d="M13.4,41.5c0.2,0,0.3,0,0.5,0C13.8,41.5,13.6,41.5,13.4,41.5z"/>
	<path class="st0" d="M32.3,32.9c0.2-0.1,0.3,0,0.5,0C32.7,32.9,32.5,32.9,32.3,32.9z"/>
	<path class="st0" d="M97.9,27.9c-0.1,0-0.3,0-0.5,0C97.6,27.8,97.8,27.9,97.9,27.9z"/>
	<path class="st0" d="M30.7,34.6c0,0.1,0,0.3,0,0.4C30.7,34.9,30.7,34.7,30.7,34.6z"/>
	<path class="st0" d="M49.9,10c0.1,0.1,0,0.3,0,0.5C49.9,10.3,49.9,10.2,49.9,10z"/>
	<path class="st0" d="M120.6,14.1c0-0.2,0-0.3,0.1-0.4C120.6,13.8,120.7,14,120.6,14.1z"/>
	<path class="st0" d="M120.6,13.2c-0.1-0.2-0.1-0.3-0.1-0.4C120.7,12.9,120.6,13,120.6,13.2z"/>
	<path class="st0" d="M96.7,9.7c0.1,0,0.3,0,0.4,0.1C97,9.7,96.8,9.8,96.7,9.7z"/>
	<path class="st0" d="M12,41.4c0.2,0,0.3,0,0.4,0C12.3,41.5,12.2,41.5,12,41.4z"/>
	<path class="st0" d="M115.3,8.4c-0.1,0-0.2,0-0.3-0.1C115,8.4,115.2,8.3,115.3,8.4z"/>
	<path class="st0" d="M26,30c0-0.1,0-0.3,0.1-0.4C26.1,29.7,26.1,29.9,26,30z"/>
	<path class="st0" d="M55.7,28.8c0-0.1-0.1-0.2-0.1-0.4C55.8,28.5,55.7,28.7,55.7,28.8z"/>
	<path class="st0" d="M43.4,34.7c-0.1-0.1-0.1-0.2-0.1-0.3C43.4,34.4,43.4,34.6,43.4,34.7z"/>
	<path class="st0" d="M26.1,27.4C26,27.3,26,27.2,26,27.1C26.1,27.2,26.1,27.3,26.1,27.4z"/>
	<path class="st0" d="M43.3,35.3c0-0.1,0-0.2,0.1-0.4C43.4,35.1,43.4,35.2,43.3,35.3z"/>
	<path class="st0" d="M114.8,18.7c0.1,0,0.2,0,0.4,0C115.1,18.7,115,18.7,114.8,18.7z"/>
	<path class="st0" d="M14.3,41.4c0.1,0,0.2,0,0.4,0C14.6,41.5,14.4,41.4,14.3,41.4z"/>
	<path d="M109.6,13.7c0-1.3,0-2.6,0-3.9c0-0.2,0-0.3,0.2-0.3c1.2,0,2.5,0,3.7,0c2.1,0.1,4.2,1.5,3.8,4.6c-0.2,2.1-1.5,3.4-3.6,3.6
		c-1.3,0.2-2.6,0-4,0.1c-0.2,0-0.2-0.1-0.2-0.3C109.6,16.3,109.6,15,109.6,13.7z"/>
	<path d="M59.6,13.3c0.2,0.3,3.5,8.3,3.6,8.7c-0.2,0.1-6.8,0.1-7.1,0C57.2,19.1,58.4,16.2,59.6,13.3z"/>
	<path d="M76.9,33.8c0,0,0-0.1,0-0.1c0-0.7,0-0.7,0.7-0.7c0.6,0,0.8,0.4,0.8,0.9c0,0.4-0.2,0.7-0.6,0.8c0,0,0,0,0,0
		C77,34.8,76.9,34.7,76.9,33.8z"/>
	<path d="M50,33.8c0,0,0-0.1,0-0.1c0-0.7,0-0.7,0.8-0.7c0.5,0,0.9,0.4,0.8,0.9c0,0.4-0.2,0.6-0.5,0.7c0,0,0,0-0.1,0
		C50,34.8,50,34.7,50,33.8z"/>
	<path d="M42.7,34.8c0,0.5,0,0.9-0.2,1.3c-0.2,0.5-0.6,0.7-1.1,0.7c-0.5,0-0.9-0.2-1-0.7c-0.3-0.9-0.3-1.7,0-2.6
		c0.2-0.4,0.6-0.7,1.1-0.7c0.5,0,0.8,0.3,1,0.7C42.6,34,42.6,34.4,42.7,34.8z"/>
	<path d="M113.4,34.8c0,0.5-0.1,0.9-0.2,1.3c-0.2,0.5-0.6,0.7-1.1,0.7s-0.8-0.2-1-0.7c-0.3-0.9-0.3-1.7,0-2.6
		c0.2-0.5,0.6-0.7,1.1-0.7c0.5,0,0.8,0.3,1,0.8C113.4,34,113.4,34.4,113.4,34.8z"/>
	<path d="M67,34.8c0-0.4,0.1-0.9,0.2-1.2c0.2-0.5,0.6-0.8,1.1-0.8c0.5,0,0.8,0.2,1.1,0.8c0.3,0.8,0.3,1.6,0,2.4
		c-0.2,0.6-0.6,0.8-1.1,0.8c-0.5,0-0.9-0.2-1.1-0.8C67,35.6,67,35.2,67,34.8z"/>
	<path d="M59.1,33.8c0-0.1,0-0.1,0-0.2c0.1-0.2-0.3-0.7,0.2-0.7c0.9-0.1,1.2,0.2,1.3,0.7c0,0.6-0.2,0.9-0.6,1
		C59.2,34.8,59.1,34.8,59.1,33.8z"/>
	<path d="M86.7,33.7c0.2,0.7,0.5,1.2,0.7,1.8c-0.5,0-1,0-1.4,0C86.3,34.9,86.5,34.3,86.7,33.7z"/>
</g>
</svg>
