<?xml version="1.0" encoding="utf-8"?>
<!-- Generator: Adobe Illustrator 24.2.1, SVG Export Plug-In . SVG Version: 6.00 Build 0)  -->
<svg version="1.1" id="Layer_1" xmlns="http://www.w3.org/2000/svg" xmlns:xlink="http://www.w3.org/1999/xlink" x="0px" y="0px"
	 viewBox="0 0 121.61 37.25" style="enable-background:new 0 0 121.61 37.25;" xml:space="preserve">
<style type="text/css">
	.st0{fill:#FFFFFF;}
</style>
<g>
	<path class="st0" d="M0,18.5c0-4.95,0-9.9,0-14.85C0,1.3,1.3,0,3.65,0c10,0,19.95,0,29.95,0c2.3,0,3.65,1.3,3.65,3.55
		c0,10,0.05,20-0.05,30.05c-0.05,2.45-1.4,3.7-3.6,3.65c-10-0.05-20.05,0-30.05,0C1.35,37.25,0,35.9,0,33.7C0,28.6,0,23.55,0,18.5z
		 M5.95,9.55c-1.3,0.35-2.55,1-3.6,2.05c-0.55,0.6-0.6,1.1-0.15,1.85c1,1.55,1.85,3.15,2.75,4.7C6.55,20.9,8,23.75,9.7,26.4
		c0.8,1.25,1.55,1.45,2.8,0.75c0.7-0.4,1.35-0.75,2-1.2c1.05-0.65,1.2-1.25,0.6-2.35c-2.5-4.4-5.05-8.8-7.6-13.2
		C7.25,9.9,6.75,9.6,5.95,9.55z M16.1,9.55c-1.25,0.15-2.2,0.95-3.25,1.55c-1,0.6-1.2,1.4-0.65,2.4c0.5,1,1.05,1.95,1.65,2.9
		c1.95,3.3,3.85,6.65,5.8,10c0.8,1.35,1.6,1.55,2.95,0.75c0.5-0.3,1-0.6,1.5-0.9c1.4-0.8,1.6-1.6,0.8-3c-1.7-2.95-3.4-5.9-5.1-8.85
		c-0.75-1.3-1.5-2.6-2.25-3.85C17.2,10.05,16.85,9.5,16.1,9.55z M35.2,24.6c0-0.3-0.05-0.6-0.2-0.9c-2.55-4.45-5.1-8.85-7.7-13.3
		c-0.5-0.9-1.35-1.05-2.3-0.65c-0.8,0.35-1.6,0.85-2.35,1.35c-0.9,0.6-1.05,1.4-0.6,2.4s1.05,1.85,1.6,2.8
		c1.95,3.3,3.85,6.65,5.8,10c0.25,0.4,0.45,0.85,0.9,1.1C31.6,28.1,35.15,26,35.2,24.6z"/>
	<path class="st0" d="M53.76,15.5c-0.75,3.1-1.6,6.2-2,9.35c-0.1,0.6-0.5,1.15-0.4,1.85c0.05,0.3-0.2,0.4-0.45,0.4
		c-0.15,0-0.25,0-0.4,0c-1.1,0-2.5,0.35-3.3-0.15c-0.8-0.5-0.75-2-1-3.1c-1.2-4.25-2.35-8.55-3.55-12.8c-0.2-0.65-0.15-0.9,0.6-0.85
		c0.8,0.05,1.65,0.1,2.45,0c0.95-0.1,1.2,0.3,1.35,1.15c0.6,3.25,1.25,6.5,1.9,9.8c0.05,0.2,0.1,0.4,0.3,0.55
		c0.4-2.3,0.85-4.55,1.25-6.85c0.25-1.35,0.55-2.7,0.8-4.05c0.1-0.5,0.25-0.6,0.75-0.6c1.1,0.05,2.25,0.05,3.35,0
		c0.55,0,0.7,0.2,0.75,0.7c0.55,3.1,1.15,6.2,1.75,9.3c0.1,0.5-0.2,1.1,0.4,1.55c0.35-1.7,0.65-3.3,1-4.95
		c0.4-1.95,0.8-3.9,1.15-5.9c0.1-0.55,0.25-0.75,0.85-0.7c0.95,0.05,1.9,0.05,2.85,0c0.7-0.05,0.85,0.15,0.6,0.8
		c-0.65,1.6-1,3.3-1.45,5c-0.8,2.7-1.4,5.45-2.15,8.15c-0.2,0.8-0.45,1.6-0.65,2.4c-0.1,0.4-0.25,0.65-0.75,0.6
		c-0.5-0.05-1,0-1.55,0c-2.15,0-2.15,0-2.55-2.15C55.01,21.8,54.35,18.65,53.76,15.5z"/>
	<path class="st0" d="M100.51,27.5c-4.15,0-6.65-2.45-6.65-6.65c0-4.25,2.35-6.6,6.5-6.7c4.15-0.1,6.6,2.55,6.75,6.6
		C107.26,24.65,104.41,27.7,100.51,27.5z M98.11,21.2c0,0.5,0.1,1.35,0.55,2.1c0.75,1.2,2.7,1.5,3.4,0.5c1.1-1.65,1.15-3.5,0.4-5.3
		c-0.35-0.8-1.1-1.2-2-1.2c-0.9,0-1.55,0.45-1.95,1.3C98.16,19.35,98.11,20.1,98.11,21.2z"/>
	<path class="st0" d="M113.71,16.2c0.65-0.8,1.25-1.5,2.1-1.6c1.1-0.15,2.25-0.45,3.35-0.1c1.8,0.6,2.25,1.55,2.35,3.55
		c0.2,2.8,0.05,5.6,0.05,8.45c0,0.45-0.15,0.6-0.6,0.55c-0.95-0.05-1.9-0.05-2.85,0c-0.55,0.05-0.7-0.15-0.65-0.7
		c0-2.25,0-4.55,0-6.8c0-1.5-0.5-2.1-1.55-2.15c-1.25-0.05-2.05,0.6-2.1,2.05c-0.1,2.25-0.05,4.45-0.05,6.7c0,0.6-0.05,0.95-0.8,0.9
		c-1.05-0.1-2.5,0.45-3.1-0.2c-0.55-0.55-0.15-2-0.15-3.05c0-2.8,0.05-5.55,0-8.35c0-0.8,0.2-1,0.95-0.9c0.55,0.05,1.1,0,1.65,0
		C113.71,14.6,113.71,14.6,113.71,16.2z"/>
	<path class="st0" d="M81.91,23.25c0.35,0,0.7,0,1,0c0.6-0.05,0.95,0.05,1.2,0.7c0.4,1.05,2.7,1.3,3.5,0.45
		c0.5-0.55,0.4-1.15-0.35-1.45c-0.6-0.25-1.3-0.35-1.95-0.6c-1.45-0.5-3-0.7-4.15-2c-1.35-1.55-1.25-3.75,0.45-5.05
		c1.45-1.1,3.15-1.3,4.9-1.05c0.8,0.1,1.65,0.3,2.45,0.55c1.3,0.4,2.25,1.3,2.5,2.6c0.05,0.35,0,0.5-0.35,0.5c-1,0-2.05,0-3.05,0
		c-0.25,0-0.45-0.05-0.55-0.35c-0.45-0.95-1.3-1-2.2-0.85c-0.5,0.05-0.9,0.35-1,0.85c-0.1,0.6,0.3,0.9,0.8,1.05
		c1.6,0.5,3.25,0.85,4.75,1.55c2.25,1.05,2.85,3.35,1.35,5.35c-1,1.3-2.4,1.8-3.95,2c-2.1,0.3-4.05-0.05-5.85-1.2
		c-0.9-0.6-1.35-1.5-1.55-2.55c-0.1-0.4,0.1-0.5,0.4-0.45C80.81,23.25,81.36,23.25,81.91,23.25z"/>
	<path class="st0" d="M77.66,18.7c0,2.55,0,5.1,0,7.65c0,0.65-0.15,0.85-0.8,0.8c-0.9-0.05-1.75-0.05-2.65,0
		c-0.5,0-0.7-0.1-0.7-0.65c0-5.2,0.05-10.35,0-15.55c0-0.6,0.25-0.75,0.75-0.7c0.8,0.05,1.65,0.05,2.45,0
		c0.7-0.05,0.95,0.15,0.9,0.9C77.61,13.6,77.66,16.15,77.66,18.7z"/>
	<path class="st0" d="M70.86,20.85c0,1.85,0,3.65,0,5.5c0,0.55-0.15,0.8-0.75,0.75c-1.1-0.05-2.5,0.35-3.15-0.15
		c-0.7-0.55-0.2-2.05-0.2-3.1c-0.05-2.8,0-5.65-0.05-8.45c0-0.6,0.1-0.85,0.8-0.8c0.8,0.05,1.65,0.05,2.45,0
		c0.7-0.05,0.95,0.15,0.9,0.9C70.81,17.25,70.86,19.05,70.86,20.85z"/>
	<path class="st0" d="M68.86,10.2c2,0,2,0,2,1.95c0,1.35,0,1.35-1.3,1.35c-0.15,0-0.35,0-0.5,0c-0.75-0.05-1.9,0.3-2.1-0.15
		c-0.35-0.8-0.15-1.85-0.15-2.8c0-0.4,0.25-0.4,0.55-0.4C67.81,10.2,68.36,10.2,68.86,10.2z"/>
</g>
</svg>
