<?xml version="1.0" encoding="utf-8"?>
<!-- Generator: Adobe Illustrator 24.2.1, SVG Export Plug-In . SVG Version: 6.00 Build 0)  -->
<svg version="1.1" id="Layer_1" xmlns="http://www.w3.org/2000/svg" xmlns:xlink="http://www.w3.org/1999/xlink" x="0px" y="0px"
	 viewBox="0 0 88.21 87.89" style="enable-background:new 0 0 88.21 87.89;" xml:space="preserve">
<style type="text/css">
	.st0{opacity:0.4;fill:#FFFFFF;enable-background:new    ;}
	.st1{fill:#FFFFFF;}
</style>
<g>
	<path class="st0" d="M46.6,0.05c2.35,0.65,3.7,2.45,4.95,4.4c2.2,3.5,3.45,7.35,4.35,11.4c0.35,1.55,0.6,3.15,0.75,4.75
		c0,0.05,0.05,0.15,0.1,0.15c-0.05,0.05-0.05,0.1-0.1,0.15c-0.45,0.15-0.8,0.5-1.15,0.75c-2.4,1.6-4.7,3.35-6.8,5.4
		c-1.45,1.4-2.75,2.9-3.95,4.5c-2.1,2.9-3.9,5.95-4.25,9.6c-0.15,1.55,0.15,3.05,1.1,4.35c1.25,1.65,2.95,2.4,5,2.55c0,0,0,0,0,0.05
		c-1,0.95-2.1,1.75-3.25,2.45c-0.35,0.25-0.7,0.45-1.1,0.6c-0.2-0.2-0.3-0.45-0.4-0.7c-1.45-2.45-3.2-4.7-5.1-6.9
		c-2.4-2.8-5.05-5.3-7.9-7.6c-1-0.8-2.05-1.65-3.05-2.5c0.25-0.35,0.25-0.8,0.4-1.2c0.95-3.35,2.2-6.65,3.65-9.8
		c2.35-5.15,5-10.15,7.95-15c1.25-2,2.55-4,4.2-5.65c0.8-0.8,1.7-1.45,2.8-1.7c0.2-0.05,0.4,0,0.6-0.1
		C45.75,0.05,46.15,0.05,46.6,0.05z"/>
	<path class="st1" d="M88.16,82.41c-2.7,0-5.4,0-8.15,0c-0.15,0-0.25,0-0.25,0.2c0.15,2.45,1.7,3.95,4.15,3.55
		c1.2-0.2,1.95-1,2.3-2.1c0.1-0.3,0.25-0.4,0.55-0.4c0.35,0.05,0.75,0,1.15,0c0.2,0,0.25,0.05,0.2,0.25c-0.5,2-1.65,3.45-3.95,3.85
		c-0.9,0.15-1.8,0.15-2.7-0.1c-1.4-0.4-2.35-1.35-2.9-2.7c-0.85-2-0.85-4,0-6c0.95-2.2,3-3.3,5.4-2.95c2.25,0.35,3.65,1.75,4.1,4.05
		c0.05,0.2,0,0.4,0.15,0.6C88.16,81.26,88.16,81.81,88.16,82.41z M83.06,80.81c1,0,2,0,3,0c0.2,0,0.3-0.05,0.25-0.25
		c-0.35-2.35-2.1-3.3-4.05-2.9c-1.25,0.25-2.35,1.7-2.4,2.95c0,0.25,0.15,0.2,0.3,0.2C81.11,80.81,82.11,80.81,83.06,80.81z"/>
	<path class="st1" d="M25.75,33.55c1,0.85,2.05,1.65,3.05,2.5c2.85,2.3,5.5,4.8,7.9,7.6c1.85,2.15,3.6,4.4,5.1,6.9
		c0.15,0.25,0.2,0.5,0.4,0.7c0.65,1.3,1.3,2.55,1.7,3.95c0.55,1.75,0.85,3.5,0.65,5.3c-0.35,2.7-2.15,4.3-4.6,4.9
		c-2,0.5-3.9,0.2-5.8-0.45c-2.75-0.95-5.2-2.5-7.45-4.25c-3.9-3-7.2-6.55-10.35-10.3c-2.9-3.45-5.5-7.1-7.6-11.1
		c-1.3-2.45-2.45-5-3-7.75c-0.3-1.45-0.4-2.9,0.05-4.35c0.05-0.1,0.05-0.25,0.1-0.35c0.7-1.9,2.05-2.65,4.05-2.3
		c1.95,0.35,3.7,1.15,5.4,2.1c3.55,1.9,6.85,4.3,10.05,6.75C25.5,33.4,25.6,33.45,25.75,33.55z"/>
	<path class="st1" d="M56.61,20.9c0.05-0.05,0.05-0.1,0.1-0.15c2.85-1.95,5.75-3.8,8.8-5.5c3-1.65,6-3.15,9.3-4.15
		c1.45-0.45,2.95-0.7,4.5-0.6c0.45,0,0.85,0.1,1.25,0.2c1.4,0.45,2.2,1.6,2.25,3.2c0.05,1.65-0.45,3.15-1.1,4.65
		c-1.3,3-3.05,5.75-5.05,8.35c-5,6.55-10.85,12.3-17.8,16.85c-2.55,1.7-5.26,3.1-8.26,3.9c-1.3,0.35-2.65,0.55-4,0.45v-0.05
		c0.15-0.05,0.25-0.2,0.35-0.3c1.9-1.8,3.5-3.9,4.8-6.15c2.1-3.6,3.41-7.55,4.31-11.6C56.71,27,56.91,23.95,56.61,20.9z"/>
	<path class="st1" d="M13.2,84.91c0.4-1.2,0.8-2.35,1.2-3.45c0.55-1.6,1.15-3.25,1.7-4.85c0.1-0.25,0.2-0.35,0.45-0.35
		c0.5,0,1,0,1.55,0c-0.55,1.45-1.1,2.85-1.6,4.25c-0.85,2.2-1.65,4.45-2.5,6.65c-0.1,0.25-0.2,0.35-0.45,0.3
		c-0.4-0.05-0.9,0.1-1.2-0.1c-0.25-0.15-0.3-0.7-0.45-1.05c-0.9-2.5-1.8-4.95-2.7-7.45c-0.05-0.1-0.1-0.2-0.15-0.35
		c-0.25,0.65-0.45,1.2-0.65,1.75c-0.85,2.25-1.65,4.55-2.5,6.85c-0.1,0.25-0.2,0.35-0.5,0.35c-0.4-0.05-0.95,0.15-1.25-0.1
		c-0.3-0.2-0.3-0.75-0.45-1.15c-1.2-3.2-2.35-6.4-3.55-9.6c-0.05-0.1-0.1-0.25-0.15-0.4c0.6,0,1.15,0,1.7,0
		c0.25,0,0.25,0.2,0.3,0.35c0.95,2.65,1.9,5.25,2.85,7.9c0.05,0.15,0.1,0.25,0.2,0.5c0.5-1.35,0.95-2.6,1.4-3.9
		c0.55-1.5,1.1-3,1.6-4.5c0.1-0.25,0.2-0.35,0.5-0.35c0.4,0.05,0.8,0,1.15,0c0.25,0,0.35,0.05,0.45,0.3c0.95,2.7,1.9,5.4,2.9,8.1
		C13.1,84.71,13.1,84.76,13.2,84.91z"/>
	<path class="st1" d="M49.45,86.21c-1,1.15-2.2,1.65-3.6,1.65c-1.75,0-3.1-0.85-3.85-2.4c-1.1-2.25-1.15-4.55-0.15-6.85
		c1.4-3.35,5.45-3.2,7.4-1.3c0.05,0.05,0.1,0.1,0.15,0.15c0.15-0.15,0.1-0.25,0.1-0.4c0-1.7,0-3.45,0-5.15c0-0.3,0.05-0.4,0.35-0.35
		c0.35,0,0.7,0,1.1,0c0.25,0,0.3,0.1,0.3,0.3c0,0.65,0,1.3,0,1.95c0,3.4,0,6.85,0,10.25c0,1.05,0,2.05,0.1,3.1
		c0.05,0.25-0.05,0.35-0.3,0.35c-0.35,0-0.75-0.05-1.15,0c-0.3,0-0.35-0.1-0.35-0.35C49.5,86.96,49.45,86.61,49.45,86.21z M43,81.86
		c0.05,0.95,0.15,1.95,0.55,2.9c0.35,0.7,0.85,1.25,1.6,1.45c1.5,0.4,3.05-0.3,3.7-1.75c0.35-0.75,0.5-1.5,0.5-2.3
		c0.05-1.1-0.05-2.15-0.65-3.1c-0.65-1.1-1.65-1.5-2.85-1.45c-1.2,0.05-2,0.7-2.45,1.8C43.1,80.16,43,80.96,43,81.86z"/>
	<path class="st1" d="M74.61,77.56c0-1.9,0-3.75,0-5.55c0-0.35,0.1-0.4,0.4-0.4c0.35,0.05,0.7,0,1.1,0c0.2,0,0.3,0.05,0.25,0.25
		c0,0.1,0,0.2,0,0.3c0,4.05,0,8.1,0,12.15c0,0.95,0,1.9,0.1,2.85c0.05,0.3,0,0.45-0.4,0.45c-0.35-0.05-0.7-0.05-1.05,0
		c-0.3,0-0.35-0.1-0.35-0.35c0-0.3-0.05-0.6-0.05-0.9c-0.05-0.05-0.1-0.05-0.1-0.1c-0.1,0.15-0.15,0.3-0.3,0.4
		c-1.55,1.5-4.2,1.65-5.85,0.35c-1.05-0.85-1.55-2-1.85-3.25c-0.35-1.65-0.25-3.3,0.35-4.9c1.45-3.6,5.55-3.4,7.4-1.6
		C74.41,77.36,74.51,77.41,74.61,77.56z M74.61,82.01c0-0.9-0.05-1.75-0.45-2.6c-0.55-1.2-1.5-1.8-2.85-1.8
		c-1.25,0-2.2,0.6-2.65,1.75c-0.75,1.9-0.65,3.8,0.25,5.6c0.3,0.65,0.85,1.05,1.55,1.25c1.55,0.35,3.1-0.4,3.7-1.9
		C74.46,83.56,74.56,82.81,74.61,82.01z"/>
	<path class="st1" d="M29.5,81.96c0-1.6,0.4-3.1,1.5-4.35c1.05-1.2,2.45-1.65,4-1.6c3.15,0.1,4.8,2.55,5.05,5.2
		c0.15,1.5-0.1,2.95-0.9,4.25c-1.1,1.8-2.75,2.55-4.85,2.4c-2.1-0.15-3.55-1.3-4.35-3.25C29.65,83.76,29.5,82.86,29.5,81.96z
		 M31.35,82.21c0,0.7,0.2,1.7,0.75,2.55c1.3,2.05,4.2,2.05,5.4-0.05c1.05-1.85,1.05-3.75-0.05-5.55c-1.2-2.05-4.05-2.05-5.35-0.05
		C31.6,79.96,31.35,80.91,31.35,82.21z"/>
	<path class="st1" d="M17.85,81.86c0.05-1.75,0.5-3.3,1.8-4.6c1.95-1.95,6.45-2,8.1,1.45c1,2.1,1.05,4.25,0,6.35
		c-1,2.05-2.75,2.9-5,2.7c-2.15-0.15-3.55-1.3-4.4-3.25C18,83.71,17.85,82.81,17.85,81.86z M23,77.56c-1,0-1.9,0.5-2.5,1.45
		c-1.15,1.9-1.15,3.85,0,5.75c1.25,2.05,4.1,2,5.35-0.05c1.05-1.75,1.05-3.6,0.1-5.45C25.4,78.16,24.4,77.56,23,77.56z"/>
	<path class="st1" d="M53.4,84.21c0.3,0,0.6-0.05,0.8,0.05c0.25,0.1,0.1,0.45,0.2,0.65c0.2,0.55,0.5,0.9,1.05,1.1
		c1.05,0.4,2.1,0.45,3.16,0.05c0.5-0.2,0.85-0.5,1.05-1c0.35-0.85,0.05-1.6-0.8-2.05c-0.65-0.3-1.36-0.45-2.06-0.6
		c-0.8-0.2-1.65-0.4-2.4-0.75c-2.15-1-1.85-3.9-0.25-4.9c0.95-0.6,2-0.75,3.1-0.75c0.76,0,1.46,0.1,2.16,0.4
		c1.2,0.55,1.75,1.5,1.85,2.75c0,0.2-0.05,0.25-0.25,0.25s-0.45,0-0.65,0c-0.25,0-0.55,0.05-0.8,0c-0.3-0.1-0.15-0.45-0.25-0.7
		c-0.2-0.4-0.55-0.7-0.95-0.85c-0.86-0.3-1.76-0.3-2.61-0.05c-0.2,0.05-0.35,0.15-0.55,0.25c-0.8,0.55-0.7,1.65,0.15,2.05
		c0.65,0.35,1.35,0.45,2.05,0.65c0.66,0.2,1.36,0.35,2.01,0.55c1.15,0.35,1.9,1.1,2.1,2.3c0.2,1.2-0.15,2.3-1.15,3.1
		c-1.25,1-2.75,1.25-4.31,1.1c-1.1-0.1-2.15-0.5-2.9-1.35c-0.5-0.55-0.7-1.25-0.75-2c0-0.2,0.05-0.3,0.3-0.3
		C52.95,84.21,53.15,84.21,53.4,84.21z"/>
	<path class="st1" d="M64.81,81.86c0,1.75,0,3.5,0,5.25c0,0.3-0.05,0.35-0.35,0.35c-0.35,0-0.7-0.05-1.05,0
		c-0.35,0.05-0.35-0.15-0.3-0.4c0-2.35,0-4.65,0-7c0-1.15,0-2.35,0-3.5c0-0.25,0.1-0.35,0.35-0.35c0.35,0,0.7,0.05,1.05,0
		c0.3,0,0.35,0.1,0.35,0.35C64.81,78.31,64.81,80.11,64.81,81.86z"/>
	<path class="st1" d="M62.96,72.46c0-1,0-1,1-1c0.95,0,0.95,0,0.95,1c0,0.35,0.15,0.75-0.05,0.95c-0.2,0.2-0.65,0.05-0.95,0.05
		c-0.95,0-0.95,0-0.95-0.95C62.96,72.51,62.96,72.51,62.96,72.46z"/>
</g>
</svg>
