<svg width="78" height="91" viewBox="0 0 78 91" fill="none" xmlns="http://www.w3.org/2000/svg">
<path d="M76.1216 56.4302C69.943 51.7521 63.0584 48.6629 55.8207 47.1624C64.6472 43.6318 71.0022 34.9819 71.0022 24.9197C71.0022 11.7683 60.2339 1 47.0825 1C33.9311 1 23.1628 11.7683 23.1628 24.9197C23.1628 34.8053 29.1648 43.2787 37.7265 46.8976C32.6954 47.7802 27.8408 49.5455 23.3393 52.1935C5.77467 62.5204 1.80277 81.4973 1.00839 87.4993C0.920121 88.382 1.53797 89.2646 2.42062 89.2646C3.30327 89.3529 4.00938 88.735 4.09765 87.8524C4.80376 82.2917 8.42261 64.4622 24.8398 54.9297C39.8448 46.1032 59.5278 47.7802 74.0915 58.9898C74.3563 59.1664 74.7093 59.3429 75.0624 59.3429C75.5037 59.3429 75.945 59.1664 76.2981 58.7251C77.0042 58.0189 76.8277 56.9598 76.1216 56.4302ZM26.3403 24.9197C26.3403 13.5336 35.6081 4.17753 47.0825 4.17753C58.5569 4.17753 67.8247 13.4453 67.8247 24.9197C67.8247 36.3058 58.5569 45.6619 47.0825 45.6619C35.6081 45.6619 26.3403 36.3058 26.3403 24.9197Z" fill="url(#paint0_linear)" stroke="url(#paint1_linear)" stroke-width="2" stroke-miterlimit="10"/>
<defs>
<linearGradient id="paint0_linear" x1="38.8738" y1="1" x2="38.8738" y2="89.273" gradientUnits="userSpaceOnUse">
<stop stop-color="#F16122"/>
<stop offset="1" stop-color="#FEBD33"/>
</linearGradient>
<linearGradient id="paint1_linear" x1="38.8738" y1="1" x2="38.8738" y2="89.273" gradientUnits="userSpaceOnUse">
<stop stop-color="#F16122"/>
<stop offset="1" stop-color="#FEBD33"/>
</linearGradient>
</defs>
</svg>
