<svg version="1.1" id="Layer_1" xmlns="http://www.w3.org/2000/svg" x="0" y="0" viewBox="0 0 118.83 30.31" xml:space="preserve"><style>.st0{fill:#fff}</style><path class="st0" d="M4.4 12.45h2.8c.45 0 1 0 1.2.45.3.75.9.55 1.45.65.9.1 1.35-.15 1.2-1.15-.1-1.1.4-1.65 1.55-1.6.4 0 1.2.3 1.2-.35.05-.7.55-1.6-.45-2.1-.5-.25-.55-.75-.55-1.25V1.4c0-.95.4-1.4 1.35-1.4h5.75c1.05 0 1.45.5 1.4 1.5v4.25c.05 2.2 1.45 3.55 3.65 3.55 1.45 0 2.85.05 4.3 0 .95 0 1.4.45 1.45 1.35v5.7c0 1.05-.55 1.5-1.6 1.45-.4 0-1.15-.35-1.2.4-.05.65-.4 1.5.3 1.95.75.5.8 1.1.8 1.8 0 1.7-.05 3.35 0 5.05.05 1.2-.55 1.7-1.7 1.65h-5.35c-.5 0-1.05-.05-1.3-.5-.55-1.05-1.5-.55-2.25-.55-.6 0-.4.6-.4.95.15 1.4-.55 1.8-1.85 1.75-1.7-.05-3.4-.05-5.1 0-1.25.05-1.7-.5-1.65-1.65.05-1.35.05-2.75 0-4.15-.05-2-1.55-3.5-3.6-3.5-1.45 0-2.85-.05-4.3 0-1 .05-1.5-.4-1.5-1.4v-5.7c0-.9.4-1.4 1.4-1.35 1-.1 2-.1 3-.1zm15.15 1.95v1.85c0 2.35 1.45 3.8 3.8 3.8 1 0 1.95-.05 2.95 0s.9-.6.9-1.2c0-.65.1-1.3-.9-1.2-.9.05-1.8 0-2.65 0-1.1.05-1.55-.45-1.55-1.5 0-1.45.05-2.9 0-4.4-.05-1.75-1.5-3.3-3.15-3.4-1.25-.05-2.5 0-3.75 0-.55 0-.75.15-.8.75-.1 1.1 0 1.75 1.5 1.7 4.15-.05 3.6-.45 3.65 3.6zm.8 9.8c0-.3-.05-.65 0-.95.4-2.2-1.75-4.35-4-4.05-1.15.15-2.3.05-3.45.05-1.7 0-1.9-.2-1.9-1.95v-2.4c0-.3.05-.6-.35-.75-1.15-.5-2.05.1-2.05 1.35v2.65c0 2.05 1.5 3.5 3.55 3.5 1.45 0 2.85.05 4.3 0 1.05-.05 1.6.4 1.55 1.5-.05.95 0 1.85 0 2.8 0 .3-.1.7.4.85 1.3.4 2-.05 2-1.4-.05-.4-.05-.8-.05-1.2zm33.51-2.6c-2.3-1.7-3-3.8-2-5.85 1-2 3.65-3 6.25-2.35.85.2 1.5.45 2.2-.4.6-.7.95.35 1.45.65s.1.6-.2.75c-.6.35-.6.7-.35 1.3 1.25 3.05-.35 5.7-3.6 6.3-1 .2-2.05.05-3.05.4-.3.1-.7.15-.65.55.05.4.45.4.75.35.75 0 1.5-.1 2.25-.2 1.15-.15 2.3-.2 3.45.25 2.2.85 2.75 3.55.95 5.05-2.45 2.1-6.7 1.7-9.25.3-.5-.3-.3-.6 0-.85.45-.35.45-1.45 1.45-.9 1.2.7 2.45 1 3.85.9.35-.05.7-.05 1.05-.15.75-.25 1.65-.55 1.55-1.55-.1-1.1-1.05-1.25-1.9-1.25s-1.7.2-2.5.25c-.55.05-1.05.05-1.6 0-.95-.05-1.75-.4-1.95-1.45-.2-1.05.5-1.5 1.3-1.9.2 0 .34-.1.55-.2zm2.79-1.2c1.5 0 2.6-1.2 2.55-2.8-.05-1.5-1.15-2.55-2.65-2.55s-2.65 1.1-2.65 2.55c0 1.6 1.21 2.8 2.75 2.8z"/><path class="st0" d="M50.45 25.25c-1.3.35-1.7-.3-2-1.25-.75-2.3-.8-2.25-3.15-2.25-.35 0-.7.05-1.05 0-2.4-.4-4.1.15-4.55 2.85-.1.65-2.35 1.15-2.9.7-.3-.25-.1-.5 0-.7l7.05-15.9c.15-.3.25-.6.65-.55s.45.35.6.65c2.15 5.25 4.35 10.45 6.45 15.7.6 1.55-.9.45-1.1.75zm-6.15-12.5c-.9 2.35-1.7 4.45-2.55 6.55-.2.55-.1.7.45.7h3.9c.5 0 .75-.05.55-.65-.75-2.1-1.5-4.2-2.35-6.6zm27.36 5.1c-1.1 2.3-2.15 4.55-3.25 6.8-.15.35-.2.85-.75.8-.55 0-.55-.5-.7-.85-1.4-3.55-2.75-7.1-4.1-10.65-.05-.1-.05-.25-.05-.4 2.35-.35 2.35-.35 3.1 1.7.65 1.85 1.3 3.65 2.05 5.8 1.05-2.3 1.95-4.35 2.9-6.45.2-.4.2-1.1.8-1.1.7-.05.7.7.95 1.15.95 2 1.9 4.05 3 6.4.85-2.15 1.55-3.95 2.25-5.8.75-1.9.75-1.9 3-1.65-.75 1.95-1.5 3.9-2.25 5.8-.7 1.8-1.35 3.55-2.05 5.35-.15.35-.15.85-.75.8-.45-.05-.5-.45-.65-.75-.9-1.9-1.8-3.75-2.7-5.65-.15-.45-.2-.9-.8-1.3zm47.1-.9V24c0 .45.3 1.1-.35 1.25-.6.15-1.5.35-1.9-.15-.4-.5-.6-.3-.95-.15-3.5 1.4-6.85 0-7.85-3.2-1.15-3.75.95-7.75 4.55-8.45 1.05-.2 2.15-.2 3.15.2.9.35.95 0 .95-.7-.05-1.1.05-2.2 0-3.35-.05-1.05.65-.85 1.25-.85.65 0 1.25-.15 1.2.9-.05 2.5-.05 5-.05 7.45zm-2.4 2.5v-2c0-1.65-.85-2.45-2.55-2.35-2.45.1-4.2 2.4-3.85 5.1.3 2.55 2.3 3.95 4.85 3.4 1-.2 1.7-.65 1.55-1.9-.1-.75 0-1.5 0-2.25zm-29.8 6.05c-3.75 0-5.9-2.2-5.95-5.95-.05-3.85 2.2-6.25 5.8-6.3 3.8 0 6 2.2 6 6.05.1 3.85-2.15 6.2-5.85 6.2zm3.35-6.5c0-.25-.05-.85-.15-1.45-.4-1.65-1.55-2.55-3.3-2.5-1.8.05-3 1.3-3.3 3.55-.35 2.5.6 4.55 2.3 5 .15.05.35.05.55.1 2.45.25 3.85-1.3 3.9-4.7zm12.3-3.15c0-2.1.05-4.15 0-6.25-.05-1 .5-1.05 1.2-1.05.75 0 1.25 0 1.2 1-.05 3.8 0 7.65-.05 11.45 0 1.25.35 2.2 1.65 2.5 1 .25.5 1 .55 1.5.05.6-.5.45-.9.45-2.45-.1-3.7-1.35-3.7-3.75.05-1.95.05-3.9.05-5.85zm-5.95-1.1c1.25-1.25 2.7-1.7 4.35-1.5.35.05 1.15-.15.85.6-.2.55-.15 1.55-1.2 1.45-2.85-.3-4.1.8-4.1 3.7 0 1.75-.05 3.55 0 5.3.05 1-.45 1.05-1.2 1.05-.85.05-1.3-.15-1.25-1.15.05-3.15 0-6.3.05-9.45 0-.6-.3-1.45.85-1.3.85.1 1.9-.3 1.65 1.3z"/></svg>