<svg width="138" height="117" fill="none" xmlns="http://www.w3.org/2000/svg"><path d="M43.956 66.739c-12.622 0-22.95-10.327-22.95-22.949 0-12.622 10.328-22.949 22.95-22.949 12.621 0 22.948 10.327 22.948 22.949 0 12.622-10.238 22.949-22.948 22.949zm0-44.486c-11.916 0-21.537 9.621-21.537 21.537 0 11.916 9.71 21.536 21.537 21.536 11.827 0 21.536-9.709 21.536-21.536 0-11.828-9.62-21.537-21.536-21.537z" fill="url(#paint0_linear)" stroke="url(#paint1_linear)" stroke-width="2" stroke-miterlimit="10"/><path d="M12.71 75.3c1.06-3.177 3.796-5.56.883-9.62-3.001-4.237-6.09-2.119-9.533-2.384-1.324-3.97-2.648-8.032-4.06-12.267 2.648-2.03 6.443-2.295 6.355-7.326 0-4.943-3.53-5.296-6.355-7.238 1.324-4.06 2.648-8.12 4.06-12.357 3.266-.353 6.532 1.854 9.533-2.295 2.913-4.148.088-6.443-.883-9.62a1110.1 1110.1 0 0110.68-7.68c.618.53 1.236.883 1.589 1.5 2.118 2.914 4.501 3.355 7.944 1.943 2.295-.971 3.53-1.766 3.795-4.414.353-3.53.618-3.53 4.413-3.53 2.56 0 5.12.088 7.68 0 1.323-.088 2.118.353 2.118 1.765-.089 4.149 2.118 6.09 6.09 6.885 1.854.353 3.178.53 4.413-1.06.883-1.059 1.942-1.941 3.09-3 3.618 2.56 7.06 5.119 10.68 7.679-.795 3.177-3.796 5.472-.883 9.62 3 4.237 6.178 2.03 9.532 2.384 1.324 4.06 2.648 8.032 4.06 12.357-1.588.882-3.177 1.588-4.59 2.56-.705.529-1.411 1.588-1.411 2.47-.089 2.119-.353 4.679.617 6.267.971 1.501 3.443 2.119 5.473 3.178a338.505 338.505 0 01-3.796 11.298c-.176.53-1.5 1.147-2.03.97-4.236-1.5-6.531.53-8.561 3.884-.883 1.413-1.236 2.472-.265 3.972.794 1.236 1.324 2.648 2.03 4.149-3.53 2.56-7.061 5.12-10.768 7.767-1.324-1.236-2.648-2.383-3.884-3.619-.883-.97-1.765-1.147-2.824-.618-.089 0-.177.089-.265.089-4.149.706-6.973 2.471-6.797 7.237 0 .442-1.147 1.324-1.765 1.412-3.354.177-6.708 0-9.974.089-1.412 0-2.03-.53-2.03-1.854.088-3.883-1.765-5.913-5.649-6.708-2.118-.441-3.619-.618-5.03 1.148-.795 1.059-1.854 1.853-2.914 2.736-3.707-2.736-7.237-5.208-10.768-7.767zm71.76-23.213c-5.561-.795-5.738-4.413-5.738-8.827 0-3.795.706-6.443 4.59-7.502.353-.088.618-.441.97-.706-.617-1.942-1.323-3.884-1.853-5.826-.353-1.5-1.147-2.294-2.56-1.677-3.442 1.236-5.56-.264-7.06-3.177-.177-.442-.53-.795-.795-1.148-3.001-2.736-3.442-5.737-.794-9.09.176-.177.176-.53.264-.972L66.728 9.72l-1.853-1.324c-1.678 1.412-3.09 3.53-4.855 3.884-1.942.353-4.06-1.236-6.179-1.678-3.354-.617-5.472-2.118-5.384-5.913 0-.53-.97-1.589-1.589-1.677-2.294-.177-4.59-.088-7.326-.088.265 4.59-1.765 6.796-6.266 8.032-4.149 1.235-7.15 1.5-9.71-2.295-.088-.177-.352-.177-.617-.353a2167.992 2167.992 0 01-6.885 4.943c3.972 3.971 1.942 7.149-.794 10.68-2.03 2.647-3.796 4.677-7.503 3.442-.53-.177-1.765.353-1.942.794-.882 2.207-1.5 4.502-2.383 7.15 5.031.794 5.65 3.971 5.738 8.385.088 4.59-1.148 7.326-5.738 8.385.706 2.295 1.413 4.148 1.942 6.09.441 1.589 1.236 2.295 2.825 1.766 3.177-1.148 5.296.088 6.708 3 .264.442.618.971.97 1.324 2.913 2.737 3.62 5.738.883 9.092-.176.176-.176.53-.353.97 2.295 1.59 4.502 3.266 6.973 5.032 2.56-5.12 6.355-4.414 10.415-2.56 1.148.53 2.383.706 3.53 1.236.619.264 1.237.882 1.413 1.5.53 1.589.442 3.884 1.5 4.678 1.148.795 3.267.265 4.944.353h.706c1.765.265 2.736-.441 2.647-2.206-.088-3.178 1.501-4.767 4.59-5.208a5.611 5.611 0 001.59-.53c3.706-2.03 6.972-1.853 9.532 1.942.088.177.353.265.706.53 2.206-1.589 4.413-3.178 6.973-5.031-4.325-4.149-2.03-7.503.97-10.857.707-.794 1.236-1.853 1.942-2.56.53-.529 1.324-.97 2.119-.97 1.677-.089 3.795.794 4.854 0 1.148-.795 1.236-3.001 1.766-4.678.264-.795.44-1.59.882-2.913z" fill="url(#paint2_linear)"/><path d="M102.652 101.074C94.002 99.22 88.441 90.57 90.294 81.92c1.854-8.65 10.504-14.21 19.154-12.357 8.65 1.854 14.21 10.504 12.357 19.154-1.854 8.65-10.504 14.21-19.153 12.357zm6.619-30.54c-8.12-1.765-16.24 3.442-18.006 11.563-1.765 8.12 3.443 16.24 11.563 18.006 8.12 1.765 16.241-3.442 18.006-11.563 1.765-8.12-3.442-16.24-11.563-18.006z" fill="url(#paint3_linear)" stroke="url(#paint4_linear)" stroke-width="2" stroke-miterlimit="10"/><path d="M79.88 102.221c1.147-2.03 3.442-3.177 2.03-6.443-1.412-3.266-3.884-2.295-6.179-3.001-.353-2.913-.618-5.914-.97-9.003 2.118-.97 4.766-.618 5.472-4.06.706-3.442-1.677-4.149-3.266-5.914 1.5-2.56 3.09-5.207 4.59-7.855 2.294.264 4.236 2.206 6.884-.177 2.648-2.383 1.06-4.413.795-6.708 2.824-1.236 5.649-2.471 8.473-3.619.353.441.706.794.883 1.236 1.059 2.295 2.648 3 5.119 2.56 1.677-.265 2.648-.707 3.266-2.472.794-2.471.971-2.383 3.619-1.854 1.765.353 3.53.795 5.296 1.148.882.176 1.412.53 1.147 1.5-.706 2.825.53 4.502 3.089 5.65 1.236.529 2.119.794 3.178-.089.794-.618 1.677-1.06 2.559-1.589 2.119 2.295 4.149 4.59 6.179 6.885-1.059 2.03-3.442 3.178-2.03 6.443 1.412 3.354 3.972 2.295 6.178 3.09.353 2.912.618 5.913.971 9.09-1.235.354-2.471.619-3.53 1.06-.53.265-1.236.883-1.324 1.5-.353 1.413-.971 3.09-.53 4.325.442 1.236 2.03 1.942 3.266 3.001-1.412 2.472-2.824 4.855-4.325 7.15-.177.353-1.236.529-1.589.353-2.648-1.677-4.59-.618-6.443 1.412-.794.883-1.147 1.501-.794 2.648.353.971.529 2.03.794 3.178-2.825 1.235-5.561 2.471-8.562 3.707-.706-1.059-1.5-2.03-2.118-3.09-.441-.794-1.059-1.059-1.854-.794h-.176c-2.913-.176-5.208.618-5.737 3.972-.089.353-.971.794-1.413.706-2.294-.441-4.59-.971-6.884-1.412-.971-.177-1.324-.618-1.148-1.589.618-2.648-.353-4.325-2.912-5.472-1.413-.618-2.384-.971-3.62.088-.705.618-1.588.971-2.382 1.5-1.942-2.471-3.972-4.766-6.002-7.061zm52.694-5.207c-3.708-1.324-3.266-3.884-2.56-6.885.529-2.56 1.412-4.325 4.237-4.413.264 0 .529-.177.794-.353-.177-1.412-.353-2.825-.353-4.237 0-1.06-.441-1.677-1.501-1.589-2.559.353-3.795-.97-4.325-3.266-.088-.353-.176-.617-.353-.882-1.588-2.383-1.5-4.502.795-6.355.176-.089.176-.353.353-.618-.971-1.06-1.854-2.03-2.736-3.09a13.41 13.41 0 00-1.06-1.147c-1.324.706-2.647 1.942-3.883 1.942-1.324-.088-2.56-1.412-3.972-2.03-2.207-.97-3.442-2.295-2.825-4.855.089-.353-.441-1.235-.794-1.412-1.589-.441-3.177-.706-5.031-1.147-.53 3.177-2.207 4.413-5.472 4.59-3.001.176-5.12-.089-6.356-3.002-.088-.088-.264-.176-.352-.353-1.766.795-3.443 1.5-5.473 2.384 2.118 3.354.265 5.207-2.118 7.237-1.854 1.5-3.354 2.648-5.65 1.236-.352-.177-1.235-.088-1.5.265-.97 1.412-1.765 2.824-2.736 4.501 3.354 1.324 3.266 3.62 2.736 6.62-.618 3.178-1.853 4.855-5.207 4.855.176 1.677.353 3.089.441 4.501 0 1.148.53 1.766 1.677 1.589 2.383-.265 3.619.883 4.149 3.09.088.352.264.705.44 1.058 1.59 2.295 1.59 4.502-.705 6.355-.177.089-.265.353-.353.618 1.324 1.413 2.56 2.913 4.06 4.502 2.56-3.089 5.03-2.119 7.502-.177.706.53 1.5.795 2.207 1.324.353.265.706.795.794 1.236.177 1.147-.264 2.736.353 3.442.618.706 2.207.706 3.354.971.177 0 .353.088.442.088 1.147.442 1.942.089 2.118-1.147.441-2.207 1.765-3.089 3.884-2.825.353 0 .794 0 1.147-.088 2.825-.794 5.031-.176 6.267 2.736.088.177.176.265.353.442 1.765-.795 3.531-1.501 5.561-2.383-2.383-3.531-.265-5.473 2.295-7.326.617-.442 1.059-1.06 1.765-1.501.441-.265 1.059-.441 1.589-.353 1.147.177 2.471 1.059 3.354.706.882-.353 1.324-1.853 1.941-2.912-.088-.53.177-1.06.707-1.942z" fill="url(#paint5_linear)" stroke="url(#paint6_linear)" stroke-miterlimit="10"/><defs><linearGradient id="paint0_linear" x1="43.956" y1="20.841" x2="43.956" y2="66.739" gradientUnits="userSpaceOnUse"><stop stop-color="#F16122"/><stop offset="1" stop-color="#FEBD33"/></linearGradient><linearGradient id="paint1_linear" x1="43.956" y1="20.841" x2="43.956" y2="66.739" gradientUnits="userSpaceOnUse"><stop stop-color="#F16122"/><stop offset="1" stop-color="#FEBD33"/></linearGradient><linearGradient id="paint2_linear" x1="44" y1="0" x2="44" y2="87.746" gradientUnits="userSpaceOnUse"><stop stop-color="#F16122"/><stop offset="1" stop-color="#FEBD33"/></linearGradient><linearGradient id="paint3_linear" x1="106.05" y1="69.207" x2="106.05" y2="101.43" gradientUnits="userSpaceOnUse"><stop stop-color="#F16122"/><stop offset="1" stop-color="#FEBD33"/></linearGradient><linearGradient id="paint4_linear" x1="106.05" y1="69.207" x2="106.05" y2="101.43" gradientUnits="userSpaceOnUse"><stop stop-color="#F16122"/><stop offset="1" stop-color="#FEBD33"/></linearGradient><linearGradient id="paint5_linear" x1="105.962" y1="54.607" x2="105.962" y2="116.179" gradientUnits="userSpaceOnUse"><stop stop-color="#F16122"/><stop offset="1" stop-color="#FEBD33"/></linearGradient><linearGradient id="paint6_linear" x1="105.962" y1="54.607" x2="105.962" y2="116.179" gradientUnits="userSpaceOnUse"><stop stop-color="#F16122"/><stop offset="1" stop-color="#FEBD33"/></linearGradient></defs></svg>