<svg version="1.1" id="Layer_1" xmlns="http://www.w3.org/2000/svg" x="0" y="0" viewBox="0 0 519.4 142.6" xml:space="preserve"><style>.st1{fill:#fff}.st2{fill:#f90}</style><path class="st1" d="M179 69.9c2 1.3 5.2 2.4 9.1 3.2 3.9 1.1 8 1.3 12.2 1.3 4.1 0 7.8-.6 11.1-1.5 3.3-1.1 6.3-2.6 8.9-4.4 2.4-1.9 4.5-4.1 5.8-7 1.3-2.8 2-5.7 2-9.3 0-4.1-1.3-7.8-3.7-11.1-2.4-3.2-6.5-5.7-12.2-7.6l-11.1-3.7c-4.1-1.3-7.2-2.8-8.9-4.4-1.5-1.5-2.4-3.3-2.4-5.7 0-3.2 1.3-5.7 3.7-7 2.6-1.5 5.9-2.4 10.6-2.4 5.8 0 10.6 1.1 15.4 3.2 1.3.6 2.4 1.1 3.2 1.1 1.3 0 1.9-.7 1.9-2.6V8.5c0-1.1-.2-2-.7-2.6-.6-.7-1.3-1.5-2.4-2-.7-.6-2-1.1-3.3-1.3-1.3-.6-2.8-.7-4.5-1.3-1.5-.2-3.3-.7-5.2-.7-2.1-.6-3.9-.6-5.6-.6-3.7 0-6.7.6-9.8 1.3-3.2 1.1-5.9 2.4-8.3 4.1-2.4 1.9-4.1 3.9-5.8 6.5-1.5 2.6-2 5.4-2 8.9 0 4.1 1.3 8 3.9 11.5 2.6 3.7 6.7 6.3 12.8 8l11.5 3.7c3.9 1.3 6.5 2.6 8 4.1 1.5 1.5 2 3.3 2 5.4 0 3.2-1.3 5.7-4.1 7.6-2.8 1.9-6.5 2.6-11.7 2.6-3.2 0-6.3-.2-9.3-1.1-3.2-.6-5.9-1.5-8.9-2.8-.7-.2-1.5-.6-2-.7-.6-.2-1.1-.2-1.5-.2-1.3 0-1.9.7-1.9 2.6v3.9c0 .7.2 1.5.6 2.4.6.8 1.3 1.4 2.6 2.1zM44.7 31.5c-2.8-.5-5.7-.5-8.3-.5-8 0-14.5 2-19.5 6.3-5 4.1-7.2 9.6-7.2 16.3 0 6.5 1.9 11.5 5.8 15.4 3.9 3.9 9.1 5.7 15.8 5.7 9.3 0 17.1-3.7 23.4-10.9.7 1.9 1.5 3.3 2.4 4.6.9 1.3 1.9 2.6 2.8 3.7.7.7 1.5 1.1 2.4 1.1.6 0 1.3-.2 2-.7l5-3.3c1.1-.7 1.5-1.5 1.5-2.4 0-.6-.2-1.1-.6-1.9-1.1-2-2-3.9-2.6-5.7-.6-1.9-.7-4.1-.7-7v-26c0-8.5-2-15-6.5-19.5C55.9 2.3 49.3.2 39.6.2c-4.5 0-8.5.6-12.4 1.5-3.7 1.1-7 2-9.8 3.7-1.1.6-1.9 1.1-2 1.5-.6.6-.6 1.7-.6 3v3.9c0 1.5.6 2.6 1.5 2.6.2 0 .7 0 1.3-.2.6-.2 1.5-.6 2.8-1.1 2.8-1.1 5.8-2 8.5-2.6 2.8-.7 5.8-1.1 8.5-1.1 6.3 0 10.4 1.3 13 3.7 2.6 2.4 3.7 6.7 3.7 12.8v5.7c-3.5-1-6.2-1.5-9.4-2.1zm9.1 14.1c0 2.6-.2 5-.7 6.7-.6 1.9-1.3 3.7-2.6 5-2 2.4-4.6 4.1-7.6 5-2.8 1.1-5.8 1.5-8.3 1.5-3.7 0-6.5-1.1-8.3-2.8-1.9-1.9-2.8-4.6-2.8-8.3 0-3.9 1.3-7 3.9-9.1 2.6-2 6.5-3.2 11.7-3.2 2.4 0 5 .2 7.6.6 2.6.2 5 .7 7.2 1.3v3.3zm40.1 23c.6 1.5 1.1 2.6 1.5 3.2.6.6 1.5.7 3.2.7h6.7c1.5 0 2.6-.2 3.2-.7.6-.6 1.1-1.5 1.5-3.2l12.2-51.2 12.4 51.2c.2 1.5.7 2.6 1.5 3.2.6.6 1.9.7 3.2.7h6.7c1.3 0 2.4-.2 3.2-.7.6-.6 1.3-1.5 1.5-3.2L170 7.4c.2-.7.6-1.5.6-1.9 0-.6.2-.7.2-1.3 0-1.3-.6-1.9-1.9-1.9h-7.2c-1.5 0-2.6.2-3.2.7-.6.6-1.1 1.5-1.5 3.2l-14 53.3-12.8-53.4c-.2-1.5-.7-2.6-1.5-3.2-.6-.6-1.9-.7-3.2-.7H119c-1.5 0-2.6.2-3.2.7-.6.6-1.1 1.5-1.5 3.2L102 58.6 88.8 6.1c-.6-1.5-1.1-2.6-1.5-3.2-.6-.6-1.5-.7-3.2-.7h-7.8c-1.3 0-1.9.6-1.9 1.9 0 .6.2 1.5.7 3.2l18.8 61.3z"/><path class="st2" d="M211.5 107c-29.1 12.4-61 18.4-89.8 18.4-42.8 0-84.4-11.7-118-31.3-2.8-1.9-5.2 1.3-2.6 3.7 31.2 28 72.2 44.9 118 44.9 32.5 0 70.3-10.2 96.6-29.7 3.7-3.1.2-7.7-4.2-6z"/><path class="st2" d="M195.1 96.2c-2.4 1.5-1.9 3.9.6 3.7 8.3-1.1 27.3-3.3 30.4 1.1 3.3 4.1-3.7 21.9-6.7 29.8-1.1 2.4 1.1 3.3 3.3 1.5 14.1-11.7 17.6-36.3 14.8-39.7-2.9-4-27.5-6.8-42.4 3.6z"/><path class="st1" d="M299.9 56.2c-.6 0-1.1-.2-1.1-1.1V12.2c0-.6.2-1.1 1.1-1.1h1.3c.7 0 1.1.2 1.1 1.1l.2 2.6c1.9-1.5 3.9-2.6 5.7-3.3 1.9-.7 3.7-1.1 5.7-1.1 4.1 0 7.2 1.5 9.6 4.4 2.4 2.8 3.7 7 3.7 11.9 0 5.2-1.3 9.3-3.7 12.4-2.6 3.2-5.7 4.6-10.2 4.6-3.9 0-7.2-1.5-10.6-4.4v15.6c0 .6-.2 1.1-1.1 1.1h-1.9v.2zm13-15.6c3.3 0 5.9-1.1 7.8-3.3 1.9-2.4 2.6-5.7 2.6-10.2 0-8.9-3.3-13.2-10.2-13.2-3.3 0-7 1.3-10.4 4.1v18.4c1.9 1.5 3.3 2.6 5 3.3 1.7.3 3.6.9 5.2.9zm29.7 3.2c-2.8 0-5.2-.7-7-2.6-1.9-1.5-2.6-3.9-2.6-6.7 0-3.2 1.1-5.4 3.2-7.2 2-1.9 5-2.6 8.5-2.6 2.8 0 5.7.6 9.1 1.5V21c0-2.6-.6-4.4-1.9-5.4-1.3-1.1-3.2-1.5-5.9-1.5-2.8 0-5.9.6-9.1 1.5-.2 0-.7.2-1.1.2-.6 0-.6-.2-.6-.7v-1.3c0-.2 0-.6.2-.7l.6-.6c3.3-1.3 6.7-2 10.6-2 3.7 0 6.5.7 8.3 2.4 1.9 1.5 2.6 3.9 2.6 7v22.2c0 .6-.2 1.1-1.1 1.1H355c-.6 0-1.1-.2-1.1-1.1l-.2-2.6c-3.3 3-7.2 4.3-11.1 4.3zm.6-3.2c1.5 0 3.3-.2 5.2-1.1 1.9-.7 3.7-1.5 5.7-2.8v-7.8c-2.8-.7-5.4-1.1-8.3-1.1-5.9 0-8.9 2.4-8.9 6.7 0 1.9.6 3.3 1.5 4.4 1 1.1 2.7 1.7 4.8 1.7zm25.2 2.6c-.6 0-1.1-.2-1.1-1.1V12.2c0-.6.2-1.1 1.1-1.1h1.3c.7 0 1.1.2 1.1 1.1l.2 3.7c1.5-1.9 3.2-3.2 4.6-3.7 1.5-.7 3.3-1.1 5.2-1.1h1.5c.6 0 1.1.2 1.1 1.1v1.5c0 .2 0 .2-.2.6 0 .2-.2.2-.6.2h-2.4c-1.9 0-3.7.2-5.2 1.1-1.5.7-2.8 1.9-4.4 3.3v23.2c0 .6-.2 1.1-1.1 1.1h-1.1zm31.5.4c-2.6 0-4.4-.7-5.7-2-1.3-1.3-2-3.2-2-5.7V14.8h-5c-.6 0-1.1-.2-1.1-1.1v-.6c0-.2 0-.6.2-.7 0-.2.2-.2.7-.2l5.2-.6.6-8.3c0-.2.2-.6.2-.7.2-.2.2-.2.7-.2h1.1c.6 0 1.1.2 1.1 1.1v8.3h9.1c.6 0 1.1.2 1.1 1.1v1.3c0 .6-.2 1.1-1.1 1.1h-9.1v20.9c0 1.9.2 2.8 1.1 3.7.7.7 2 1.1 3.7 1.1 1.3 0 2.4 0 3.2-.2.6 0 .7-.2 1.1-.2h.6c.6 0 .7.2.7.7v1.1c0 .7-.2 1.1-.7 1.3-1.8-.5-3.5-.1-5.7-.1zm14.1-.4c-.6 0-1.1-.2-1.1-1.1V12.2c0-.6.2-1.1 1.1-1.1h1.3c.7 0 1.1.2 1.1 1.1l.2 2.6c2-1.5 4.1-2.6 6.5-3.3 2.4-.7 4.5-1.3 6.5-1.3 3.2 0 5.4.7 7 2.4 1.5 1.5 2.4 3.9 2.4 7.2v22.1c0 .6-.2 1.1-1.1 1.1H436c-.6 0-1.1-.2-1.1-1.1V21.7c0-2.8-.6-4.6-1.5-5.9-1.1-1.3-2.8-1.9-5-1.9-4.1 0-8.3 1.3-12.2 4.1v24.5c0 .6-.2 1.1-1.1 1.1h-1.3v-.4h.2zm48.2.7c-5 0-8.9-1.3-11.1-4.1-2.6-2.8-3.9-7-3.9-12.8 0-5.2 1.3-9.3 3.9-12.2 2.6-2.8 6.3-4.4 10.6-4.4 3.9 0 6.7 1.1 8.9 3.3 2 2 3.2 5.2 3.2 9.3 0 1.5 0 2.8-.2 3.9 0 .6-.6 1.1-1.1 1.1h-21.3c0 4.4 1.1 7.8 2.8 9.8 1.9 2 5 3.2 8.9 3.2 3.2 0 5.9-.6 8.5-1.5.6-.2 1.1-.2 1.1-.2.2 0 .2 0 .6.2 0 .2.2.2.2.6v1.1c0 .7-.2 1.1-.7 1.3-3.5.7-6.6 1.4-10.4 1.4zM470 25v-2c0-3.2-.7-5.2-2-6.7-1.5-1.5-3.7-2.4-6.5-2.4-6.7 0-10.2 3.7-10.6 11.1H470zm12.3 18.2c-.6 0-1.1-.2-1.1-1.1V12.2c0-.6.2-1.1 1.1-1.1h1.3c.7 0 1.1.2 1.1 1.1l.2 3.7c1.5-1.9 3.2-3.2 4.6-3.7 1.5-.7 3.3-1.1 5.2-1.1h1.5c.6 0 1.1.2 1.1 1.1v1.5c0 .2 0 .2-.2.6 0 .2-.2.2-.6.2h-2.4c-1.9 0-3.7.2-5.2 1.1-1.5.7-2.8 1.9-4.5 3.3v23.2c0 .6-.2 1.1-1.1 1.1h-1zm-182.4 69.9c-.6 0-1.1-.2-1.1-1.1V82.3c0-.6.2-1.1 1.1-1.1h1.3c.7 0 1.1.2 1.1 1.1l.2 2.6c2-1.5 4.1-2.6 6.5-3.3 2.4-.7 4.5-1.3 6.5-1.3 3.2 0 5.4.7 7 2.4 1.5 1.5 2.4 3.9 2.4 7.2V112c0 .6-.2 1.1-1.1 1.1H322c-.6 0-1.1-.2-1.1-1.1V91.4c0-2.8-.6-4.6-1.5-5.9-1.1-1.3-2.8-1.9-5-1.9-4.1 0-8.3 1.3-12.2 4.1v24.5c0 .6-.2 1.1-1.1 1.1h-1.3v-.2h.1zm48.5.9c-5 0-8.9-1.3-11.1-4.1-2.6-2.8-3.9-7-3.9-12.8 0-5.2 1.3-9.3 3.9-12.2 2.6-2.8 6.3-4.4 10.6-4.4 3.9 0 6.7 1.1 8.9 3.3 2 2 3.2 5.2 3.2 9.3 0 1.5 0 2.8-.2 3.9 0 .6-.6 1.1-1.1 1.1h-21.3c0 4.4 1.1 7.8 2.8 9.8 1.9 2 5 3.2 8.9 3.2 3.2 0 5.9-.6 8.5-1.5.6-.2 1.1-.2 1.1-.2.2 0 .2 0 .6.2 0 .2.2.2.2.6v1.1c0 .7-.2 1.1-.7 1.3-3.4.7-6.9 1.4-10.4 1.4zm7.7-19.1v-2c0-3.2-.7-5.2-2-6.7-1.5-1.5-3.7-2.4-6.5-2.4-6.7 0-10.2 3.7-10.6 11.1h19.1zm21.4 18.7c-2.6 0-4.5-.7-5.7-2-1.3-1.3-2-3.2-2-5.7V84.5h-5c-.6 0-1.1-.2-1.1-1.1v-.6c0-.2 0-.6.2-.7 0-.2.2-.2.7-.2l5.2-.6.6-8.3c0-.2.2-.6.2-.7.2-.2.2-.2.7-.2h1.1c.6 0 1.1.2 1.1 1.1v8.3h9.1c.6 0 1.1.2 1.1 1.1V84c0 .6-.2 1.1-1.1 1.1h-9.1V106c0 1.9.2 2.8 1.1 3.7.9.9 2 1.1 3.7 1.1 1.3 0 2.4 0 3.2-.2.6 0 .7-.2 1.1-.2h.6c.6 0 .7.2.7.7v1.1c0 .7-.2 1.1-.7 1.3-1.8-.2-3.7.1-5.7.1zm20.4-.5c-.6 0-1.1-.2-1.3-.7l-9.8-29.3c-.2-.6-.2-.7-.2-1.1 0-.4.2-.6.7-.6h2c.6 0 .7.2 1.1.7l8.5 26.7 7.6-26.7c.2-.6.6-.7 1.3-.7h2.4c.6 0 1.1.2 1.3.7l7.6 26.7 8.9-27.1c.2-.6.6-.7 1.1-.7h1.9c.6 0 .7.2.7.6 0 .2 0 .6-.2 1.1L421.3 112c-.2.6-.6.7-1.3.7h-2c-.6 0-1.1-.2-1.3-.7L409 85.3l-7.6 26.7c-.2.6-.6.7-1.3.7h-1.9v.4h-.3zm52.3.9c-4.6 0-8.3-1.5-10.9-4.4-2.6-2.8-3.9-7-3.9-12.4 0-5.2 1.3-9.3 3.9-12.4 2.6-2.8 6.3-4.4 10.9-4.4 4.6 0 8.3 1.5 10.9 4.4 2.6 2.8 3.9 7 3.9 12.4 0 5.2-1.3 9.3-3.9 12.4-2.8 2.9-6.3 4.4-10.9 4.4zm0-3.3c7.2 0 10.9-4.4 10.9-13.5s-3.7-13.5-10.9-13.5-10.9 4.4-10.9 13.5c-.1 9 3.5 13.5 10.9 13.5zm23.7 2.4c-.6 0-1.1-.2-1.1-1.1V82.3c0-.6.2-1.1 1.1-1.1h1.3c.7 0 1.1.2 1.1 1.1l.2 3.7c1.5-1.9 3.2-3.2 4.6-3.7 1.5-.7 3.3-1.1 5.2-1.1h1.5c.6 0 1.1.2 1.1 1.1v1.5c0 .2 0 .2-.2.6-.2.4-.2.2-.6.2h-2.4c-1.9 0-3.7.2-5.2 1.1-1.5.7-2.8 1.9-4.5 3.3v23.2c0 .6-.2 1.1-1.1 1.1h-1.3v-.2h.3zm21.7 0c-.6 0-1.1-.2-1.1-1.1V67.3c0-.6.2-1.1 1.1-1.1h1.9c.6 0 1.1.2 1.1 1.1v28.2l15-13.5c.6-.6 1.1-.6 1.5-.6h2.4c.6 0 .7.2.7.6 0 .4-.2.6-.7 1.1l-15.4 13.5 16.7 15.4c.2.2.6.6.6.7 0 .6-.2.6-.7.6H516c-.6 0-1.1-.2-1.3-.6l-16.1-15v14.5c0 .6-.2 1.1-1.1 1.1h-1.9v-.2z"/></svg>