<svg version="1.1" id="Layer_1" xmlns="http://www.w3.org/2000/svg" x="0" y="0" viewBox="0 0 120.56 31.35" xml:space="preserve"><style>.st0{fill:#fff}</style><path class="st0" d="M0 15.7C-.05 7.05 6.95 0 15.65 0c8.6 0 15.65 7 15.65 15.5.05 8.8-6.95 15.85-15.65 15.85C7.05 31.35.05 24.4 0 15.7zm15.65 13.9c7.75 0 14-6.25 14-13.95C29.65 8 23.35 1.7 15.8 1.7c-7.85 0-14.05 6.2-14.1 14 0 7.7 6.2 13.9 13.95 13.9zm73.61-10.45c.65-2 1.35-3.95 2-5.95.2-.55.55-.8 1.1-.65.55.15.7.6.6 1.15-.05.2-.1.4-.2.55-.55 1.5-1.15 3-1.7 4.55l-.9 2.4c-.2.5-.5.85-1.05.85-.5 0-.75-.4-.95-.85-.55-1.6-1.15-3.2-1.7-4.8-.1-.3-.15-.6-.45-.9-.55 1.55-1.05 3.05-1.6 4.55-.15.45-.35.9-.5 1.35-.15.45-.5.65-.9.65-.45 0-.75-.2-.9-.6-.95-2.55-1.95-5.05-2.85-7.6-.2-.55 0-1.05.6-1.2.55-.15.9.1 1.1.65.65 2 1.35 3.95 2.05 5.95.35-.15.35-.5.45-.8.6-1.65 1.15-3.3 1.7-4.95.15-.5.4-.9 1-.9s.85.4 1 .9c.65 1.9 1.3 3.85 1.95 5.75 0-.05.05-.1.15-.1zM38.95 13.5c1.3-.8 2.6-1.15 4-.95 2.25.3 3.85 2.1 3.9 4.55.05 2.5-1.4 4.4-3.65 4.8-1.3.25-2.55.1-3.7-.6-.25-.15-.45-.35-.6.1-.15.45-.55.65-1 .55-.5-.1-.7-.5-.7-1V9.8c0-.6.25-1 .9-1s.9.4.9 1c-.05 1.2-.05 2.4-.05 3.7zm6 3.85c0-2.1-1-3.25-2.9-3.25-1.95 0-3.25 1.25-3.25 3.25 0 1.95 1.2 3.15 3.1 3.15 2 0 3.05-1.15 3.05-3.15zm12.66-.05v3.4c0 .5 0 1.05-.65 1.25-.55.15-.9-.1-1.15-.6-.25-.45-.55 0-.75.1-1.86.95-4.21.7-5.61-.55-1.75-1.55-2.1-4.6-.7-6.5 1.35-1.85 4.15-2.45 6.26-1.3.4.2.75.55 1-.2.15-.35.55-.45.95-.3.45.15.65.45.65.9v3.8zm-4.96 3.15c2.01 0 3.21-1.15 3.21-3.1 0-2.05-1.1-3.25-3.06-3.3-1.95-.05-3.05 1.1-3.1 3.1 0 2.1 1.05 3.3 2.95 3.3zm19.31-3.9c1.05-.85 2.1-1.65 3.1-2.45.55-.4 1.05-.85 1.6-1.25.45-.35.9-.4 1.25.1.35.45.2.85-.2 1.2-.7.55-1.4 1.2-2.15 1.7-.6.4-.55.7-.15 1.2.75 1.05 1.5 2.15 2.2 3.2.4.55.8 1.1.1 1.7-.55.4-1 .2-1.6-.7-.75-1.1-1.45-2.15-2.15-3.25-.25-.4-.45-.45-.85-.15-.9.6-1.55 1.3-1.3 2.5.05.35.05.7 0 1-.05.5-.4.75-.85.8-.45.05-.8-.25-.9-.7-.05-.2-.05-.4-.05-.6V10c0-.65.25-1.05.95-1.05.65 0 .85.45.85 1.05v5.75c0 .15-.1.45.15.8zm27.1 1.2h-2.8c-.65 0-.7.3-.55.8.35.95 1 1.6 1.95 1.85 1.2.3 2.35.15 3.4-.55.5-.35 1-.55 1.4.05.35.55 0 1-.5 1.25-2 1.1-4.05 1.3-6.1.15-2.15-1.2-2.85-4.15-1.6-6.4 1.15-2.15 4.05-3.05 6.35-1.9 1.45.7 2.4 1.85 2.45 3.55 0 .8-.35 1.15-1.1 1.2h-2.9zm-.55-1.35h2.4c.45 0 .6-.1.45-.6-.35-1-1.55-1.8-2.75-1.8s-2.45.75-2.85 1.8c-.15.45-.1.65.4.65.75-.1 1.55-.05 2.35-.05zm-38.9.85V13.7c0-.5.1-.95.6-1.1.55-.2.95.05 1.15.55.2.5.4.1.55 0 1.1-.6 2.25-.75 3.45-.5 1.6.3 2.65 1.45 2.8 3.1.1 1.8.05 3.55.05 5.35 0 .6-.35.95-.9.95-.6 0-.9-.4-.9-1v-4.4c0-1.8-.7-2.55-2.4-2.6-1.65 0-2.55.9-2.6 2.6v4.25c0 .65-.25 1.15-.9 1.15-.7 0-.9-.55-.9-1.2.05-1.2 0-2.4 0-3.6zm48.6-3.3c-.35-.05-.75.05-1.15.2-.4.15-.75.4-.75.9 0 .45.3.7.7.9.75.35 1.6.4 2.4.55.7.15 1.4.3 2 .7 1.45.9 1.55 2.85.2 3.9-1.9 1.5-5.3 1.2-6.95-.55-.4-.45-.7-.9-.2-1.4.5-.5 1-.2 1.35.25 1.1 1.25 2.5 1.35 3.95 1 .5-.1.95-.4 1-1 .05-.65-.35-1-.9-1.15-.75-.2-1.55-.35-2.3-.5-.6-.1-1.2-.25-1.8-.55-1.5-.7-1.75-2.45-.6-3.6 1.5-1.45 5.15-1.35 6.6.2.35.35.55.8.1 1.2-.4.4-.85.3-1.2-.05-.65-.7-1.45-1-2.45-1zm6.7 3c0-.75-.05-1.4 0-2 .05-.65-.1-.95-.85-.85-.45.05-.8-.1-.95-.55-.1-.3 0-.55.25-.75.25-.2.5-.25.8-.2.6.1.8-.2.75-.75-.05-.45-.05-.9 0-1.35.05-.5.3-.95.9-.9.6.05.9.4.9 1v1.55c0 .35.15.5.5.5h1.95c.5 0 .95.2.95.75s-.4.75-.9.75c-.6 0-1.2.05-1.8 0-.5-.05-.7.1-.7.65.05 1.35 0 2.7 0 4.1.05 1.25.75 1.8 1.95 1.5.35-.1.7-.2 1.05-.25.4-.05.65.15.8.5.1.35.05.65-.25.85-1.1.75-2.35.8-3.6.4-1.05-.3-1.55-1.05-1.75-2.1-.05-1.05.05-2 0-2.85z"/><path class="st0" d="M11.05 17.6c-1.3-1.15-2.65-2.3-3.9-3.45-.9-.85-1.15-1.9-.75-3.05.4-1.2 1.35-1.85 2.55-1.9 1.2-.05 2.15.5 2.7 1.6.6 1.1.35 2.55-.7 3.4-.55.45-.5.7.05 1.05l.05.05c1.35 1.15 1.3 1.15 2.65 0 .45-.4.55-.65 0-1.1-1.05-.9-1.25-2.15-.7-3.3.5-1.1 1.75-1.8 2.9-1.65 1.25.15 2.25 1.05 2.5 2.3.2 1.1-.15 2-1 2.7-.4.35-.4.5 0 .9 1.45 1.35 1.45 1.35 2.95 0 .4-.35.4-.5 0-.85-.9-.75-1.3-1.7-1-2.85.3-1.25 1.3-2.1 2.6-2.2 1.1-.1 2.3.6 2.8 1.6.55 1.1.35 2.45-.6 3.3-1.05 1-2.15 1.95-3.25 2.85-.6.45-.65.7-.05 1.25 1.2 1.1 1.2 2.9.1 4-1.1 1.1-2.8 1.15-4 .1-1.25-1.1-1.3-3 0-4.2.5-.45.5-.7 0-1.15-1.4-1.15-1.35-1.15-2.7.05-.55.45-.4.65.05 1.1 1.2 1.1 1.25 2.8.25 3.95-1 1.15-2.65 1.3-3.9.4-1.4-1-1.5-3.1-.25-4.35.2-.15.4-.3.65-.55zm4.65-6.65c-.6 0-1.15.55-1.15 1.15 0 .4.85 1.45 1.2 1.4.35-.05 1.1-1 1.15-1.4-.05-.55-.65-1.15-1.2-1.15zm-2.2 9.35c0-.45-.8-1.45-1.15-1.45s-1.1.95-1.1 1.4c.05.65.45 1 1.05 1.1.65.1 1.2-.4 1.2-1.05zm5.45 1.1c.6 0 1.15-.55 1.15-1.15 0-.45-.8-1.35-1.15-1.35-.35 0-1.15.95-1.15 1.35 0 .6.55 1.15 1.15 1.15zM9.15 11C8.5 11 8 11.45 8 12.1c0 .45.8 1.45 1.1 1.3.55-.25 1.05-.6 1.1-1.25.1-.6-.4-1.15-1.05-1.15zm14.2 1.1c0-.65-.5-1.1-1.15-1.1-.65.05-1.05.4-1.05 1.05 0 .45.75 1.35 1.1 1.35.3.05 1.1-.85 1.1-1.3z"/></svg>