<svg width="77" height="92" fill="none" xmlns="http://www.w3.org/2000/svg"><path d="M40.335 48.895c-10.896 1.15-20.037-7.947-18.882-18.79.842-7.9 7.225-14.252 15.165-15.089 10.895-1.148 20.035 7.947 18.88 18.79-.842 7.9-7.224 14.252-15.163 15.089zm-.244-31.65c-9.463-.998-17.4 6.901-16.398 16.318.73 6.86 6.274 12.377 13.169 13.103 9.462.998 17.398-6.9 16.396-16.317-.73-6.86-6.273-12.376-13.167-13.103z" fill="url(#paint0_linear)" stroke="url(#paint1_linear)" stroke-miterlimit="10"/><path d="M33.412 58.037l-.023.027a4.23 4.23 0 01.185-.17 3.864 3.864 0 00-.162.143zm.82-.663a3.515 3.515 0 00-.258.192 9.62 9.62 0 01.68-.462 8.781 8.781 0 00-.423.27z" fill="url(#paint2_linear)" stroke="url(#paint3_linear)" stroke-miterlimit="10"/><path d="M62.756 52.603a5.408 5.408 0 002.46-2.87c.622-1.69.342-3.501-.761-4.954l-.077-.099a4.615 4.615 0 01-.712-4.33 4.652 4.652 0 013.168-3.036l.13-.035c2.652-.749 4.25-3.23 3.773-6.093-.32-1.92-1.76-3.471-3.63-4.038l-.016-.005c-1.424-.431-2.632-1.445-3.171-2.826-.623-1.598-.367-3.302.702-4.659l.053-.068c1.22-1.577 1.52-3.725.629-5.506-1.277-2.553-3.978-3.628-6.557-2.742l-.105.036c-1.06.367-2.227.378-3.263-.05-1.89-.784-3.022-2.482-3.022-4.402 0-.05 0-.104.005-.18.054-1.47-.46-2.842-1.45-3.864a5.505 5.505 0 00-3.943-1.66c-1.734 0-3.311.835-4.334 2.287-.905 1.296-2.32 2.013-3.924 2.013-1.586-.013-3.005-.77-3.88-2.067l-.072-.103c-1.342-1.995-3.704-2.816-6.006-2.094-2.306.722-3.762 2.744-3.717 5.125v.125a4.624 4.624 0 01-1.982 3.923 4.687 4.687 0 01-4.38.592l-.083-.03c-1.887-.683-4.042-.311-5.477 1.086-2.055 2-2.252 4.894-.612 7.054l.075.097c.706.921 1.078 2.073.952 3.226-.225 2.057-1.548 3.609-3.455 4.15l-.081.028c-2.325.654-3.843 2.636-3.862 5.04-.022 2.402 1.46 4.407 3.771 5.102l.068.021c1.26.4 2.35 1.262 2.915 2.453.803 1.694.591 3.547-.554 5.005l-.046.058c-1.212 1.533-1.486 3.51-.734 5.282a5.398 5.398 0 002.749 2.824L1.322 74.796c-.914 1.577.229 3.546 2.057 3.546H15.1c1.183 0 2.275.63 2.864 1.65l4.678 8.104c1.075 1.862 3.774 1.865 4.853.006l10.98-18.923 12.282 21.165c.856 1.474 2.996 1.472 3.848-.005l6.037-10.474a3.354 3.354 0 012.905-1.675l10.263-.006c1.684-.001 2.736-1.815 1.894-3.266L62.756 52.603zm-49.128-3.878c-.437-1.027-.28-2.13.45-3.058l.046-.058a6.922 6.922 0 001.167-6.38 6.96 6.96 0 00-4.636-4.565l-.1-.032c-1.617-.488-2.18-1.838-2.172-2.94.01-1.099.6-2.444 2.244-2.91l.081-.027a6.955 6.955 0 004.713-4.475 6.929 6.929 0 00-1.045-6.398l-.073-.094c-1.018-1.341-.676-2.762-.018-3.65.658-.883 1.928-1.623 3.514-1.045l.1.036a7.016 7.016 0 006.465-.874 6.928 6.928 0 002.924-5.77v-.126c-.032-1.676 1.086-2.632 2.14-2.963 1.054-.332 2.523-.189 3.452 1.188l.067.103a6.983 6.983 0 005.745 3.076h.487c2.148 0 4.07-1.153 5.27-2.926.6-.886 1.497-1.374 2.52-1.374a3.24 3.24 0 012.32.973c.396.408.86 1.126.82 2.202-.005.094-.005.193-.005.287 0 2.241 1.1 4.358 2.942 5.663a6.916 6.916 0 006.335.905l.103-.036c1.595-.546 2.848.216 3.492 1.112.645.897.96 2.327-.103 3.676l-.045.054c-2.034 2.58-2.055 6.341.358 9.022.834.927 1.942 1.57 3.14 1.932l.07.022c1.618.489 2.18 1.843 2.172 2.946-.009 1.098-.595 2.438-2.212 2.9l-.117.032a6.975 6.975 0 00-4.713 4.483 6.92 6.92 0 001.046 6.385l.076.099c.878 1.157.662 2.278.455 2.843-.37 1-1.221 1.761-2.226 1.986-.554.13-1.14.085-1.725-.13l-.1-.036a7.016 7.016 0 00-6.465.874 6.925 6.925 0 00-2.924 5.766v.13c.032 1.68-1.086 2.632-2.14 2.963-1.054.332-2.518.188-3.465-1.215l-.059-.081a6.977 6.977 0 00-5.506-3.067 7.054 7.054 0 00-3.392.713 5.24 5.24 0 00-.442.238h-.005a9.223 9.223 0 00-.68.462c-.085.062-.17.134-.252.201-.05.04-.1.081-.149.126a7.276 7.276 0 00-.446.43.076.076 0 01-.018.022l-.158.17c-.135.149-.26.31-.387.48-.027.036-.054.067-.077.103l-.08.108c-.965 1.376-2.434 1.493-3.483 1.148-1.05-.35-2.15-1.323-2.087-2.995l.005-.117a6.934 6.934 0 00-2.83-5.841 7 7 0 00-6.442-.982l-.104.036a3.08 3.08 0 01-1.356.165c-1.086-.11-2.032-.837-2.482-1.895zM23.97 85.889l-4.674-8.093a3.396 3.396 0 00-2.941-1.695H5.04a1.077 1.077 0 01-.937-1.615l12.534-21.61h.014c.104-.004.207-.013.315-.026l.122-.014h.014a5.076 5.076 0 00.657-.13 5.29 5.29 0 00.446-.135l.104-.035a4.69 4.69 0 014.365.668 4.629 4.629 0 011.915 3.95l-.001.032c-.082 2.13 1.071 4.169 3.018 5.056a5.571 5.571 0 002.62.515c.072 0 .139-.004.211-.013.027 0 .054-.005.081-.009a5.137 5.137 0 00.834-.157c.063-.018.126-.035.185-.058a4.879 4.879 0 001.225-.583c.063-.036.122-.076.185-.126a4.21 4.21 0 00.64-.533 2.408 2.408 0 00.189-.197h.004l3.393 5.855-10.996 18.955a1.276 1.276 0 01-2.207-.002zm35.457-8.426l-5.566 9.658a1.372 1.372 0 01-2.374.004l-11.71-20.188-4.415-7.604v-.004h.004c.122-.095.248-.18.379-.256.076-.05.153-.094.234-.135.013-.009.027-.013.04-.022.095-.05.19-.094.288-.135l.095-.04c.077-.032.153-.063.234-.09l.126-.04c.005 0 .01-.005.014-.005.094-.031.19-.058.288-.08a3.35 3.35 0 01.374-.077c.081-.013.162-.026.248-.031.009-.005.022-.005.032-.005.058-.009.117-.013.175-.018.104-.005.203-.009.307-.009a4.739 4.739 0 013.726 1.802c.072.095.14.19.207.292l.054.076c.126.189.266.368.41.538.073.086.15.166.226.243a5.164 5.164 0 001.072.847c.063.036.122.072.185.103.022.01.045.023.063.032l.121.067c.09.04.176.081.266.117.036.018.073.031.109.045.09.036.184.072.28.103.035.009.071.022.103.031a3.493 3.493 0 00.396.104c.1.022.198.045.298.058l.099.014c.076.013.153.022.234.026.027.005.054.005.08.01a5.19 5.19 0 00.82.005 5.57 5.57 0 001.25-.243c2.306-.722 3.761-2.744 3.717-5.125v-.13c-.04-1.952 1.079-3.683 3.002-4.483 1.063-.443 2.266-.423 3.35-.031l.109.04c.076.027.153.054.23.076a5.29 5.29 0 001.923.251l12.311 21.215a.982.982 0 01-.853 1.473l-9.934.006a3.031 3.031 0 00-2.627 1.515z" fill="url(#paint4_linear)" stroke="url(#paint5_linear)" stroke-miterlimit="10"/><defs><linearGradient id="paint0_linear" x1="38.476" y1="14.918" x2="38.476" y2="48.993" gradientUnits="userSpaceOnUse"><stop stop-color="#F16122"/><stop offset="1" stop-color="#FEBD33"/></linearGradient><linearGradient id="paint1_linear" x1="38.476" y1="14.918" x2="38.476" y2="48.993" gradientUnits="userSpaceOnUse"><stop stop-color="#F16122"/><stop offset="1" stop-color="#FEBD33"/></linearGradient><linearGradient id="paint2_linear" x1="34.022" y1="57.104" x2="34.022" y2="58.064" gradientUnits="userSpaceOnUse"><stop stop-color="#F16122"/><stop offset="1" stop-color="#FEBD33"/></linearGradient><linearGradient id="paint3_linear" x1="34.022" y1="57.104" x2="34.022" y2="58.064" gradientUnits="userSpaceOnUse"><stop stop-color="#F16122"/><stop offset="1" stop-color="#FEBD33"/></linearGradient><linearGradient id="paint4_linear" x1="38.5" y1="1" x2="38.5" y2="91.448" gradientUnits="userSpaceOnUse"><stop stop-color="#F16122"/><stop offset="1" stop-color="#FEBD33"/></linearGradient><linearGradient id="paint5_linear" x1="38.5" y1="1" x2="38.5" y2="91.448" gradientUnits="userSpaceOnUse"><stop stop-color="#F16122"/><stop offset="1" stop-color="#FEBD33"/></linearGradient></defs></svg>