<svg width="66" height="66" fill="none" xmlns="http://www.w3.org/2000/svg"><path d="M35.085 36.993c-3.893 1.558-7.584-2.115-6.018-5.989a4.194 4.194 0 012.32-2.309c3.893-1.558 7.584 2.115 6.019 5.989a4.193 4.193 0 01-2.321 2.309zm-.382-6.753c-2.726-1.338-5.428 1.351-4.084 4.064.245.494.653.9 1.15 1.144 2.726 1.338 5.428-1.351 4.084-4.064a2.537 2.537 0 00-1.15-1.144z" fill="url(#paint0_linear)" stroke="url(#paint1_linear)" stroke-miterlimit="10"/><path d="M58.248 31.77c-.553-12.962-11.11-23.393-24.167-23.824a.145.145 0 01-.142-.145v-6.07A.733.733 0 0033.206 1h-.042a.786.786 0 00-.788.784v6.022a.145.145 0 01-.14.144c-12.987.51-23.46 10.911-24.012 23.821a.145.145 0 01-.146.14H1.814A.812.812 0 001 32.72a.75.75 0 00.751.747h6.316c.078 0 .143.063.145.141.396 13.053 10.934 23.617 24.022 24.13.079.003.14.067.14.145v6.248c0 .48.391.869.873.869a.69.69 0 00.693-.689v-6.424c0-.078.062-.142.14-.145 13.161-.434 23.782-11.028 24.179-24.134a.145.145 0 01.145-.14h6.135a.773.773 0 00.775-.772v-.002a.786.786 0 00-.787-.784h-6.134a.146.146 0 01-.145-.14zM33.94 56.04v-9.556a.795.795 0 00-.798-.793.765.765 0 00-.767.763v9.578c0 .084-.07.152-.155.148-12.217-.52-22.041-10.374-22.446-22.56a.149.149 0 01.149-.153h9.703c.43 0 .778-.347.778-.774a.784.784 0 00-.786-.783h-9.68a.149.149 0 01-.149-.154c.556-12.042 10.318-21.73 22.431-22.248a.149.149 0 01.155.148v9.917c0 .407.331.736.74.736h.056a.767.767 0 00.769-.765V9.649c0-.084.07-.151.154-.148 12.186.44 22.029 10.16 22.589 22.255a.149.149 0 01-.149.154h-9.829a.792.792 0 00-.794.79c0 .424.344.767.77.767h9.868c.083 0 .151.07.148.153-.405 12.24-10.313 22.125-22.603 22.568a.15.15 0 01-.154-.148z" fill="url(#paint2_linear)" stroke="url(#paint3_linear)" stroke-miterlimit="10"/><defs><linearGradient id="paint0_linear" x1="33.236" y1="28.328" x2="33.236" y2="37.36" gradientUnits="userSpaceOnUse"><stop stop-color="#F16122"/><stop offset="1" stop-color="#FEBD33"/></linearGradient><linearGradient id="paint1_linear" x1="33.236" y1="28.328" x2="33.236" y2="37.36" gradientUnits="userSpaceOnUse"><stop stop-color="#F16122"/><stop offset="1" stop-color="#FEBD33"/></linearGradient><linearGradient id="paint2_linear" x1="33.157" y1="1" x2="33.157" y2="65" gradientUnits="userSpaceOnUse"><stop stop-color="#F16122"/><stop offset="1" stop-color="#FEBD33"/></linearGradient><linearGradient id="paint3_linear" x1="33.157" y1="1" x2="33.157" y2="65" gradientUnits="userSpaceOnUse"><stop stop-color="#F16122"/><stop offset="1" stop-color="#FEBD33"/></linearGradient></defs></svg>