<svg width="115" height="106" fill="none" xmlns="http://www.w3.org/2000/svg"><path d="M63.854 47.427c-5.12-3.883-10.945-6.531-16.947-7.767 7.414-2.913 12.71-10.15 12.71-18.624C59.617 10.003 50.614 1 39.581 1c-11.033 0-20.036 9.003-20.036 20.036 0 8.297 5.031 15.358 12.18 18.447-4.236.795-8.296 2.207-12.092 4.414C4.893 52.547 1.627 68.434 1.01 73.465c-.089.795.44 1.412 1.235 1.5.706.089 1.324-.44 1.413-1.147.617-4.678 3.618-19.594 17.388-27.627 12.621-7.414 29.039-6.002 41.308 3.354.264.177.53.265.794.265a1.38 1.38 0 001.059-.53c.353-.529.177-1.323-.353-1.853zm-41.75-26.39c0-9.533 7.768-17.39 17.389-17.39 9.62 0 17.388 7.768 17.388 17.39 0 9.532-7.767 17.387-17.388 17.387-9.62 0-17.388-7.855-17.388-17.388z" fill="url(#paint0_linear)" stroke="url(#paint1_linear)" stroke-width="2" stroke-miterlimit="10"/><path d="M112.664 61.02c-5.119-3.884-10.945-6.532-16.947-7.767 7.414-2.913 12.71-10.15 12.71-18.624 0-11.033-9.003-20.036-20.036-20.036-11.033 0-20.036 9.003-20.036 20.036 0 8.297 5.031 15.358 12.18 18.447-4.236.794-8.296 2.207-12.091 4.413-14.74 8.65-18.007 24.538-18.624 29.569-.089.794.441 1.412 1.235 1.5.706.089 1.324-.44 1.413-1.147.617-4.678 3.618-19.595 17.388-27.627 12.622-7.414 29.039-6.002 41.308 3.354.264.177.529.265.794.265a1.38 1.38 0 001.059-.53c.353-.53.265-1.323-.353-1.853zm-41.66-26.391c0-9.533 7.766-17.388 17.387-17.388s17.388 7.767 17.388 17.388c0 9.532-7.767 17.388-17.388 17.388-9.62 0-17.388-7.767-17.388-17.388z" fill="url(#paint2_linear)" stroke="url(#paint3_linear)" stroke-width="2" stroke-miterlimit="10"/><path d="M104.456 81.409c0-.794-.177-1.589-.441-2.295-.265-.794-.706-1.589-1.148-2.295a9.868 9.868 0 00-8.12-4.236c-2.383 0-4.59.882-6.355 2.206-1.677-1.412-3.884-2.206-6.355-2.206a9.868 9.868 0 00-8.12 4.236c-.53.706-.883 1.5-1.148 2.295-.265.706-.353 1.5-.441 2.295v.53c0 1.941.617 3.707 1.677 5.207 0 .088.088.088.176.177l.795.97 13.504 16.33 13.505-16.33.794-.97.176-.177c1.06-1.5 1.677-3.266 1.677-5.207-.176-.177-.176-.353-.176-.53zm-16.153 19.418l-8.031-9.709-3.708-4.413c-.264-.265-.441-.53-.706-.794-.794-1.148-1.236-2.472-1.236-3.884 0-.971.177-1.942.618-2.825.442-.882.971-1.677 1.766-2.294a7.605 7.605 0 014.942-1.854c1.766 0 3.443.618 4.678 1.677l.265.265 1.412 1.236 1.413-1.236.265-.265c1.235-1.06 2.912-1.677 4.678-1.677 1.941 0 3.618.706 4.942 1.853a7.599 7.599 0 011.766 2.295c.353.883.618 1.766.618 2.825 0 1.412-.442 2.736-1.236 3.883-.177.265-.441.53-.706.795l-3.707 4.413-8.032 9.709z" fill="url(#paint4_linear)" stroke="url(#paint5_linear)" stroke-miterlimit="10"/><defs><linearGradient id="paint0_linear" x1="32.695" y1="1" x2="32.695" y2="74.975" gradientUnits="userSpaceOnUse"><stop stop-color="#F16122"/><stop offset="1" stop-color="#FEBD33"/></linearGradient><linearGradient id="paint1_linear" x1="32.695" y1="1" x2="32.695" y2="74.975" gradientUnits="userSpaceOnUse"><stop stop-color="#F16122"/><stop offset="1" stop-color="#FEBD33"/></linearGradient><linearGradient id="paint2_linear" x1="81.517" y1="14.593" x2="81.517" y2="88.568" gradientUnits="userSpaceOnUse"><stop stop-color="#F16122"/><stop offset="1" stop-color="#FEBD33"/></linearGradient><linearGradient id="paint3_linear" x1="81.517" y1="14.593" x2="81.517" y2="88.568" gradientUnits="userSpaceOnUse"><stop stop-color="#F16122"/><stop offset="1" stop-color="#FEBD33"/></linearGradient><linearGradient id="paint4_linear" x1="88.48" y1="72.583" x2="88.48" y2="104.623" gradientUnits="userSpaceOnUse"><stop stop-color="#F16122"/><stop offset="1" stop-color="#FEBD33"/></linearGradient><linearGradient id="paint5_linear" x1="88.48" y1="72.583" x2="88.48" y2="104.623" gradientUnits="userSpaceOnUse"><stop stop-color="#F16122"/><stop offset="1" stop-color="#FEBD33"/></linearGradient></defs></svg>