<svg width="104" height="82" fill="none" xmlns="http://www.w3.org/2000/svg"><path d="M57.95 43.007c-4.632-3.514-9.903-5.91-15.333-7.027 6.708-2.636 11.5-9.185 11.5-16.851C54.117 9.146 45.97 1 35.988 1 26.006 1 17.78 9.066 17.78 19.129c0 7.507 4.552 13.896 11.02 16.69-3.833.72-7.506 1.997-10.94 3.994C4.602 47.639 1.648 62.014 1.009 66.567c-.08.718.399 1.278 1.118 1.357.639.08 1.198-.399 1.278-1.038.559-4.233 3.274-17.73 15.732-24.997 11.42-6.708 26.275-5.43 37.376 3.035.24.16.479.24.718.24.32 0 .72-.16.959-.48.4-.479.32-1.277-.24-1.677zM20.175 19.13c0-8.625 7.028-15.733 15.733-15.733A15.712 15.712 0 0151.641 19.13c0 8.625-7.028 15.732-15.733 15.732-8.705 0-15.733-7.107-15.733-15.732z" fill="url(#paint0_linear)" stroke="url(#paint1_linear)" stroke-width="2" stroke-miterlimit="10"/><path d="M102.114 55.306c-4.632-3.514-9.903-5.91-15.334-7.028 6.709-2.635 11.5-9.184 11.5-16.85 0-9.983-8.146-18.13-18.129-18.13-9.982 0-18.128 8.147-18.128 18.13 0 7.507 4.552 13.896 11.02 16.69-3.833.72-7.506 1.997-10.94 3.994-13.337 7.826-16.292 22.201-16.851 26.753-.08.72.4 1.278 1.118 1.358.639.08 1.198-.4 1.278-1.038.559-4.233 3.274-17.73 15.732-24.997 11.42-6.708 26.275-5.43 37.376 3.035.239.16.479.24.719.24.319 0 .718-.16.958-.48.319-.479.24-1.277-.319-1.677zM64.419 31.428c0-8.626 7.028-15.733 15.733-15.733a15.712 15.712 0 0115.732 15.733c0 8.625-7.028 15.732-15.733 15.732-8.704 0-15.732-7.107-15.732-15.732z" fill="url(#paint2_linear)" stroke="url(#paint3_linear)" stroke-width="2" stroke-miterlimit="10"/><defs><linearGradient id="paint0_linear" x1="29.72" y1="1" x2="29.72" y2="67.933" gradientUnits="userSpaceOnUse"><stop stop-color="#F16122"/><stop offset="1" stop-color="#FEBD33"/></linearGradient><linearGradient id="paint1_linear" x1="29.72" y1="1" x2="29.72" y2="67.933" gradientUnits="userSpaceOnUse"><stop stop-color="#F16122"/><stop offset="1" stop-color="#FEBD33"/></linearGradient><linearGradient id="paint2_linear" x1="73.931" y1="13.299" x2="73.931" y2="80.232" gradientUnits="userSpaceOnUse"><stop stop-color="#F16122"/><stop offset="1" stop-color="#FEBD33"/></linearGradient><linearGradient id="paint3_linear" x1="73.931" y1="13.299" x2="73.931" y2="80.232" gradientUnits="userSpaceOnUse"><stop stop-color="#F16122"/><stop offset="1" stop-color="#FEBD33"/></linearGradient></defs></svg>