<svg width="247" height="132" fill="none" xmlns="http://www.w3.org/2000/svg"><path d="M4.394 11.714c-1.508-.559-2.618-1.277-3.253-2.075C.506 8.841.189 7.803.189 6.527c0-1.597.555-2.873 1.745-3.831 1.19-.958 2.777-1.437 4.76-1.437 1.666 0 3.253.32 4.84.958V5.09c-1.666-.479-3.174-.798-4.602-.798-1.983 0-3.014.638-3.014 1.915 0 .48.158.878.476 1.197.317.32.952.639 1.904.958l1.904.718c1.587.559 2.697 1.277 3.332 1.996.635.798 1.031 1.755 1.031 3.032 0 1.756-.634 3.113-1.904 4.15-1.27 1.038-2.935 1.517-5.157 1.517-.952 0-1.904-.08-2.856-.24-.952-.16-1.745-.399-2.459-.718v-2.953c.873.24 1.745.479 2.697.638.952.16 1.825.24 2.618.24 1.032 0 1.746-.16 2.301-.559.555-.399.793-.878.793-1.596 0-.559-.158-.958-.476-1.277-.317-.32-1.03-.638-1.983-1.037l-1.745-.559zm18.881 7.422c-.952.32-1.904.559-3.094.559-1.428 0-2.538-.32-3.173-1.038-.714-.638-1.031-1.756-1.031-3.192V9.16h-1.984V6.846l2.063-.4.555-3.59h3.015v3.51h3.49V9.16h-3.49v6.145c0 .559.159.958.397 1.118.238.24.714.319 1.348.319.556 0 1.111-.08 1.825-.16v2.554h.08zm9.68.32l-.318-1.118c-.555.479-1.11.878-1.825 1.117-.714.32-1.348.4-1.983.4-1.27 0-2.221-.32-3.015-1.038-.714-.718-1.11-1.676-1.11-2.873 0-.798.238-1.517.634-2.155.397-.639.952-1.117 1.745-1.437.794-.319 1.667-.558 2.698-.558.793 0 1.745.08 2.697.319v-1.277c0-.798-.158-1.357-.476-1.596-.317-.32-.872-.399-1.745-.399-1.428 0-2.936.24-4.602.798V7.165c.635-.32 1.428-.559 2.38-.798.953-.16 1.905-.32 2.857-.32 1.745 0 3.014.32 3.808 1.038.793.718 1.19 1.836 1.19 3.352v9.018h-2.936zM29.94 17.38c.396 0 .872-.08 1.269-.319.397-.24.873-.479 1.27-.798v-2.235c-.715-.08-1.429-.16-1.984-.16-1.507 0-2.221.56-2.221 1.757 0 .558.158.957.396 1.197.318.399.714.558 1.27.558zm17.77 2.075v-8.54c0-.717-.158-1.196-.475-1.515-.318-.32-.794-.48-1.428-.48-.952 0-1.825.32-2.777.879v9.656h-3.65V6.367h3.015l.397 1.436c1.507-1.197 3.173-1.755 4.84-1.755 1.19 0 2.141.319 2.776.957.635.639.952 1.597.952 2.794v9.656h-3.65zm16.026 0l-.317-1.117c-1.031.958-2.3 1.436-3.729 1.436-1.031 0-1.983-.239-2.776-.798-.794-.558-1.428-1.276-1.904-2.314-.477-1.037-.715-2.234-.715-3.591 0-2.075.477-3.831 1.508-5.108 1.031-1.277 2.3-1.915 3.967-1.915 1.348 0 2.538.399 3.49 1.117V.541h3.73v18.914h-3.254zm-2.856-2.553c.794 0 1.587-.24 2.301-.719V9.4a5.209 5.209 0 00-2.539-.639c-.872 0-1.587.32-1.983 1.038-.397.718-.635 1.676-.635 3.032 0 1.357.238 2.395.714 3.033.476.638 1.19 1.037 2.142 1.037zm17.057 2.553l-.317-1.117c-.555.479-1.11.878-1.825 1.117-.714.32-1.349.4-1.983.4-1.27 0-2.221-.32-3.015-1.038-.714-.718-1.11-1.676-1.11-2.873 0-.798.237-1.517.634-2.155.397-.639.952-1.117 1.746-1.437.793-.319 1.666-.558 2.697-.558.793 0 1.745.08 2.697.319v-1.277c0-.798-.158-1.357-.476-1.596-.317-.32-.872-.399-1.745-.399-1.428 0-2.935.24-4.602.798V7.165c.635-.32 1.428-.559 2.38-.798.953-.16 1.905-.32 2.857-.32 1.745 0 3.014.32 3.808 1.038.793.718 1.19 1.836 1.19 3.352v9.018h-2.936zm-3.094-2.075c.397 0 .873-.08 1.27-.319.396-.24.872-.479 1.269-.798v-2.235c-.714-.08-1.428-.16-1.983-.16-1.508 0-2.222.56-2.222 1.757 0 .558.159.957.397 1.197.317.399.793.558 1.27.558zm9.52 2.075V6.367h3.015l.476 1.915c.714-.718 1.349-1.277 1.904-1.596.556-.32 1.27-.479 1.904-.479.318 0 .635 0 1.032.08V9.72c-.476-.08-1.032-.16-1.587-.16-1.11 0-2.142.16-3.094.559v9.337h-3.65zm19.041 0l-.318-1.117c-1.031.958-2.3 1.436-3.728 1.436-1.032 0-1.984-.239-2.777-.798-.793-.558-1.428-1.276-1.904-2.314-.476-1.037-.714-2.234-.714-3.591 0-2.075.476-3.831 1.507-5.108 1.032-1.277 2.301-1.915 3.967-1.915 1.349 0 2.539.399 3.491 1.117V.541h3.729v18.914h-3.253zm-2.856-2.553c.793 0 1.586-.24 2.3-.719V9.4a5.206 5.206 0 00-2.538-.639c-.873 0-1.587.32-1.984 1.038-.396.718-.634 1.676-.634 3.032 0 1.357.238 2.395.714 3.033.476.638 1.19 1.037 2.142 1.037zM20.102 75.959c-5.712 0-10.076-1.596-13.09-4.868-3.015-3.272-4.443-8.06-4.443-14.366 0-6.304 1.507-11.093 4.601-14.445 3.094-3.352 7.458-4.948 13.17-4.948 2.618 0 5.157.4 7.695 1.197.238.08.397.16.476.32.08.16.16.399.16.718v1.197c0 .479-.239.718-.636.718-.158 0-.714-.08-1.586-.319-.794-.24-1.746-.399-2.777-.479-1.11-.16-2.063-.16-2.935-.16-4.92 0-8.569 1.277-11.028 3.911-2.46 2.554-3.65 6.464-3.65 11.652v1.357c0 10.374 4.76 15.562 14.28 15.562 2.302 0 4.602-.32 6.903-.958.635-.16 1.11-.24 1.27-.24.396 0 .634.24.634.72v1.196c0 .32-.08.559-.159.718-.079.16-.238.24-.476.32-2.697.718-5.474 1.197-8.41 1.197zm26.34.16c-3.968 0-7.062-1.278-9.204-3.831-2.221-2.554-3.252-6.066-3.252-10.694 0-4.55 1.11-8.06 3.252-10.615 2.142-2.554 5.236-3.83 9.203-3.83 3.967 0 7.06 1.276 9.203 3.83 2.142 2.554 3.253 6.066 3.253 10.615s-1.111 8.14-3.253 10.694c-2.142 2.553-5.236 3.83-9.203 3.83zm0-2.794c6.187 0 9.36-3.91 9.36-11.652 0-7.74-3.093-11.572-9.36-11.572-6.189 0-9.362 3.831-9.362 11.572 0 7.742 3.173 11.652 9.361 11.652zM66.75 75.32c-.556 0-.794-.239-.794-.798V48.824c0-.558.239-.798.794-.798h1.11c.556 0 .873.24.953.798l.238 2.315c1.745-1.277 3.649-2.235 5.553-2.953a15.92 15.92 0 015.633-1.038c2.618 0 4.601.719 6.03 2.075 1.348 1.357 2.062 3.432 2.062 6.146v19.153c0 .559-.238.798-.793.798h-1.428c-.556 0-.794-.239-.794-.798V56.805c0-2.314-.476-4.07-1.348-5.108-.873-1.037-2.301-1.596-4.284-1.596-3.57 0-7.061 1.118-10.473 3.432v20.99c0 .558-.238.797-.793.797H66.75zm36.732.799c-1.428 0-2.856-.16-4.284-.4a24.782 24.782 0 01-3.888-1.197c-.396-.16-.634-.558-.634-1.117v-.958c0-.478.158-.638.634-.638.08 0 .238 0 .476.08s.794.24 1.508.479c1.983.638 4.125.957 6.347.957 2.221 0 3.887-.479 4.998-1.356 1.11-.878 1.745-2.155 1.745-3.911 0-.958-.317-1.836-1.031-2.474-.714-.718-1.904-1.357-3.57-1.915l-4.919-1.836c-3.887-1.436-5.791-3.83-5.791-7.103 0-2.234.872-4.07 2.538-5.427 1.666-1.356 3.888-2.075 6.585-2.075 2.38 0 4.76.48 7.061 1.357.396.16.634.559.634 1.117v.798c0 .48-.158.719-.555.719-.238 0-.714-.08-1.349-.24-2.3-.638-4.204-.957-5.95-.957-1.904 0-3.411.399-4.442 1.197-1.032.798-1.508 1.915-1.508 3.431 0 1.197.318 2.155 1.032 2.873.714.719 2.062 1.437 4.125 2.155l4.284 1.596c1.983.719 3.491 1.676 4.363 2.794.873 1.117 1.349 2.474 1.349 4.07 0 2.474-.873 4.39-2.697 5.826-1.587 1.436-4.046 2.154-7.061 2.154zm23.642 0c-2.618 0-4.602-.719-5.95-2.076-1.349-1.356-2.063-3.511-2.063-6.225V48.825c0-.558.238-.798.793-.798h1.428c.556 0 .794.24.794.798v17.718c0 2.394.476 4.15 1.348 5.187.873 1.038 2.301 1.596 4.284 1.596 1.746 0 3.412-.24 4.919-.798 1.508-.558 3.174-1.436 4.919-2.633v-20.99c0-.558.238-.798.793-.798h1.428c.556 0 .794.24.794.798v25.618c0 .559-.238.798-.794.798h-1.11c-.556 0-.873-.239-.952-.798l-.238-2.154c-3.174 2.474-6.664 3.75-10.393 3.75zm26.656-.639c-1.428 0-2.538-.399-3.332-1.277-.793-.878-1.19-1.995-1.19-3.591V35.896c0-.559.238-.798.794-.798h1.428c.555 0 .793.24.793.798v34.636c0 .798.159 1.357.476 1.676.317.32.873.479 1.666.479.238 0 .476 0 .714-.08.238 0 .476-.08.635-.08.476 0 .793.24.793.798v1.038c0 .478-.238.718-.714.798-.555.24-1.269.319-2.063.319zm17.295.16c-2.142 0-3.728-.56-4.839-1.676-1.111-1.118-1.666-2.794-1.666-4.948V50.82h-4.284c-.555 0-.794-.24-.794-.798v-.56c0-.318.08-.478.159-.638.08-.16.318-.239.635-.239l4.363-.399.397-7.183c0-.319.079-.478.238-.638.159-.16.317-.16.555-.16h.952c.556 0 .794.24.794.798v7.103h7.854c.555 0 .793.24.793.798v1.118c0 .558-.238.798-.793.798h-7.854v18.036c0 1.516.317 2.554.952 3.113.634.558 1.666.957 3.173.957 1.031 0 1.983-.08 2.777-.24.397-.079.714-.159.952-.159.238-.08.397-.08.476-.08.397 0 .635.24.635.639v.798c0 .638-.238.957-.635 1.117-1.428.4-3.015.639-4.84.639zm12.218-.32c-.555 0-.793-.239-.793-.798V48.824c0-.558.238-.798.793-.798h1.428c.555 0 .793.24.793.798v25.698c0 .559-.238.798-.793.798h-1.428zm.714-33.12c-.714 0-1.269-.239-1.666-.638s-.635-1.037-.635-1.756c0-.718.238-1.277.635-1.755.397-.4.952-.639 1.666-.639s1.269.24 1.666.639c.397.398.635 1.037.635 1.755 0 .719-.238 1.277-.635 1.756-.397.4-.952.639-1.666.639zm10.948 33.12c-.555 0-.793-.239-.793-.798V48.824c0-.558.238-.798.793-.798h1.111c.555 0 .873.24.952.798l.238 2.315c1.745-1.277 3.649-2.235 5.553-2.953a15.923 15.923 0 015.633-1.038c2.618 0 4.602.719 6.03 2.075 1.348 1.357 2.062 3.432 2.062 6.146v19.153c0 .559-.238.798-.793.798h-1.428c-.555 0-.793-.239-.793-.798V56.805c0-2.314-.476-4.07-1.349-5.108-.873-1.037-2.301-1.596-4.284-1.596-3.57 0-7.061 1.118-10.552 3.432v20.99c0 .558-.238.797-.793.797h-1.587zm39.43 11.812c-1.508 0-3.015-.16-4.443-.479-1.428-.32-2.697-.718-3.808-1.277-.397-.16-.635-.559-.635-1.117v-.798c0-.48.159-.719.635-.719.079 0 .238 0 .317.08.159 0 .318.08.714.24 2.539.798 4.919 1.277 6.982 1.277 3.332 0 5.791-.799 7.378-2.474 1.587-1.676 2.38-4.31 2.38-7.901V71.33c-1.349 1.117-2.777 1.995-4.443 2.634-1.586.638-3.173.957-4.601.957-3.491 0-6.188-1.277-8.33-3.75-2.063-2.475-3.094-5.747-3.094-9.817 0-4.39 1.031-7.82 3.094-10.375 2.062-2.554 4.918-3.83 8.409-3.83 3.412 0 6.347 1.197 8.965 3.59l.238-1.994c.079-.559.397-.798.952-.798h1.111c.555 0 .793.239.793.798v25.219c0 4.23-1.111 7.502-3.253 9.736-2.142 2.235-5.315 3.432-9.361 3.432zm1.19-15.004c2.697 0 5.474-1.117 8.33-3.432V53.613c-1.507-1.197-2.856-2.155-4.284-2.714-1.428-.558-2.856-.877-4.364-.877-2.856 0-5.077.957-6.505 2.793-1.428 1.835-2.221 4.629-2.221 8.38 0 3.511.793 6.224 2.3 8.14 1.508 1.915 3.808 2.793 6.744 2.793zM4.473 131.185c-.555 0-.793-.239-.793-.798V94.394c0-.558.238-.798.793-.798h12.059c3.411 0 6.109 1.038 8.171 3.033 2.063 1.995 3.015 4.708 3.015 8.14 0 3.352-1.031 6.066-3.015 8.061-2.062 1.995-4.76 3.032-8.171 3.032H6.774v14.525c0 .559-.238.798-.794.798H4.473zm11.98-18.196c5.315 0 8.012-2.713 8.012-8.22 0-5.507-2.697-8.3-8.012-8.3h-9.68v16.52h9.68zm24.514 18.835c-2.46 0-4.443-.719-5.87-2.155-1.429-1.437-2.222-3.352-2.222-5.746 0-2.634.873-4.709 2.697-6.225 1.825-1.516 4.284-2.314 7.378-2.314 2.38 0 4.999.399 7.696 1.276v-4.549c0-2.234-.555-3.75-1.587-4.708-1.031-.958-2.776-1.437-5.156-1.437-2.46 0-5.078.479-7.855 1.357-.317.08-.634.16-.793.16-.317 0-.555-.24-.555-.719v-.878c0-.319.079-.478.158-.718.08-.159.318-.319.556-.399 2.856-1.117 5.87-1.676 9.044-1.676 3.173 0 5.474.639 7.06 1.995 1.587 1.357 2.301 3.352 2.301 6.066v19.233c0 .559-.238.798-.793.798h-1.11c-.556 0-.794-.239-.873-.798l-.238-2.314c-3.253 2.474-6.506 3.751-9.838 3.751zm.397-2.873c1.349 0 2.856-.32 4.443-.878 1.586-.559 3.173-1.357 4.839-2.394v-6.784c-2.38-.638-4.76-.958-6.982-.958-4.998 0-7.536 1.916-7.536 5.826 0 1.676.476 2.953 1.348 3.831.794.958 2.142 1.357 3.888 1.357zm21.42 2.234c-.555 0-.793-.239-.793-.798v-25.698c0-.558.238-.798.793-.798h1.032c.555 0 .872.24.952.798l.238 3.193c1.348-1.517 2.697-2.634 4.046-3.193 1.348-.638 2.776-.957 4.442-.957.556 0 1.032 0 1.428.08.556 0 .794.319.794.877v1.357c0 .16-.08.319-.159.399-.08.16-.238.16-.397.16h-1.903c-1.666 0-3.095.319-4.364.957a11.27 11.27 0 00-3.65 2.953v19.952c0 .559-.237.798-.793.798h-1.666v-.08zm26.101.32c-2.142 0-3.728-.559-4.839-1.676-1.11-1.118-1.666-2.794-1.666-4.948v-18.196h-4.284c-.555 0-.793-.24-.793-.799v-.558c0-.319.079-.479.158-.639.08-.159.318-.239.635-.239l4.363-.399.397-7.183c0-.319.08-.478.238-.638.159-.16.317-.16.555-.16h.952c.556 0 .794.24.794.798v7.103h7.854c.555 0 .793.24.793.798v1.117c0 .559-.238.799-.793.799h-7.854v18.036c0 1.516.317 2.554.952 3.112.635.559 1.666.958 3.173.958 1.032 0 1.984-.08 2.777-.239.397-.08.714-.16.952-.16.238-.08.397-.08.476-.08.397 0 .635.24.635.639v.798c0 .638-.16.957-.635 1.117-1.349.399-3.015.639-4.84.639zm11.98-.32c-.555 0-.793-.239-.793-.798v-25.698c0-.558.238-.798.793-.798h1.111c.555 0 .872.24.952.798l.238 2.315c1.745-1.277 3.649-2.235 5.553-2.953a15.926 15.926 0 015.633-1.038c2.618 0 4.601.719 6.03 2.075 1.348 1.357 2.062 3.432 2.062 6.146v19.153c0 .559-.238.798-.793.798h-1.428c-.556 0-.794-.239-.794-.798V112.67c0-2.314-.476-4.07-1.348-5.108-.873-1.037-2.301-1.596-4.284-1.596-3.57 0-7.061 1.118-10.473 3.432v20.989c0 .559-.238.798-.793.798h-1.666zm41.334.798c-4.284 0-7.458-1.197-9.679-3.671-2.142-2.474-3.253-6.065-3.253-10.854 0-4.549 1.111-8.06 3.253-10.614 2.142-2.554 5.236-3.751 9.123-3.751 3.253 0 5.792.958 7.537 2.793 1.745 1.916 2.618 4.549 2.618 8.061 0 1.437-.079 2.554-.238 3.272-.079.559-.397.798-.952.798h-18.247c0 3.831.873 6.624 2.459 8.38 1.587 1.835 4.126 2.713 7.537 2.713 2.618 0 5.078-.479 7.378-1.356.476-.16.794-.24.952-.24.159 0 .238.08.397.16.079.159.159.319.159.479v.798c0 .558-.159.957-.635 1.117-2.459 1.277-5.315 1.915-8.409 1.915zm6.664-16.44c0-.479.079-1.117.079-1.756 0-2.633-.635-4.549-1.904-5.905-1.269-1.357-3.094-1.996-5.553-1.996-5.713 0-8.727 3.273-9.045 9.737h16.423v-.08zm10.631 15.642c-.556 0-.794-.239-.794-.798v-25.698c0-.558.238-.798.794-.798h1.031c.555 0 .873.24.952.798l.238 3.193c1.349-1.517 2.697-2.634 4.046-3.193 1.349-.638 2.777-.957 4.443-.957.555 0 1.031 0 1.428.08.555 0 .793.319.793.877v1.357c0 .16-.079.319-.158.399-.08.16-.238.16-.397.16h-1.904c-1.666 0-3.094.319-4.364.957a11.277 11.277 0 00-3.649 2.953v19.952c0 .559-.238.798-.793.798h-1.666v-.08z" fill="#fff"/></svg>