<svg version="1.1" id="Layer_1" xmlns="http://www.w3.org/2000/svg" x="0" y="0" viewBox="0 0 154.53 28" xml:space="preserve"><style>.st0{fill:#fff}</style><path class="st0" d="M0 0h26.9c.9 0 1.1.25 1.1 1.1-.05 8.55-.05 17.05 0 25.6 0 .95-.2 1.25-1.2 1.25-8.5-.05-17-.05-25.5 0-.4 0-.85.05-1.25.05C0 18.65 0 9.35 0 0z"/><path d="M18 9.6c.55 1.7-.45 2.45-1.75 3.15-2.7 1.5-1.75 1.5-4.55 0-1.35-.7-1.8-1.6-1.8-3.1-.05-1.75.6-2.65 2.05-3.55 1.55-.95 2.7-.95 4.2 0 1.3.9 2.4 1.7 1.85 3.5zm-8.3 6.55h3.05c.4 0 .75-.05.75.55 0 .55-.35.5-.7.5H6.6c-.55 0-.75-.3-.75-.75 0-.5.45-.3.7-.3H9.7zm8.7 0c.95 0 1.9-.05 2.8 0 .3 0 .95-.4.95.35 0 .65-.5.7-1.05.7h-5.95c-.45 0-.65-.15-.6-.6 0-.45.3-.5.6-.5 1.05.05 2.15.05 3.25.05zm-3.3-1.2c.65-.7 1.3-1.15 2.25-1.1 1.45.05 2.85 0 4.3 0 .35 0 .7 0 .7.5s-.25.6-.65.55c-2.2.05-4.4.05-6.6.05zm-2.25 0H6.2c-.45 0-.6-.2-.6-.6 0-.45.3-.45.6-.45H11c.8 0 1.3.55 1.85 1.05zM6.6 18.3h6.15c.35 0 .7-.05.7.5 0 .6-.35.55-.75.55-1.65 0-3.25-.05-4.9 0-.7.05-.95-.35-1.2-1.05zm14.75 0c-.2.8-.6 1.1-1.3 1.1-1.55-.05-3.15 0-4.7 0-.35 0-.8.1-.8-.55 0-.6.4-.55.8-.55h6zm-9.9-13.2C9.8 6.8 7.8 6.15 6 6.25c-.4 0-.35-.35-.35-.65 0-.45.25-.5.6-.5h5.2zm5.15 0h4.9c.45 0 .85-.05.85.6 0 .6-.4.55-.8.55-1.55-.1-3.25.4-4.6-.8-.1-.05-.15-.15-.35-.35zM8.35 20.4h4.6c.25 0 .5.05.5.4 0 .25.1.55-.2.75-.7.4-4.1-.1-4.75-.75-.05-.1-.1-.2-.15-.4zm11.35 0c-.65.85-1.3 1.25-2.25 1.2-.75-.05-1.45 0-2.2 0-.4 0-.75 0-.75-.6 0-.55.3-.6.75-.6 1.45.05 2.85 0 4.45 0zM7.25 9.5H8.4c.4 0 .45.25.45.55 0 .3-.05.55-.4.6h-2.4c-.4 0-.4-.3-.4-.6 0-.35.1-.55.5-.55h1.1zm13.55 0h1.05c.35 0 .5.2.5.5 0 .35-.05.65-.5.65h-2.1c-.4 0-.65-.1-.65-.6s.25-.6.65-.55h1.05zM9.25 12.8H6.3c-.4 0-.65-.05-.7-.55 0-.5.25-.55.65-.55.45 0 .9.05 1.35 0 .85-.1 1.4.15 1.65 1.1zm9.45 0c.3-.4.25-1.05.8-1.05.85-.05 1.75-.05 2.6.05.3 0 .2.4.2.65 0 .4-.3.4-.6.4-1-.05-2-.05-3-.05zm2.1-4.35h-1.25c-.4 0-.4-.3-.4-.6s.05-.5.4-.45h2.3c.35 0 .5.15.5.5s-.05.6-.5.6c-.4-.1-.75-.05-1.05-.05zM7.3 7.35h1.15c.4 0 .35.3.4.6 0 .3-.1.45-.4.45h-2.3c-.35 0-.5-.15-.5-.5s.1-.6.5-.6c.4.1.75.05 1.15.05zm6.1 16.3c-.6-.1-1.15-.45-1.7-.8 1.65-.35 1.75-.3 1.7.8zm2.95-.85c-.65.35-1.1.7-1.75.8-.05-1.05-.05-1.05 1.75-.8z" fill="#010101"/><path class="st0" d="M84.91 12.25v3.45c.05 1.6.85 2.5 2.3 2.6 1.95.15 2.95-.5 3.25-2.15.25-1.35.05-2.7.1-4.1 0-1.2.05-2.4 0-3.55 0-.65.3-.75.85-.75.65-.05.65.3.65.8 0 2.4.05 4.75-.05 7.15-.05 2.1-1.25 3.5-3.15 3.9-2.35.45-4.3-.35-5.1-2.1-.25-.55-.3-1.15-.3-1.75V8.7c0-.6.1-.9.8-.9.8-.05.7.45.7.9-.05 1.2-.05 2.35-.05 3.55z"/><path d="M153.11 17.4c-1 1.05-2 1.75-3.4 1.6-1-.1-1.6-.65-1.8-1.65-.35-1.9-.1-3.85-.15-5.75 0-.55.35-.65.85-.7.65 0 .55.4.55.75 0 1.5-.05 3 0 4.5.05 1.55 1 2.05 2.3 1.25 1.05-.65 2-1.4 1.75-2.9-.15-.9 0-1.8-.05-2.75 0-.6.15-.9.8-.9.7 0 .55.45.55.85v6.4c-.05 2.9-1.4 4.2-4.25 4.3h-1.25c-.35 0-.75.1-.7-.45 0-.45.2-.75.65-.75.7-.05 1.4 0 2.1-.1 1.8-.25 2.3-1.2 2.05-3.7z" fill="#fdfeff"/><path class="st0" d="M35.6 13.7c0-1.05.05-2.1.45-3.1 1-2.4 3.2-3 5.65-2.95.55 0 1.1.2 1.65.3.75.1.75.7.6 1.2-.15.65-.6.1-.9.1-.55-.1-1.1-.25-1.65-.3-2.45-.2-3.95 1-4.25 3.45-.15 1.1-.1 2.15.1 3.25.3 1.6 1.4 2.6 3.05 2.7 1 .05 1.95.1 2.9-.2.25-.05.65-.35.75.15.05.4.15.8-.4 1.05-4 1.7-7.75-.65-7.9-4.95-.05-.25-.05-.45-.05-.7zm86.21 4.3c.25.85-.05 1.25-.9 1.45-2.35.65-4.45-.05-4.95-1.95-.4-1.4-.4-2.85 0-4.25.65-2.2 3.35-3.15 5.35-1.95.85.5 1.25 1.5 1 2.65-.2 1.05-1.1 1.75-2.4 1.85-.75.05-1.45.05-2.2 0-.5-.05-.65.15-.65.65.1 1.35 1.15 2.2 2.65 2 .7-.1 1.4-.3 2.1-.45zm-26.05-5.65c.8-.85 1.75-1.6 3.05-1.5 1.2.1 2 .65 2.05 1.95.1 2.1.05 4.2.1 6.3 0 .5-.3.45-.6.45-.45 0-.7-.15-.7-.65V15c0-.5.05-1.05 0-1.55-.15-1.2-1.05-1.75-2.1-1.15-1.2.65-2.2 1.45-2 3.1.15 1.15.05 2.3.05 3.45 0 .4.1.8-.55.75-.55 0-.85-.2-.85-.8v-7c0-.4-.15-.85.6-.85.6 0 .85.25.8.8-.05.2-.1.4.15.6zm-23.25.15c.9-.9 1.7-1.6 2.9-1.65 1.35 0 2.25.55 2.3 1.9.15 2.1.1 4.25.1 6.4 0 .5-.35.4-.65.4-.5 0-.7-.25-.7-.7v-4.6c0-.3.05-.65-.05-.95-.2-1.1-1.05-1.55-2-1.05-1.2.65-2.25 1.4-2.05 3.05.1 1.05.05 2.15 0 3.25 0 .4.35 1.05-.55 1.05-.85 0-.8-.55-.8-1.15v-4.7c0-.65-.05-1.25 0-1.9 0-.35-.25-.9.5-.9.65 0 .9.2.9.85.05.15.05.3.1.7zm-21.25 5.55c-.6.45-1 .9-1.5 1.2-1.85 1.1-3.75.3-3.9-1.85-.15-1.9-.05-3.85-.05-5.75 0-.6.4-.65.85-.65.55 0 .5.35.5.7v4.85c0 .7-.05 1.45.75 1.8.85.4 1.45-.1 2.1-.55.9-.65 1.4-1.4 1.25-2.65-.15-1.05 0-2.15-.05-3.25 0-.55.1-.95.8-.9.75 0 .55.5.55.85v6.7c0 .55.05 1.05-.8 1.05-.9 0-.4-.7-.55-1.05.05-.15.05-.25.05-.5zm82.1-7.2c.7.05 1.15.1 1.6.1.55 0 .6.3.6.75 0 .5-.35.55-.7.5-.85-.1-1.7-.3-2.6 0-.55.2-.9.5-.9 1.1 0 .65.4.85.9.95.7.2 1.45.35 2.1.55 1.05.35 1.6 1.1 1.65 2.2.05 1.1-.5 1.9-1.6 2.35-1.25.5-2.55.3-3.85.15-.5-.05-.6-.4-.55-.85.05-.5.4-.4.7-.35.9.05 1.8.3 2.7.05.65-.15 1.1-.45 1.15-1.15.05-.7-.4-1.05-1.05-1.25-.55-.15-1.15-.3-1.7-.45-1.25-.35-1.95-1.2-1.9-2.3.05-1.1.9-2.05 2.1-2.25.55-.05 1.05-.05 1.35-.1zm-19.35 1.9c.05 2.3-.7 4.4-2.1 6.2-.65.85-1.8.85-2.45 0-1.65-2.2-2.1-4.75-2-7.4.05-.55.4-.65.85-.65.55 0 .5.35.5.7-.05 1.9.05 3.75.95 5.5.25.5.45 1.25 1 1.25s.75-.75 1-1.25c.85-1.65 1-3.4.9-5.2 0-.45-.05-.95.65-.95.5-.05.8.05.75.65-.05.4-.05.8-.05 1.15zm-53.25.6V9.7c0-.35-.1-.7.5-.7.45 0 .9.1.8.65-.2 1.3.5 1.45 1.5 1.3h.4c.55 0 .6.35.6.8 0 .5-.3.4-.65.45-1.85.1-1.85.1-1.85 1.95 0 .85-.05 1.7 0 2.5.05 1.2.5 1.6 1.7 1.6.5 0 1-.05 1 .7 0 .35-.05.55-.5.55-2.3.2-3.5-.85-3.5-3.15v-3zm81.5-.05V9.65c0-.35 0-.7.5-.65.4.05.8.05.8.6 0 .25.05.5 0 .75-.05.55.2.65.65.65.4-.05.85 0 1.25 0 .55 0 .55.4.55.8 0 .55-.35.4-.65.4-1.85.1-1.85.1-1.85 1.95v2.3c.05 1.4.45 1.85 1.8 1.85.55 0 .95.1.9.8 0 .75-.55.45-.9.45-2.2.05-3.1-.9-3.15-3.1.1-1.05.1-2.1.1-3.15zm-16.55-.55c.7-.75 1.15-1.45 2-1.65.45-.1 1-.35 1.2.35.25.75-.25.75-.8.8-1.1.15-2.4 1.8-2.4 2.95v3.65c0 .4.05.75-.55.7-.55-.05-.75-.25-.75-.75v-7c0-.35-.25-.85.5-.85.7 0 .8.35.8.95v.85zm-69.56 0c.7-.8 1.2-1.5 2.05-1.7.4-.1.95-.35 1.15.35.2.65-.15.8-.75.85-1.15.15-2.4 1.75-2.4 2.95v3.65c0 .35.1.75-.5.7-.45 0-.85-.05-.85-.65v-7.45c0-.3.05-.55.45-.5.4.05.8-.05.85.5v1.3zm12.76 2.65v3.35c0 .4.1.85-.6.8-.55-.05-.85-.25-.85-.8V13.2c0-.65.05-1.15-.9-1.05-.5.05-.55-.4-.55-.8 0-.5.4-.4.65-.4 2.55 0 2.15-.3 2.15 2.05.1.8.1 1.6.1 2.4zm36.45-.15v3.55c0 .35.15.8-.5.75-.6 0-.8-.25-.8-.8V13.2c0-.6.1-1.2-.85-1.05-.5.1-.6-.3-.6-.75 0-.6.4-.45.7-.45 2.45.05 2.05-.3 2.1 2-.05.75-.05 1.55-.05 2.3zm34.65.15v3.35c0 .4.15.85-.55.85-.65-.05-.75-.35-.75-.85V13.2c0-.65-.05-1.05-.85-.95-.5.05-.6-.3-.6-.75 0-.6.4-.45.7-.45 2.5.05 2-.3 2.05 2v2.35zm-71.1-7c.05.55-.1.9-.75.9-.45 0-.7-.05-.7-.6.05-.55.15-.85.75-.85.45-.05.8 0 .7.55z"/><path d="M138.71 8.7c-.05-.6.05-.95.7-.95.4 0 .65.1.6.55-.05.45.05.95-.65.9-.45.05-.8.05-.65-.5z" fill="#f7f8f8"/><path class="st0" d="M105.36 8.35c.05.6-.1.9-.75.9-.55 0-.6-.25-.6-.7 0-.6.25-.8.8-.8s.6.25.55.6z"/><path d="M118.56 14.65h-.1c-.45-.1-1.15.3-1.3-.25-.2-.65.1-1.35.65-1.8.75-.6 1.55-.7 2.45-.4.6.2.8.65.75 1.2-.05.6-.3 1-.9 1.1-.5.1-1 .1-1.55.15z" fill="#1f1f24"/></svg>