<svg width="90" height="89" fill="none" xmlns="http://www.w3.org/2000/svg"><path d="M60.994 45.084c-4.906-3.721-10.465-6.2-16.191-7.377 7.082-2.789 12.1-9.669 12.1-17.694C56.903 9.528 48.333 1 37.797 1 27.26 1 18.691 9.528 18.691 20.013c0 7.843 4.794 14.591 11.621 17.491a35.263 35.263 0 00-11.5 4.229c-14.03 8.188-17.149 23.26-17.8 28.063a1.269 1.269 0 001.156 1.43 1.27 1.27 0 001.365-1.096c.591-4.426 3.475-18.566 16.564-26.207 12.009-7.011 27.68-5.698 39.379 3.195a1.268 1.268 0 001.743-.218 1.267 1.267 0 00-.225-1.816zM21.238 20.013c0-9.086 7.429-16.478 16.559-16.478s16.559 7.392 16.559 16.478c0 9.085-7.429 16.478-16.559 16.478s-16.559-7.393-16.559-16.478z" fill="url(#paint0_linear)" stroke="url(#paint1_linear)" stroke-miterlimit="10"/><path d="M88.979 64.838a8.299 8.299 0 00-.482-2.347 9.061 9.061 0 00-1.305-2.405c-1.962-2.608-5.332-4.33-9.153-4.33-2.207 0-4.263.575-5.986 1.563a2.293 2.293 0 01-2.28 0c-1.72-.989-3.777-1.562-5.985-1.562-3.82 0-7.19 1.722-9.153 4.329a9.086 9.086 0 00-1.305 2.405 8.274 8.274 0 00-.482 2.347 5.74 5.74 0 00-.022.54c0 1.975.679 3.812 1.841 5.338.047.062.097.121.15.178l.892.982 13.463 14.909a2.347 2.347 0 003.481 0l13.464-14.909.892-.982c.052-.057.102-.116.15-.178 1.162-1.526 1.84-3.363 1.84-5.339a5.577 5.577 0 00-.02-.538zM72.654 82.917a2.348 2.348 0 01-3.48 0l-7.288-8.069-4.138-4.584a7.525 7.525 0 01-.778-.856c-.005-.01-.01-.014-.016-.024-.877-1.145-1.387-2.526-1.387-4.007 0-1.03.246-2.001.69-2.886a7.24 7.24 0 011.951-2.405c1.47-1.198 3.426-1.925 5.58-1.925 2.01 0 3.847.635 5.278 1.693.104.073.202.15.301.231l1.545 1.25 1.546-1.25c.099-.082.197-.159.301-.23 1.43-1.059 3.267-1.694 5.278-1.694 2.154 0 4.11.727 5.58 1.925a7.233 7.233 0 011.95 2.405c.444.885.691 1.857.691 2.886 0 1.481-.51 2.862-1.387 4.007-.005.01-.01.014-.016.024a7.591 7.591 0 01-.779.856l-4.138 4.584-7.284 8.069z" fill="url(#paint2_linear)" stroke="url(#paint3_linear)" stroke-miterlimit="10"/><defs><linearGradient id="paint0_linear" x1="31.252" y1="1" x2="31.252" y2="71.229" gradientUnits="userSpaceOnUse"><stop stop-color="#F16122"/><stop offset="1" stop-color="#FEBD33"/></linearGradient><linearGradient id="paint1_linear" x1="31.252" y1="1" x2="31.252" y2="71.229" gradientUnits="userSpaceOnUse"><stop stop-color="#F16122"/><stop offset="1" stop-color="#FEBD33"/></linearGradient><linearGradient id="paint2_linear" x1="70.913" y1="55.757" x2="70.913" y2="87.557" gradientUnits="userSpaceOnUse"><stop stop-color="#F16122"/><stop offset="1" stop-color="#FEBD33"/></linearGradient><linearGradient id="paint3_linear" x1="70.913" y1="55.757" x2="70.913" y2="87.557" gradientUnits="userSpaceOnUse"><stop stop-color="#F16122"/><stop offset="1" stop-color="#FEBD33"/></linearGradient></defs></svg>