<svg width="99" height="99" fill="none" xmlns="http://www.w3.org/2000/svg"><path d="M14.16 84.566c1.133-3.56 4.289-6.15.971-10.843-3.318-4.612-6.797-2.266-10.6-2.59C3.075 66.684 1.537 62.072 0 57.379c2.994-2.265 7.201-2.508 7.201-8.172 0-5.583-3.964-5.907-7.12-8.173 1.456-4.612 2.994-9.143 4.531-13.836 3.722-.404 7.363 2.104 10.68-2.59 3.318-4.611.082-7.281-.97-10.842 3.965-2.832 7.93-5.664 11.975-8.577.648.567 1.376 1.052 1.861 1.619 2.347 3.236 5.098 3.803 8.9 2.184 2.51-1.052 3.966-2.023 4.29-4.936C41.751-.07 41.994.01 46.282.01c2.913 0 5.745.08 8.658 0 1.457-.081 2.427.323 2.347 1.942-.081 4.693 2.346 6.797 6.796 7.687 2.104.404 3.56.566 4.936-1.214.971-1.214 2.266-2.185 3.48-3.399 4.045 2.913 7.93 5.745 11.975 8.577-.89 3.56-4.288 6.15-.971 10.762 3.317 4.774 6.959 2.266 10.68 2.67 1.457 4.532 2.995 8.982 4.532 13.837-1.78.97-3.641 1.78-5.179 2.913-.809.566-1.618 1.78-1.618 2.75-.08 2.347-.404 5.18.728 6.96 1.052 1.699 3.884 2.346 6.069 3.56-1.456 4.369-2.751 8.577-4.288 12.703-.243.567-1.7 1.295-2.347 1.052-4.693-1.7-7.363.566-9.629 4.37-.97 1.618-1.376 2.75-.324 4.45.89 1.375 1.457 2.913 2.266 4.612-3.965 2.832-7.93 5.745-12.056 8.658-1.457-1.376-2.994-2.67-4.289-4.127-.97-1.052-1.942-1.294-3.236-.647-.081 0-.162.08-.243.08-4.612.81-7.849 2.752-7.606 8.173 0 .486-1.295 1.538-2.023 1.538-3.722.161-7.525 0-11.247.08-1.618.081-2.266-.566-2.266-2.103.081-4.37-2.022-6.554-6.392-7.525-2.427-.486-4.046-.729-5.664 1.294-.89 1.133-2.104 2.023-3.236 3.075-4.046-2.427-8.011-5.26-11.976-8.172zm80.51-25.974c-6.23-.89-6.392-5.017-6.392-9.953 0-4.207.728-7.2 5.098-8.415.404-.08.728-.485 1.132-.809-.728-2.184-1.456-4.37-2.022-6.554-.405-1.618-1.214-2.508-2.913-1.942-3.884 1.376-6.23-.323-7.93-3.56-.243-.486-.567-.89-.89-1.295-3.318-3.155-3.803-6.473-.971-10.195.162-.243.243-.647.324-1.052-1.78-1.294-3.56-2.59-5.34-3.803a46.55 46.55 0 01-2.105-1.456c-1.86 1.537-3.479 3.965-5.42 4.288-2.105.405-4.532-1.375-6.96-1.86-3.722-.73-6.068-2.428-5.987-6.636 0-.647-1.133-1.78-1.78-1.86-2.59-.244-5.179-.082-8.173-.082.324 5.179-2.023 7.606-7.04 9.063-4.611 1.375-8.01 1.618-10.923-2.509-.08-.162-.404-.243-.728-.323a558.845 558.845 0 00-7.687 5.583c4.531 4.45 2.185 8.01-.81 11.975-2.346 2.994-4.288 5.26-8.414 3.803-.567-.243-2.023.324-2.185.89-.97 2.428-1.7 5.017-2.67 8.01 5.664.89 6.311 4.532 6.473 9.387.162 5.097-1.214 8.253-6.392 9.386.809 2.508 1.618 4.612 2.104 6.797.485 1.78 1.375 2.589 3.155 1.942 3.641-1.295 5.907.161 7.525 3.317.243.567.648 1.052 1.052 1.457 3.237 3.074 4.046 6.392 1.052 10.195-.162.243-.243.647-.404 1.133 2.508 1.86 5.016 3.64 7.848 5.664 2.913-5.745 7.12-4.936 11.652-2.913 1.295.566 2.67.728 3.965 1.375.647.324 1.375.971 1.618 1.7.647 1.78.486 4.288 1.618 5.178 1.214.971 3.642.324 5.584.324h.809c1.942.323 2.993-.486 2.993-2.428-.08-3.56 1.7-5.42 5.098-5.826.566-.08 1.214-.242 1.7-.566 4.207-2.266 7.848-2.023 10.68 2.185.162.162.405.323.728.566 2.509-1.78 5.017-3.56 7.849-5.664-4.855-4.693-2.266-8.415 1.052-12.137.81-.89 1.376-2.023 2.185-2.913.566-.566 1.537-1.052 2.346-1.133 1.861-.08 4.289.81 5.502 0 1.295-.89 1.376-3.398 2.023-5.178.243-.729.486-1.619.971-3.156z" fill="url(#paint0_linear)"/><path d="M76.545 59.401H20.956l-.08-.243c-.082-.161-.082-.242-.162-.404a14.235 14.235 0 01-.729-4.45c0-1.538.243-3.075.729-4.45.323-1.133.89-2.185 1.456-3.237 2.913-4.774 8.253-7.525 13.917-6.959 3.075-6.959 9.953-11.409 17.559-11.409 5.017 0 9.71 1.942 13.35 5.421 3.561 3.48 5.665 8.173 5.827 13.108 1.618.486 2.994 1.457 4.045 2.752a7.732 7.732 0 011.619 4.774c0 1.78-.567 3.398-1.619 4.774-.08.08-.08.161-.161.242l-.162.081zm-55.103-.728h54.78l.08-.081a7.1 7.1 0 001.456-4.37 7.1 7.1 0 00-1.456-4.369 7.083 7.083 0 00-3.884-2.589l-.243-.08v-.486c-.323-10.034-8.415-17.883-18.448-17.883-7.444 0-14.08 4.37-16.992 11.248l-.081.242h-.243c-.486-.08-1.052-.08-1.537-.08-4.936 0-9.386 2.508-11.976 6.715-.566.971-1.052 2.023-1.375 3.075-.405 1.376-.648 2.832-.648 4.289 0 1.456.243 2.913.648 4.288-.162 0-.162.081-.081.081z" fill="url(#paint1_linear)" stroke="url(#paint2_linear)" stroke-width="3" stroke-miterlimit="10"/><defs><linearGradient id="paint0_linear" x1="49.358" y1="0" x2="49.358" y2="98.004" gradientUnits="userSpaceOnUse"><stop stop-color="#F16122"/><stop offset="1" stop-color="#FEBD33"/></linearGradient><linearGradient id="paint1_linear" x1="49.236" y1="28.249" x2="49.236" y2="59.401" gradientUnits="userSpaceOnUse"><stop stop-color="#F16122"/><stop offset="1" stop-color="#FEBD33"/></linearGradient><linearGradient id="paint2_linear" x1="49.236" y1="28.249" x2="49.236" y2="59.401" gradientUnits="userSpaceOnUse"><stop stop-color="#F16122"/><stop offset="1" stop-color="#FEBD33"/></linearGradient></defs></svg>