<svg width="115" height="67" fill="none" xmlns="http://www.w3.org/2000/svg"><path d="M112.926 35.53c-.982 13.223-12.272 23.8-26.213 24.745-13.843.944-25.722-7.65-29.256-19.456-.688-2.36-1.08-4.722-1.08-7.272 0-14.26-12.763-25.783-27.98-24.744-12.861.756-23.268 10.672-24.25 22.855-1.08 14.545 11.094 26.633 26.115 26.633v-4.155c0-.472.59-.85 1.08-.567l4.614 2.55 2.062 1.133 2.454 1.323 1.178.66-5.694 3.117-4.614 2.55c-.49.284-1.08-.094-1.08-.566v-3.872C13.965 60.464.81 47.336 2.086 31.658c.981-13.222 12.272-23.8 26.213-24.744C42.14 5.97 54.02 14.564 57.555 26.37c.687 2.36 1.08 4.722 1.08 7.272 0 14.26 12.763 25.783 28.078 24.744 12.861-.85 23.268-10.767 24.151-23.044 1.08-14.45-11.094-26.539-26.114-26.539v4.156c0 .472-.59.85-1.08.566l-4.615-2.55-1.963-1.133-2.454-1.417-1.179-.66 5.695-3.117 4.614-2.55c.49-.284 1.08.094 1.08.566v3.872c16.199.19 29.256 13.317 28.078 28.995z" fill="url(#paint0_linear)" stroke="url(#paint1_linear)" stroke-width="3" stroke-miterlimit="10"/><defs><linearGradient id="paint0_linear" x1="57.5" y1="2" x2="57.5" y2="65" gradientUnits="userSpaceOnUse"><stop stop-color="#F16122"/><stop offset="1" stop-color="#FEBD33"/></linearGradient><linearGradient id="paint1_linear" x1="57.5" y1="2" x2="57.5" y2="65" gradientUnits="userSpaceOnUse"><stop stop-color="#F16122"/><stop offset="1" stop-color="#FEBD33"/></linearGradient></defs></svg>