<svg width="27" height="27" fill="none" xmlns="http://www.w3.org/2000/svg"><path d="M13.666 26.99C6.382 26.923.543 21.052.593 13.845.643 6.515 6.595.724 14.048.862c7.12.132 12.847 6.025 12.744 13.34-.099 7.02-6.065 12.853-13.126 12.788zm3.572-18.263l.406-2.45c-1.148-.297-2.265-.436-3.402-.247-1.882.312-2.575 1.04-2.802 2.9a4.27 4.27 0 00-.027.5c-.003.644-.001 1.288-.001 1.971-.467 0-.868-.018-1.265.01-.126.01-.345.138-.348.219-.027.727-.016 1.456-.016 2.246h1.613v7.98h3.249v-7.982h2.42l.245-2.44h-2.683c0-.646-.004-1.227.001-1.809.007-.725.347-1.077 1.083-1.058.482.012.963.098 1.527.16z" fill="#fff"/></svg>