<svg width="97" height="97" fill="none" xmlns="http://www.w3.org/2000/svg"><path d="M51.467 54.293c-5.763 2.307-11.229-3.132-8.91-8.867a6.21 6.21 0 013.436-3.42c5.763-2.306 11.229 3.132 8.91 8.868a6.208 6.208 0 01-3.436 3.419zm-.565-10c-4.036-1.98-8.037 2.002-6.047 6.018a3.757 3.757 0 001.703 1.695c4.036 1.98 8.037-2.001 6.047-6.018a3.757 3.757 0 00-1.703-1.694z" fill="url(#paint0_linear)" stroke="url(#paint1_linear)" stroke-miterlimit="10"/><path d="M85.764 46.56c-.819-19.193-16.45-34.638-35.783-35.276a.215.215 0 01-.209-.214V2.083c0-.598-.487-1.083-1.088-1.083h-.062c-.645 0-1.167.52-1.167 1.161v8.916c0 .116-.092.21-.208.214-19.228.756-34.734 16.155-35.553 35.27a.214.214 0 01-.215.206H2.205c-.666 0-1.205.537-1.205 1.199a1.11 1.11 0 001.112 1.107h9.351c.117 0 .212.092.215.209.587 19.326 16.19 34.967 35.57 35.728a.215.215 0 01.207.214v9.252c0 .71.578 1.286 1.292 1.286.566 0 1.025-.457 1.025-1.02V85.23c0-.116.092-.21.209-.214 19.486-.644 35.212-16.33 35.8-35.735a.215.215 0 01.215-.208h9.083c.634 0 1.148-.511 1.148-1.142v-.003c0-.641-.523-1.16-1.166-1.16h-9.082a.216.216 0 01-.215-.208zM49.772 82.494V68.347c0-.648-.529-1.174-1.18-1.174-.628 0-1.136.506-1.136 1.13v14.182a.22.22 0 01-.23.218c-18.09-.77-32.636-15.36-33.234-33.404a.22.22 0 01.22-.226h14.367a1.15 1.15 0 001.152-1.146c0-.64-.521-1.159-1.164-1.159H14.233a.22.22 0 01-.22-.229c.824-17.83 15.278-32.175 33.213-32.94a.22.22 0 01.23.218V28.5c0 .602.49 1.09 1.095 1.09h.083c.629 0 1.139-.507 1.139-1.133V13.806a.22.22 0 01.227-.22c18.044.652 32.617 15.043 33.447 32.952a.22.22 0 01-.22.23H68.674c-.65 0-1.177.523-1.177 1.17 0 .626.51 1.135 1.14 1.135h14.611a.22.22 0 01.22.226C82.868 67.42 68.198 82.058 50 82.714a.221.221 0 01-.228-.22z" fill="url(#paint2_linear)" stroke="url(#paint3_linear)" stroke-miterlimit="10"/><defs><linearGradient id="paint0_linear" x1="48.73" y1="41.464" x2="48.73" y2="54.836" gradientUnits="userSpaceOnUse"><stop stop-color="#F16122"/><stop offset="1" stop-color="#FEBD33"/></linearGradient><linearGradient id="paint1_linear" x1="48.73" y1="41.464" x2="48.73" y2="54.836" gradientUnits="userSpaceOnUse"><stop stop-color="#F16122"/><stop offset="1" stop-color="#FEBD33"/></linearGradient><linearGradient id="paint2_linear" x1="48.613" y1="1" x2="48.613" y2="95.762" gradientUnits="userSpaceOnUse"><stop stop-color="#F16122"/><stop offset="1" stop-color="#FEBD33"/></linearGradient><linearGradient id="paint3_linear" x1="48.613" y1="1" x2="48.613" y2="95.762" gradientUnits="userSpaceOnUse"><stop stop-color="#F16122"/><stop offset="1" stop-color="#FEBD33"/></linearGradient></defs></svg>