<svg width="83" height="111" fill="none" xmlns="http://www.w3.org/2000/svg"><path d="M42.965 95.273v12.987h16.593c.48 0 .842.36.842.841s-.361.842-.842.842H24.207a.822.822 0 01-.842-.842c0-.481.36-.841.842-.841H41.04V95.273H2.804c-.962 0-1.804-.84-1.804-1.803V42.247c0-.962.842-1.804 1.804-1.804h19.72c.48 0 .841.36.841.842 0 .48-.36.842-.842.842H2.803V93.47H80.12V42.247H61.121a.822.822 0 01-.842-.842c0-.48.361-.842.842-.842h18.998c.962 0 1.804.842 1.804 1.804V93.71c0 .962-.842 1.804-1.804 1.804H42.965v-.24z" fill="url(#paint0_linear)" stroke="url(#paint1_linear)" stroke-width="2" stroke-miterlimit="10"/><path d="M18.315 21.204c-.481-3.247-3.367-5.772-6.854-5.652-3.247.24-5.892 3.006-6.012 6.253-.12 3.727 2.766 6.734 6.493 6.734 3.247 0 6.012-2.405 6.493-5.652h11.423v44.009c0 .48.36.841.842.841.48 0 .841-.36.841-.841v-44.73a.822.822 0 00-.841-.842H18.315v-.12zm-5.531 5.531c-3.367.601-6.253-2.285-5.531-5.531.36-1.804 1.803-3.367 3.727-3.728a4.727 4.727 0 015.531 5.532c-.36 1.923-1.924 3.366-3.727 3.727z" fill="url(#paint2_linear)" stroke="url(#paint3_linear)" stroke-width="2" stroke-miterlimit="10"/><path d="M72.303 15.673c-3.487-.24-6.372 2.285-6.853 5.651H54.027c-.962 0-1.804.842-1.804 1.804v44.009c0 .48.36.841.842.841.48 0 .841-.36.841-.841v-44.13H65.33c.481 3.127 3.127 5.652 6.494 5.652 3.727 0 6.613-3.126 6.493-6.733 0-3.367-2.766-6.012-6.013-6.253zm.481 11.062c-3.366.602-6.252-2.284-5.53-5.53.36-1.804 1.803-3.368 3.727-3.728a4.727 4.727 0 015.53 5.53 4.605 4.605 0 01-3.727 3.728z" fill="url(#paint4_linear)" stroke="url(#paint5_linear)" stroke-width="2" stroke-miterlimit="10"/><path d="M41.762 1.003c-3.246.12-6.012 2.766-6.252 6.013-.241 3.487 2.284 6.493 5.65 6.853v65.172c0 .48.362.841.843.841.48 0 .841-.36.841-.841V13.99c3.127-.481 5.652-3.127 5.652-6.493 0-3.608-3.006-6.614-6.734-6.494zm1.203 11.183c-3.367.601-6.253-2.285-5.532-5.531.361-1.804 1.804-3.367 3.728-3.728 3.367-.6 6.252 2.285 5.531 5.531-.36 1.804-1.924 3.367-3.727 3.728z" fill="url(#paint6_linear)" stroke="url(#paint7_linear)" stroke-width="2" stroke-miterlimit="10"/><defs><linearGradient id="paint0_linear" x1="41.461" y1="40.443" x2="41.461" y2="109.943" gradientUnits="userSpaceOnUse"><stop stop-color="#F16122"/><stop offset="1" stop-color="#FEBD33"/></linearGradient><linearGradient id="paint1_linear" x1="41.461" y1="40.443" x2="41.461" y2="109.943" gradientUnits="userSpaceOnUse"><stop stop-color="#F16122"/><stop offset="1" stop-color="#FEBD33"/></linearGradient><linearGradient id="paint2_linear" x1="18.493" y1="15.548" x2="18.493" y2="67.737" gradientUnits="userSpaceOnUse"><stop stop-color="#F16122"/><stop offset="1" stop-color="#FEBD33"/></linearGradient><linearGradient id="paint3_linear" x1="18.493" y1="15.548" x2="18.493" y2="67.737" gradientUnits="userSpaceOnUse"><stop stop-color="#F16122"/><stop offset="1" stop-color="#FEBD33"/></linearGradient><linearGradient id="paint4_linear" x1="65.271" y1="15.657" x2="65.271" y2="67.978" gradientUnits="userSpaceOnUse"><stop stop-color="#F16122"/><stop offset="1" stop-color="#FEBD33"/></linearGradient><linearGradient id="paint5_linear" x1="65.271" y1="15.657" x2="65.271" y2="67.978" gradientUnits="userSpaceOnUse"><stop stop-color="#F16122"/><stop offset="1" stop-color="#FEBD33"/></linearGradient><linearGradient id="paint6_linear" x1="41.995" y1="1" x2="41.995" y2="79.882" gradientUnits="userSpaceOnUse"><stop stop-color="#F16122"/><stop offset="1" stop-color="#FEBD33"/></linearGradient><linearGradient id="paint7_linear" x1="41.995" y1="1" x2="41.995" y2="79.882" gradientUnits="userSpaceOnUse"><stop stop-color="#F16122"/><stop offset="1" stop-color="#FEBD33"/></linearGradient></defs></svg>