<svg xmlns="http://www.w3.org/2000/svg" viewBox="0 0 83.9 32.27"><path d="M.1 32.16c.25-.2.55-.35.8-.55 1.5-1.05 3-2.1 4.55-3.15.15-.1.3-.15.5-.15h77.31c.25 0 .35.05.35.3v3.35c0 .25-.1.35-.3.3H.15c0-.05 0-.1-.05-.1zM25 11.36c.6.1 1.15.15 1.65.3 2.15.65 3.75 1.95 4.2 4.25.7 3.4-.6 6.55-4.55 7.85-1.7.55-3.45.75-5.2.75h-9.65c-.1 0-.2.05-.25-.05 0-.1.15-.15.2-.2 1.6-1.1 3.15-2.2 4.75-3.35.15-.1.35-.15.55-.15h4.8c.95 0 1.9-.15 2.8-.55 1.15-.55 1.75-1.45 1.8-2.65.1-1.3-.3-2.35-1.45-3.05-.85-.55-1.8-.75-2.8-.9-1.9-.25-3.8-.15-5.65-.2-.25 0-.25.15-.25.3v5.3c0 .25-.1.4-.3.55-1.45 1-2.85 2-4.25 3-.1.05-.2.15-.35.25V2.91c0-.4-.05-.75-.25-1.1-.2-.4-.35-.8-.55-1.2-.1-.2-.05-.25.15-.25h12.15c2.1 0 3.95.7 5.3 2.35 2.4 2.85 1.15 7.35-2.35 8.45-.15.05-.35.05-.5.2zm-9.1-4.3v2.8c0 .2.05.25.25.25h3.95c.9 0 1.75-.25 2.55-.75.95-.55 1.55-1.35 1.6-2.5.05-1.5-.65-2.45-2.1-2.75-.25-.05-.55-.1-.85-.1h-5.1c-.25 0-.3.1-.3.3.05.95 0 1.85 0 2.75zm42.26 5.45c0-2.15.3-4.05 1.2-5.9 1.3-2.75 3.5-4.6 6.35-5.6 4.25-1.55 8.45-1.35 12.45.85 3.2 1.75 5 4.55 5.55 8.15.35 2.45.25 4.85-.6 7.15-1.2 3.25-3.5 5.4-6.7 6.6-4.3 1.6-8.55 1.35-12.55-.85-3.05-1.65-4.8-4.3-5.45-7.65-.2-.9-.25-1.9-.25-2.75zm5.1-.1c0 .45 0 .95.05 1.4.15 1.6.6 3.15 1.65 4.45 1.8 2.25 4.15 3.2 7 2.85 2.9-.35 5-1.85 6.1-4.55.85-2 .9-4.15.6-6.3-.25-1.5-.8-2.95-1.85-4.1-1.75-1.95-3.95-2.75-6.55-2.5-2.45.25-4.35 1.35-5.7 3.45-1 1.65-1.3 3.45-1.3 5.3zM34.2 24.51c.15-.1.25-.2.3-.25 1.6-1.1 3.2-2.25 4.8-3.35.15-.1.35-.2.55-.2 1.25 0 2.5.1 3.75 0 2.85-.2 5.15-1.4 6.4-4.1.45-.95.65-1.95.75-3 .15-1.75.05-3.45-.65-5.05-.95-2.3-2.75-3.6-5.1-4.2-.9-.25-1.8-.35-2.75-.35H39.4c-.3 0-.35.1-.35.35v14.55c0 .3-.1.5-.35.65-1.4.95-2.8 1.95-4.2 2.95-.1.05-.2.1-.35.25V2.81c0-.4-.05-.75-.25-1.05-.25-.45-.4-.95-.65-1.4h.25c3.6 0 7.2-.05 10.8.05 3.9.1 7.1 1.65 9.4 4.85 1.2 1.65 1.85 3.55 2.05 5.6.25 2.1.1 4.15-.6 6.15-1.2 3.5-3.6 5.75-7.1 6.95-1.4.5-2.85.7-4.35.7h-9.3c0-.15-.05-.15-.2-.15zM0 30.46V.76c0-.35.05-.4.4-.4h4.05c.25 0 .3.05.3.3v26.25c0 .15 0 .3-.2.4-1.5 1-2.95 2.05-4.4 3.1 0-.05-.05 0-.15.05z" fill="#fff"/></svg>