<svg width="27" height="27" fill="none" xmlns="http://www.w3.org/2000/svg"><path d="M.61 13.908C.614 6.714 6.453.85 13.606.858 20.943.868 26.78 6.66 26.78 13.933c-.001 7.236-5.879 13.073-13.148 13.057C6.432 26.974.605 21.12.61 13.909zm11.407 4.969h2.93v-5.186c.002-.96.72-1.673 1.68-1.674.878 0 1.508.68 1.51 1.644.004 1.552.001 3.104.001 4.656v.552h2.902c0-1.529.008-3.012-.005-4.495-.005-.583-.003-1.174-.104-1.744-.24-1.356-.891-2.443-2.332-2.764-1.394-.31-2.631-.024-3.469 1.268-.022.034-.07.052-.156.112l-.058-1.242h-2.899v8.873zM7.35 9.985v8.93c.837 0 1.638-.025 2.436.01.46.021.594-.117.59-.582-.022-2.601-.01-5.203-.012-7.805 0-.178-.015-.356-.024-.553H7.35zM8.805 8.76c.897.005 1.663-.688 1.68-1.52.018-.841-.768-1.587-1.674-1.588-.889-.001-1.635.708-1.636 1.555 0 .86.721 1.547 1.63 1.553z" fill="#fff"/></svg>