<svg version="1.1" id="Layer_1" xmlns="http://www.w3.org/2000/svg" x="0" y="0" viewBox="0 0 191 94.7" xml:space="preserve"><style>.st0{fill:#c3d946}.st7{fill:#008ec3}</style><path class="st0" d="M173.8 0v70.9H191V19.2L173.8 0z"/><linearGradient id="SVGID_1_" gradientUnits="userSpaceOnUse" x1="181.924" y1="76.238" x2="168.262" y2="64.385" gradientTransform="matrix(1 0 0 -1 0 112.11)"><stop offset="0" stop-color="#c4d82e" stop-opacity="0"/><stop offset="1" stop-color="#469337"/></linearGradient><path d="M173.8 0v70.9H191V19.2L173.8 0z" opacity=".8" fill="url(#SVGID_1_)"/><path d="M137.7.1L191 70.9h-22.6l-42-56.5L137.7.1z" fill="#8dc63f"/><linearGradient id="SVGID_2_" gradientUnits="userSpaceOnUse" x1="149.744" y1="76.601" x2="136.001" y2="76.601" gradientTransform="matrix(1 0 0 -1 0 112.11)"><stop offset="0" stop-color="#8dc63f" stop-opacity="0"/><stop offset="1" stop-color="#48a842"/></linearGradient><path d="M137.7.1L191 70.9h-22.6l-42-56.5L137.7.1z" fill="url(#SVGID_2_)"/><path d="M33.3 36.8l-8.4-9.3v2.1h-12l4.3-4.8V0H0l.1.1H0v43.8l7.6-8.4 1.2 1.3 8.4 9.3 3.8 4.2L39.7 71h24.5L33.3 36.8z" fill="#f16122"/><linearGradient id="SVGID_3_" gradientUnits="userSpaceOnUse" x1="4.132" y1="88.694" x2="11.714" y2="81.208" gradientTransform="matrix(1 0 0 -1 0 112.11)"><stop offset="0" stop-color="#f16122" stop-opacity="0"/><stop offset="1" stop-color="#b43816"/></linearGradient><path d="M17.2 11.8H0v32.1h17.2V11.8z" fill="url(#SVGID_3_)"/><path d="M33.3 34.2L21.1 47.7l-3.8 4.2L0 71V43.9l8.8-9.7 8.4-9.3 3.8-4.2L39.7 0h24.5L33.3 34.2z" fill="#febd33"/><path class="st7" d="M70.1 0L54.4 17.3h58.7V0h-43z"/><linearGradient id="SVGID_4_" gradientUnits="userSpaceOnUse" x1="84.954" y1="102.346" x2="94.115" y2="93.887" gradientTransform="matrix(1 0 0 -1 0 112.11)"><stop offset="0" stop-color="#008ec3" stop-opacity="0"/><stop offset="1" stop-color="#004c76"/></linearGradient><path d="M70.1 0L54.4 17.3h58.7V0h-43z" fill="url(#SVGID_4_)"/><path d="M8.8 34.2L0 43.9l17.2-19.1-8.4 9.4z" fill="#00c2f3"/><path class="st7" d="M67.5 71h53V53.7H83.1L67.5 71z"/><linearGradient id="SVGID_5_" gradientUnits="userSpaceOnUse" x1="39.397" y1="55.034" x2="50.748" y2="42.878" gradientTransform="matrix(1 0 0 -1 0 112.11)"><stop offset="0" stop-color="#f16122" stop-opacity="0"/><stop offset="1" stop-color="#b43816"/></linearGradient><path d="M50.6 71l6.8-7.5L36 39.8 22.9 52.4 39.7 71h10.9z" fill="url(#SVGID_5_)"/><linearGradient id="SVGID_6_" gradientUnits="userSpaceOnUse" x1="107.865" y1="49.759" x2="122.265" y2="49.759" gradientTransform="matrix(1 0 0 -1 0 112.11)"><stop offset="0" stop-color="#008ec3" stop-opacity="0"/><stop offset="1" stop-color="#004c76"/></linearGradient><path d="M67.5 71h53V53.7H83.1L67.5 71z" opacity=".66" fill="url(#SVGID_6_)"/><linearGradient id="SVGID_7_" gradientUnits="userSpaceOnUse" x1="91.796" y1="51.734" x2="82.128" y2="60.408" gradientTransform="matrix(1 0 0 -1 0 112.11)"><stop offset="0" stop-color="#008ec3" stop-opacity="0"/><stop offset="1" stop-color="#004c76"/></linearGradient><path d="M67.5 71h53V53.7H83.1L67.5 71z" fill="url(#SVGID_7_)"/><path d="M108.4 0L60.2 53.7 44.6 71h22.9l15.6-17.3L131.3 0h-22.9z" fill="#1cb7eb"/><path class="st0" d="M120.5 19.2V71l17.2-17.3V.1h-.1l-17.1 19.1z"/><path d="M61.2 90.4c0 1.3.6 2 2.3 2 .7 0 1.4-.1 2-.2v-4h2.3V94c-1.4.4-3 .6-4.4.6-3.2 0-4.7-1.4-4.7-4V85c0-2.7 1.6-4 5-4 1.1 0 2.6.1 3.7.4l-.3 2.2c-1.2-.2-2.4-.4-3.7-.4-1.7 0-2.3.7-2.3 2l.1 5.2zm21 4.1l-3-4.3h-2.4v4.3h-2.5V81.4h5.3c3 0 4.2 1.2 4.2 3.5v1.7c0 1.6-.6 2.7-2 3.2l3.2 4.7h-2.8zm-2.6-10.9h-2.8V88h2.8c1.4 0 1.8-.5 1.8-1.6v-1.3c0-1.1-.5-1.5-1.8-1.5zm20.6 7c0 2.2-1.2 4-4.9 4s-4.9-1.9-4.9-4v-5.4c0-2.2 1.2-4 4.9-4s4.9 1.9 4.9 4v5.4zm-7.3-.1c0 1.2.6 2 2.5 2 1.8 0 2.5-.7 2.5-2v-5.2c0-1.2-.6-2-2.5-2-1.8 0-2.5.7-2.5 2v5.2zm23.4-9.1v9.3c0 2.1-1.2 4-4.8 4-3.7 0-4.8-1.9-4.8-4v-9.3h2.5v9.1c0 1.3.6 2 2.4 2 1.7 0 2.4-.7 2.4-2v-9.1h2.3zm6.8 0h5.1c3 0 4.1 1.2 4.1 3.5v1.8c0 2.3-1.2 3.5-4.2 3.5h-2.5v4.2h-2.5v-13zm4.9 2.2h-2.5v4.5h2.5c1.4 0 1.8-.5 1.8-1.6v-1.3c0-1.2-.4-1.6-1.8-1.6z" fill="#fff"/><linearGradient id="SVGID_8_" gradientUnits="userSpaceOnUse" x1="33.46" y1="61.462" x2="25.169" y2="69.708" gradientTransform="matrix(1 0 0 -1 0 112.11)"><stop offset="0" stop-color="#f16122" stop-opacity="0"/><stop offset="1" stop-color="#b43816"/></linearGradient><path d="M36.9 67.9l-17-18.8 12.2-13.6L50 55.3 36.9 67.9z" fill="url(#SVGID_8_)"/></svg>