<svg width="54" height="66" fill="none" xmlns="http://www.w3.org/2000/svg"><path d="M28.321 34.484c-7.845.828-14.427-5.721-13.595-13.528.606-5.689 5.202-10.261 10.918-10.864C33.49 9.265 40.07 15.813 39.24 23.62c-.607 5.688-5.202 10.261-10.918 10.864zm-.176-22.787c-6.813-.719-12.528 4.968-11.806 11.748.526 4.94 4.517 8.911 9.481 9.434 6.813.719 12.527-4.968 11.806-11.748-.526-4.939-4.517-8.91-9.48-9.434z" fill="url(#paint0_linear)"/><path d="M23.336 41.067l-.016.02c.043-.043.088-.085.133-.123a2.924 2.924 0 00-.117.103zm.59-.478c-.061.042-.126.09-.184.139l.188-.136a6.8 6.8 0 01.301-.197 6.348 6.348 0 00-.304.194z" fill="url(#paint1_linear)"/><path d="M44.464 37.154a3.894 3.894 0 001.772-2.066c.447-1.217.246-2.521-.549-3.567l-.055-.071a3.323 3.323 0 01-.512-3.118 3.35 3.35 0 012.28-2.186l.094-.026c1.91-.538 3.06-2.325 2.717-4.386-.23-1.383-1.267-2.5-2.614-2.907l-.012-.004c-1.025-.31-1.895-1.04-2.283-2.035-.448-1.15-.264-2.377.506-3.354l.038-.05c.878-1.135 1.094-2.681.453-3.964-.92-1.838-2.864-2.612-4.721-1.974l-.076.026c-.763.264-1.603.272-2.35-.036-1.36-.564-2.175-1.787-2.175-3.17 0-.035 0-.074.004-.129.039-1.058-.331-2.046-1.045-2.782A3.963 3.963 0 0033.098.16c-1.25 0-2.384.6-3.12 1.647-.653.932-1.671 1.45-2.826 1.45a3.36 3.36 0 01-2.793-1.49l-.052-.073C23.34.257 21.64-.334 19.983.186c-1.661.52-2.71 1.975-2.677 3.69v.09A3.33 3.33 0 0115.88 6.79a3.375 3.375 0 01-3.153.426l-.06-.022c-1.359-.491-2.91-.223-3.944.783-1.48 1.44-1.622 3.523-.44 5.079l.054.07c.508.663.775 1.492.685 2.322-.162 1.481-1.115 2.599-2.488 2.989l-.058.02c-1.674.47-2.767 1.897-2.78 3.628-.016 1.73 1.05 3.173 2.715 3.673l.048.016c.908.287 1.693.909 2.1 1.766.577 1.22.425 2.553-.4 3.603l-.033.043c-.872 1.103-1.07 2.527-.528 3.802a3.887 3.887 0 001.979 2.034L.232 53.133c-.659 1.135.164 2.554 1.481 2.554h8.44a2.38 2.38 0 012.061 1.187l3.368 5.835c.774 1.34 2.717 1.343 3.494.004l7.907-13.624 8.842 15.239c.616 1.061 2.157 1.06 2.77-.004l4.347-7.541a2.415 2.415 0 012.092-1.206l7.39-.005c1.211 0 1.969-1.306 1.363-2.351l-9.323-16.067zM9.092 34.362c-.315-.74-.201-1.534.324-2.202l.033-.042a4.984 4.984 0 00.84-4.594 5.011 5.011 0 00-3.338-3.286l-.071-.023c-1.165-.352-1.57-1.323-1.564-2.117.006-.79.432-1.76 1.615-2.095l.059-.02a5.007 5.007 0 003.393-3.222 4.989 4.989 0 00-.753-4.606l-.052-.068c-.733-.965-.486-1.989-.013-2.627.474-.637 1.389-1.169 2.53-.753l.072.026a5.051 5.051 0 004.655-.63 4.988 4.988 0 002.105-4.154v-.09c-.022-1.207.782-1.895 1.541-2.134.76-.24 1.817-.136 2.485.855l.05.075a5.028 5.028 0 004.135 2.214h.351c1.546 0 2.93-.83 3.794-2.106.432-.638 1.078-.99 1.815-.99.632 0 1.239.256 1.67.701.285.294.62.81.59 1.585-.003.068-.003.14-.003.207a5.01 5.01 0 002.118 4.077 4.98 4.98 0 004.561.652l.075-.026c1.148-.393 2.05.155 2.514.8.464.646.69 1.676-.075 2.648l-.032.038c-1.464 1.858-1.48 4.566.258 6.496.6.668 1.398 1.13 2.26 1.391l.051.016c1.165.352 1.57 1.327 1.564 2.12-.007.792-.428 1.757-1.593 2.09l-.084.022a5.022 5.022 0 00-3.393 3.228 4.983 4.983 0 00.753 4.597l.055.071c.632.833.477 1.64.327 2.047-.266.72-.88 1.269-1.602 1.43-.4.094-.821.062-1.243-.093l-.071-.026a5.051 5.051 0 00-4.655.63 4.986 4.986 0 00-2.106 4.15v.094c.023 1.21-.781 1.895-1.54 2.133-.76.24-1.814.136-2.495-.874l-.043-.059a5.023 5.023 0 00-3.964-2.208 5.08 5.08 0 00-2.76.685h-.004a6.613 6.613 0 00-.49.332 3.608 3.608 0 00-.181.146 2.217 2.217 0 00-.107.09 5.269 5.269 0 00-.334.326l-.114.122a4.412 4.412 0 00-.28.345c-.019.026-.038.049-.054.075l-.059.077c-.694.991-1.751 1.075-2.507.827-.756-.252-1.547-.952-1.502-2.157l.003-.084a4.993 4.993 0 00-2.037-4.206 5.04 5.04 0 00-4.639-.706l-.074.025a2.216 2.216 0 01-.977.12c-.781-.08-1.463-.603-1.787-1.365zm7.446 26.758l-3.365-5.827a2.445 2.445 0 00-2.118-1.22H2.91a.775.775 0 01-.675-1.163l9.025-15.56h.01c.074-.003.149-.01.227-.02l.087-.009h.01a3.06 3.06 0 00.233-.039c.078-.016.16-.032.24-.055.108-.025.215-.061.322-.096l.074-.026a3.377 3.377 0 013.143.48 3.333 3.333 0 011.38 2.844l-.002.024c-.059 1.533.772 3.002 2.174 3.64a4.01 4.01 0 002.038.362c.02 0 .039-.004.058-.007.046-.003.09-.01.137-.016.158-.023.31-.054.463-.097.046-.013.091-.025.133-.042.312-.097.607-.239.883-.42.045-.025.087-.054.133-.09a3.03 3.03 0 00.46-.384c.04-.035.075-.074.11-.113.01-.01.02-.02.026-.029h.004l2.442 4.216-7.916 13.647a.919.919 0 01-1.59 0zm25.53-6.067l-4.008 6.954a.988.988 0 01-1.71.003l-8.43-14.535L24.74 42v-.003h.004a2.32 2.32 0 01.272-.184 1.73 1.73 0 01.169-.097c.01-.007.02-.01.029-.017a2.59 2.59 0 01.207-.096l.069-.03a2.528 2.528 0 01.259-.093c.003 0 .006-.003.01-.003.068-.023.136-.043.207-.059.088-.022.178-.042.27-.054.058-.01.116-.02.178-.023.006-.004.016-.004.023-.004.042-.006.084-.01.126-.013a4.786 4.786 0 01.364-.002c.995.042 1.92.51 2.54 1.294.052.068.1.136.149.21l.039.054c.09.136.191.265.295.388.052.061.107.12.162.174a3.713 3.713 0 00.773.61c.045.026.087.053.132.075.017.006.033.016.046.023l.088.048c.064.03.126.058.19.084a3.437 3.437 0 00.28.107c.026.006.052.016.075.022.071.023.139.042.207.059.026.006.052.013.078.016.072.016.143.032.214.042l.072.01c.055.01.11.015.168.019.02.003.04.003.059.006.016.003.032.003.048.003.179.014.36.014.542 0 .299-.022.6-.08.899-.174 1.66-.52 2.708-1.976 2.676-3.69v-.093c-.028-1.406.777-2.652 2.162-3.228.765-.319 1.631-.305 2.411-.022l.08.028c.054.02.11.04.165.055a3.802 3.802 0 001.385.18l8.864 15.276a.707.707 0 01-.615 1.06l-7.152.005c-.781 0-1.503.416-1.891 1.09z" fill="url(#paint2_linear)"/><defs><linearGradient id="paint0_linear" x1="26.982" y1="10.021" x2="26.982" y2="34.555" gradientUnits="userSpaceOnUse"><stop stop-color="#F16122"/><stop offset="1" stop-color="#FEBD33"/></linearGradient><linearGradient id="paint1_linear" x1="23.776" y1="40.395" x2="23.776" y2="41.086" gradientUnits="userSpaceOnUse"><stop stop-color="#F16122"/><stop offset="1" stop-color="#FEBD33"/></linearGradient><linearGradient id="paint2_linear" x1="27" y1="0" x2="27" y2="65.123" gradientUnits="userSpaceOnUse"><stop stop-color="#F16122"/><stop offset="1" stop-color="#FEBD33"/></linearGradient></defs></svg>