<svg xmlns="http://www.w3.org/2000/svg" viewBox="0 0 90.8 41.09"><path d="M24.45 0c3.85.05 7.7.35 11.45 1.55 2.95.9 5.65 2.3 7.9 4.5 2.55 2.5 4 5.55 4.65 9 .55 2.95.55 5.9.15 8.85-.05.25-.2.3-.35.4-2.45 1.45-4.9 2.85-7.35 4.3-6.85 4-13.65 8-20.5 12-.3.2-.6.25-1 .2-2.3-.3-4.6-.75-6.8-1.6C6.1 36.8 2 32.25.6 25.45c-.85-4.2-.85-8.4.4-12.5 1.5-5.1 4.85-8.5 9.7-10.6 2.45-1.05 5-1.65 7.65-2 2-.2 4.05-.3 6.1-.35zm-4.2 20.05c.05 1.55.05 3.05.2 4.55.15 1.2.4 2.4.95 3.5 1.2 2.25 4.7 2.25 5.95.05.45-.8.7-1.6.85-2.5.5-3.3.55-6.6.15-9.9-.15-1.05-.4-2.1-1.05-3-1.4-1.95-4.6-1.9-5.9.15-.35.55-.6 1.15-.75 1.8-.35 1.75-.35 3.55-.4 5.35zm29.6 12.3v-7.4c0-.3.1-.45.35-.55C63.4 16.65 76.65 8.9 89.85 1.15c.1-.05.15-.1.25-.15.15-.1.25-.05.25.15v14.7c0 .3-.1.45-.35.6-12.3 7.85-24.55 15.7-36.85 23.6-.25.15-.45.2-.7.2h-2.2c-.3 0-.4-.1-.4-.4v-7.5zM87.9 1l-6.45 3.75c-4.1 2.4-8.2 4.8-12.25 7.2-.3.2-.6.25-1 .25H50.95c-.35 0-.45-.1-.45-.45V1.3c0-.3.05-.4.4-.4h37V1zM56.8 40.1l6.75-4.35c3.5-2.25 7-4.45 10.45-6.7.2-.15.4-.2.65-.2h15.7c.35 0 .45.05.45.4v10.5c0 .3-.1.4-.4.4H56.75c.05 0 .05 0 .05-.05zm-35.05.9c8.9-5.2 17.7-10.35 26.5-15.55-.1.7-.3 1.35-.5 2-1.85 5.85-5.85 9.7-11.55 11.8-2.65 1-5.45 1.5-8.25 1.7-2.05.15-4.05.2-6.2.05z" fill="#fff"/></svg>