<svg width="84" height="83" fill="none" xmlns="http://www.w3.org/2000/svg"><path d="M41.787 82.176C19.297 82.176 1 63.968 1 41.588 1 19.208 19.297 1 41.787 1s40.787 18.207 40.787 40.588c0 22.38-18.297 40.588-40.787 40.588zm0-78.64c-21.084 0-38.238 17.07-38.238 38.052 0 20.981 17.154 38.051 38.238 38.051 21.085 0 38.238-17.07 38.238-38.051 0-20.982-17.153-38.051-38.238-38.051z" fill="url(#paint0_linear)" stroke="url(#paint1_linear)" stroke-miterlimit="10"/><path d="M35.418 53.965l-13.07-12.078a1.265 1.265 0 01-.067-1.793 1.28 1.28 0 011.801-.066L35.39 50.476a1.28 1.28 0 001.75-.015l22.352-21.353a1.278 1.278 0 011.802.037 1.263 1.263 0 01-.037 1.793L37.168 53.951a1.278 1.278 0 01-1.75.014z" fill="url(#paint2_linear)" stroke="url(#paint3_linear)" stroke-miterlimit="10"/><defs><linearGradient id="paint0_linear" x1="41.787" y1="1" x2="41.787" y2="82.176" gradientUnits="userSpaceOnUse"><stop stop-color="#F16122"/><stop offset="1" stop-color="#FEBD33"/></linearGradient><linearGradient id="paint1_linear" x1="41.787" y1="1" x2="41.787" y2="82.176" gradientUnits="userSpaceOnUse"><stop stop-color="#F16122"/><stop offset="1" stop-color="#FEBD33"/></linearGradient><linearGradient id="paint2_linear" x1="41.794" y1="28.755" x2="41.794" y2="54.304" gradientUnits="userSpaceOnUse"><stop stop-color="#F16122"/><stop offset="1" stop-color="#FEBD33"/></linearGradient><linearGradient id="paint3_linear" x1="41.794" y1="28.755" x2="41.794" y2="54.304" gradientUnits="userSpaceOnUse"><stop stop-color="#F16122"/><stop offset="1" stop-color="#FEBD33"/></linearGradient></defs></svg>