<svg version="1.1" id="Layer_1" xmlns="http://www.w3.org/2000/svg" x="0" y="0" viewBox="0 0 63.37 44.15" xml:space="preserve"><style>.st0{fill:#fff}.st1{fill:#010101}</style><path class="st0" d="M8.8 10.95c-2.25 0-4-1.5-4.35-3.65 0-.05-.05-.1.05-.1.45.6 1.15.8 1.85.95.45.1.9.1 1.35.1h5.45c.1.1.05.25 0 .35-.2.7-.35 1.4-.45 2.1 0 .1 0 .2-.1.2H9.1c-.15.05-.2.05-.3.05zM50.3 8.3h5.55c.7 0 1.4-.05 2.05-.3.4-.15.8-.35 1.05-.75.1 0 .1.05.05.1-.4 2.15-2.15 3.6-4.35 3.65-.65.05-1.3 0-1.95 0h-1.75c-.15 0-.15-.15-.2-.25-.15-.75-.3-1.45-.5-2.15 0-.15-.05-.25.05-.3zM.65 40.8v-2.55c0-.2-.05-.25-.25-.25H.2c-.15 0-.2-.05-.2-.2 0-.65 0-.65.6-.65.85 0 1.75-.05 2.6.05 1.8.2 2.85 1.3 2.95 3.1.05.5 0 1-.15 1.5-.4 1.2-1.4 2-2.75 2.15-.7.05-1.4.05-2.1 0-.4 0-.55-.15-.55-.55.05-.85.05-1.7.05-2.6zm9.55-9.5c.3.25.4.65.6.95l.45.9c.1.2.25.35.5.3.15 0 .2.05.2.2v.1c0 .6 0 .6-.6.55-.4 0-.65-.2-.85-.55-.3-.6-.6-1.15-.9-1.75-.15-.3-.35-.45-.7-.45h-.65c-.2 0-.25.05-.25.25V34c0 .2-.05.3-.25.25-.25 0-.55.05-.65-.05-.15-.15-.05-.45-.05-.7v-4.95c0-.2-.05-.3-.25-.3-.35 0-.35 0-.35-.35 0-.45 0-.45.45-.45h2.55c1 0 1.7.55 1.95 1.45.2 1.1-.25 2-1.2 2.4zm46.71 2.35c-.75 1.1-2.65 1-3.35-.35-.45-.95-.5-1.95 0-2.9.45-.95 1.55-1.35 2.55-1.05.35.1.6.3.8.6.05 0 .05-.05.05-.1 0-.5 0-.5.5-.5.45 0 .45 0 .45.45v4.3c-.05 1.2-.75 1.95-1.95 2.1-.7.1-1.35 0-1.95-.3-.15-.05-.2-.1-.1-.25s.1-.4.25-.5c.1-.1.3.1.5.15.5.15.95.2 1.45.05.55-.15.9-.5.95-1.05.05-.2 0-.45 0-.65h-.15zm-22.26 3.4c.85 0 1.45.2 2 .55.1.1.15.15.05.3-.1.2-.15.45-.35.55-.15.1-.35-.2-.55-.25-.5-.2-1-.35-1.5-.15-.4.15-.65.4-.7.8-.05.45.2.7.55.9.4.25.8.4 1.25.55.25.1.5.25.75.4 1.15.8 1.05 2.5-.25 3.15-.95.5-2.55.2-3.3-.55-.1-.1-.1-.15 0-.2 0 0 0-.05.05-.05.15-.15.2-.4.4-.5.2-.05.35.2.5.3.45.25.9.4 1.45.35.5-.05.9-.35 1-.75.1-.45-.05-.8-.5-1.1-.35-.2-.7-.35-1.05-.5-.3-.15-.65-.3-.95-.5-1.1-.75-.95-2.2 0-2.85.35-.3.85-.45 1.15-.45zM26.4 33.5c-.6.85-1.35 1.05-2.25.8-.55-.15-.95-.5-1.15-1-.45-.95-.5-1.9 0-2.9.45-.9 1.45-1.35 2.45-1.1.35.1.65.3.95.7v-.45c0-.1.05-.15.15-.15h.05c.75 0 .75 0 .75.7V34c0 .2-.05.25-.25.25-.65 0-.65 0-.65-.65-.05.05-.05 0-.05-.1zm-14.2 8.1c-.05 1.5-1.2 2.55-2.7 2.55-1.45-.05-2.6-1.2-2.55-2.6.05-1.45 1.2-2.55 2.7-2.5 1.45 0 2.6 1.1 2.55 2.55zm5.2-9.75c0 1.45-1.15 2.55-2.6 2.6-1.5 0-2.65-1.1-2.65-2.6 0-1.45 1.15-2.55 2.6-2.55 1.5 0 2.65 1.1 2.65 2.55zm9.05 9.7c0 1.45-1.15 2.55-2.6 2.6-1.5 0-2.65-1.1-2.65-2.55 0-1.45 1.15-2.55 2.6-2.55 1.5-.05 2.65 1.05 2.65 2.5zm14.05.15H39c-.25 0-.25.1-.2.25.15 1 1.15 1.55 2.2 1.3.3-.1.55-.2.8-.4.1-.1.15-.05.25.05.35.55.35.6-.25.9-1.35.7-2.95.3-3.6-.9-.8-1.4-.15-3.25 1.3-3.75 1.65-.5 3.05.45 2.95 2.35 0 .15-.05.2-.25.2h-1.7zm21.11 0h-1.5c-.3 0-.3 0-.25.3.2.95 1.15 1.5 2.15 1.2.3-.1.55-.2.8-.4.1-.1.15-.1.2.05 0 .05.05.1.1.15.25.45.25.45-.2.7-1.35.8-3.05.4-3.75-.85-.75-1.35-.2-3.15 1.15-3.7 1.7-.65 3.25.5 3.05 2.35 0 .15-.05.2-.2.2h-1.55zM33.3 31.3v-2.7c0-.2-.05-.25-.25-.25-.4 0-.35.1-.4-.4 0-.45 0-.45.45-.45h3.2c.55 0 .7.15.7.7v.55c0 .2-.05.25-.25.25h-.2c-.4 0-.4 0-.4-.4 0-.2-.1-.25-.25-.25h-1.45c-.15 0-.15.05-.15.2v1.8c0 .2.05.25.25.2h1.85c.2 0 .25.05.25.25 0 .6 0 .6-.6.6h-1.5c-.2 0-.25.05-.25.25v2.45c0 .2-.05.3-.25.25-.25-.05-.5.1-.65-.05-.15-.15-.05-.45-.05-.65-.05-.85-.05-1.6-.05-2.35zm8.95 1.9c.4-1.25.9-2.4 1.3-3.65.05-.1.1-.15.25-.15h.6c.2 0 .25.05.15.2-.35.9-.7 1.75-1.05 2.65-.4.95-.75 1.95-1.15 2.9-.35.8-1 1.2-1.8 1.1-.3-.05-.55-.15-.8-.35-.1-.05-.1-.15-.05-.2.1-.15.2-.35.3-.5.8.5 1.25.4 1.65-.5.15-.3.15-.5 0-.8-.6-1.4-1.15-2.8-1.75-4.2-.1-.2-.05-.25.2-.25.7 0 .7 0 .95.65.45 1 .85 2.05 1.2 3.1zM20 33.2c.4-1.2.85-2.3 1.25-3.45.1-.25.2-.35.45-.3h.65c.05.1 0 .15-.05.25-.7 1.8-1.45 3.65-2.15 5.45-.35.85-.95 1.25-1.75 1.25-.25 0-.5-.1-.7-.2-.1-.05-.15-.1-.05-.2.05-.05.05-.1.1-.15.05-.1.1-.25.2-.35.1-.1.25.05.35.1.35.1.65 0 .9-.35.2-.25.3-.55.4-.85.05-.1 0-.2-.05-.3-.6-1.45-1.2-2.9-1.85-4.35-.1-.25-.1-.3.2-.25.25 0 .55-.1.7.05.15.15.2.4.3.65.35.9.75 1.95 1.1 3zm11.75-14.75c-3.1 0-5.6-2.5-5.6-5.6 0-3.1 2.5-5.6 5.6-5.6 3.1 0 5.6 2.5 5.6 5.6 0 3.1-2.5 5.6-5.6 5.6zm16.95 11.8c.5-.75 1.25-1.05 2.15-.95.8.1 1.25.65 1.25 1.5.05 1.1 0 2.2 0 3.3 0 .15-.05.15-.15.15h-.5c-.2 0-.3-.05-.3-.25v-2.45c0-.2 0-.4-.05-.6-.05-.6-.4-.9-1-.8-.85.1-1.45.75-1.5 1.7v2.4c-.25.05-.55 0-.8.05-.1 0-.15-.05-.15-.15V29.7c0-.25.05-.3.3-.25.2.05.45-.1.6.05.1.1 0 .35.05.55.05.05-.05.2.1.2zM28.8 6.05c-.65-.2-1.3-.35-1.9-.65-.5-.25-.9-.6-1.1-1.15-.25-.75.15-1.65.9-1.95.9-.4 1.8-.3 2.65.2.25.15.45.4.6.7.05.2.05.35-.15.4-.65.25-1.25.2-1.85-.1-.05 0-.05-.05-.1-.05-.15-.35-.3-.1-.45 0-.35.35-.2.95.3 1.2.35.15.75.25 1.15.3.4.1.85.15 1.25.3.15.05.3.1.4.2.05.1-.05.15-.1.2-.5.15-1 .3-1.55.45 0-.05-.05-.05-.05-.05zm25.05 35.5c.05-1.05.45-1.85 1.4-2.3 1-.45 1.95-.35 2.85.3.15.1.15.2.05.35-.1.15-.15.35-.3.4-.15.05-.25-.15-.4-.25-.9-.5-2-.25-2.45.6-.5.9-.15 2.05.75 2.45.75.35 1.45.15 2.1-.35.2-.15.2-.1.3.05.3.5.3.5-.25.85-1.5.95-3.5.25-4-1.4.01-.15-.05-.45-.05-.7zm-36.65 1.1l.15.3c.25.45.25.45-.2.7-1.4.9-3.3.4-3.95-1.05-.45-1.1-.15-2.4.75-3.05.95-.7 2.35-.75 3.3 0 .15.1.25.2.05.4-.1.1-.15.35-.3.4-.1.05-.25-.15-.4-.25-.7-.4-1.55-.35-2.1.15s-.75 1.35-.4 2.1c.4.85 1.4 1.2 2.35.85.3-.2.55-.35.75-.55zm31.65.4c.35-1.2.85-2.4 1.25-3.6.1-.25.2-.35.45-.3h.35c.2 0 .25 0 .2.25-.55 1.45-1.1 2.95-1.65 4.4-.05.15-.15.25-.3.25-.25 0-.6.05-.8-.05-.2-.1-.25-.5-.3-.75-.5-1.3-.95-2.55-1.45-3.85-.05-.2-.1-.25.15-.25.75 0 .75 0 1 .7.3.8.6 1.6.85 2.45.1.2.15.45.25.75z"/><path class="st0" d="M25.2 17.65c.1-.1.25-.2.4-.35-.2 0-.35 0-.45-.05-.05-.05-.15-.15-.15-.25-.25-.6-.45-1.15-.55-1.8 0-.1-.05-.25 0-.35.3-.1.65-.05 1-.05.15 0 .15.15.15.25.1.45.2.9.4 1.3.75 1.65 1.95 2.75 3.65 3.4.1.05.3 0 .35.25v.05c-.1.65-.1.65-.75.6-.45 0-.85-.05-1.3-.15.05-.15-.05-.15-.15-.2-1.1-.7-1.95-1.55-2.6-2.65zm6-12.2c-.05-.9-.05-1.8-.25-2.65-.1-.55-.3-1.05-.65-1.5-.05-.1-.1-.15.05-.2.55-.2.95-.55 1.25-1 .1-.15.15-.1.25 0 .35.45.75.8 1.25 1 .1.05.1.1.05.15-.65.8-.75 1.8-.85 2.8-.05.4-.05.8-.05 1.15 0 .25-.1.3-.35.3s-.5.1-.7-.05zm-18.65 8.8c-2.05.05-3.35-.9-4-2.75.25-.05.5.05.75.05 1 .05 2.05 0 3.05.05h.3c.1.2.05.4 0 .6-.05.55-.1 1.15-.1 1.7.1.1.1.25 0 .35zm38.25-2.7H53c.65 0 1.25 0 1.9-.1-.2 1.6-2.05 2.9-3.95 2.8-.1-.1-.1-.25-.1-.35 0-.7 0-1.35-.1-2.05-.04-.1-.04-.2.05-.3zM18.5 40.6v-3.15c0-.2.05-.25.25-.25h.55c.15 0 .2.05.2.2v1.55c0 .15.05.2.2.2H21c.15 0 .2.05.2.2 0 .65 0 .65-.6.65h-.85c-.2 0-.25.05-.25.25v3.5c0 .2-.05.3-.3.3-.2-.05-.5.1-.65-.05s-.05-.4-.05-.65V40.6zm18.05-20.25c-.9.2-1.85.3-2.75.35-.2 0-.15-.15-.2-.3 0-.15.1-.2.2-.2.4-.15.8-.3 1.15-.5 1.45-.85 2.45-2.05 3-3.6.1-.3.2-.65.25-.95.05-.15.1-.25.3-.25.25.05.5-.05.75.05.05.1.05.15.05.25-.15.75-.35 1.45-.7 2.15h-.75c.25.25.5.4.7.55-.1.3-.3.55-.45.75-.4.55-.9 1.05-1.45 1.5-.1.05-.2.05-.1.2zM31.7 25.1c-.45-.95-.65-1.85-.8-2.8-.1-.95-.1-1.9 0-2.85 0-.2.05-.3.3-.25.35.05.7.05 1.05 0 .1 0 .15 0 .2.15.2 1.9.1 3.7-.6 5.5 0 .05-.05.15-.15.25z"/><path class="st0" d="M39.2 14.9h-.65c-.2 0-.25.05-.3.25-.2 1.15-.7 2.2-1.45 3.1-.75.9-1.7 1.6-2.8 2-.15.05-.3.05-.4.2-.1-.4-.25-.8-.35-1.2-.05-.15.05-.2.15-.2 1.5-.45 2.7-1.3 3.6-2.6.3-.45.5-.9.7-1.35.05-.1.1-.2.25-.2h2.65c0 .05 0 .05-.05.1-.15.05-.3.05-.5.05-.25-.1-.55 0-.85-.15zm-3.1-7.55c1.15-1.4 2.55-2.5 4.3-3.15-.3.8-.65 1.45-1.1 2.1-.55.8-1.2 1.45-1.95 2.1-.05.05-.15.1-.2.15-.1 0-.15-.05-.2-.1-.2-.3-.5-.5-.75-.8-.05-.1-.2-.15-.1-.3zm-.15-2.9c.15-.15.25-.35.3-.55 0-.25-.05-.45-.25-.6-.15-.1-.25-.2-.4.05-.1.2-.4.25-.6.3-.4.1-.85.1-1.25-.05-.25-.1-.3-.25-.2-.55.1-.25.3-.45.55-.6.85-.5 1.75-.6 2.65-.2 1.2.55 1.3 2.1.25 2.8-.05.05-.1.05-.2 0-.25-.15-.55-.3-.8-.5-.05 0-.1-.05-.05-.1zm2.1 26v-2.7c0-.2.05-.25.25-.25h.45c.2 0 .25.05.25.25v5.4c.05.35.15.45.5.5h.1c.15.2.05.45.1.65 0 .1 0 .15-.15.15-.85.05-1.45-.25-1.45-1.25-.05-.95 0-1.85-.05-2.75zm-8.35.4V34c0 .2-.05.3-.25.25s-.5.1-.65-.05c-.15-.15-.05-.4-.05-.65V27.7c0-.2.05-.3.3-.3.65 0 .65 0 .65.65v2.8zm-1.15 9.2c.3-.6.7-1 1.45-1.05.2 0 .3 0 .25.25v.1c0 .15.05.35 0 .5-.1.15-.3.05-.45.05-.65.15-1.1.65-1.25 1.4-.1.5-.05.95-.05 1.45v1.2c-.25.05-.55 0-.8.05-.1 0-.15-.05-.15-.15v-4.4c0-.3 0-.3.3-.3.65 0 .6 0 .65.6 0 .1-.1.25.05.3zm15.85.05c.2-.55.6-.95 1.15-1.1.15-.05.2-.05.25.1.05.2.15.4.2.6 0 .05.1.15-.05.15-1 .1-1.45.6-1.55 1.6-.1.75-.05 1.45-.05 2.2 0 .2-.05.25-.25.25-.65 0-.65 0-.65-.65v-4.2c.25-.05.5 0 .75-.05.1 0 .1.1.1.15v.7c.05.2 0 .3.1.25zM25.65 5.7c.8.6 1.45 1.3 2.05 2.05.1.1.05.15-.05.2-.3.25-.6.5-.85.85-.05.1-.1.15-.2.05-.75-.6-1.45-1.2-2-1.95.1-.2.25-.4.45-.55.2-.2.4-.4.6-.65zm4.3 14.3c-.2-.15-.4-.2-.65-.25-2.05-.85-3.3-2.4-3.8-4.55-.05-.25-.15-.35-.45-.35h-.65c-.1.1-.2.1-.3.1h-2.4c-.1 0-.2 0-.2-.1h4c.15 0 .2.1.25.2.75 1.9 2.05 3.2 4 3.85.5.15.5.15.35.65l-.15.45zM31.2 5.45h.75c.2 0 .25-.05.3-.2v.9c.15-.15.2-.35.3-.45.45.15.9.15 1.35.35.1.05.25.05.3.2-.25.2-.25.45-.05.75-1.65-.65-3.3-.65-4.95 0 .1-.2.2-.4.05-.6-.15-.2-.35-.25-.55-.35.5-.2 1-.4 1.55-.5.1 0 .15-.05.15-.15.3.15.5.4.7.7.1-.25.1-.45.1-.65zm15 26.45v2.2c0 .15-.05.25-.2.25h-.5c-.15 0-.2-.05-.2-.2V29.7c0-.15.05-.2.2-.2.7 0 .7 0 .7.7v1.7zm6.51 9.7v2.15c0 .2-.05.25-.25.25-.7 0-.7 0-.7-.7v-3.9c0-.25.05-.3.3-.25.65 0 .65 0 .65.65v1.8zM22.2 8.3c.5 0 1.05-.05 1.55.05.15.05.1.15.05.25-.5.7-.85 1.45-1.15 2.3 0 .05-.05.1-.15.1h-1.3c-.15-.05-.1-.15-.1-.25.3-.9.6-1.7 1.1-2.45z"/><path class="st0" d="M34.25 6.25c-.45-.25-.95-.35-1.5-.4-.1 0-.2 0-.2-.15.35-.4.8-.55 1.3-.65.45-.1.95-.2 1.4-.3.25-.05.45-.15.65-.25.3.25.65.45 1.05.65-.5.45-1.1.6-1.7.8-.35 0-.7.1-1 .3zm-21.7 8c0-.9.05-1.8.15-2.65.5-.05.95 0 1.45 0 .1.1.1.2.05.35-.1.65-.1 1.35-.1 2 0 .1 0 .25-.1.35-.45-.05-.95-.05-1.45-.05zM24.1 11.6c.45 0 .85.2 1.2.45.1.05.15.1.1.25-.1.6 0 1.2.1 1.8 0 .15 0 .15-.15.15h-1.6c-.15-.25-.1-.55-.05-.85.05-.5.1-1 .25-1.5 0-.1.05-.25.15-.3zm-5.95 2.65H16.7c-.15-.2-.1-.4-.1-.6.05-.55.05-1.05.1-1.6 0-.15 0-.35.1-.5.5-.05 1 0 1.5 0 .05.1.05.15.05.25-.1.7-.2 1.45-.15 2.15.05.15.05.2-.05.3zm3.05-2.7c.5-.05.95 0 1.45 0 .1.1.05.2 0 .35-.15.65-.25 1.35-.2 2.05 0 .1 0 .2-.1.3H20.9c-.15-.25-.1-.55-.05-.8.05-.5.1-1 .2-1.5 0-.15.05-.3.15-.4zm19.95 0c.5 0 .95-.05 1.45 0 .2.25.15.6.2.9.1.5.1 1 .1 1.5 0 .1 0 .2-.1.3h-1.4c-.15-.3-.1-.6-.1-.9-.05-.5-.1-.95-.2-1.45 0-.1 0-.2.05-.35z"/><path class="st0" d="M42.8 14.25c.05-.9-.05-1.8-.2-2.65.5 0 .95-.05 1.45 0 .05.05.1.15.1.25.1.7.15 1.4.2 2.1 0 .1 0 .25-.1.35-.45-.05-.95-.05-1.45-.05zm-21.6-2.7c-.2.9-.3 1.75-.25 2.65h-1.4c-.1-.1-.1-.2-.1-.3 0-.7 0-1.35.15-2.05 0-.1.05-.25.15-.35.5.05 1 .05 1.45.05zm4 6.1c.3.2.4.5.6.75.6.7 1.25 1.35 2 1.8.05.05.1.1.2.1.05.05.1.05.1.1-.05.05-.1.05-.15.05-.8-.1-1.55-.25-2.3-.4-.3-.4-.65-.75-.9-1.15-.15-.2-.3-.4-.4-.7.25-.15.55-.35.85-.55zm-2.8-3.4c-.05-.9.1-1.8.25-2.65.5 0 .95-.05 1.45 0-.15.55-.25 1.15-.3 1.7-.05.3 0 .65 0 .95h-1.4zm25.61-2.7c.45-.05.95-.05 1.4 0 .1.05.1.15.15.3.05.7.15 1.35.1 2.05 0 .1 0 .25-.1.35h-1.4c-.1-.1-.1-.2-.1-.3 0-.7-.05-1.35-.1-2.05 0-.1 0-.2.05-.35z"/><path class="st0" d="M19.75 11.55c-.2.9-.25 1.75-.2 2.65h-1.4c0-.9.05-1.8.2-2.65h1.4zm-2.85 0c-.05.9-.15 1.8-.15 2.65H15.4a.38.38 0 01-.1-.2c-.05-.75 0-1.55.1-2.3 0-.05.05-.1.05-.15h1.45zm24.25 0c.05.35.15.7.15 1.1.05.55.1 1.05.1 1.6h-1.35c-.15-.3-.1-.6-.1-.9-.05-.5-.15-.95-.25-1.45a.427.427 0 010-.35h1.45zm8.4 2.7c.05-.8-.05-1.65-.1-2.45 0-.1-.05-.15-.05-.25.45-.05.95-.05 1.4 0 .1.9.1 1.8.1 2.65-.45.05-.9.05-1.35.05zm-5.3 0c0-.8-.05-1.6-.2-2.4v-.25c.45 0 .9-.05 1.35 0 .1.1.1.2.15.3.1.65.1 1.3.15 1.95 0 .15 0 .3-.1.4h-1.35z"/><path class="st0" d="M15.5 11.55c-.05.9-.15 1.8-.1 2.65h-1.35c-.05-.9.05-1.8.1-2.65h1.35zm30.1 2.7c0-.9-.1-1.8-.2-2.65.45 0 .9-.05 1.35 0 .1.1.1.2.15.3.05.5.15 1 .1 1.5 0 .15 0 .3.05.45 0 .15 0 .3-.1.4H45.6zM17.45 8.3h1.35c.1.1.05.2 0 .35-.25.7-.5 1.4-.7 2.1 0 .1-.05.2-.15.25h-1.2c-.1-.05-.1-.1-.1-.2.15-.85.4-1.65.7-2.4l.1-.1zm5.15 2.65c.15-.65.5-1.25.8-1.85.1-.2.25-.4.35-.55.05-.05.1-.15 0-.2.45.05.9.15 1.35.35.1.1.05.2-.05.25-.4.55-.8 1.15-1.05 1.85-.05.1-.05.15-.2.15-.35 0-.8.05-1.2 0zM47 8.3h1.35c.1.05.1.15.15.2.2.7.4 1.4.55 2.15 0 .1.05.25-.05.3h-1.2c-.1-.05-.1-.15-.15-.25-.15-.75-.35-1.45-.6-2.15-.1-.1-.15-.2-.05-.25z"/><path class="st0" d="M46.9 14.25c.05-.9 0-1.8-.15-2.65.45 0 .85-.05 1.3 0 .15.75.2 1.55.15 2.3v.35h-1.3zM22.2 8.3c0 .1-.05.2-.1.3-.4.75-.75 1.55-.95 2.35-.35.05-.75 0-1.1.05-.1 0-.1-.1-.1-.2.25-.85.5-1.75 1-2.5h1.25zm-2.4 9c-.5 0-.95 0-1.45-.15-.15-.65-.25-1.3-.3-1.95 0-.1-.05-.25.1-.35h1.3c.1.05.1.15.1.25.05.6.15 1.2.3 1.8.05.15.05.25-.05.4zm20-5.75c.05.4.15.8.2 1.2.1.5.1 1 .1 1.5h-1.25c-.1-.1-.1-.25-.1-.35 0-.6-.05-1.2-.2-1.75a.427.427 0 010-.35c.4-.2.8-.25 1.25-.25zm3.7-3.25h1.25c.1.05.1.15.15.25.3.7.5 1.4.65 2.1 0 .1.1.25-.05.35h-1.05c-.1 0-.15-.15-.15-.2-.2-.75-.45-1.45-.75-2.15 0-.15-.1-.25-.05-.35zm-20.3 6.6h1.3c0 .65.25 1.25.5 1.85.05.2.15.35.2.55h-1.4c-.1-.1-.15-.3-.2-.45-.2-.55-.35-1.1-.4-1.7-.05-.1-.1-.2 0-.25zm13.35 5.45h-.2c.1-.2.3-.3.45-.4.65-.55 1.2-1.2 1.65-1.95.05-.05.05-.1.1-.1.35.2.75.45 1.1.65-.25.25-.4.6-.65.85-.15.15-.25.4-.45.55-.65.15-1.35.3-2 .4z"/><path class="st0" d="M44.45 10.95h1.1c.25-.15.5-.05.7-.1h1.15c.1 0 .2 0 .25.1h1.3c.25-.15.5-.05.7-.1H50c.3 0 .6-.05.85.05h3.75c-.2.05-.4.05-.65.05H40.3c-.55 0-1.1 0-1.6.1-.15.05-.15-.1-.2-.15-.25-.55-.55-1.05-.9-1.55-.05-.05-.1-.1-.05-.2.25-.25.55-.45.85-.6.45.65.85 1.3 1.15 2 .05.15.15.2.3.2h3.55c.4.15.7.05 1.05.2zm-24.45 0h3.7c.15 0 .2-.05.25-.2.25-.65.6-1.25 1-1.8.05-.05.1-.15.1-.25.3.15.6.3.8.6.05.1-.05.2-.1.25-.3.45-.6.9-.8 1.4-.05.1-.1.25-.25.15-.6-.15-1.25-.1-1.85-.1H9.45c-.2 0-.45.05-.65-.05h3.8c.35-.15.65-.05 1-.05h2.75c.1 0 .2 0 .3.1h1.3c.25-.15.5-.05.7-.1H19c.35 0 .7-.1 1 .05z"/><path class="st0" d="M16.7 10.95h-1.1c-.05-.1-.05-.15-.05-.25.15-.75.35-1.5.6-2.2 0-.05.05-.15.1-.2h1.15c-.15.5-.3 1-.5 1.5 0 .35-.1.75-.2 1.15zm31 0h-1.05c-.1-.05-.1-.15-.15-.25-.15-.7-.35-1.4-.6-2.05-.05-.1-.1-.25 0-.35H47c.25.75.5 1.5.65 2.3 0 .1.05.2.05.35zM25.65 5.7c-.05.05-.05.15-.1.2-.3.35-.6.65-.95.95-.7-.8-1.2-1.65-1.6-2.7 1 .4 1.85.9 2.65 1.55zm-6.6 5.25H18c.15-.8.45-1.6.75-2.35.05-.1.05-.2.05-.3h1.1c.1.1.05.2 0 .25-.35.7-.6 1.45-.8 2.25.05.05 0 .1-.05.15zm-5.4 0h-1c.05-.75.25-1.45.4-2.15.05-.15.1-.35.1-.5h1.1c.1.1.05.2 0 .3-.2.7-.4 1.4-.5 2.1 0 .1-.05.15-.1.25z"/><path class="st0" d="M45.85 8.3c.05.35.2.65.3 1 .15.55.3 1.1.4 1.65H45.5c-.15-.8-.4-1.55-.7-2.35-.05-.1-.1-.2-.1-.3h1.15zm4.2 2.65H49c-.1-.75-.3-1.5-.5-2.2-.05-.15-.1-.3-.1-.45h1.05c.1.05.1.15.15.2.2.75.4 1.5.5 2.25-.05.05 0 .1-.05.2zm-7.55 0h-.95c-.05-.05-.1-.15-.15-.2-.25-.7-.55-1.4-.95-2.05 0-.05-.05-.05-.05-.1-.1-.25-.1-.25.15-.25h.9c.5.75.8 1.55 1.05 2.4.05 0 .05.1 0 .2zm-28.85 0c.15-.9.4-1.8.65-2.65h1.05c.05.1 0 .25-.05.35-.2.7-.4 1.4-.55 2.15 0 .05-.05.1-.05.15h-1.05zm9.55 3.95c.05.7.25 1.35.5 2 .05.1.1.25.1.4h-1.15c-.25-.5-.35-1.1-.5-1.65-.05-.15-.05-.3-.05-.4s0-.25.05-.35h1.05z"/><path class="st0" d="M40.7 8.3c-.1.1-.2 0-.3.1.45.8.9 1.65 1.15 2.55h-.95c-.1-.05-.1-.1-.15-.2-.25-.75-.6-1.4-1.05-2.05-.05-.1-.15-.15-.1-.3.45-.1.9-.15 1.4-.1zm1.8 2.65c0-.4-.2-.8-.35-1.2-.15-.4-.3-.8-.55-1.2-.05-.1-.1-.15-.1-.25h1c.1.05.1.1.15.2.3.7.65 1.4.85 2.15.05.1.05.2 0 .3h-1z"/><path class="st0" d="M43.45 10.95c-.05-.55-.3-1.05-.5-1.55-.15-.4-.3-.75-.5-1.1h1c.35.85.7 1.75.9 2.65h-.9zm-28.75 0c0-.6.2-1.15.35-1.7.1-.3.2-.6.3-.95h.95c-.15.6-.35 1.15-.5 1.75-.1.3-.15.6-.2.95-.3-.05-.6-.05-.9-.05zm5.1 6.35c0-.4-.2-.8-.25-1.25-.05-.4-.15-.75-.15-1.15.35-.05.65 0 1 0 .1.05.15.15.15.25.05.65.2 1.3.35 1.9.05.1.05.15 0 .25h-1.1zm-.75-6.35c.1-.7.35-1.3.6-1.95.1-.25.25-.45.25-.7h1c-.05.35-.3.65-.45 1-.2.55-.4 1.1-.55 1.65h-.85zM40.1 14.9h.5c.15-.05.35 0 .5 0 .1.1.1.25.1.35-.1.6-.2 1.2-.4 1.8-.05.1-.05.2-.15.25H39.6c-.05-.1-.05-.15 0-.25.25-.65.4-1.3.5-1.95-.05-.1-.05-.15 0-.2zm-.8-6.5c.45.7.9 1.45 1.15 2.2.05.1.05.2.1.3h-.8c-.1 0-.2 0-.2-.15-.25-.7-.6-1.3-1.05-1.9-.05-.05-.15-.15-.1-.25.3-.1.6-.2.9-.2zm-15 9.85c.2.2.35.5.5.7.25.3.45.6.7.85.05.05.2.15.1.25-1.05-.2-2.1-.5-3.15-.9.7-.3 1.25-.6 1.85-.9zm-6.2-3.35c.05.65.15 1.3.3 1.95 0 .1.05.2-.05.25-.45-.1-.85-.25-1.25-.5-.15-.4-.15-.8-.2-1.25 0-.15-.1-.35.05-.5.4 0 .8 0 1.15.05z"/><path class="st0" d="M40.6 17.3c.3-.8.5-1.55.55-2.4.1-.05.25 0 .4-.05h.55c.1.1.1.25.1.35-.1.6-.2 1.2-.4 1.8-.05.1-.1.2-.15.25-.4.05-.75.05-1.05.05zm4-.05c-.35.1-.65.1-1 .05-.1-.1-.05-.2 0-.35.15-.6.25-1.2.3-1.85 0-.1.05-.2.15-.25h.9c.1.15.05.3.05.45-.05.6-.15 1.15-.3 1.7-.05.1-.05.15-.1.25z"/><path class="st0" d="M44.6 17.25c.1-.45.15-.9.25-1.3.05-.35.1-.7.15-1 .35-.05.65 0 1 0 .1.05.1.15.1.2-.05.55-.15 1.1-.25 1.7 0 .05-.05.1-.1.15-.4.1-.75.2-1.15.25zm5.45-6.3c-.2-.9-.35-1.8-.65-2.65h.9c.1.5.25 1 .35 1.45.1.4.15.8.25 1.2h-.85zM44 14.9l-.15.9-.3 1.5h-.95c-.1-.1-.05-.2-.05-.3.15-.6.25-1.2.35-1.85 0-.1.05-.2.1-.3h.55c.15 0 .3 0 .45.05z"/><path class="st0" d="M43.05 14.9c-.1.75-.2 1.45-.4 2.15 0 .1 0 .15-.05.25h-1c.2-.65.35-1.3.45-1.95v-.45c.1-.05.2 0 .35-.05.2 0 .45 0 .65.05zm-2.95 0c-.05.75-.25 1.45-.5 2.15-.05.1-.1.15-.05.25h-.95c0-.25.15-.45.2-.65.2-.55.4-1.15.4-1.75h.9zm-22 0H17h4.55c.2.1.4 0 .6.05 0 .7.2 1.35.4 2 .05.15.1.25.1.4h-.8c-.1-.05-.1-.15-.15-.25-.2-.6-.3-1.2-.4-1.8-.05-.2-.1-.3-.3-.25-.15 0-.35.05-.5-.05h-1c-.5-.1-.95-.1-1.4-.1zm27.6 2c0-.45.15-.85.2-1.3 0-.25.05-.5.1-.75.2-.05.4 0 .6-.05h.55c.3 0 .3 0 .25.3-.1.65-.5 1.1-1 1.45-.25.2-.45.3-.7.35z"/><path class="st0" d="M20.45 14.9h.65c.15 0 .2.05.2.2.05.6.15 1.2.35 1.8.05.15.1.3.1.45h-.85c-.2-.85-.35-1.65-.45-2.45zm18.15-3.1c.05.4.15.8.2 1.2.05.4.05.85.05 1.25h-.8c-.1 0-.15 0-.15-.15.1-.6.2-1.2.1-1.85 0-.1.05-.15.1-.2.2-.1.3-.2.5-.25zm-.05 8.1c.25-.45.65-.85.9-1.3.05-.05.1-.05.2-.05.45.2.85.4 1.35.65-.85.3-1.65.55-2.45.7zM37.6 9.2c.4.55.75 1.1 1.05 1.75 0 .05.05.1.1.15-.25.1-.55.25-.8.45-.15-.65-.35-1.25-.7-1.8-.05-.1 0-.15.05-.2.1-.1.2-.2.3-.35zm-12.85 1.9c.1 0 .15 0 .2-.1.2-.6.6-1.1.95-1.65l.05-.05c.35.3.35.3.15.65-.25.5-.45 1-.55 1.6-.3-.2-.55-.35-.8-.45zM17 14.9c.05.4.05.8.15 1.2.05.2 0 .35 0 .55-.55-.35-.9-.8-1-1.45-.05-.3-.05-.3.25-.3.2-.05.4-.05.6 0zm19.1-7.55c0 .1.05.15.1.2.3.3.65.65.95 1v.05c-.4.4-.4.4-.8 0-.2-.2-.35-.4-.6-.55-.15-.1-.1-.2 0-.3.15-.15.25-.25.35-.4zM52.26 37.1a.501.501 0 010 1c-.3 0-.5-.25-.5-.5 0-.3.25-.55.5-.5zm-6.01-9.25c0 .3-.2.5-.5.5s-.5-.2-.5-.5.2-.5.5-.5c.25 0 .5.2.5.5zm-17.7 12.2c0 .05-.05.1-.1.2v-.95c0-.15-.05-.2-.2-.2-.65 0-.65-.05-.65.65v3.95c0 .2.05.3.25.25h.65c-.3.15-.6.05-.85.05-.15 0-.1-.15-.1-.25V39.3c0-.15.05-.2.2-.2.75 0 .75-.05.75.7.05.1 0 .2.05.25zm20.15-9.8c0 .05-.05.1-.05.1h-.05v-.7c0-.15-.05-.2-.2-.2-.65 0-.65 0-.65.65v3.95c0 .2.05.25.25.25h.65c-.3.15-.6.05-.85.05-.15 0-.1-.15-.1-.25v-4.4c0-.15.05-.25.25-.25.7 0 .7 0 .75.7-.05 0-.05.05 0 .1zm-2.15-15.4c-.2.1-.4 0-.6.05h-2.4v-.05h3zM44.4 40.1c0 .05 0 .1-.1.15v-.9c0-.15-.05-.2-.2-.2h-.65c.25-.1.55-.05.8-.05.1 0 .1.1.1.2.05.3-.05.55.05.8z"/><path class="st0" d="M43.55 14.85c-.2.05-.35.05-.55.05h-.65v-.05h1.2zM17 14.9h-.6c-.2 0-.3.05-.3.3-.1-.35-.1-.35.2-.35.25 0 .5 0 .7.05 0-.05 0-.05 0 0zm39.91 18.75c0-.05.05-.1.1-.15 0 .3.05.55-.05.85-.05-.2.09-.45-.05-.7z"/><path class="st0" d="M42.4 14.85c-.1.05-.2.05-.3.05h-.6v-.05h.9zm-.9 0c-.1.05-.25.05-.35.05h-.55v-.05h.9zM4.5 7.2c0 .05-.05.05-.05.1-.05-.05-.1-.15 0-.2 0 0 .05.05.05.1zm54.51.1c0-.05-.05-.05-.05-.1s.05-.1.1-.1c.05.1 0 .15-.05.2z"/><path class="st1" d="M1.6 40.55V38.3c0-.2.05-.25.25-.25.45 0 .85-.05 1.3.05 1.2.2 1.95 1 2 2.25 0 .35 0 .7-.05 1.05-.25 1.1-1.05 1.75-2.25 1.8H1.9c-.25 0-.35-.1-.35-.3.05-.85.05-1.6.05-2.35zm6.4-11V28.5c0-.15.05-.2.2-.2h1c1.05-.05 1.3.75 1.2 1.45-.1.6-.45.9-1.05.95-.4.05-.8 0-1.2 0-.15 0-.2-.05-.2-.2.05-.25.05-.6.05-.95zm49.01 2.5c0 .15-.05.5-.2.8-.25.5-.65.75-1.15.75-.55 0-.95-.25-1.15-.7-.35-.7-.35-1.35 0-2.05.25-.5.65-.75 1.2-.75s.95.3 1.15.8c.1.3.15.65.15 1.15zm-30.66-.15c0 .35-.05.7-.2 1-.25.45-.65.7-1.15.7-.5 0-.9-.2-1.15-.7-.35-.7-.35-1.4-.05-2.05.25-.5.65-.75 1.2-.75.55 0 .95.3 1.15.8.15.3.2.65.2 1zM7.9 41.55c0-1 .7-1.75 1.65-1.75s1.7.75 1.7 1.75-.7 1.75-1.65 1.75-1.7-.75-1.7-1.75zm8.5-9.65c0 1-.75 1.75-1.7 1.7-.95 0-1.7-.8-1.65-1.8 0-1 .8-1.75 1.75-1.7.95.05 1.65.8 1.6 1.8zm9.1 9.65c0 1-.7 1.75-1.7 1.75-.95 0-1.7-.8-1.7-1.75s.75-1.75 1.7-1.75 1.7.75 1.7 1.75zM40.05 41h-1.1c-.15 0-.2-.05-.15-.2.2-.8 1.05-1.25 1.85-1 .4.15.7.6.75 1.05 0 .15-.05.15-.15.15h-1.2zm21.16 0h-1.15c-.1 0-.15 0-.15-.15.1-.6.7-1.1 1.35-1.1s1.1.35 1.2 1c.05.2.05.3-.2.25h-1.05zM31.7 18.15c-2.9 0-5.25-2.35-5.25-5.3 0-2.9 2.35-5.3 5.3-5.25 2.9 0 5.25 2.4 5.25 5.3 0 2.85-2.4 5.25-5.3 5.25zm-3.2-14.9c-.15 0-.3-.05-.3-.2 0-.1.1-.15.2-.15.15 0 .3.05.3.25 0 .1-.1.1-.2.1zm6.45 0c-.1 0-.2 0-.2-.1 0-.2.2-.2.35-.25.1 0 .2 0 .2.15-.1.15-.25.2-.35.2z"/><path class="st0" d="M26.95 12.85a4.801 4.801 0 019.6 0 4.801 4.801 0 01-9.6 0z"/><path class="st1" d="M31.7 8.4c2.45 0 4.45 2 4.45 4.45s-2 4.45-4.45 4.45-4.45-2-4.45-4.45 2-4.45 4.45-4.45z"/><path class="st0" d="M33.15 9.9c0-.15 0-.3.1-.3.15-.05.2.1.25.2.55.85 1.05 1.7 1.55 2.55.2.35.15.7 0 1.05-.25.55-.55 1.05-.8 1.6-.05.1-.1.15-.25.15h-1.05c-.1 0-.2 0-.2-.15 0-.2.15-.2.25-.25.65-.4 1.1-1 1.2-1.8.15-.9-.15-1.7-.8-2.3-.2-.25-.3-.45-.25-.75z"/><path class="st0" d="M32.25 10.5c.2.1.35.2.6.15 0 .1.05.15.15.2.9.75 1.05 1.9.35 2.85-.25.35-.55.55-.95.65-.4-.25-.8-.25-1.25-.15-.1 0-.2.05-.3.05-.8-.4-1.25-1.25-1.05-2.2.15-.8.85-1.5 1.7-1.6.2 0 .5.05.75.05z"/><path class="st0" d="M32.25 10.5c-.1.1-.2.05-.3.05-1.05-.15-2.05.7-2.15 1.7-.1.8.2 1.45.9 1.9l.15.15c-.25.1-.5.25-.75.3-.65-.45-.95-1.15-1.05-1.9-.05-.5.05-.95.25-1.4.05-.05.05-.15.05-.25.55-.35 1.15-.7 1.75-.95.55-.15.85-.05 1.15.4zm.1 3.9c.15-.1.3-.2.4-.25 1.15-.7 1.25-2.4.05-3.25-.1-.1-.2-.15 0-.2.2-.1.25-.3.3-.5 0-.1 0-.2.05-.3-.05.3.1.45.35.65.65.6.95 1.4.8 2.3-.15.85-.6 1.5-1.4 1.95-.05.05-.1.05-.15.15-.1-.2-.25-.35-.4-.55z"/><path class="st0" d="M29.35 11.1c.15.1.05.2 0 .3-.45 1.05-.25 2.1.5 3 .1.1.25.1.25.25-.2.1-.35.25-.55.3-.25.05-.4 0-.5-.2-.3-.7-.6-1.4-.8-2.15-.1-.35 0-.65.25-.9.2-.25.55-.45.85-.6zm3.8 4.5h.8c-.1.15-.2.3-.25.45-.1.15-.15.1-.25 0l-.3-.45zm-3-3.15c-.05-.75.75-1.55 1.55-1.55.8.05 1.6.6 1.55 1.6-.05.95-.65 1.55-1.6 1.55-.75.05-1.45-.6-1.5-1.6z"/><path class="st0" d="M32.95 12.5c.05.65-.6 1.2-1.2 1.2s-1.25-.5-1.2-1.25c0-.7.5-1.2 1.25-1.2.6 0 1.2.55 1.15 1.25z"/><path class="st0" d="M32.45 12.5c0 .45-.3.75-.75.7-.4 0-.75-.35-.75-.7 0-.4.35-.8.75-.8.35.05.85.4.75.8z"/></svg>