<svg width="81" height="95" fill="none" xmlns="http://www.w3.org/2000/svg"><path d="M71.996 47.341c1.632-2.284 3.046-4.569 4.134-6.744 4.569-8.812 5.004-16.426 1.197-21.322-2.829-3.59-7.506-5.439-13.272-5.439-2.284 0-4.786.218-7.397.87C52.525 6.223 46.868 1 40.45 1c-6.42 0-12.075 5.222-16.21 13.707-9.246-1.959-16.861-.544-20.668 4.568C-.235 24.171.2 31.785 4.769 40.597a68.174 68.174 0 004.243 6.744c-1.632 2.285-3.046 4.569-4.134 6.745-4.569 8.92-5.004 16.426-1.305 21.43 2.828 3.698 7.505 5.439 13.271 5.439 2.284 0 4.786-.218 7.397-.87 4.134 8.485 9.79 13.706 16.209 13.706 6.418 0 12.183-5.221 16.208-13.706 2.611.543 5.113.87 7.397.87 5.766 0 10.552-1.74 13.272-5.44 3.698-4.894 3.263-12.51-1.197-21.32-1.196-2.285-2.502-4.57-4.134-6.854zm3.59-26.76c3.264 4.242 2.72 10.987-1.414 18.928-.979 1.958-2.175 4.025-3.59 5.983-1.087-1.414-2.175-2.828-3.48-4.134-1.415-1.632-3.047-3.263-4.678-4.895-.87-7.506-2.502-14.25-4.896-19.798 8.16-1.523 14.795-.435 18.058 3.916zM62.86 39.835c2.393 2.393 4.569 5.004 6.527 7.506-1.958 2.502-4.025 5.004-6.527 7.506.217-2.393.326-4.895.326-7.506l-.326-7.506zM28.05 63.658c-2.72-2.066-5.222-4.133-7.506-6.418-.327-3.154-.544-6.527-.544-9.899 0-3.372.217-6.744.544-9.899 2.393-2.176 4.895-4.351 7.506-6.418a87.775 87.775 0 0112.4-7.941c4.134 2.175 8.268 4.895 12.402 7.94 2.72 2.068 5.221 4.135 7.506 6.419.326 3.155.544 6.527.544 9.9 0 3.371-.218 6.744-.544 9.898-2.393 2.176-4.895 4.352-7.506 6.418A87.756 87.756 0 0140.45 71.6c-4.134-2.176-8.268-4.896-12.402-7.942zm10.116 9.138c-4.351 2.176-8.593 3.699-12.51 4.678-2.067-4.787-3.698-10.552-4.569-16.97a122.253 122.253 0 005.766 4.786 78.353 78.353 0 0011.313 7.506zM60.03 34.178a122.253 122.253 0 00-5.765-4.786 127.068 127.068 0 00-11.313-7.506c4.35-2.175 8.593-3.698 12.618-4.677 1.958 4.786 3.481 10.551 4.46 16.97zM40.45 3.177c5.439 0 10.334 4.568 14.032 11.966-4.46 1.088-9.137 2.937-14.032 5.439-4.896-2.502-9.573-4.351-14.033-5.44C30.115 7.745 35.119 3.177 40.45 3.177zM25.546 17.209a55.098 55.098 0 018.16 2.72c1.413.543 2.936 1.305 4.35 1.957a78.357 78.357 0 00-11.313 7.506c-2.067 1.523-3.916 3.155-5.765 4.787.87-6.419 2.502-12.184 4.569-16.97zM6.728 39.617c-4.133-8.05-4.677-14.795-1.414-18.929 2.393-3.045 6.418-4.568 11.531-4.568 2.067 0 4.242.217 6.527.652-2.393 5.548-4.025 12.293-4.895 19.799-3.046 2.937-5.766 5.983-8.05 9.029a74.809 74.809 0 01-3.699-5.983zm11.422 15.23c-2.393-2.394-4.569-5.005-6.527-7.507 1.959-2.502 4.025-5.004 6.527-7.506a82.95 82.95 0 00-.326 7.506c0 2.61.109 5.113.326 7.506zM5.313 74.101c-3.263-4.243-2.72-10.988 1.414-19.037.98-1.958 2.176-3.916 3.59-5.983a88.668 88.668 0 008.159 9.029c.87 7.506 2.502 14.25 4.895 19.798-8.159 1.74-14.794.544-18.058-3.808zM40.45 91.615c-5.44 0-10.335-4.568-14.033-11.966 4.351-1.087 9.137-2.937 14.033-5.439 4.895 2.502 9.572 4.352 14.032 5.44-3.698 7.288-8.593 11.965-14.032 11.965zm15.012-14.141c-3.917-.98-8.16-2.502-12.62-4.678a78.353 78.353 0 0011.314-7.506c2.067-1.523 3.916-3.155 5.766-4.786-.87 6.418-2.394 12.183-4.46 16.97zM75.586 74.1c-3.263 4.352-9.899 5.44-18.058 3.808 2.394-5.548 4.025-12.293 4.896-19.798a88.669 88.669 0 008.158-9.03c1.415 1.959 2.611 4.026 3.59 5.984 4.134 8.158 4.678 14.903 1.414 19.037z" fill="url(#paint0_linear)" stroke="url(#paint1_linear)" stroke-miterlimit="10"/><defs><linearGradient id="paint0_linear" x1="40.45" y1="1" x2="40.45" y2="93.791" gradientUnits="userSpaceOnUse"><stop stop-color="#F16122"/><stop offset="1" stop-color="#FEBD33"/></linearGradient><linearGradient id="paint1_linear" x1="40.45" y1="1" x2="40.45" y2="93.791" gradientUnits="userSpaceOnUse"><stop stop-color="#F16122"/><stop offset="1" stop-color="#FEBD33"/></linearGradient></defs></svg>