<svg width="133" height="87" fill="none" xmlns="http://www.w3.org/2000/svg"><path d="M117.831 74.022c-3.603-3.021-7.786-17.315-11.504-29.98l-1.744-5.927h13.248v8.715l14.641-10.574-14.641-10.575v7.67h-14.642C97.728 15.687 91.685 0 83.202 0c-8.25 0-13.131 15.455-17.78 33.35h-40.67c0-.116 0-.116-.117-.232C19.406 16.85 15.34 3.951 10.342 1.511a4.817 4.817 0 00-1.86-.349c-.58 0-1.161.465-1.51 1.162-.348.697-.348 1.51-.116 2.208l.116.232c.349.698.93 1.162 1.627 1.162.116 0 .232 0 .465.117 3.254 1.626 7.67 15.106 11.62 27.424H1.86C.813 33.467 0 34.513 0 35.79c0 1.278.813 2.324 1.86 2.324h20.335c6.507 20.452 13.944 42.414 24.286 44.157.35.116.814.116 1.163.116 9.296 0 14.293-19.638 19.522-40.438.349-1.279.697-2.557.93-3.835h32.42c.814 2.556 1.511 5.113 2.208 7.437 5.81 19.638 9.645 31.724 14.991 33.467v7.901l14.641-10.574-14.641-10.575v8.25h.116zM63.563 40.555c-4.531 17.896-9.644 38.231-16.617 37.07-7.901-1.395-14.99-21.382-20.8-39.51h37.998c-.116.813-.348 1.627-.58 2.44zm5.81-7.088c3.836-14.874 8.367-28.703 13.83-28.703 5.81 0 11.272 13.945 15.92 28.703H69.374z" fill="url(#paint0_linear)"/><defs><linearGradient id="paint0_linear" x1="66.236" y1="0" x2="66.236" y2="86.921" gradientUnits="userSpaceOnUse"><stop stop-color="#F16122"/><stop offset="1" stop-color="#FEBD33"/></linearGradient></defs></svg>