<svg width="75" height="109" fill="none" xmlns="http://www.w3.org/2000/svg"><path d="M74.142 35.456C73.335 16.463 57.861.973 38.888.03c-10.361-.404-20.05 3.233-27.45 10.237C4.037 17.407 0 26.97 0 37.207 0 47.444 4.037 56.872 11.438 64.01c6.324 6.062 9.822 14.143 9.822 22.63v.807c0 1.078.942 2.02 2.019 2.02h27.719c1.077 0 2.018-.942 2.018-2.02 0-8.89 3.634-17.375 9.823-23.302 7.67-7.543 11.841-17.915 11.303-28.69zm-48.98 49.972c-.268-9.16-4.17-17.78-11.033-24.38-7.266-7.004-10.9-16.702-10.092-26.94.673-7.004 3.498-13.873 8.343-19.126 6.727-7.543 16.281-11.45 26.239-10.91 16.954.807 30.814 14.681 31.621 31.653.404 9.563-3.364 18.858-10.226 25.592-6.46 6.196-10.496 14.952-10.9 24.246H25.163v-.135z" fill="url(#paint0_linear)"/><path d="M52.21 94.588c0 1.077-.808 1.885-1.885 1.885H23.952c-1.077 0-1.884-.808-1.884-1.885 0-1.078.942-2.021 2.018-2.021h26.24c1.076 0 1.883.943 1.883 2.02z" fill="url(#paint1_linear)"/><path d="M52.209 100.649c0 1.077-.807 1.885-1.884 1.885H23.817c-1.076 0-1.884-.808-1.884-1.885v-.135c0-1.078.808-1.886 1.884-1.886H50.19c1.21 0 2.018.943 2.018 2.021z" fill="url(#paint2_linear)"/><path d="M52.209 106.71c0 1.078-.942 2.021-2.018 2.021H23.95c-1.076 0-2.018-.943-2.018-2.021 0-1.077.942-2.02 2.018-2.02h26.374c1.077 0 1.884.943 1.884 2.02z" fill="url(#paint3_linear)"/><defs><linearGradient id="paint0_linear" x1="37.094" y1="0" x2="37.094" y2="89.469" gradientUnits="userSpaceOnUse"><stop stop-color="#F16122"/><stop offset="1" stop-color="#FEBD33"/></linearGradient><linearGradient id="paint1_linear" x1="37.139" y1="92.567" x2="37.139" y2="96.473" gradientUnits="userSpaceOnUse"><stop stop-color="#F16122"/><stop offset="1" stop-color="#FEBD33"/></linearGradient><linearGradient id="paint2_linear" x1="37.071" y1="98.628" x2="37.071" y2="102.534" gradientUnits="userSpaceOnUse"><stop stop-color="#F16122"/><stop offset="1" stop-color="#FEBD33"/></linearGradient><linearGradient id="paint3_linear" x1="37.071" y1="104.69" x2="37.071" y2="108.731" gradientUnits="userSpaceOnUse"><stop stop-color="#F16122"/><stop offset="1" stop-color="#FEBD33"/></linearGradient></defs></svg>