<svg width="46" height="68" fill="none" xmlns="http://www.w3.org/2000/svg"><path d="M45.971 21.984C45.471 10.208 35.876.604 24.112.019c-6.424-.25-12.431 2.004-17.02 6.347C2.503 10.793 0 16.722 0 23.07c0 6.347 2.503 12.193 7.092 16.62 3.921 3.758 6.09 8.769 6.09 14.03v.502c0 .668.584 1.252 1.252 1.252H31.62c.667 0 1.251-.584 1.251-1.252 0-5.513 2.253-10.774 6.09-14.449 4.757-4.677 7.343-11.108 7.01-17.79zm-30.37 30.985c-.166-5.68-2.586-11.024-6.84-15.117-4.507-4.342-6.76-10.356-6.259-16.702.417-4.343 2.17-8.603 5.173-11.86 4.171-4.677 10.095-7.099 16.27-6.765 10.512.501 19.105 9.104 19.606 19.627.25 5.93-2.086 11.692-6.341 15.868-4.005 3.842-6.508 9.27-6.758 15.033h-14.85v-.083z" fill="url(#paint0_linear)"/><path d="M32.373 58.648c0 .668-.501 1.17-1.169 1.17H14.852a1.141 1.141 0 01-1.168-1.17c0-.668.584-1.253 1.251-1.253h16.27c.667 0 1.168.585 1.168 1.253z" fill="url(#paint1_linear)"/><path d="M32.372 62.406c0 .669-.5 1.17-1.168 1.17H14.768a1.141 1.141 0 01-1.168-1.17v-.083c0-.668.5-1.17 1.168-1.17H31.12c.751 0 1.252.585 1.252 1.253z" fill="url(#paint2_linear)"/><path d="M32.372 66.165c0 .668-.584 1.252-1.252 1.252H14.851c-.667 0-1.251-.584-1.251-1.252 0-.669.584-1.253 1.251-1.253h16.353c.667 0 1.168.584 1.168 1.253z" fill="url(#paint3_linear)"/><defs><linearGradient id="paint0_linear" x1="23" y1="0" x2="23" y2="55.474" gradientUnits="userSpaceOnUse"><stop stop-color="#F16122"/><stop offset="1" stop-color="#FEBD33"/></linearGradient><linearGradient id="paint1_linear" x1="23.028" y1="57.395" x2="23.028" y2="59.817" gradientUnits="userSpaceOnUse"><stop stop-color="#F16122"/><stop offset="1" stop-color="#FEBD33"/></linearGradient><linearGradient id="paint2_linear" x1="22.986" y1="61.154" x2="22.986" y2="63.576" gradientUnits="userSpaceOnUse"><stop stop-color="#F16122"/><stop offset="1" stop-color="#FEBD33"/></linearGradient><linearGradient id="paint3_linear" x1="22.986" y1="64.912" x2="22.986" y2="67.418" gradientUnits="userSpaceOnUse"><stop stop-color="#F16122"/><stop offset="1" stop-color="#FEBD33"/></linearGradient></defs></svg>