<svg xmlns="http://www.w3.org/2000/svg" viewBox="0 0 57.52 70.47"><path d="M13.25 5.2H.95c-.45 0-.6-.1-.6-.6C.4 3.3.4 1.95.35.65.35.1.5 0 1 0h24.65c.45 0 .6.1.55.55-.05 1.35-.05 2.7 0 4.1 0 .45-.1.55-.55.55h-12.4zm23.31 7.75v12.3c0 .5-.1.65-.6.65-1.3-.05-2.6-.05-3.9 0-.55 0-.7-.15-.7-.7V1.3c0-1.3 0-1.3 1.3-1.3 1.05 0 2.1.05 3.15 0 .55 0 .75.1.75.75-.05 4.05 0 8.15 0 12.2zm10.35-.05v12.3c0 .5-.1.7-.65.7-1.3-.05-2.65-.05-3.95 0-.4 0-.6-.1-.6-.55V.55c0-.4.1-.5.5-.5h4.25c.35 0 .45.1.45.45v12.4zm10.3.05V25.3c0 .45-.1.6-.6.6-1.35-.05-2.7 0-4.05 0-.4 0-.55-.1-.55-.5V.55c0-.4.1-.5.5-.5 1.4 0 2.75.05 4.15 0 .5 0 .6.15.55.6v12.3zM13.25 25.9H1c-.55 0-.7-.15-.65-.7.05-1.3.05-2.6 0-3.9 0-.45.1-.6.6-.6H25.7c.4 0 .55.1.55.5-.05 1.4-.05 2.75 0 4.15 0 .45-.15.55-.55.55H13.25zm31.06 15.5h12.3c.55 0 .65.15.65.65-.05 1.3-.05 2.55 0 3.85 0 .55-.1.7-.7.7h-24.7c-.35 0-.5-.1-.5-.45V41.9c0-.5.25-.45.6-.45 4.1-.05 8.25-.05 12.35-.05zM5.55 44v12.3c0 .55-.15.65-.65.65-1.35-.05-2.7-.05-4 0-.4 0-.55-.15-.55-.55V31.65c0-.45.15-.55.6-.55 1.35 0 2.7.05 4.1 0 .45 0 .55.15.55.55-.05 4.1-.05 8.25-.05 12.35zm20.7 0v12.3c0 .5-.15.65-.65.6-1.35-.05-2.7 0-4.05 0-.4 0-.5-.1-.5-.5V31.5c0-.4.15-.45.5-.45 1.4 0 2.8.05 4.2 0 .45 0 .55.15.55.6-.05 4.15-.05 8.25-.05 12.35zm-12.9-28.5H.95c-.45 0-.6-.1-.6-.6.05-1.35 0-2.7 0-4 0-.35.05-.5.5-.5h24.9c.35 0 .45.1.45.45 0 1.35-.05 2.7 0 4.1 0 .5-.15.6-.6.6-4.05-.05-8.15-.05-12.25-.05zm30.91 36.3h12.35c.5 0 .65.15.6.6-.05 1.3 0 2.65 0 3.95 0 .4-.05.55-.5.55H31.86c-.4 0-.5-.1-.5-.5 0-1.35.05-2.7 0-4.1 0-.45.15-.55.6-.55 4.1.05 8.2.05 12.3.05zm-33.51-7.85v-12.3c0-.45.15-.6.6-.6 1.35.05 2.7 0 4 0 .35 0 .5.05.5.5v24.9c0 .35-.1.45-.45.45h-4.15c-.45 0-.5-.15-.5-.55v-12.4zM44.31 31.1h12.3c.5 0 .6.15.6.6-.05 1.3-.05 2.65 0 3.95 0 .45-.15.55-.55.55H32.01c-.5 0-.65-.15-.6-.65.05-1.3.05-2.55 0-3.85 0-.6.2-.65.7-.65 4.05.05 8.15.05 12.2.05zM16.6 66.21c0 2.5-1.75 4.25-4.2 4.25-2.55 0-4.3-1.75-4.3-4.25 0-2.55 1.75-4.3 4.25-4.3 2.5.05 4.25 1.8 4.25 4.3zm-2.4.05c0-1-.4-1.7-1.15-2-1-.4-2.05.05-2.45 1.1-.45 1.25.1 2.6 1.15 2.9 1.35.35 2.45-.5 2.45-2zm19.86-.1v-3.6c0-.35.1-.5.45-.5.45.05.95.05 1.4 0 .4-.05.5.15.5.5v1.9c0 .35.1.45.45.45h2c.3 0 .4-.1.4-.4v-1.95c0-.35.05-.5.45-.5.5.05 1 0 1.55 0 .3 0 .4.1.4.4v7.3c0 .35-.1.45-.45.45h-1.5c-.35 0-.5-.1-.45-.45.05-.75 0-1.5 0-2.25 0-.35-.05-.5-.45-.5-.65.05-1.25 0-1.9 0-.35 0-.45.1-.45.45v2.25c0 .4-.1.55-.5.5-.6-.05-1.4.25-1.8-.15-.35-.35-.1-1.1-.1-1.7v-2.2zM3.7 61.96c1.3 0 2.45.4 3.35 1.35.25.25.3.45-.1.6-.15.05-.25.15-.35.2-.55.35-1.05.7-1.65 0-.35-.4-.95-.4-1.5-.35-.3.05-.55.15-.6.45-.05.35.25.55.55.6.55.15 1.15.25 1.7.4.3.05.55.15.85.25.8.3 1.4.75 1.55 1.65.15 1-.05 1.9-1 2.55-1.95 1.35-4.95.85-6.35-1.05-.25-.35-.2-.55.2-.65.15-.05.3-.1.45-.2.6-.4 1.05-.4 1.6.2.6.65 1.45.7 2.3.5.3-.05.55-.25.5-.55 0-.3-.25-.45-.5-.5-.7-.15-1.4-.3-2.05-.5-1.6-.45-2.3-1.3-2.2-2.55.15-1.3 1.2-2.25 2.7-2.4h.55zm21.15 3.15c0 .75.05 1.55 0 2.3-.1 1.6-.85 2.5-2.4 2.9-1.15.3-2.25.2-3.35-.3-.9-.45-1.4-1.15-1.5-2.2-.15-1.75-.05-3.5-.05-5.25 0-.3.1-.45.45-.45.5 0 1 .05 1.5 0 .35 0 .4.15.4.45v4.45c0 1 .5 1.45 1.5 1.35.8-.05 1.15-.5 1.2-1.45v-3.95c0-.95-.1-.8.8-.8 1.5 0 1.5 0 1.5 1.5 0 .45 0 .95-.05 1.45.05 0 0 0 0 0zm24.16.9c1 .5 1.4 1.3 1.2 2.35-.2 1.05-.95 1.6-1.95 1.9-1.8.55-3.7 0-4.6-1.4-.45-.7-.45-.7.3-.95.15-.05.25-.1.4-.15.5-.25.85-.35 1.25.25s1.1.6 1.75.45c.3-.05.5-.3.5-.65s-.15-.55-.5-.65c-.1-.05-.25-.05-.35-.05-.3-.05-.85.15-.9-.15-.15-.45-.05-.95-.05-1.45 0-.2.2-.15.3-.15.3 0 .55 0 .8-.1.3-.1.5-.3.5-.65 0-.3-.2-.5-.5-.6-.6-.2-1.3.05-1.8.65-.2.3-.4.35-.65.15-.15-.1-.3-.15-.45-.25-.9-.45-.9-.5-.25-1.25 1.15-1.3 3.35-1.65 4.9-.8 1.4.65 1.45 2.3.1 3.5zm5.7 2.25h2.35c.3 0 .45.1.45.45.05 1.6.05 1.6-1.55 1.6h-4.45c-.4 0-.45-.1-.5-.5-.05-.8.2-1.35.85-1.8.9-.6 1.8-1.25 2.45-2.1.55-.75.55-1.4.1-1.75-.5-.35-1.15-.2-1.65.5-.2.25-.35.3-.6.15s-.5-.25-.7-.4c-.7-.4-.75-.4-.2-1.05 1-1.2 2.85-1.7 4.3-1.15 1.7.65 2.25 2.55 1.25 4.05-.6.7-1.3 1.3-2.1 2zM29.5 62.11h3.15c.35 0 .45.1.45.45.05 1.65.05 1.65-1.6 1.65-1 0-.85-.1-.85.85v4.65c0 .4-.05.6-.55.55-.6-.05-1.35.2-1.7-.1-.4-.35-.1-1.15-.15-1.75v-3.7c0-.4-.1-.5-.5-.5-.5.05-1 0-1.45 0-.3 0-.4-.1-.4-.4-.1-1.75-.1-1.75 1.6-1.75.65.05 1.35.05 2 .05z" fill="#fff"/></svg>