<svg width="130" height="68" fill="none" xmlns="http://www.w3.org/2000/svg"><path d="M99.007 58.824h8.598v8.698h-8.598v-8.699z" fill="url(#paint0_linear)"/><path d="M87.608 56.324v-8.599h8.699v8.599h-8.699z" fill="url(#paint1_linear)"/><path d="M120.905 37.127h8.499v8.599h-8.499v-8.6z" fill="url(#paint2_linear)"/><path d="M121.203 50.425v8.599h-8.699v-8.6h8.699z" fill="url(#paint3_linear)"/><path d="M82.91 38.927h-4v4.499c-.3-.2-.6-.5-.8-.8-5.3-7.699-10.398-15.497-15.897-22.996-3.5-4.9-7.8-10.199-13.398-12.498-6.6-2.7-13.798-.5-19.297 3.499-5.8 4.2-10.099 10.598-13.798 16.697-4 6.6-7.3 13.698-9.799 20.997-.5 1.5-2.1 2.5-3.7 2.1-1.499-.4-2.599-2.2-2.099-3.7 3.1-8.998 7.2-17.697 12.398-25.696 4.4-6.698 9.599-13.397 16.698-17.397 7.199-4.1 15.797-5 23.296-1.3 6.6 3.2 11.298 9.399 15.398 15.198 5.199 6.999 10.098 14.198 14.997 21.397z" fill="url(#paint4_linear)"/><defs><linearGradient id="paint0_linear" x1="103.306" y1="58.824" x2="103.306" y2="67.522" gradientUnits="userSpaceOnUse"><stop stop-color="#F16122"/><stop offset="1" stop-color="#FEBD33"/></linearGradient><linearGradient id="paint1_linear" x1="91.958" y1="47.725" x2="91.958" y2="56.324" gradientUnits="userSpaceOnUse"><stop stop-color="#F16122"/><stop offset="1" stop-color="#FEBD33"/></linearGradient><linearGradient id="paint2_linear" x1="125.155" y1="37.127" x2="125.155" y2="45.726" gradientUnits="userSpaceOnUse"><stop stop-color="#F16122"/><stop offset="1" stop-color="#FEBD33"/></linearGradient><linearGradient id="paint3_linear" x1="116.853" y1="50.425" x2="116.853" y2="59.024" gradientUnits="userSpaceOnUse"><stop stop-color="#F16122"/><stop offset="1" stop-color="#FEBD33"/></linearGradient><linearGradient id="paint4_linear" x1="41.455" y1="0" x2="41.455" y2="50.513" gradientUnits="userSpaceOnUse"><stop stop-color="#F16122"/><stop offset="1" stop-color="#FEBD33"/></linearGradient></defs></svg>