<svg version="1.1" id="Layer_1" xmlns="http://www.w3.org/2000/svg" x="0" y="0" viewBox="0 0 106.59 27.45" xml:space="preserve"><style>.st0{fill:#fff}</style><path class="st0" d="M9.35 8.15c-.55-.25-1.05-.5-1.5-1 .5-.05.9.05 1.4.15-.5-.65-1-1.25-.9-2.15.8.45 1.5.9 2.35 1.2.35.1.7.15 1.1 0 1.25-.5 2.55-.6 3.85-.1.7.3 1.25.2 1.85-.1.6-.3 1.2-.6 1.85-.95.1.85-.35 1.45-.9 2.05.5-.05.85-.1 1.35-.15-.35.6-.9.75-1.45 1.05.55.8.9 1.7 1.05 2.65.05.5-.05.8-.4 1.2-3 2.9-4.65 6.4-4.65 10.6 0 .35 0 .35-.45.9-.25-.25-.4-.45-.4-.85 0-4.25-1.7-7.75-4.7-10.7-.35-.35-.45-.65-.4-1.1.05-.95.35-1.85.95-2.7zm61.06 2.7c1.8-.15 1.75-.1 2.45 1.35.7 1.5 1.4 2.95 2.15 4.55.6-1.55 1.2-3 1.7-4.45.2-.55.5-.6 1-.65.5 0 .75.15.9.65.5 1.45 1.1 2.85 1.7 4.35.35-.4.5-.9.7-1.35.6-1.2 1.2-2.45 1.7-3.7.25-.7.65-.95 1.35-.85.25.05.55 0 .9 0-.95 2.1-1.9 4.1-2.85 6.1-.3.65-.7 1.3-.9 2-.25.7-.75.5-1.2.55-.5.05-.55-.25-.7-.6l-1.35-3.45c-.1-.2-.1-.5-.4-.65l-1.65 4.2c-.1.3-.2.6-.6.5-.4-.1-.9.25-1.15-.35-1.15-2.7-2.45-5.4-3.75-8.2zm-1.1 2.95v5c0 .5-.1.7-.65.7-1.2-.1-2.35.1-3.55-.15-2.2-.5-3.8-2.2-3.75-4.15 0-1.85 1.55-3.5 3.7-4.05.65-.15 1.3-.2 1.95-.15.4.05.6-.1.55-.55-.05-.65 0-1.25 0-1.9 0-.4.1-.55.5-.55h.7c.45-.05.55.15.55.55v5.25z"/><path class="st0" d="M13.8 27.45c-3.1 0-5.85-.95-8.3-2.75-.5-.35-.5-.55-.05-1 1.15-1.05 1.1-1.1 2.4-.3 3.8 2.35 8.85 2.2 12.55-.45.5-.35.75-.35 1.15.1 1.2 1.25 1.25 1.25-.25 2.2-2.3 1.5-4.8 2.2-7.5 2.2zM27.55 13.3c0 3.4-.95 6.2-2.75 8.7-.35.5-.6.5-.95.05-.35-.4-.9-.7-1.05-1.15-.15-.45.45-.8.7-1.25 2.4-4.25 2.25-8.4-.4-12.45-.35-.5-.4-.75.1-1.2 1.25-1.15 1.2-1.2 2.15.25 1.45 2.25 2.2 4.7 2.2 7.05zM0 13.6c.05-2.95.95-5.8 2.85-8.25.3-.35.45-.45.8-.05.35.45 1 .8 1.15 1.25.1.45-.55.9-.8 1.35-2.35 4.25-2.2 8.4.5 12.45.3.5.35.75-.1 1.05-.1.05-.15.15-.2.2-1 1-1.05 1-1.85-.2C.8 19.1.05 16.5 0 13.6zM13.8 0c3.1.05 5.9.95 8.4 2.8.35.25.55.45.1.85-.45.35-.75.95-1.2 1.1-.5.15-.9-.5-1.35-.75-4.3-2.35-8.5-2.2-12.55.55-.45.3-.7.3-.95-.1-.1-.15-.25-.25-.35-.4-.9-.9-.9-.9.1-1.6C8.3.8 10.9.05 13.8 0zm79.86 19.45c-1.4.05-2.7-.3-3.65-1.4-.25-.25-.25-.4.05-.6.65-.45 1.1-.65 1.75.1.6.7 3 .65 3.7.05.6-.5.55-1.15-.2-1.4-.85-.3-1.75-.45-2.65-.65-.55-.15-1.1-.3-1.6-.65-1.25-.85-1.3-2.55 0-3.4 1.75-1.2 4.7-.8 6.05.8.2.25.2.35-.05.55-.6.45-1.1.7-1.75-.05-.6-.7-2.2-.7-3-.25-.25.15-.45.35-.45.65 0 .35.2.5.45.65.75.35 1.55.45 2.35.6.6.15 1.2.25 1.7.55 1.5.75 1.75 2.4.5 3.55-.7.6-1.7.9-3.2.9zm8.15-3.95h-1c-.85 0-.95.1-.55.85.45.85 1.15 1.5 2.1 1.55.95.05.7.7.65 1.15-.05.65-.6.35-.85.3-2.2-.25-3.95-2.15-3.9-4.3 0-2.2 1.85-4.1 4.1-4.3 1-.1 2 .05 2.9.6 1.35.85 1.4 2.4.1 3.35-.85.65-1.7.8-3.55.8zm-54.56 0h-.9c-.95 0-1.05.15-.55 1s1.2 1.35 2.2 1.45c.9.05.45.75.5 1.15.1.55-.4.35-.65.35-2.25-.1-4.1-2-4.1-4.25 0-2.3 1.8-4.2 4.15-4.35.95-.05 1.9.05 2.75.55 1.45.85 1.5 2.4.15 3.4-.65.45-1.4.65-2.2.75-.45 0-.9-.05-1.35-.05zm5.45.9c0-.55.05-1.1 0-1.65-.3-2.85 2.55-4.3 4.8-3.85 2.01.45 3.06 1.75 3.06 3.8 0 1.25-.05 2.5 0 3.8.05.75-.15 1.05-.95 1-.6-.05-.8-.15-.8-.8.05-1.35-.05-2.7.05-4.1.1-1.5-1-2.35-2.31-2.35-1.35 0-2.2.9-2.2 2.35v4.3c0 .45-.15.55-.55.55-1.15 0-1.15 0-1.15-1.1.05-.65.05-1.3.05-1.95zm-19.5-4.1V8.55c0-.4.1-.5.5-.55 1.2-.05 1.2-.05 1.2 1.2 0 1.8 0 1.8 1.8 1.8.85 0 1.1.35.85 1.2-.1.3-.3.25-.45.25h-1.65c-.4 0-.55.1-.55.5v3.15c.05 1 .8 1.8 2 1.85.95.05.6.65.65 1.1.05.65-.45.4-.75.4-2.1-.05-3.6-1.6-3.6-3.7V12.3zm6 4.25c0-.85-.05-1.7 0-2.55.15-1.85 2.05-3.35 3.9-3.2.3.05.45.15.35.4-.1.35.3.85-.25 1.05-.2.05-.4.05-.6.1-1.05.2-1.75.95-1.75 2.05v4.45c0 .5-.15.65-.65.6-1.1 0-1.1 0-1.1-1.05.05-.6.05-1.25.1-1.85-.05 0-.05 0 0 0zm47.21-1.45v-3.7c0-.45.1-.65.6-.6.2.05.45 0 .7 0 .35-.05.5.1.5.45v7.7c0 .35-.1.5-.45.5-.2 0-.4-.05-.6 0-.5.1-.7-.1-.65-.65-.05-1.25-.1-2.5-.1-3.7zm-71.36 6.65c.15-3.5 1.55-6.4 4.05-8.85-.5 3.35-2.15 6.15-4.05 8.85zm-2.4-.05c-1.8-2.75-3.55-5.6-4.15-8.9 2.45 2.45 3.9 5.4 4.15 8.9zM88.16 9.2c-.05.6-.4.85-.9.85s-.85-.35-.8-.85c.05-.5.35-.75.85-.75.5-.05.8.25.85.75zm17.45 10.15c-.25-.6-.35.2-.55.1-.15-.25-.05-.5-.05-.7 0-.2-.1-.45.1-.7.45.2.35.75.7 1 .05.1-.05.2-.2.3zm.4-.65c.1-.25.15-.5.45-.7.2.5.1 1 .1 1.5-.4-.1-.1-.5-.4-.6-.15-.05-.15-.15-.15-.2zm-2.05-.7c.25-.05.5-.05.8.05-.2.3-.45.15-.6.25-.1-.05-.15-.1-.2-.15V18z"/><path class="st0" d="M104.01 18.1l.15.15c-.05.4.1.8-.1 1.2-.15-.45-.05-.85-.1-1.2-.05-.05-.05-.1.05-.15zm2 .6c.05.05.1.1.15.2-.15.2.05.7-.5.45.05-.1.1-.25.2-.35 0-.1.05-.2.15-.3z"/><path class="st0" d="M104.01 18.1c0 .05-.05.1-.05.15-.15-.05-.4.05-.55-.15.15-.25.4-.15.6-.1-.05.05 0 .05 0 .1z"/><path d="M13.8 9.4c.85-1.1 1.75-1.45 2.75-1 1 .45 1.55 1.5 1.25 2.55-.25 1-1.35 1.75-2.4 1.55-.5-.1-.85-.05-1.15.4-.35.5-.7.5-1.05 0-.25-.4-.55-.5-1.05-.4-.95.25-2-.4-2.4-1.3-.35-.95 0-2.05.85-2.6.85-.55 2-.4 2.7.35.25.1.35.25.5.45zm53.81 5.85v2.25c0 .2.05.45-.3.5-1.3.05-2.55-.15-3.5-1.1-1-1.05-.95-2.45.1-3.45.95-.85 2.1-1.05 3.3-1 .4 0 .35.25.35.5.05.75.05 1.5.05 2.3zm32.6-1.2c.75-1.55 2.35-2.2 3.8-1.6.3.1.55.25.6.6.05.35-.25.5-.5.65-.5.25-1 .3-1.55.3-.75.1-1.5.05-2.35.05zm-53.06 0h-.7c-.25 0-.6.15-.7-.1-.15-.25.15-.5.3-.7.75-.95 2.25-1.3 3.35-.8.3.1.55.3.6.6 0 .35-.25.5-.55.65-.4.3-.9.35-2.3.35z" fill="#010101"/><path class="st0" d="M11.8 11.6c-.7 0-1.25-.55-1.25-1.25s.6-1.3 1.3-1.25c.7 0 1.25.6 1.25 1.25 0 .75-.55 1.25-1.3 1.25zm3.95 0c-.7 0-1.25-.55-1.25-1.25s.55-1.3 1.3-1.3c.7 0 1.25.55 1.25 1.25 0 .75-.55 1.3-1.3 1.3z"/></svg>