<svg width="105" height="95" fill="none" xmlns="http://www.w3.org/2000/svg"><path d="M70.805 93.01L54.267 74.28c-.662-.768-.662-1.972-.11-2.74.661-.766 1.653-.876 2.315-.109l14.333 16.211c.662.658 1.654.658 2.206 0l28.446-33.08c.662-.766 1.654-.766 2.316.11.661.767.551 2.082 0 2.739L73.011 93.01c-.552.766-1.544.766-2.206 0z" fill="url(#paint0_linear)" stroke="url(#paint1_linear)" stroke-miterlimit="10"/><path d="M80.178 59.163c-6.506-4.929-13.893-8.215-21.39-9.748 9.371-3.725 15.987-12.706 15.987-23.331C74.775 12.282 63.418 1 49.525 1 35.634 1 24.388 12.392 24.388 26.193c0 10.296 6.285 19.169 15.326 23.003-5.293.985-10.475 2.847-15.216 5.586C5.974 65.516 1.894 85.342 1.012 91.695c-.11.986.551 1.753 1.544 1.862.882.11 1.653-.547 1.764-1.424.772-5.805 4.63-24.426 21.83-34.503 15.878-9.201 36.497-7.449 51.933 4.162.33.22.661.329.992.329.441 0 .992-.22 1.323-.658.662-.657.441-1.752-.22-2.3zm-52.483-32.97c0-11.94 9.813-21.688 21.83-21.688 12.019 0 21.832 9.749 21.832 21.688 0 11.94-9.813 21.688-21.831 21.688-12.018 0-21.832-9.749-21.832-21.688z" fill="url(#paint2_linear)" stroke="url(#paint3_linear)" stroke-miterlimit="10"/><defs><linearGradient id="paint0_linear" x1="78.992" y1="54.001" x2="78.992" y2="93.585" gradientUnits="userSpaceOnUse"><stop stop-color="#F16122"/><stop offset="1" stop-color="#FEBD33"/></linearGradient><linearGradient id="paint1_linear" x1="78.992" y1="54.001" x2="78.992" y2="93.585" gradientUnits="userSpaceOnUse"><stop stop-color="#F16122"/><stop offset="1" stop-color="#FEBD33"/></linearGradient><linearGradient id="paint2_linear" x1="40.899" y1="1" x2="40.899" y2="93.569" gradientUnits="userSpaceOnUse"><stop stop-color="#F16122"/><stop offset="1" stop-color="#FEBD33"/></linearGradient><linearGradient id="paint3_linear" x1="40.899" y1="1" x2="40.899" y2="93.569" gradientUnits="userSpaceOnUse"><stop stop-color="#F16122"/><stop offset="1" stop-color="#FEBD33"/></linearGradient></defs></svg>