<svg width="27" height="27" fill="none" xmlns="http://www.w3.org/2000/svg"><path d="M13.693 27C6.442 26.987.586 21.112.6 13.866.617 6.614 6.52.846 13.908.859c7.098.013 12.91 5.955 12.883 13.17-.027 7.145-5.924 12.984-13.098 12.97zM6.8 18.759c.027.023.112.117.216.18 1.464.903 3.065 1.223 4.757 1.017 1.547-.19 2.9-.903 4.156-1.775 2.466-1.714 3.646-4.1 3.57-7.096-.007-.28.093-.408.304-.555.343-.239.652-.526.975-.793l-.076-.092-1.271.1c.428-.478.92-.797 1.04-1.473-.43.151-.784.291-1.149.399-.361.107-.666.098-.986-.225-.503-.506-1.178-.689-1.892-.613-1.633.173-2.57 1.116-2.822 2.815-.043.291-.07.584-.105.874-2.548-.073-4.56-1.16-6.26-3.09-.626 1.603-.407 2.883.895 3.936l-.085.112-1.223-.224c.026 1.52 1.157 2.158 2.376 2.861l-1.212.138c.483 1.209 1.526 1.584 2.652 2.002-.469.278-.842.582-1.27.734-.85.3-1.73.518-2.59.768z" fill="#fff"/></svg>