<svg width="90" height="105" fill="none" xmlns="http://www.w3.org/2000/svg"><path d="M59.952 48.433c0-.726-.122-1.452-.365-2.057a9.143 9.143 0 00-1.095-2.178c-1.581-2.299-4.379-3.872-7.542-3.872-2.189 0-4.257.726-5.838 2.057-1.581-1.331-3.65-2.057-5.839-2.057-3.162 0-5.838 1.573-7.541 3.872-.487.605-.852 1.331-1.095 2.178-.243.726-.365 1.331-.365 2.057v.484c0 1.694.608 3.388 1.46 4.72l.121.12.73.847L44.99 69.61l12.407-15.005.73-.847.122-.12c.973-1.332 1.46-3.026 1.46-4.72.243-.12.243-.363.243-.484zm-14.84 17.788l-7.299-8.955-3.405-4.114c-.244-.242-.487-.484-.608-.726-.73-.968-1.095-2.299-1.095-3.509a5.6 5.6 0 01.608-2.54c.365-.848.973-1.574 1.581-2.179 1.217-1.089 2.798-1.694 4.5-1.694a6.93 6.93 0 014.258 1.452l.243.242 1.217 1.089 1.216-1.089.243-.242c1.217-.968 2.677-1.452 4.258-1.452 1.703 0 3.406.605 4.5 1.694.73.605 1.217 1.331 1.582 2.178a6.01 6.01 0 01.608 2.541c0 1.331-.365 2.541-1.095 3.51-.243.241-.365.483-.608.725l-3.284 4.114-7.42 8.955z" fill="url(#paint0_linear)" stroke="url(#paint1_linear)" stroke-miterlimit="10"/><path d="M80.387 52.547c1.825-2.54 3.406-5.082 4.622-7.502 5.109-9.801 5.596-18.271 1.338-23.717-3.162-3.993-8.393-6.05-14.84-6.05-2.554 0-5.352.242-8.271.968C58.614 6.808 52.289 1 45.112 1S31.61 6.808 26.988 16.246c-10.34-2.178-18.854-.605-23.111 5.082C-.381 26.774.106 35.245 5.215 45.045a75.774 75.774 0 004.744 7.502c-1.825 2.541-3.406 5.082-4.623 7.503-5.109 9.922-5.595 18.27-1.46 23.837 3.163 4.114 8.394 6.05 14.84 6.05 2.555 0 5.352-.242 8.272-.968 4.622 9.438 10.947 15.247 18.124 15.247 7.176 0 13.623-5.809 18.124-15.247 2.92.605 5.717.968 8.271.968 6.447 0 11.8-1.936 14.84-6.05 4.136-5.445 3.65-13.915-1.338-23.717-1.338-2.54-2.797-5.082-4.622-7.623zM84.4 22.781c3.65 4.719 3.04 12.22-1.581 21.054-1.095 2.178-2.433 4.477-4.014 6.655-1.217-1.573-2.433-3.146-3.893-4.598-1.581-1.815-3.406-3.63-5.23-5.445-.973-8.35-2.798-15.851-5.474-22.023 9.123-1.694 16.543-.484 20.192 4.357zM70.169 44.198c2.676 2.662 5.11 5.566 7.299 8.35-2.19 2.782-4.501 5.565-7.299 8.349.244-2.663.365-5.446.365-8.35l-.365-8.349zm-38.924 26.5c-3.04-2.3-5.838-4.598-8.393-7.14-.365-3.508-.608-7.26-.608-11.01 0-3.752.243-7.503.608-11.012 2.676-2.42 5.474-4.84 8.393-7.14a98.204 98.204 0 0113.867-8.832c4.622 2.42 9.244 5.445 13.867 8.833 3.04 2.299 5.838 4.598 8.393 7.139.365 3.51.608 7.26.608 11.011 0 3.751-.243 7.503-.608 11.012-2.676 2.42-5.474 4.84-8.393 7.139a98.204 98.204 0 01-13.867 8.833c-4.622-2.42-9.245-5.445-13.867-8.833zm11.312 10.164c-4.865 2.42-9.609 4.114-13.988 5.203-2.311-5.324-4.136-11.737-5.109-18.876a136.522 136.522 0 006.447 5.324 87.656 87.656 0 0012.65 8.349zm24.45-42.956a136.469 136.469 0 00-6.447-5.324 142.098 142.098 0 00-12.65-8.35c4.865-2.42 9.609-4.113 14.11-5.203 2.189 5.325 3.892 11.738 4.987 18.877zM45.112 3.42c6.082 0 11.555 5.082 15.691 13.31-4.987 1.21-10.217 3.267-15.691 6.05-5.474-2.783-10.704-4.84-15.691-6.05 4.135-8.228 9.73-13.31 15.69-13.31zM28.447 19.03a61.91 61.91 0 019.123 3.024c1.582.606 3.285 1.453 4.866 2.179a87.647 87.647 0 00-12.65 8.349c-2.312 1.694-4.38 3.509-6.447 5.324.973-7.14 2.797-13.552 5.109-18.877zM7.405 43.955C2.782 35.002 2.174 27.5 5.823 22.901c2.676-3.387 7.176-5.082 12.893-5.082 2.312 0 4.744.242 7.299.726-2.676 6.172-4.5 13.674-5.474 22.023-3.406 3.267-6.447 6.655-9.001 10.043a83.142 83.142 0 01-4.136-6.655zm12.772 16.94c-2.676-2.662-5.109-5.566-7.298-8.349 2.19-2.783 4.5-5.566 7.298-8.349a91.795 91.795 0 00-.365 8.35c0 2.903.122 5.686.365 8.349zM5.823 82.315c-3.65-4.72-3.041-12.221 1.581-21.175 1.095-2.179 2.433-4.357 4.014-6.656a98.782 98.782 0 009.123 10.044c.973 8.349 2.798 15.851 5.474 22.022-9.123 1.936-16.543.605-20.192-4.235zm39.289 19.482c-6.082 0-11.556-5.083-15.691-13.31 4.865-1.21 10.217-3.268 15.69-6.051 5.475 2.783 10.705 4.84 15.692 6.05-4.136 8.107-9.61 13.311-15.691 13.311zm16.786-15.73c-4.379-1.09-9.123-2.784-14.11-5.204a87.65 87.65 0 0012.65-8.35c2.311-1.693 4.38-3.508 6.447-5.323-.973 7.139-2.676 13.552-4.987 18.876zM84.4 82.313c-3.65 4.84-11.07 6.05-20.192 4.235 2.676-6.171 4.5-13.673 5.474-22.022a98.794 98.794 0 009.123-10.044c1.58 2.178 2.919 4.477 4.014 6.656 4.622 9.075 5.23 16.577 1.581 21.175z" fill="url(#paint2_linear)" stroke="url(#paint3_linear)" stroke-miterlimit="10"/><defs><linearGradient id="paint0_linear" x1="45.112" y1="40.326" x2="45.112" y2="69.609" gradientUnits="userSpaceOnUse"><stop stop-color="#F16122"/><stop offset="1" stop-color="#FEBD33"/></linearGradient><linearGradient id="paint1_linear" x1="45.112" y1="40.326" x2="45.112" y2="69.609" gradientUnits="userSpaceOnUse"><stop stop-color="#F16122"/><stop offset="1" stop-color="#FEBD33"/></linearGradient><linearGradient id="paint2_linear" x1="45.112" y1="1" x2="45.112" y2="104.216" gradientUnits="userSpaceOnUse"><stop stop-color="#F16122"/><stop offset="1" stop-color="#FEBD33"/></linearGradient><linearGradient id="paint3_linear" x1="45.112" y1="1" x2="45.112" y2="104.216" gradientUnits="userSpaceOnUse"><stop stop-color="#F16122"/><stop offset="1" stop-color="#FEBD33"/></linearGradient></defs></svg>