<svg xmlns="http://www.w3.org/2000/svg" viewBox="0 0 109.56 75.16"><path d="M62.26 0c.1.1.25.1.4.1.6.1 1.2.25 1.8.35.3.05.3.05.3.35-.05 2.05-.1 4.1-.2 6.15-.05 1.3-.05 2.55-.1 3.85 0 .1 0 .2.05.3.1-.1.1-.2.15-.3 1.15-3.05 2.35-6.1 3.5-9.15.2-.45.05-.45.6-.35.55.1 1.05.2 1.6.3.25.05.25.05.25.3 0 1.1 0 2.2-.05 3.3 0 2.3-.05 4.65-.05 6.95v.1c.1-.05.1-.15.15-.25 1.1-3.1 2.2-6.2 3.3-9.35V2.6c.1-.3.1-.3.4-.25.7.15 1.35.25 2.05.4.3.05.3.05.2.3-.75 1.95-1.5 3.85-2.2 5.8-1.2 3.1-2.35 6.2-3.55 9.3 0 .05-.05.1-.05.15-.05.15-.1.2-.25.15-.65-.15-1.3-.25-1.95-.4-.2-.05-.2-.05-.2-.3V6.95c-.15.1-.15.25-.2.35-1.15 2.95-2.25 5.9-3.4 8.9-.1.3-.25.6-.35.9-.05.1-.1.15-.25.15-.65-.15-1.35-.25-2-.4-.1 0-.15-.1-.15-.2V.8c0-.25 0-.55.05-.8h.15zM0 50.35c.1.05.25 0 .35 0h1.9c.25 0 .25 0 .25.25V55c0 .1.05.15.15.15H6.6c.1 0 .2-.05.2-.15v-3.25c0-.3 0-.3.3-.3H9c.3 0 .3 0 .3.35v3.05c0 .3 0 .3.3.3h4.25c.25 0 .3 0 .3-.3V50.4c0-.35-.05-.35.35-.35h1.85c.3 0 .3 0 .3.3v7.4c0 .25 0 .25-.3.25H.05C0 55.46 0 52.9 0 50.35zM109.56 38.9c-.5.25-1 .4-1.5.6-.2.1-.4.15-.6.25-.15.1-.25.05-.3-.1-.2-.6-.45-1.15-.7-1.7-.1-.2-.15-.4-.25-.6-.1 0-.2.05-.3.05-4.15 1.65-8.3 3.3-12.5 4.9-.05 0-.1.05-.15.05-.15.1-.25 0-.3-.15-.3-.75-.55-1.45-.85-2.15-.1-.25-.15-.25.2-.4 2-.8 4.05-1.6 6.05-2.4l6.45-2.55h.05c.25-.1.25-.1.15-.35l-.75-1.95v-.05c-.1-.3-.1-.3.2-.4.55-.25 1.15-.45 1.7-.7.3-.1.3-.15.4.15.55 1.35 1.05 2.7 1.6 4 .45 1.1.85 2.25 1.3 3.35 0 0 .05 0 .05.05.05.05.05.1.05.1zM8.6 40.65c.1.1.25.1.35.15 3 1.05 6 2.15 9 3.2H18c.25.1.25.1.15.35-.2.65-.45 1.25-.65 1.9-.1.25-.1.25-.35.2-1.45-.5-2.9-1.05-4.35-1.55-3.55-1.25-7.05-2.5-10.6-3.75-.05 0-.1-.05-.1-.05-.25-.1-.25-.1-.15-.35.2-.65.45-1.25.65-1.9.1-.35.1-.35.5-.35h2c1.8 0 3.65 0 5.45-.05.65 0 1.3 0 1.95-.05h.2c-.1-.1-.2-.1-.3-.15-2.7-.95-5.45-1.95-8.15-2.9-.4-.15-.4-.1-.25-.5.2-.6.4-1.2.65-1.75.1-.3.1-.3.4-.2 2.1.75 4.2 1.5 6.25 2.25 2.9 1.05 5.8 2.05 8.7 3.1.4.15.3.15.2.45-.2.6-.4 1.2-.65 1.75-.05.15-.1.25-.3.25-2.1 0-4.15-.05-6.25-.05H8.6zm.85-16.35c.15-.2.35-.45.55-.7.35-.45.7-.85 1.05-1.3.2-.25.2-.25.4-.05 1.65 1.3 3.35 2.65 5 3.95 1.5 1.2 3 2.35 4.5 3.55.25.2.5.4.8.5.55.25 1.05.15 1.45-.3.75-.75.75-1.5 0-2.25-.45-.45-1-.8-1.5-1.25-2.75-2.2-5.5-4.35-8.3-6.55l-.05-.05c-.25-.2-.3-.15-.05-.45.45-.6.95-1.15 1.4-1.75.2-.25.2-.25.4-.05 1.55 1.25 3.1 2.45 4.65 3.7 1.65 1.3 3.25 2.6 4.9 3.85.7.55 1.25 1.2 1.6 2.05.35.9.3 1.8-.1 2.65-.5 1.2-1.3 2.15-2.4 2.75-1.1.6-2.25.55-3.35.05-.45-.2-.85-.45-1.2-.75l-9.45-7.5c-.15.05-.25 0-.3-.1zm-6.3 50.86c-.15-.9-.35-1.8-.5-2.65-.05-.15.05-.2.2-.25.75-.3 1.5-.65 2.25-.95l7.95-3.45c.05 0 .1-.05.2-.15h-.3c-2.15.1-4.35.15-6.5.25-.9.05-1.75.05-2.65.1-.6 0-1.25.05-1.85.05-.25 0-.25 0-.3-.25-.2-.8-.35-1.6-.55-2.45.15-.1.25-.05.35-.05 3.2-.05 6.45-.05 9.65-.1 2.2-.05 4.4-.05 6.6-.05h.15c.15 0 .2.05.25.2.1.55.25 1.1.35 1.7.05.2.1.4.15.55.05.35.05.35-.25.5-.55.25-1.1.5-1.7.8-4.35 2.05-8.7 4.1-13.05 6.1-.2.05-.3.1-.45.1zM28 15.15c.5-.35 1-.65 1.5-1 .45-.3.9-.6 1.3-.9.2-.15.2-.15.35.1.35.55.7 1.1 1.1 1.6.15.25.15.2-.1.4-.5.3-.95.65-1.45.95-.4.25-.8.55-1.2.8-.2.15-.2.15-.05.3l2.4 3.6c.15.2.15.2.35.05 1.25-.85 2.5-1.65 3.75-2.5.05-.05.1-.05.15-.1.1-.05.15-.05.2.05.4.65.85 1.3 1.25 1.9-.05.1-.15.15-.25.2-2 1.35-4.05 2.7-6.05 4.05-.3.2-.25.25-.45-.1-.6-.95-1.25-1.85-1.9-2.8L22 11.4c-.25-.35-.25-.3.1-.55 1.9-1.25 3.8-2.55 5.75-3.8.05 0 .05-.05.1-.05.2-.15.2-.15.35.05.35.55.75 1.1 1.1 1.65.15.2.15.2-.1.35-1.15.75-2.25 1.5-3.4 2.25-.05.05-.15.1-.2.15-.15.05-.1.15-.05.25.75 1.1 1.45 2.2 2.2 3.3l.15.15zm57.01-7.5c2.1 1.45 4.15 2.9 6.2 4.35 0 .1-.1.2-.15.25-.35.5-.7 1.05-1.1 1.55-.2.3-.2.25-.45.1-.65-.45-1.3-.9-1.9-1.35-.5-.35-1.05-.7-1.55-1.1-.2-.15-.2-.15-.3.05-.75 1.05-1.45 2.05-2.2 3.1-.1.2-.1.2.05.3.8.6 1.65 1.15 2.45 1.75.05 0 .05.05.1.05.2.15.2.15.1.35-.05.1-.1.2-.2.25-.3.45-.65.9-.95 1.4-.1.15-.15.15-.3.05-.7-.5-1.4-1-2.1-1.45-.2-.1-.35-.25-.55-.35-.2-.15-.2-.15-.3.05-.5.7-1 1.4-1.5 2.15-.35.45-.65.95-1 1.4-.2.25-.15.25.1.4 1.2.85 2.4 1.65 3.6 2.5.1.05.2.15.3.2.05.1-.05.15-.05.2-.4.55-.8 1.1-1.15 1.7-.15.2-.15.2-.35.05-1.45-1-2.85-2-4.3-3-.6-.4-1.15-.8-1.75-1.25-.3-.2-.25-.15-.1-.45 1.25-1.75 2.45-3.55 3.7-5.3 1.8-2.55 3.6-5.15 5.4-7.7.1-.05.15-.1.25-.25zm4.75 19.45c-.15.15-.3.3-.4.45-.25.3-.5.6-.65.95-.4.95.2 2 1.2 2.2.35.05.7-.05 1-.25.5-.35.85-.85 1.05-1.4.2-.6.3-1.25.3-1.9.05-.85.05-1.75.15-2.6.05-.6.15-1.15.35-1.7.5-1.55 1.55-2.6 3.05-3.25.95-.4 1.95-.35 2.85.1 1 .5 1.8 1.3 2.3 2.3.45.85.5 1.75.2 2.65-.25.8-.7 1.45-1.25 2.05-.1.1-.2.1-.3 0-.55-.55-1.1-1.15-1.65-1.7-.1-.1-.1-.15 0-.25.2-.2.4-.45.5-.7.3-.6.2-1.2-.3-1.7-.4-.4-.85-.5-1.4-.25-.6.25-1 .65-1.25 1.2s-.35 1.2-.4 1.8c-.05.8-.1 1.65-.15 2.45-.05.9-.2 1.75-.5 2.6-.65 1.6-1.8 2.65-3.5 3.1-.75.2-1.5.1-2.2-.25-1.25-.6-2.15-1.5-2.65-2.8-.3-.8-.3-1.65-.05-2.45.3-.95.85-1.75 1.55-2.4.1-.1.15-.15.25-.05.65.6 1.25 1.2 1.9 1.8zm-46.01-8.8c-1.35 0-2.2-.35-2.95-1-.7-.6-1.15-1.35-1.5-2.2-.05-.15-.05-.2.1-.25.7-.3 1.45-.65 2.15-1 .15-.05.2-.05.25.1.05.2.15.4.25.55.1.25.3.45.45.65.8.9 1.7.65 2.35.05.35-.3.5-.75.4-1.2-.15-.75-.55-1.3-1.1-1.75-.45-.35-.95-.6-1.5-.85-.8-.35-1.65-.7-2.4-1.1-.8-.4-1.5-.9-2.1-1.6-.85-1.05-1.25-2.25-1.2-3.55.05-.85.35-1.6.95-2.2.95-.95 2.15-1.45 3.45-1.45.85-.05 1.65.3 2.3.85.6.5 1.05 1.15 1.4 1.9.05.15.05.2-.1.25-.7.3-1.45.6-2.15.9-.15.05-.2 0-.25-.1-.15-.3-.3-.6-.6-.85-.5-.4-1-.45-1.6-.2-.55.25-.75.7-.75 1.25.05.55.2 1 .6 1.4.25.3.6.55.95.75.55.35 1.15.6 1.75.85.75.35 1.55.65 2.25 1.1.55.35 1.1.7 1.5 1.2.85.95 1.25 2.05 1.3 3.3 0 1.1-.4 2.1-1.25 2.85-.9.9-2 1.35-2.95 1.35z" fill="#fff"/></svg>