<svg version="1.1" id="Layer_1" xmlns="http://www.w3.org/2000/svg" x="0" y="0" viewBox="0 0 77.41 69.86" xml:space="preserve"><style>.st0{fill:#fff}</style><path class="st0" d="M77.26 44.1c-.45.1-.85.3-1.25.45l-7.05 2.55c-1.7.6-3.4 1.25-5.1 1.85-3 1.1-6.05 2.2-9.05 3.3-2.5.9-5 1.8-7.45 2.75-1.75.65-3.55 1.3-5.3 1.95-2.45.9-4.95 1.8-7.4 2.7-2.25.8-4.45 1.6-6.7 2.45-3.1 1.15-6.2 2.25-9.3 3.4-3.1 1.15-6.25 2.25-9.35 3.4-.8.3-1.55.55-2.35.85-.05 0-.1.05-.15.1H.21V.44c0-.25.05-.3.3-.3h76.91c-.16 14.61-.16 29.31-.16 43.96zM38.65 1.65H2c-.4 0-.4-.05-.4.35v65.96c0 .2.05.25.25.25H6.1c.1 0 .25 0 .35-.05 2.45-.9 4.95-1.8 7.4-2.7 2.65-.95 5.3-1.95 7.95-2.9 2.95-1.05 5.85-2.15 8.8-3.2 2.15-.8 4.3-1.55 6.5-2.35 2.5-.9 5-1.8 7.45-2.75 2.65-.95 5.35-1.95 8-2.9 1.7-.6 3.35-1.2 5.05-1.85 2.05-.75 4.15-1.5 6.2-2.25s4.05-1.5 6.1-2.25c1.75-.65 3.45-1.25 5.2-1.9.5-.2.5-.2.5-.75V2.06c0-.45 0-.45-.45-.45-12.09.04-24.3.04-36.5.04z"/><path class="st0" d="M77.26.1H.35C.1.1.05.15.05.4v69.41s-.05.05-.05-.05V.25C0 .05.05 0 .25 0h76.81c.05.05.15 0 .2.1z"/><path class="st0" d="M33.3 22.2v-2.9c0-1.1.3-2.1 1.1-2.95.55-.6 1.2-.9 2-1 1.15-.15 2.35-.15 3.5 0 1.75.25 2.85 1.3 3.2 2.85.25 1 .2 1.95.2 2.95 0 .1-.05.15-.15.2-1.75.65-3.5 1.25-5.2 1.9-.3.1-.55.2-.85.3-.1.05-.15.05-.15.15 0 .45 0 .85.1 1.25.2.7.7 1.05 1.5 1.05.95.05 1.9-.1 2.85-.1.4 0 .8-.05 1.15-.1.15 0 .2.05.2.2v2.8c0 .1-.05.15-.15.15-.55.1-1.1.2-1.7.2-1.3.05-2.6.15-3.9.05-.85-.05-1.7-.25-2.4-.8-.8-.6-1.1-1.45-1.25-2.4-.2-1.1-.1-2.25-.1-3.4 0-.1.05-.25.05-.4zm3.65-1.4c.05 0 .1 0 .15-.05.8-.3 1.6-.55 2.4-.85.5-.2.45-.05.35-.6-.1-.7-.3-.95-1.05-1h-.5c-.7 0-1.15.4-1.3 1.1-.1.45-.05.9-.05 1.4zM25.9 24.75c.15-.55.3-1.05.45-1.6.4-1.45.75-2.85 1.15-4.3.15-.6.25-1.2.25-1.85v-1.35c0-.15.05-.2.2-.2h3.45c.15 0 .2.05.2.2 0 .7.05 1.45 0 2.15-.05.4-.2.75-.3 1.15-.6 2.05-1.2 4.15-1.8 6.2-.4 1.3-.75 2.6-1.1 3.9-.05.15-.1.2-.25.2H23.7c-.15 0-.2-.05-.25-.2-1-3.55-2.05-7.1-3.05-10.65-.1-.4-.15-.8-.15-1.25v-1.5c0-.2.05-.25.25-.25h3.4c.15 0 .2.05.2.2v1.35c-.05.7.1 1.4.3 2.05.5 1.8 1 3.65 1.5 5.45 0 .05.05.15.05.2-.1.1-.05.1-.05.1zm38.11 4.5h-2.6c-.2 0-.25-.05-.25-.25v-3.15c0-.2.05-.3.25-.3h2.3c.15 0 .25.05.25.25 0 .45 0 .45.45.45.65 0 1.3 0 1.95-.2.2-.1.4-.2.55-.35.35-.45.2-.9-.3-1.2-.9-.55-1.85-.95-2.8-1.4-.95-.45-1.75-1.05-2.2-2-.7-1.3-.6-2.65.25-3.9.75-1.1 1.85-1.7 3.15-1.85 1.6-.2 3.2-.05 4.8.1.2 0 .25.1.25.3v2.9c0 .2-.05.25-.25.25h-2.2c-.2 0-.25-.05-.25-.25v-.15c0-.2-.05-.25-.25-.25-.5 0-1.05-.05-1.55.15-.4.15-.6.45-.6.85-.05.45.1.75.5.95 1 .55 2.05 1 3.05 1.5.8.4 1.5.9 1.95 1.7.6 1.05.55 2.15.1 3.2-.6 1.5-1.8 2.25-3.35 2.5-1.05.25-2.15.2-3.2.15zM48.75 16.5c.8-.3 1.55-.55 2.3-.85.6-.2 1.2-.35 1.85-.2.15.05.2.1.2.25v2.95c0 .2-.1.2-.25.2h-3.8c-.25 0-.3.05-.3.3v9.75c0 .3 0 .3-.35.3h-3.1c-.2 0-.25-.05-.25-.25v-13.3c0-.2.05-.3.25-.3h3.15c.2 0 .25.05.25.25 0 .35.05.6.05.9zm10.55 5.9v6.7c0 .15-.05.2-.2.2h-3.3c-.2 0-.2-.1-.2-.25v-9.8c0-.45 0-.35-.35-.35h-.2c-.15.05-.25-.05-.25-.2v-3c0-.2.05-.25.25-.25H59c.2 0 .25.05.25.25.05 2.2.05 4.45.05 6.7zm-1.84-11.8h1.65c.15 0 .2.05.2.2v1.8c0 .1-.05.15-.15.2-1.05.4-2.1.75-3.15 1.15-.35.1-.4.05-.4-.3v-2.8c0-.2.05-.25.25-.25h1.6z"/></svg>