<svg version="1.1" id="Layer_1" xmlns="http://www.w3.org/2000/svg" x="0" y="0" viewBox="0 0 123.1 41.5" xml:space="preserve"><style>.st0{fill:#fff}</style><path class="st0" d="M13.1 0c0 .2.1.3.2.4 1.4 2.7 2.8 5.3 4.1 8 1.1 2.2 2.2 4.3 3.3 6.4 1.3 2.4 2.5 4.8 3.7 7.2.9 1.7 1.5 3.4 1.7 5.2v.8c.1.5.1 1 0 1.5v.8c-.3 1.6-.7 3.2-1.5 4.6-.9 1.7-2.1 3.1-3.6 4.3-1.4 1.1-3 1.8-4.7 2.3-.6.2-1.1.2-1.7.3-.1.1-.2 0-.4.1h-2.3c-.9-.1-1.8-.2-2.6-.5-1-.3-2-.7-2.9-1.2-1.1-.6-2-1.3-2.9-2.2-1.1-1.1-2-2.4-2.6-3.8-1.5-3.3-1.5-6.6-.2-10 .8-2.2 1.9-4.1 3-6.2.9-1.7 1.7-3.3 2.6-5 .1-.1.1-.2.2-.3.2.3.4.6.5.9.4.7.7 1.3 1 2 .1.2.1.4 0 .6-1.5 2.8-2.9 5.6-4.3 8.4-1 1.9-1.6 3.9-1.6 6.1.1 2.4.9 4.5 2.4 6.3 2.9 3.4 6.5 4.7 10.8 3.8 4.3-.9 7.5-4.2 8.4-8.6.4-2.1 0-4.1-.8-6.1-.5-1.4-1.2-2.6-1.9-3.9-3-6.3-6.2-12.5-9.4-18.6-.1-.3-.1-.5 0-.7.5-1 1-1.9 1.5-2.9-.1 0-.1 0 0 0zm106.1 36.9v-.2c.3-.1.3-.4.3-.7v-2.6c0-.2-.1-.3-.2-.4-.1 0-.2-.1-.1-.3h1.1c.6 1 1.2 1.9 1.9 2.8.1 0 .1-.2.1-.2-.1-.7 0-1.4-.1-2.1 0-.2-.2-.2-.3-.3-.1-.2 0-.3.2-.3h.8v.3c-.2.1-.4.1-.4.3v3.4c0 .3 0 .3-.3.2-.8-1.2-1.5-2.4-2.3-3.5h-.1v2.8c0 .2 0 .4.2.5.1 0 .2.1.2.2-.3.1-.6.2-1 .1zm3.8-7.6h-4.2c-.1 0-.2 0-.3-.1.1-.1.2-.1.3-.1h4.2v.2z"/><path class="st0" d="M123 32.7h-.8c-.2 0-.2.1-.2.3-.2-.2-.1-.3.2-.3h.8zm0-3.4c-.2-.2-.2-.5-.1-.8h.1v.8zM49.9 10c-.1-.3-.3-.4-.6-.4-.2 0-.4-.1-.5-.1-.2-.1-.4-.2-.4-.5v-.7c0-.1.1-.1.2-.1h4.5s.2 0 .2.1v.3c0 .6 0 .9-.7 1-.4.1-.7.5-.9.9-.5.9-.7 1.9-1.1 2.8-.9 2.8-1.8 5.5-2.7 8.2-.9 2.7-1.7 5.3-2.6 8 0 .1 0 .1-.1.2-.5.1-.8.1-1.3 0-.5-1.5-1.1-3-1.5-4.6-.8-2.5-1.7-5-2.5-7.5-.1-.6-.4-1.1-.6-1.6-.2.5-.3.9-.5 1.4-1.4 4.1-2.7 8.2-4.1 12.3v.1c-.4.1-.8 0-1.2 0 0 0-.1 0-.1-.1-.2-.8-.5-1.6-.8-2.5-.7-2.1-1.4-4.3-2.1-6.4-.4-1.3-.8-2.5-1.2-3.7-.4-1.3-.8-2.5-1.2-3.7l-.9-2.7c-.2-.6-.5-1.1-1.3-1.2-.2-.1-.2-.2-.2-.4-.1-.8-.1-.8.7-.8h5.2c.4 0 .4 0 .4.4v.5c-.1.3-.4.4-.7.4-1 .1-1.1.6-.8 1.4.9 2.8 1.9 5.6 2.8 8.4.5 1.5 1 2.9 1.5 4.3 0 .1 0 .2.2.2.1 0 .1-.1.1-.2 1-3 2-5.9 3-8.9.1-.3.2-.8.3-1.1.2-.4.2-.7 0-1-.2-.7-.5-1.4-.7-2.1-.2-.6-.6-1-1.3-1.1-.3-.1-.4-.2-.4-.5v-.8c.1-.1.2-.1.2-.1h5.9s.2 0 .2.1v.6c0 .4-.2.6-.6.7-.2.1-.4.1-.6.2-.5.1-.6.5-.5 1.1.4 1.1.7 2.2 1.1 3.4 1.1 3.2 2.1 6.4 3.2 9.6 0 .2 0 .4.2.6.4-1.3.8-2.5 1.2-3.7.5-1.6 1-3.2 1.5-4.7.5-1.6 1.1-3.2 1.6-4.8 0-.2.1-.4.1-.7.5-.2.5-.3.4-.5z"/><path class="st0" d="M123 28.5v.8h-4.4c-.6-1-1.2-2-1.8-2.9-.7-1.1-1.2-2.2-1.9-3.2-.5-.9-1-1.8-1.6-2.6-.4-.6-.8-1.1-1.6-1.3-.2-.1-.3-.1-.5-.1h-1.7v8c0 .6.4 1 1 1 .4 0 .7.2.7.7v.5c-.1.1-.2 0-.2 0h-6.2v-.7c0-.3.2-.4.4-.4.1 0 .2-.1.3-.1.6 0 .9-.4 1-.9V10.4c-.2-.7-.4-.8-1.1-.9-.2-.1-.4-.1-.4-.4-.1-.8-.1-.8.7-.8h9.3c.1.1.2 0 .3.1.9.2 1.9.4 2.8.9 1.4.8 2.3 1.9 2.5 3.5.1.1 0 .3.1.4v.5c-.1.2 0 .3-.1.4-.1.9-.4 1.6-.9 2.3-.7.9-1.6 1.5-2.6 1.8-.6.2-1.2.4-1.8.5h-.7c.4.2.9.2 1.3.6.6.4.8 1 1.2 1.5 1.2 2 2.5 4.1 3.8 6.1.4.7 1 1.3 1.9 1.4 0-.2.1 0 .2.2zM10.9 4.3c.1 0 .1.1.1.2 3.3 6.4 6.6 12.7 9.9 19 .7 1.3 1.2 2.7 1.4 4.2.2 1.9-.1 3.6-1.1 5.2-1.8 3.2-4.6 4.8-8.3 4.9-4.5 0-8.4-3.4-9.1-7.8-.3-1.9.1-3.6.8-5.3.8-1.9 1.8-3.6 2.7-5.3.5-.9.9-1.8 1.4-2.8.4.8.8 1.6 1.2 2.3.4.7.4 1.2 0 1.9-1.1 1.9-2.1 3.9-3 5.8-.5 1-.8 2.1-.9 3.2 0 2.7 1.2 4.8 3.6 6.2 3.5 2.1 8.1.6 9.8-3 .9-1.8.8-3.7.1-5.6-.5-1.5-1.4-2.9-2.1-4.2C14.7 18 12 12.9 9.3 7.7c-.1-.2-.1-.4 0-.6.5-.9.9-1.7 1.4-2.6.1-.1.1-.2.2-.2zm78 6.2c0-.4-.2-.8-.6-.9-.2-.1-.3-.1-.5-.1-.3 0-.5-.2-.5-.5-.1-.3-.1-.5 0-.7.1-.1.2-.1.4-.1h11.9c.1 0 .2.1.3-.1.5 0 .9-.2 1.3-.4.1.1 0 .1 0 .2v5h-.6c-.6.1-.9-.3-1.1-.9-.2-.6-.4-1.2-.9-1.7-.4-.4-.9-.6-1.4-.7-.2 0-.2-.1-.4-.1h-4.9c-.1 0-.2 0-.2.2v7.8c.4.1.9.1 1.4.1h1.1c.5 0 .9-.1 1.3-.2.4-.2.6-.6.7-1 .2-.7.8-1 1.4-.8.1.1.1.1.1.2v5.1c0 .1 0 .2-.2.2h-.2c-1 0-1.2 0-1.5-1.1-.2-.6-.6-.9-1.1-1-.2 0-.5-.1-.7 0-.8-.1-1.6-.1-2.3 0v8.6c0 .2.1.3.3.3h5.2c.2-.1.3 0 .4-.1 1.1 0 2-.4 2.5-1.3.3-.5.3-1.1.5-1.6.1-.2.1-.4.2-.6.2-.4.4-.6.8-.6h.7v5.5H87.2c-.1 0-.2.1-.3 0v-.6c0-.3.1-.4.3-.5h.2c.8-.1.9-.2 1.1-1 .1-.1 0-.3.1-.5V11.1c.3-.2.3-.4.3-.6zM63.6 29.3c0-1-.2-1.1 1-1.3.5-.1.7-.5.5-1.2-.2-.8-.5-1.5-.8-2.2-.2-.3-.3-.6-.4-1-.1-.2-.2-.2-.4-.2h-7.9c-.2 0-.2 0-.2.1-.4 1.1-.9 2.1-1.2 3.1-.2.6 0 1 .4 1.2.2 0 .3.1.5.1.3.1.5.2.6.4v.8c0 .1-.1.1-.2.1h-4.9c-.2 0-.3-.1-.3-.2v-.6c0-.2.2-.3.3-.3 1-.2 1.6-1 2-1.9.4-.7.6-1.5.9-2.3.3-.8.6-1.5 1-2.3l1.2-3c.4-.9.7-1.7 1.1-2.6.3-.9.8-1.8 1.1-2.7.2-.7.5-1.3.8-1.9.2-.4 0-.8-.2-1.1-.2-.4-.3-.8-.5-1.2-.1-.4 0-.5.2-.7.8 0 1.4-.4 2-.7.2-.2.3-.1.4.2l4.5 10.8c1.1 2.6 2.1 5.1 3.2 7.6.2.5.4 1 .8 1.4.2.2.5.4.9.4.2 0 .3.1.4.4.1.9.1.9-.8.9H64c-.2-.1-.3-.1-.4-.1zm20.8-16.1c-.4-.1-.7-.3-.8-.7-.2-.4-.2-1-.4-1.4-.3-.6-.8-1-1.4-1.2-.4-.2-.8-.2-1.2-.2-.2-.1-.5 0-.7-.1h-1.7c-.2 0-.2.1-.2.2v16.6c0 .3 0 .7.1 1 .2.6.4.7 1 .8.3 0 .6 0 .8.4 0 .8 0 .8-.7.8h-5.6c-.2 0-.4-.1-.4-.4 0-.2 0-.3.1-.5 0-.3.3-.3.6-.3.8-.1 1.1-.4 1.2-1.3V10c0-.1.1-.3 0-.4-.6-.1-1.2 0-1.8 0-.2.1-.5 0-.7.1-.8.1-1.6.2-2.2.8-.5.5-.6 1-.7 1.6 0 .2-.1.3-.2.6s-.4.5-.8.6c-.3 0-.5.1-.8 0-.1-.1-.1-.2-.1-.2V8c.4 0 .6.3 1 .3.2 0 .3.1.5.1h14.8c.5 0 .9-.2 1.4-.4.1.1 0 .2 0 .3v4.8c0 .3 0 .4-.3.3-.4-.2-.6-.1-.8-.2z"/><path class="st0" d="M10.9 20.8c.6 1.1 1.1 2.1 1.6 3.1.1.1 0 .2-.1.4-.8 1.5-1.5 2.9-2.2 4.3-.6 1.2-.6 2.4.3 3.5.8 1 1.8 1.2 3 1.2 2.3-.2 3.5-2.7 2.4-4.7-1.9-3.7-3.8-7.3-5.7-10.9-1-1.9-2-3.8-3-5.6-.2-.3-.2-.6 0-.9.5-.9 1-1.9 1.5-2.8.4.8.8 1.5 1.2 2.2 2.7 5.1 5.3 10.2 7.9 15.3 1.4 2.8.7 5.9-2.1 7.4-3.2 1.8-7.3-.1-7.9-3.8-.2-1.3-.1-2.5.5-3.6.8-1.7 1.7-3.4 2.6-5.1-.1.1 0 .1 0 0zM79.1 34c-.2.5-.6.7-1.1.8.4.3.6.8.9 1.2.2.3.3.6.7.8v.2c-.3.1-.6.1-1 0-.3-.6-.7-1.2-1.1-1.7-.1-.1-.2-.2-.3-.2-.2-.1-.3 0-.3.2v1.1c0 .3 0 .4.3.6.1.1 0 .2-.1.2-.4 0-.8 0-1.2-.1V37c.4-.2.3-.5.3-.8v-2.5c0-.2 0-.5-.2-.5-.1 0-.1-.2-.1-.2.2-.1.3 0 .6 0H78c.5.1 1 .2 1.2.8 0-.1 0 0-.1.2zM51 32.7c.5.1 1 .2 1.2.8.1.2.1.4 0 .5-.2.5-.5.7-1.1.8.5.4.7 1 1 1.5.1.2.2.3.5.4.1 0 .1.1.2.2-.3 0-.7.1-1 0-.4-.6-.7-1.2-1.1-1.8-.1-.1-.2-.2-.3-.2-.3-.1-.4 0-.4.2v1.1c0 .3.1.4.4.5 0 .1 0 .2-.1.2-.4 0-.8 0-1.2-.1v-.2c.4-.1.3-.4.3-.7v-2.7c0-.2 0-.5-.2-.5-.1 0 0-.2 0-.2.1-.1.3 0 .5 0 .3.2.8.2 1.3.2zm-7.7 2.6c-.2.5-.4 1.1-1 1.4-1 .7-2.4.2-2.8-1-.2-.8-.2-1.5.2-2.2.4-.7 1-1 1.8-1 .8.1 1.4.6 1.7 1.3.1.2.1.3.2.4v.6c-.1.2 0 .4-.1.5zm66.9-.4c0-.8.2-1.5.8-2 1-.7 2.3-.3 2.8.7.6 1.2.2 2.5-.8 3.1-.8.5-2 .3-2.5-.7-.2-.3-.3-.7-.3-1.1zm-43.9 0c0-.9.2-1.5.9-2 1-.7 2.3-.3 2.7.7.5 1.2.2 2.5-.8 3.1-.8.5-2.1.3-2.6-.7-.1-.3-.2-.7-.2-1.1zm-5-.8c-.2.6-.8.9-1.4.8-.8 0-.8 0-.8.8v.1c0 .4-.1.8.3 1.1-.4.1-.8 0-1.2 0-.1 0-.1-.1 0-.2.1 0 .2-.1.2-.1v-3.3c0-.1.1-.2 0-.3 0-.1-.2-.1-.2-.1 0-.2 0-.2.2-.2.6 0 1.3-.1 1.9 0 .5.1.9.3 1.1.8-.1.2-.1.4-.1.6zm24.6 1.7c-.1.1-.1.3-.2.5s-.1.3.2.4c.1 0 .2.1.2.2-.4.1-.7.1-1.1 0 0 0 0-.1.1-.1.6-.4.6-1 .9-1.5.2-.5.5-1.1.7-1.6.1-.2.2-.3 0-.6-.2-.2.1-.4.2-.5.2-.2.2.1.3.2.5 1.2 1 2.3 1.5 3.5.1.2.2.4.4.4.1.1.1.2 0 .2-.4 0-.9.1-1.3 0 .5-.3.2-.7.1-1-.9-.2-1.4-.2-2-.1zm-53.6-2.9c-.4 0-.5.2-.7.5-.2.3-.2.6-.2 1-.1.2-.1.5 0 .8-.1.3.1.6.2.9.4.8 1.2.9 1.8.4.1-.1.2-.2.2-.3s.1 0 .2 0c0 0 .1.1 0 .2-.2.3-.5.5-.9.7-1.1.2-1.8-.2-2.2-1.2-.1-.2-.1-.5-.1-.7-.1-.2-.1-.3 0-.5 0-.7.3-1.3.9-1.7.5-.4 1.1-.3 1.6-.1.1.1.2.2.2.1.4-.2.4.1.4.3v.5c0 .1 0 .2-.1.2s-.2 0-.2-.2-.1-.5-.3-.6c-.1-.1-.2-.2-.4-.2 0-.1-.2-.1-.4-.1zm62.6 3.9c.1-.2.4-.1.3-.4.1-.7 0-1.5 0-2.2 0-.4.1-.8 0-1.2h-.6c-.3 0-.4.1-.5.4-.1.2-.2.3-.3.3v-1h3.4c.1 0 .1 0 .1.1v.8c0 .1-.1.2-.2.1-.1 0-.2-.1-.2-.2 0-.3-.2-.4-.5-.5-.6-.1-.6-.1-.6.5v2.8c0 .1-.1.2.1.3 0 .2.3 0 .3.3-.4.1-.9 0-1.3 0 0 0-.1-.1 0-.1zm8.3.1v-.1c.3-.1.3-.4.3-.6v-2.7c0-.2 0-.5-.2-.5-.1 0-.1-.1-.1-.2s.1-.1.2-.1h1.1c0 .1 0 .2-.1.2-.2.1-.2.2-.2.4v2.9c0 .3 0 .5.3.6 0 .1 0 .1-.1.1-.5 0-.9.1-1.2 0zM75 9.7c.1.1 0 .2 0 .3v-.3zm12.3 19.5h15.4c-.1.1-.2.1-.3.1H87.7c-.2 0-.4.1-.4-.1zM100 8.3c-.2.1-.4.1-.6.1H87.3c.1-.1.2-.1.2-.1H100zm14.3 0H105c-.1 0-.2.1-.2.3v.6c-.1-.2 0-.5 0-.7 0-.1 0-.2.2-.2h9c.1 0 .2-.1.3 0zM73.2 28.5c0 .8 0 .8.8.8h5.5c.3 0 .4-.1.4-.4v-.4c.1.2 0 .5 0 .7 0 .2-.2.2-.3.2h-6.1c-.2 0-.4-.1-.3-.4 0-.2-.1-.3 0-.5zm36.4-1.4c-.1-.2-.1-.3-.1-.5v-7.3c0-.1 0-.2.1-.2v8zm-77.3-18c0-.8 0-.8-.8-.8h-5.2c-.2 0-.4.1-.4.4v.5c-.1-.2 0-.5 0-.7 0-.2.2-.2.3-.2H32c.2 0 .4.1.4.4-.1.1 0 .3-.1.4zm31.3 20.2H70c.2 0 .3-.1.3-.4v-.5c.1.2.1.5.1.8 0 .2-.2.1-.2.1H64c-.2 0-.3.1-.4 0zm41.2 0h6.4c0 .1-.2.1-.2.1h-5.9c-.1-.1-.2-.1-.3-.1zM42.7 8.4c-2.1 0-4.2-.1-6.4 0 0-.1.2-.1.2-.1h5.8c.2 0 .3 0 .4.1zm7.7 20c0 .2-.1.6.1.8.1.2.5 0 .8 0h4.5c0 .1-.2.1-.2.1h-4.9c-.2 0-.3-.1-.2-.3-.1-.1-.2-.4-.1-.6zm34-15.2c.3-.1.7.1.8-.1.1-.2 0-.5 0-.8V7.8c.1.1.1.2.1.3v4.8c0 .2-.1.4-.3.3-.2 0-.4.1-.6 0zM67.8 8v5.3c-.1-.1-.1-.2-.1-.3V8.3c.1-.2.1-.3.1-.3zm33.6 5.1V8.3c0-.1.1-.3-.1-.4.1.1.1.2.1.3v4.9zM53.3 8.4h-4.9c0-.1.2-.1.3-.1H53c.1 0 .2-.1.3.1z"/><path class="st0" d="M95.9 36.6c-.1-.1 0-.3 0-.4v-2.8c0-.5 0-.5.5-.4h.2c-.6 0-.6 0-.6.6-.1 1-.1 2-.1 3zm26.4.3c.2.1.4 0 .4-.3v-2.9c0-.1-.1-.3 0-.5v3.4c0 .4-.1.4-.4.3zm-63.9-3.8c.1 0 0 .1 0 .2v-.2zm36.8-.1c.1.4 0 .7 0 1.1 0 .8.1 1.6 0 2.3V33zm24.7 3.2c-.1-.8 0-1.6-.1-2.4 0-.2-.1-.4.1-.5-.1.1 0 .2 0 .3v2.6zM94.5 17.7H92h2.5zM92 19.1c.8-.1 1.6-.1 2.3 0H92zM60.2 32.7h-1.8c-.2 0-.2 0-.2.2-.1-.1-.1-.2.1-.2.6 0 1.2-.1 1.9 0zm17.8 0h-2 .1c.6 0 1.2-.1 1.9 0zm-27 0h-2c.7 0 1.3-.1 2 0zm34.9 3.1c.1-.2.3 0 .5 0 .4 0 .8-.1 1.2 0h-1.7zm1.6 1.1c.4.1.8 0 1.3 0 .2 0 .1-.1.1-.2.1.1.1.2 0 .2-.5 0-.9.1-1.4 0zm-29.3-.2c0 .1 0 .2.1.2.4 0 .8.1 1.2 0-.1.2-.2.1-.4.1h-.8c-.2-.1-.3-.1-.1-.3zm36.7.1c0 .1 0 .1.1.1.4 0 .8.1 1.2 0-.1.1-.3.1-.4.1h-.9c0-.1-.1-.1 0-.2zm8.3.1h1.1c.1 0 .2 0 .2-.1.1 0 .1.1 0 .1-.5 0-.9.1-1.3 0zm-54.2 0h1.2c.1 0 .2-.1.2-.2v.2c-.5 0-1 .1-1.4 0zm-22.9-7.6v-1.5c.1.5.1 1 0 1.5zM76 36.9h1.2c.1 0 .2-.1.2-.2v.2c-.6 0-1 .1-1.4 0zm21.1-3.2h.2c0-.4.2-.7-.1-1 .1-.1.1 0 .2.1v.9c-.1.1-.2.1-.3 0zm-53-4.1c.5 0 .9.1 1.4 0 0 .1 0 .1-.2.1h-1.1c0-.1 0-.1-.1-.1zm-10.3-.1c.4.1.9 0 1.3 0-.4.2-.8.1-1.3 0 0 .1 0 .1 0 0zm86.6 3.2h-1.2c.4-.1.8-.1 1.2 0zm-1.2 4.2c.4.1.8.1 1.1 0-.4.1-.7.1-1.1 0zm-34.3 0zm-6.2 0c.3.1.7.1 1 0-.4.1-.7.1-1 0zm-27 0c.3.1.7.1 1 0-.4.1-.7.1-1 0zm16.1-23.7h.8c-.2.1-.5.1-.8 0zm-36.3 22c-.1-.2 0-.6 0-.8v.8zM87.3 8.3V9c-.1-.2-.1-.4 0-.7zM72.4 9.7c.3-.1.5 0 .7 0-.2.1-.4 0-.7 0zm30.2 14.1h-.7c.3-.1.5-.1.7 0zM80 9.7c.2 0 .5-.1.7 0-.3 0-.5.1-.7 0zM94.6 33c.2-.1.4-.1.6 0h-.6zm-33.3 1.1v-.6.6zm8.5-25.8c-.2 0-.3.1-.6-.1.2.1.4 0 .6.1zM52.2 34v-.5.5zm26.9 0v-.5c.1.2.1.3 0 .5zm9.8-7.4c0 .2 0 .4-.1.6.1-.3 0-.4.1-.6zM83.8 8.3c-.2.1-.4.1-.6.1.3-.2.4-.1.6-.1zm26.8 10.8h.6c-.2 0-.4.1-.6 0zm-21.7-8.6c.1.1.1.4.1.6-.2-.2-.1-.4-.1-.6zm-75.5 31h.5-.5zm18.9-8.6c.2-.1.3 0 .5 0h-.5zm65.6-5h-.5c.2-.1.4 0 .5 0zm-67.2 6.7zM49.9 10c.1.1 0 .3 0 .5V10zm70.7 4.1c0-.2 0-.3.1-.4-.1.1 0 .3-.1.4zm0-.9c-.1-.2-.1-.3-.1-.4.2.1.1.2.1.4zM96.7 9.7c.1 0 .3 0 .4.1-.1-.1-.3 0-.4-.1zM12 41.4h.4c-.1.1-.2.1-.4 0zm103.3-33c-.1 0-.2 0-.3-.1 0 .1.2 0 .3.1zM26 30c0-.1 0-.3.1-.4 0 .1 0 .3-.1.4zm29.7-1.2c0-.1-.1-.2-.1-.4.2.1.1.3.1.4zm-12.3 5.9c-.1-.1-.1-.2-.1-.3.1 0 .1.2.1.3zm-17.3-7.3c-.1-.1-.1-.2-.1-.3.1.1.1.2.1.3zm17.2 7.9c0-.1 0-.2.1-.4 0 .2 0 .3-.1.4zm71.5-16.6h.4-.4zM14.3 41.4h.4c-.1.1-.3 0-.4 0z"/><path d="M109.6 13.7V9.8c0-.2 0-.3.2-.3h3.7c2.1.1 4.2 1.5 3.8 4.6-.2 2.1-1.5 3.4-3.6 3.6-1.3.2-2.6 0-4 .1-.2 0-.2-.1-.2-.3.1-1.2.1-2.5.1-3.8zm-50-.4c.2.3 3.5 8.3 3.6 8.7-.2.1-6.8.1-7.1 0 1.1-2.9 2.3-5.8 3.5-8.7zm17.3 20.5v-.1c0-.7 0-.7.7-.7.6 0 .8.4.8.9 0 .4-.2.7-.6.8-.8.1-.9 0-.9-.9zm-26.9 0v-.1c0-.7 0-.7.8-.7.5 0 .9.4.8.9 0 .4-.2.6-.5.7H51c-1 .2-1 .1-1-.8zm-7.3 1c0 .5 0 .9-.2 1.3-.2.5-.6.7-1.1.7-.5 0-.9-.2-1-.7-.3-.9-.3-1.7 0-2.6.2-.4.6-.7 1.1-.7.5 0 .8.3 1 .7.1.5.1.9.2 1.3zm70.7 0c0 .5-.1.9-.2 1.3-.2.5-.6.7-1.1.7s-.8-.2-1-.7c-.3-.9-.3-1.7 0-2.6.2-.5.6-.7 1.1-.7.5 0 .8.3 1 .8.2.4.2.8.2 1.2zm-46.4 0c0-.4.1-.9.2-1.2.2-.5.6-.8 1.1-.8.5 0 .8.2 1.1.8.3.8.3 1.6 0 2.4-.2.6-.6.8-1.1.8-.5 0-.9-.2-1.1-.8-.2-.4-.2-.8-.2-1.2zm-7.9-1v-.2c.1-.2-.3-.7.2-.7.9-.1 1.2.2 1.3.7 0 .6-.2.9-.6 1-.8.2-.9.2-.9-.8zm27.6-.1c.2.7.5 1.2.7 1.8H86c.3-.6.5-1.2.7-1.8z"/></svg>