<svg xmlns="http://www.w3.org/2000/svg" viewBox="0 0 121.61 37.25"><path d="M0 18.5V3.65C0 1.3 1.3 0 3.65 0H33.6c2.3 0 3.65 1.3 3.65 3.55 0 10 .05 20-.05 30.05-.05 2.45-1.4 3.7-3.6 3.65-10-.05-20.05 0-30.05 0C1.35 37.25 0 35.9 0 33.7V18.5zm5.95-8.95c-1.3.35-2.55 1-3.6 2.05-.55.6-.6 1.1-.15 1.85 1 1.55 1.85 3.15 2.75 4.7C6.55 20.9 8 23.75 9.7 26.4c.8 1.25 1.55 1.45 2.8.75.7-.4 1.35-.75 2-1.2 1.05-.65 1.2-1.25.6-2.35-2.5-4.4-5.05-8.8-7.6-13.2-.25-.5-.75-.8-1.55-.85zm10.15 0c-1.25.15-2.2.95-3.25 1.55-1 .6-1.2 1.4-.65 2.4.5 1 1.05 1.95 1.65 2.9 1.95 3.3 3.85 6.65 5.8 10 .8 1.35 1.6 1.55 2.95.75l1.5-.9c1.4-.8 1.6-1.6.8-3l-5.1-8.85c-.75-1.3-1.5-2.6-2.25-3.85-.35-.5-.7-1.05-1.45-1zM35.2 24.6c0-.3-.05-.6-.2-.9-2.55-4.45-5.1-8.85-7.7-13.3-.5-.9-1.35-1.05-2.3-.65-.8.35-1.6.85-2.35 1.35-.9.6-1.05 1.4-.6 2.4s1.05 1.85 1.6 2.8c1.95 3.3 3.85 6.65 5.8 10 .25.4.45.85.9 1.1 1.25.7 4.8-1.4 4.85-2.8zm18.56-9.1c-.75 3.1-1.6 6.2-2 9.35-.1.6-.5 1.15-.4 1.85.05.3-.2.4-.45.4h-.4c-1.1 0-2.5.35-3.3-.15-.8-.5-.75-2-1-3.1-1.2-4.25-2.35-8.55-3.55-12.8-.2-.65-.15-.9.6-.85.8.05 1.65.1 2.45 0 .95-.1 1.2.3 1.35 1.15.6 3.25 1.25 6.5 1.9 9.8.05.2.1.4.3.55.4-2.3.85-4.55 1.25-6.85.25-1.35.55-2.7.8-4.05.1-.5.25-.6.75-.6 1.1.05 2.25.05 3.35 0 .55 0 .7.2.75.7.55 3.1 1.15 6.2 1.75 9.3.1.5-.2 1.1.4 1.55.35-1.7.65-3.3 1-4.95.4-1.95.8-3.9 1.15-5.9.1-.55.25-.75.85-.7.95.05 1.9.05 2.85 0 .7-.05.85.15.6.8-.65 1.6-1 3.3-1.45 5-.8 2.7-1.4 5.45-2.15 8.15-.2.8-.45 1.6-.65 2.4-.1.4-.25.65-.75.6-.5-.05-1 0-1.55 0-2.15 0-2.15 0-2.55-2.15-.65-3.2-1.31-6.35-1.9-9.5zm46.75 12c-4.15 0-6.65-2.45-6.65-6.65 0-4.25 2.35-6.6 6.5-6.7 4.15-.1 6.6 2.55 6.75 6.6.15 3.9-2.7 6.95-6.6 6.75zm-2.4-6.3c0 .5.1 1.35.55 2.1.75 1.2 2.7 1.5 3.4.5 1.1-1.65 1.15-3.5.4-5.3-.35-.8-1.1-1.2-2-1.2-.9 0-1.55.45-1.95 1.3-.35.75-.4 1.5-.4 2.6zm15.6-5c.65-.8 1.25-1.5 2.1-1.6 1.1-.15 2.25-.45 3.35-.1 1.8.6 2.25 1.55 2.35 3.55.2 2.8.05 5.6.05 8.45 0 .45-.15.6-.6.55-.95-.05-1.9-.05-2.85 0-.55.05-.7-.15-.65-.7v-6.8c0-1.5-.5-2.1-1.55-2.15-1.25-.05-2.05.6-2.1 2.05-.1 2.25-.05 4.45-.05 6.7 0 .6-.05.95-.8.9-1.05-.1-2.5.45-3.1-.2-.55-.55-.15-2-.15-3.05 0-2.8.05-5.55 0-8.35 0-.8.2-1 .95-.9.55.05 1.1 0 1.65 0 1.4.05 1.4.05 1.4 1.65zm-31.8 7.05h1c.6-.05.95.05 1.2.7.4 1.05 2.7 1.3 3.5.45.5-.55.4-1.15-.35-1.45-.6-.25-1.3-.35-1.95-.6-1.45-.5-3-.7-4.15-2-1.35-1.55-1.25-3.75.45-5.05 1.45-1.1 3.15-1.3 4.9-1.05.8.1 1.65.3 2.45.55 1.3.4 2.25 1.3 2.5 2.6.05.35 0 .5-.35.5h-3.05c-.25 0-.45-.05-.55-.35-.45-.95-1.3-1-2.2-.85-.5.05-.9.35-1 .85-.1.6.3.9.8 1.05 1.6.5 3.25.85 4.75 1.55 2.25 1.05 2.85 3.35 1.35 5.35-1 1.3-2.4 1.8-3.95 2-2.1.3-4.05-.05-5.85-1.2-.9-.6-1.35-1.5-1.55-2.55-.1-.4.1-.5.4-.45.55-.05 1.1-.05 1.65-.05zm-4.25-4.55v7.65c0 .65-.15.85-.8.8-.9-.05-1.75-.05-2.65 0-.5 0-.7-.1-.7-.65 0-5.2.05-10.35 0-15.55 0-.6.25-.75.75-.7.8.05 1.65.05 2.45 0 .7-.05.95.15.9.9 0 2.45.05 5 .05 7.55zm-6.8 2.15v5.5c0 .55-.15.8-.75.75-1.1-.05-2.5.35-3.15-.15-.7-.55-.2-2.05-.2-3.1-.05-2.8 0-5.65-.05-8.45 0-.6.1-.85.8-.8.8.05 1.65.05 2.45 0 .7-.05.95.15.9.9-.05 1.75 0 3.55 0 5.35zm-2-10.65c2 0 2 0 2 1.95 0 1.35 0 1.35-1.3 1.35h-.5c-.75-.05-1.9.3-2.1-.15-.35-.8-.15-1.85-.15-2.8 0-.4.25-.4.55-.4.45.05 1 .05 1.5.05z" fill="#fff"/></svg>