<svg xmlns="http://www.w3.org/2000/svg" viewBox="0 0 88.21 87.89"><path d="M46.6.05c2.35.65 3.7 2.45 4.95 4.4 2.2 3.5 3.45 7.35 4.35 11.4.35 1.55.6 3.15.75 4.75 0 .05.05.15.1.15-.05.05-.05.1-.1.15-.45.15-.8.5-1.15.75-2.4 1.6-4.7 3.35-6.8 5.4-1.45 1.4-2.75 2.9-3.95 4.5-2.1 2.9-3.9 5.95-4.25 9.6-.15 1.55.15 3.05 1.1 4.35 1.25 1.65 2.95 2.4 5 2.55v.05c-1 .95-2.1 1.75-3.25 2.45-.35.25-.7.45-1.1.6-.2-.2-.3-.45-.4-.7-1.45-2.45-3.2-4.7-5.1-6.9-2.4-2.8-5.05-5.3-7.9-7.6-1-.8-2.05-1.65-3.05-2.5.25-.35.25-.8.4-1.2.95-3.35 2.2-6.65 3.65-9.8 2.35-5.15 5-10.15 7.95-15 1.25-2 2.55-4 4.2-5.65.8-.8 1.7-1.45 2.8-1.7.2-.05.4 0 .6-.1.35.05.75.05 1.2.05z" opacity=".4" fill="#fff"/><path d="M88.16 82.41h-8.15c-.15 0-.25 0-.25.2.15 2.45 1.7 3.95 4.15 3.55 1.2-.2 1.95-1 2.3-2.1.1-.3.25-.4.55-.4.35.05.75 0 1.15 0 .2 0 .25.05.2.25-.5 2-1.65 3.45-3.95 3.85-.9.15-1.8.15-2.7-.1-1.4-.4-2.35-1.35-2.9-2.7-.85-2-.85-4 0-6 .95-2.2 3-3.3 5.4-2.95 2.25.35 3.65 1.75 4.1 4.05.05.2 0 .4.15.6-.05.6-.05 1.15-.05 1.75zm-5.1-1.6h3c.2 0 .3-.05.25-.25-.35-2.35-2.1-3.3-4.05-2.9-1.25.25-2.35 1.7-2.4 2.95 0 .25.15.2.3.2h2.9zM25.75 33.55c1 .85 2.05 1.65 3.05 2.5 2.85 2.3 5.5 4.8 7.9 7.6 1.85 2.15 3.6 4.4 5.1 6.9.15.25.2.5.4.7.65 1.3 1.3 2.55 1.7 3.95.55 1.75.85 3.5.65 5.3-.35 2.7-2.15 4.3-4.6 4.9-2 .5-3.9.2-5.8-.45-2.75-.95-5.2-2.5-7.45-4.25-3.9-3-7.2-6.55-10.35-10.3-2.9-3.45-5.5-7.1-7.6-11.1-1.3-2.45-2.45-5-3-7.75-.3-1.45-.4-2.9.05-4.35.05-.1.05-.25.1-.35.7-1.9 2.05-2.65 4.05-2.3 1.95.35 3.7 1.15 5.4 2.1 3.55 1.9 6.85 4.3 10.05 6.75.1 0 .2.05.35.15zM56.61 20.9c.05-.05.05-.1.1-.15 2.85-1.95 5.75-3.8 8.8-5.5 3-1.65 6-3.15 9.3-4.15 1.45-.45 2.95-.7 4.5-.6.45 0 .85.1 1.25.2 1.4.45 2.2 1.6 2.25 3.2.05 1.65-.45 3.15-1.1 4.65-1.3 3-3.05 5.75-5.05 8.35-5 6.55-10.85 12.3-17.8 16.85-2.55 1.7-5.26 3.1-8.26 3.9-1.3.35-2.65.55-4 .45v-.05c.15-.05.25-.2.35-.3 1.9-1.8 3.5-3.9 4.8-6.15 2.1-3.6 3.41-7.55 4.31-11.6.65-3 .85-6.05.55-9.1zM13.2 84.91c.4-1.2.8-2.35 1.2-3.45.55-1.6 1.15-3.25 1.7-4.85.1-.25.2-.35.45-.35h1.55c-.55 1.45-1.1 2.85-1.6 4.25-.85 2.2-1.65 4.45-2.5 6.65-.1.25-.2.35-.45.3-.4-.05-.9.1-1.2-.1-.25-.15-.3-.7-.45-1.05-.9-2.5-1.8-4.95-2.7-7.45-.05-.1-.1-.2-.15-.35-.25.65-.45 1.2-.65 1.75-.85 2.25-1.65 4.55-2.5 6.85-.1.25-.2.35-.5.35-.4-.05-.95.15-1.25-.1-.3-.2-.3-.75-.45-1.15-1.2-3.2-2.35-6.4-3.55-9.6-.05-.1-.1-.25-.15-.4h1.7c.25 0 .25.2.3.35.95 2.65 1.9 5.25 2.85 7.9.05.15.1.25.2.5.5-1.35.95-2.6 1.4-3.9.55-1.5 1.1-3 1.6-4.5.1-.25.2-.35.5-.35.4.05.8 0 1.15 0 .25 0 .35.05.45.3.95 2.7 1.9 5.4 2.9 8.1.05.1.05.15.15.3zm36.25 1.3c-1 1.15-2.2 1.65-3.6 1.65-1.75 0-3.1-.85-3.85-2.4-1.1-2.25-1.15-4.55-.15-6.85 1.4-3.35 5.45-3.2 7.4-1.3l.15.15c.15-.15.1-.25.1-.4v-5.15c0-.3.05-.4.35-.35h1.1c.25 0 .3.1.3.3v12.2c0 1.05 0 2.05.1 3.1.05.25-.05.35-.3.35-.35 0-.75-.05-1.15 0-.3 0-.35-.1-.35-.35-.05-.2-.1-.55-.1-.95zM43 81.86c.05.95.15 1.95.55 2.9.35.7.85 1.25 1.6 1.45 1.5.4 3.05-.3 3.7-1.75.35-.75.5-1.5.5-2.3.05-1.1-.05-2.15-.65-3.1-.65-1.1-1.65-1.5-2.85-1.45-1.2.05-2 .7-2.45 1.8-.3.75-.4 1.55-.4 2.45zm31.61-4.3v-5.55c0-.35.1-.4.4-.4.35.05.7 0 1.1 0 .2 0 .3.05.25.25v12.45c0 .95 0 1.9.1 2.85.05.3 0 .45-.4.45-.35-.05-.7-.05-1.05 0-.3 0-.35-.1-.35-.35 0-.3-.05-.6-.05-.9-.05-.05-.1-.05-.1-.1-.1.15-.15.3-.3.4-1.55 1.5-4.2 1.65-5.85.35-1.05-.85-1.55-2-1.85-3.25-.35-1.65-.25-3.3.35-4.9 1.45-3.6 5.55-3.4 7.4-1.6.15.1.25.15.35.3zm0 4.45c0-.9-.05-1.75-.45-2.6-.55-1.2-1.5-1.8-2.85-1.8-1.25 0-2.2.6-2.65 1.75-.75 1.9-.65 3.8.25 5.6.3.65.85 1.05 1.55 1.25 1.55.35 3.1-.4 3.7-1.9.3-.75.4-1.5.45-2.3zm-45.11-.05c0-1.6.4-3.1 1.5-4.35 1.05-1.2 2.45-1.65 4-1.6 3.15.1 4.8 2.55 5.05 5.2.15 1.5-.1 2.95-.9 4.25-1.1 1.8-2.75 2.55-4.85 2.4-2.1-.15-3.55-1.3-4.35-3.25-.3-.85-.45-1.75-.45-2.65zm1.85.25c0 .7.2 1.7.75 2.55 1.3 2.05 4.2 2.05 5.4-.05 1.05-1.85 1.05-3.75-.05-5.55-1.2-2.05-4.05-2.05-5.35-.05-.5.85-.75 1.8-.75 3.1zm-13.5-.35c.05-1.75.5-3.3 1.8-4.6 1.95-1.95 6.45-2 8.1 1.45 1 2.1 1.05 4.25 0 6.35-1 2.05-2.75 2.9-5 2.7-2.15-.15-3.55-1.3-4.4-3.25-.35-.8-.5-1.7-.5-2.65zm5.15-4.3c-1 0-1.9.5-2.5 1.45-1.15 1.9-1.15 3.85 0 5.75 1.25 2.05 4.1 2 5.35-.05 1.05-1.75 1.05-3.6.1-5.45-.55-1.1-1.55-1.7-2.95-1.7zm30.4 6.65c.3 0 .6-.05.8.05.25.1.1.45.2.65.2.55.5.9 1.05 1.1 1.05.4 2.1.45 3.16.05.5-.2.85-.5 1.05-1 .35-.85.05-1.6-.8-2.05-.65-.3-1.36-.45-2.06-.6-.8-.2-1.65-.4-2.4-.75-2.15-1-1.85-3.9-.25-4.9.95-.6 2-.75 3.1-.75.76 0 1.46.1 2.16.4 1.2.55 1.75 1.5 1.85 2.75 0 .2-.05.25-.25.25h-.65c-.25 0-.55.05-.8 0-.3-.1-.15-.45-.25-.7-.2-.4-.55-.7-.95-.85-.86-.3-1.76-.3-2.61-.05-.2.05-.35.15-.55.25-.8.55-.7 1.65.15 2.05.65.35 1.35.45 2.05.65.66.2 1.36.35 2.01.55 1.15.35 1.9 1.1 2.1 2.3.2 1.2-.15 2.3-1.15 3.1-1.25 1-2.75 1.25-4.31 1.1-1.1-.1-2.15-.5-2.9-1.35-.5-.55-.7-1.25-.75-2 0-.2.05-.3.3-.3.25.05.45.05.7.05zm11.41-2.35v5.25c0 .3-.05.35-.35.35-.35 0-.7-.05-1.05 0-.35.05-.35-.15-.3-.4v-10.5c0-.25.1-.35.35-.35.35 0 .7.05 1.05 0 .3 0 .35.1.35.35-.05 1.75-.05 3.55-.05 5.3zm-1.85-9.4c0-1 0-1 1-1 .95 0 .95 0 .95 1 0 .35.15.75-.05.95-.2.2-.65.05-.95.05-.95 0-.95 0-.95-.95v-.05z" fill="#fff"/></svg>