<svg width="78" height="91" fill="none" xmlns="http://www.w3.org/2000/svg"><path d="M76.122 56.43c-6.179-4.678-13.064-7.767-20.301-9.268 8.826-3.53 15.181-12.18 15.181-22.242C71.002 11.768 60.234 1 47.082 1c-13.15 0-23.92 10.768-23.92 23.92 0 9.885 6.003 18.359 14.565 21.978a42.93 42.93 0 00-14.388 5.295C5.775 62.52 1.803 81.498 1.01 87.5c-.089.883.529 1.766 1.412 1.766.882.088 1.588-.53 1.677-1.413.706-5.56 4.325-23.39 20.742-32.922 15.005-8.827 34.688-7.15 49.251 4.06.265.176.618.353.971.353.442 0 .883-.177 1.236-.618.706-.706.53-1.765-.176-2.295zM26.34 24.92c0-11.386 9.268-20.742 20.743-20.742 11.474 0 20.742 9.267 20.742 20.742 0 11.386-9.268 20.742-20.742 20.742-11.475 0-20.743-9.356-20.743-20.742z" fill="url(#paint0_linear)" stroke="url(#paint1_linear)" stroke-width="2" stroke-miterlimit="10"/><defs><linearGradient id="paint0_linear" x1="38.874" y1="1" x2="38.874" y2="89.273" gradientUnits="userSpaceOnUse"><stop stop-color="#F16122"/><stop offset="1" stop-color="#FEBD33"/></linearGradient><linearGradient id="paint1_linear" x1="38.874" y1="1" x2="38.874" y2="89.273" gradientUnits="userSpaceOnUse"><stop stop-color="#F16122"/><stop offset="1" stop-color="#FEBD33"/></linearGradient></defs></svg>